M48
; DRILL file {KiCad 8.0.5} date 2024-11-10T21:07:10+0700
; FORMAT={-:-/ absolute / inch / decimal}
; #@! TF.CreationDate,2024-11-10T21:07:10+07:00
; #@! TF.GenerationSoftware,Kicad,Pcbnew,8.0.5
; #@! TF.FileFunction,Plated,1,2,PTH
FMAT,2
INCH
; #@! TA.AperFunction,Plated,PTH,ViaDrill
T1C0.0118
; #@! TA.AperFunction,Plated,PTH,ViaDrill
T2C0.0157
; #@! TA.AperFunction,Plated,PTH,ComponentDrill
T3C0.0394
%
G90
G05
T1
X5.284Y-3.53
X5.426Y-3.49
X5.426Y-3.528
X5.49Y-4.033
X5.562Y-4.124
X5.5655Y-3.542
X5.6054Y-3.3615
X5.6409Y-3.9698
X5.8082Y-3.6096
X5.8495Y-3.6627
X5.8574Y-3.8064
X5.873Y-4.924
X5.9047Y-3.8202
X5.956Y-4.211
X5.9578Y-3.8733
X5.9873Y-3.7415
X6.001Y-4.212
X6.056Y-4.042
X6.122Y-4.186
X6.135Y-3.5761
X6.166Y-4.232
X6.199Y-3.808
X6.206Y-3.359
X6.208Y-4.06
X6.212Y-4.014
X6.218Y-4.136
X6.2204Y-3.945
X6.2216Y-3.6726
X6.24Y-4.104
X6.2629Y-3.1785
X6.2629Y-3.2356
X6.2631Y-3.206
X6.267Y-3.349
X6.32Y-3.36
X6.322Y-3.4836
X6.322Y-3.5269
X6.322Y-3.9442
X6.322Y-3.9875
X6.322Y-4.054
X6.358Y-4.842
X6.36Y-4.054
X6.374Y-4.706
X6.388Y-4.1
X6.396Y-4.842
X6.4086Y-3.943
X6.41Y-4.008
X6.544Y-4.317
X6.57Y-4.004
X6.578Y-4.29
X6.584Y-4.098
X6.6Y-3.972
X6.914Y-3.5414
X6.926Y-3.986
X6.932Y-4.26
X6.94Y-3.564
X6.975Y-3.544
X6.976Y-4.26
X7.042Y-3.183
X7.082Y-3.622
X7.121Y-3.181
X7.16Y-3.622
X7.262Y-5.052
X7.262Y-5.092
X7.266Y-5.006
X7.272Y-4.8619
X7.272Y-4.9
X7.28Y-3.634
X7.306Y-5.112
X7.35Y-4.8641
X7.35Y-4.902
X7.362Y-4.946
T2
X5.294Y-3.632
X5.296Y-3.208
X5.296Y-3.788
X5.312Y-4.834
X5.378Y-4.834
X5.41Y-3.63
X5.41Y-3.788
X5.422Y-3.918
X5.422Y-3.972
X5.432Y-3.158
X5.432Y-3.218
X5.49Y-4.586
X5.508Y-4.74
X5.542Y-4.272
X5.544Y-4.214
X5.544Y-4.388
X5.58Y-4.518
X5.584Y-4.74
X5.588Y-4.386
X5.718Y-3.686
X5.756Y-3.212
X5.774Y-4.448
X5.776Y-4.394
X5.922Y-4.674
X5.974Y-4.624
X5.998Y-4.328
X5.998Y-4.376
X6.02Y-3.156
X6.056Y-4.616
X6.0561Y-3.9889
X6.058Y-4.58
X6.0621Y-3.8064
X6.066Y-3.156
X6.15Y-3.066
X6.184Y-3.106
X6.244Y-4.402
X6.244Y-4.45
X6.244Y-4.5
X6.31Y-4.58
X6.31Y-4.616
X6.374Y-4.476
X6.374Y-4.566
X6.496Y-3.79
X6.496Y-3.844
X6.496Y-4.476
X6.496Y-4.566
X6.5701Y-3.7269
X6.58Y-3.182
X6.582Y-3.294
X6.6021Y-3.6949
X6.647Y-4.289
X6.65Y-3.182
X6.65Y-3.294
X6.712Y-3.182
X6.712Y-3.296
X6.713Y-4.288
X6.808Y-3.618
X6.886Y-3.614
X6.99Y-3.294
X7.166Y-3.294
X7.278Y-3.194
X7.356Y-3.194
X7.356Y-3.624
T3
X5.34Y-3.8635
X5.34Y-3.9635
X5.34Y-4.0635
X5.342Y-3.28
X5.342Y-3.38
X5.342Y-3.48
X5.3437Y-4.6691
X5.3437Y-4.7691
X5.81Y-4.7744
X5.81Y-4.8744
X5.81Y-4.9744
X5.81Y-5.0744
X6.0464Y-3.5111
X6.0464Y-3.6111
X6.0464Y-3.7111
M30
