%TF.GenerationSoftware,KiCad,Pcbnew,8.0.5*%
%TF.CreationDate,2024-11-10T21:06:56+07:00*%
%TF.ProjectId,Project_241,50726f6a-6563-4745-9f32-34312e6b6963,rev?*%
%TF.SameCoordinates,Original*%
%TF.FileFunction,Copper,L2,Bot*%
%TF.FilePolarity,Positive*%
%FSLAX46Y46*%
G04 Gerber Fmt 4.6, Leading zero omitted, Abs format (unit mm)*
G04 Created by KiCad (PCBNEW 8.0.5) date 2024-11-10 21:06:56*
%MOMM*%
%LPD*%
G01*
G04 APERTURE LIST*
G04 Aperture macros list*
%AMRoundRect*
0 Rectangle with rounded corners*
0 $1 Rounding radius*
0 $2 $3 $4 $5 $6 $7 $8 $9 X,Y pos of 4 corners*
0 Add a 4 corners polygon primitive as box body*
4,1,4,$2,$3,$4,$5,$6,$7,$8,$9,$2,$3,0*
0 Add four circle primitives for the rounded corners*
1,1,$1+$1,$2,$3*
1,1,$1+$1,$4,$5*
1,1,$1+$1,$6,$7*
1,1,$1+$1,$8,$9*
0 Add four rect primitives between the rounded corners*
20,1,$1+$1,$2,$3,$4,$5,0*
20,1,$1+$1,$4,$5,$6,$7,0*
20,1,$1+$1,$6,$7,$8,$9,0*
20,1,$1+$1,$8,$9,$2,$3,0*%
G04 Aperture macros list end*
%TA.AperFunction,ComponentPad*%
%ADD10R,1.700000X1.700000*%
%TD*%
%TA.AperFunction,ComponentPad*%
%ADD11O,1.700000X1.700000*%
%TD*%
%TA.AperFunction,ComponentPad*%
%ADD12RoundRect,0.425000X-0.550000X-0.425000X0.550000X-0.425000X0.550000X0.425000X-0.550000X0.425000X0*%
%TD*%
%TA.AperFunction,ComponentPad*%
%ADD13O,1.950000X1.700000*%
%TD*%
%TA.AperFunction,ComponentPad*%
%ADD14C,1.700000*%
%TD*%
%TA.AperFunction,ViaPad*%
%ADD15C,0.600000*%
%TD*%
%TA.AperFunction,ViaPad*%
%ADD16C,0.800000*%
%TD*%
%TA.AperFunction,Conductor*%
%ADD17C,0.800100*%
%TD*%
%TA.AperFunction,Conductor*%
%ADD18C,0.200000*%
%TD*%
G04 APERTURE END LIST*
D10*
%TO.P,J1,1,Pin_1*%
%TO.N,/MCU/DEBUG_TX*%
X153578386Y-89183014D03*
D11*
%TO.P,J1,2,Pin_2*%
%TO.N,/MCU/DEBUG_RX*%
X153578386Y-91723014D03*
%TO.P,J1,3,Pin_3*%
%TO.N,GND*%
X153578386Y-94263014D03*
%TD*%
D12*
%TO.P,J5,1,Pin_1*%
%TO.N,VDD*%
X135686800Y-83312000D03*
D13*
%TO.P,J5,2,Pin_2*%
%TO.N,GND*%
X135686800Y-85852000D03*
%TO.P,J5,3,Pin_3*%
%TO.N,Net-(J5-Pin_3)*%
X135686800Y-88391999D03*
%TD*%
D12*
%TO.P,J2,1,Pin_1*%
%TO.N,VDD*%
X135636000Y-98132600D03*
D13*
%TO.P,J2,2,Pin_2*%
%TO.N,GND*%
X135636000Y-100672600D03*
%TO.P,J2,3,Pin_3*%
%TO.N,Net-(J2-Pin_3)*%
X135636000Y-103212599D03*
%TD*%
D10*
%TO.P,J6,1,Pin_1*%
%TO.N,Net-(J6-Pin_1)*%
X135730401Y-118596399D03*
D14*
%TO.P,J6,2,Pin_2*%
%TO.N,GND*%
X135730401Y-121136401D03*
%TD*%
D10*
%TO.P,J4,1,Pin_1*%
%TO.N,VDD*%
X147574000Y-121269600D03*
D11*
%TO.P,J4,2,Pin_2*%
%TO.N,/MCU/SWDIO*%
X147574000Y-123809600D03*
%TO.P,J4,3,Pin_3*%
%TO.N,/MCU/SWCLK*%
X147574000Y-126349599D03*
%TO.P,J4,4,Pin_4*%
%TO.N,GND*%
X147574000Y-128889600D03*
%TD*%
D15*
%TO.N,GND*%
X143278386Y-100833014D03*
X142378386Y-85383014D03*
X151328386Y-98383014D03*
X149978386Y-97033014D03*
X148778386Y-96683014D03*
X152078386Y-95033014D03*
X147528386Y-91683014D03*
X148578386Y-93033014D03*
D16*
%TO.N,VDD*%
X153823662Y-117246400D03*
X153873200Y-116332000D03*
X160274000Y-117246400D03*
X160274000Y-116332000D03*
%TO.N,GND*%
X153823986Y-101319014D03*
X139903200Y-120396000D03*
X152349200Y-111150400D03*
D15*
X160578386Y-100183014D03*
X160578386Y-89583014D03*
D16*
X152349200Y-109931200D03*
D15*
X152425400Y-106984800D03*
D16*
X158597600Y-113030000D03*
X141935200Y-111404400D03*
X161899600Y-113690400D03*
D15*
X167233600Y-104089200D03*
D16*
X150418800Y-118719600D03*
X172923200Y-91897200D03*
X164998400Y-113690400D03*
D15*
X185572400Y-129844800D03*
D16*
X168833800Y-108940600D03*
X137718800Y-100888800D03*
D15*
X184708800Y-123493033D03*
D16*
X140817600Y-111455200D03*
D15*
X162778386Y-100152200D03*
D16*
X170484800Y-80822800D03*
D15*
X162255200Y-104140000D03*
D16*
X137718800Y-99517200D03*
X146710400Y-111607600D03*
D15*
X137820400Y-89611200D03*
D16*
X146202400Y-81584800D03*
X157073600Y-78892400D03*
D15*
X186690000Y-124510800D03*
X153822400Y-102666800D03*
D16*
X164998400Y-96266000D03*
D15*
X149174200Y-125069600D03*
X137820400Y-88646000D03*
D16*
X166879586Y-94664214D03*
X137414000Y-96215200D03*
D15*
X181864000Y-91998800D03*
D16*
X137972800Y-81737200D03*
X170510200Y-108915200D03*
X137414000Y-92202000D03*
X170484800Y-83718400D03*
X186842400Y-81127600D03*
X174904400Y-91795600D03*
D15*
X161899600Y-119532400D03*
X158028386Y-93283014D03*
D16*
X184861200Y-81127600D03*
D15*
X179882800Y-92000000D03*
X186994800Y-125628400D03*
D16*
X158597600Y-114300000D03*
X140817600Y-107035600D03*
D15*
X184556400Y-127152400D03*
D16*
X186842400Y-92049600D03*
D15*
X184454800Y-129336800D03*
D16*
X167182800Y-83667600D03*
X134467600Y-92252800D03*
X168910000Y-80822800D03*
D15*
X160578386Y-101283014D03*
D16*
X140766800Y-108508800D03*
X141732000Y-114757200D03*
X168910000Y-83667600D03*
X164998400Y-97637600D03*
D15*
X157998600Y-100203228D03*
D16*
X153978386Y-96683014D03*
X182016400Y-83667600D03*
X152908000Y-80162400D03*
X145237200Y-93624400D03*
X164998400Y-115976400D03*
X139446000Y-116484400D03*
D15*
X151282400Y-106959400D03*
D16*
X134518400Y-96215200D03*
D15*
X156616400Y-107492800D03*
X157454600Y-96723200D03*
X159181800Y-85064600D03*
D16*
X156210000Y-77876400D03*
X134518400Y-81483200D03*
X146659600Y-112979200D03*
X161899600Y-115976400D03*
X137972800Y-80213200D03*
D15*
X160578386Y-88483014D03*
X186690000Y-123548038D03*
X155498800Y-106324400D03*
X162814000Y-101803200D03*
X167640000Y-100888800D03*
D16*
X167692386Y-93851414D03*
X177546000Y-83667600D03*
D15*
X184708800Y-124460000D03*
X155828386Y-90833014D03*
X139446000Y-102438200D03*
X134213600Y-89662000D03*
D16*
X141833600Y-120396000D03*
X158597600Y-111810800D03*
X151739600Y-117449600D03*
X167132000Y-80822800D03*
X134924800Y-122783600D03*
X136601200Y-122783600D03*
X154076400Y-80162400D03*
D15*
X184454800Y-128320800D03*
%TO.N,/MCU/NRST*%
X166878000Y-101701600D03*
X175920400Y-101244400D03*
%TO.N,/MCU/DEBUG_LED*%
X161493200Y-122986800D03*
X166217600Y-109651800D03*
%TO.N,/MCU/WIND_SPEED*%
X157937200Y-105054400D03*
X141274800Y-104749600D03*
%TO.N,/MCU/SCL*%
X157632400Y-85318600D03*
X160578800Y-102971600D03*
%TO.N,/MCU/SDA*%
X161544000Y-102971600D03*
X160528000Y-85344000D03*
%TO.N,/MCU/RAIN_GAUSE*%
X141364200Y-89966800D03*
X158496000Y-104241600D03*
%TO.N,/LORA/DIO1*%
X178866800Y-80848200D03*
X175615600Y-89951000D03*
%TO.N,/LORA/NSS*%
X184912000Y-92303600D03*
X177165000Y-90017600D03*
%TO.N,unconnected-(U5-DAP-Pad7)*%
X159078386Y-80733014D03*
X159078386Y-82183014D03*
X159082099Y-81432400D03*
%TO.N,/MCU/LED_PC14*%
X162458400Y-122986800D03*
X167081200Y-108966000D03*
%TO.N,/MCU/GPS_RX*%
X157683200Y-103124000D03*
X176072800Y-108204000D03*
%TO.N,/MCU/GPS_TX*%
X177190400Y-108204000D03*
X157784800Y-101955600D03*
%TO.N,/LORA/LORA_RESET*%
X180873400Y-80797400D03*
X176276000Y-90525600D03*
%TD*%
D17*
%TO.N,VDD*%
X153873200Y-116332000D02*
X160274000Y-116332000D01*
D18*
%TO.N,/MCU/NRST*%
X167894000Y-99568000D02*
X175056800Y-99568000D01*
X166878000Y-101701600D02*
X166878000Y-100584000D01*
X175056800Y-99568000D02*
X175920400Y-100431600D01*
X175920400Y-100431600D02*
X175920400Y-101244400D01*
X166878000Y-100584000D02*
X167894000Y-99568000D01*
%TO.N,/MCU/DEBUG_LED*%
X166217600Y-116636800D02*
X161493200Y-121361200D01*
X166217600Y-109651800D02*
X166217600Y-116636800D01*
X161493200Y-121361200D02*
X161493200Y-122986800D01*
%TO.N,/MCU/WIND_SPEED*%
X157937200Y-105054400D02*
X141579600Y-105054400D01*
X141579600Y-105054400D02*
X141274800Y-104749600D01*
%TO.N,/MCU/SCL*%
X159678386Y-87364586D02*
X159678386Y-102071186D01*
X159678386Y-102071186D02*
X160578800Y-102971600D01*
X157632400Y-85318600D02*
X159678386Y-87364586D01*
%TO.N,/MCU/SDA*%
X161544000Y-86360000D02*
X160528000Y-85344000D01*
X161544000Y-102971600D02*
X161544000Y-86360000D01*
%TO.N,/MCU/RAIN_GAUSE*%
X144936972Y-104241600D02*
X158496000Y-104241600D01*
X141376400Y-89979000D02*
X141376400Y-100681028D01*
X141376400Y-100681028D02*
X144936972Y-104241600D01*
X141364200Y-89966800D02*
X141376400Y-89979000D01*
%TO.N,/LORA/DIO1*%
X178866800Y-84074000D02*
X175615600Y-87325200D01*
X175615600Y-87325200D02*
X175615600Y-89951000D01*
X178866800Y-80848200D02*
X178866800Y-84074000D01*
%TO.N,/LORA/NSS*%
X184912000Y-91592400D02*
X184912000Y-92303600D01*
X178079400Y-90932000D02*
X184251600Y-90932000D01*
X184251600Y-90932000D02*
X184912000Y-91592400D01*
X177165000Y-90017600D02*
X178079400Y-90932000D01*
%TO.N,/MCU/LED_PC14*%
X162458400Y-122986800D02*
X162458400Y-121716800D01*
X167081200Y-117094000D02*
X167081200Y-108966000D01*
X162458400Y-121716800D02*
X167081200Y-117094000D01*
%TO.N,/MCU/GPS_RX*%
X176072800Y-107746800D02*
X175564800Y-107238800D01*
X176072800Y-108204000D02*
X176072800Y-107746800D01*
X162712400Y-107238800D02*
X158597600Y-103124000D01*
X175564800Y-107238800D02*
X162712400Y-107238800D01*
X158597600Y-103124000D02*
X157683200Y-103124000D01*
%TO.N,/MCU/GPS_TX*%
X163017200Y-106426000D02*
X176276000Y-106426000D01*
X157784800Y-101955600D02*
X158546800Y-101955600D01*
X158546800Y-101955600D02*
X163017200Y-106426000D01*
X177190400Y-107340400D02*
X177190400Y-108204000D01*
X176276000Y-106426000D02*
X177190400Y-107340400D01*
%TO.N,/LORA/LORA_RESET*%
X176276000Y-88798400D02*
X176276000Y-90525600D01*
X180873400Y-84201000D02*
X176276000Y-88798400D01*
X180873400Y-80797400D02*
X180873400Y-84201000D01*
%TD*%
%TA.AperFunction,Conductor*%
%TO.N,GND*%
G36*
X187297018Y-76869616D02*
G01*
X187497161Y-76883930D01*
X187514663Y-76886447D01*
X187706397Y-76928155D01*
X187723355Y-76933134D01*
X187907209Y-77001709D01*
X187923301Y-77009059D01*
X188095504Y-77103088D01*
X188110384Y-77112649D01*
X188267467Y-77230241D01*
X188280837Y-77241827D01*
X188419572Y-77380562D01*
X188431158Y-77393932D01*
X188548746Y-77551010D01*
X188558311Y-77565895D01*
X188652340Y-77738098D01*
X188659690Y-77754190D01*
X188728262Y-77938036D01*
X188733246Y-77955012D01*
X188774951Y-78146731D01*
X188777469Y-78164242D01*
X188791784Y-78364380D01*
X188792100Y-78373227D01*
X188792100Y-129364372D01*
X188791784Y-129373219D01*
X188777469Y-129573357D01*
X188774951Y-129590868D01*
X188733246Y-129782587D01*
X188728262Y-129799563D01*
X188659690Y-129983409D01*
X188652340Y-129999501D01*
X188558311Y-130171704D01*
X188548746Y-130186589D01*
X188431158Y-130343667D01*
X188419572Y-130357037D01*
X188280837Y-130495772D01*
X188267467Y-130507358D01*
X188110389Y-130624946D01*
X188095504Y-130634511D01*
X187923301Y-130728540D01*
X187907209Y-130735890D01*
X187723363Y-130804462D01*
X187706387Y-130809446D01*
X187514668Y-130851151D01*
X187497157Y-130853669D01*
X187316379Y-130866599D01*
X187297017Y-130867984D01*
X187288172Y-130868300D01*
X133297028Y-130868300D01*
X133288182Y-130867984D01*
X133266222Y-130866413D01*
X133088042Y-130853669D01*
X133070531Y-130851151D01*
X132878812Y-130809446D01*
X132861836Y-130804462D01*
X132677990Y-130735890D01*
X132661898Y-130728540D01*
X132489695Y-130634511D01*
X132474810Y-130624946D01*
X132317732Y-130507358D01*
X132304362Y-130495772D01*
X132165627Y-130357037D01*
X132154041Y-130343667D01*
X132036449Y-130186584D01*
X132026888Y-130171704D01*
X131932859Y-129999501D01*
X131925509Y-129983409D01*
X131864691Y-129820351D01*
X131856934Y-129799555D01*
X131851955Y-129782597D01*
X131810247Y-129590863D01*
X131807730Y-129573356D01*
X131793416Y-129373218D01*
X131793100Y-129364372D01*
X131793100Y-123809599D01*
X146218341Y-123809599D01*
X146218341Y-123809600D01*
X146238936Y-124045003D01*
X146238938Y-124045013D01*
X146300094Y-124273255D01*
X146300096Y-124273259D01*
X146300097Y-124273263D01*
X146399965Y-124487430D01*
X146399967Y-124487434D01*
X146535501Y-124680995D01*
X146535506Y-124681002D01*
X146702597Y-124848093D01*
X146702603Y-124848098D01*
X146888157Y-124978024D01*
X146931782Y-125032601D01*
X146938976Y-125102099D01*
X146907453Y-125164454D01*
X146888158Y-125181174D01*
X146702594Y-125311107D01*
X146535505Y-125478196D01*
X146399965Y-125671768D01*
X146399964Y-125671770D01*
X146300098Y-125885934D01*
X146300094Y-125885943D01*
X146238938Y-126114185D01*
X146238936Y-126114195D01*
X146218341Y-126349598D01*
X146218341Y-126349599D01*
X146238936Y-126585002D01*
X146238938Y-126585012D01*
X146300094Y-126813254D01*
X146300096Y-126813258D01*
X146300097Y-126813262D01*
X146399965Y-127027429D01*
X146399967Y-127027433D01*
X146508281Y-127182120D01*
X146535505Y-127221000D01*
X146702599Y-127388094D01*
X146799384Y-127455864D01*
X146896165Y-127523631D01*
X146896167Y-127523632D01*
X146896170Y-127523634D01*
X147110337Y-127623502D01*
X147338592Y-127684662D01*
X147526918Y-127701138D01*
X147573999Y-127705258D01*
X147574000Y-127705258D01*
X147574001Y-127705258D01*
X147613234Y-127701825D01*
X147809408Y-127684662D01*
X148037663Y-127623502D01*
X148251830Y-127523634D01*
X148445401Y-127388094D01*
X148612495Y-127221000D01*
X148748035Y-127027429D01*
X148847903Y-126813262D01*
X148909063Y-126585007D01*
X148929659Y-126349599D01*
X148909063Y-126114191D01*
X148847903Y-125885936D01*
X148748035Y-125671770D01*
X148612495Y-125478198D01*
X148612494Y-125478196D01*
X148445402Y-125311105D01*
X148445401Y-125311104D01*
X148259842Y-125181174D01*
X148216218Y-125126597D01*
X148209025Y-125057098D01*
X148240547Y-124994744D01*
X148259843Y-124978024D01*
X148445401Y-124848095D01*
X148612495Y-124681001D01*
X148748035Y-124487430D01*
X148847903Y-124273263D01*
X148909063Y-124045008D01*
X148929659Y-123809600D01*
X148909063Y-123574192D01*
X148847903Y-123345937D01*
X148748035Y-123131771D01*
X148646523Y-122986796D01*
X160687635Y-122986796D01*
X160687635Y-122986803D01*
X160707830Y-123166049D01*
X160707831Y-123166054D01*
X160767411Y-123336323D01*
X160863384Y-123489062D01*
X160990938Y-123616616D01*
X161143678Y-123712589D01*
X161313945Y-123772168D01*
X161313950Y-123772169D01*
X161493196Y-123792365D01*
X161493200Y-123792365D01*
X161493204Y-123792365D01*
X161672449Y-123772169D01*
X161672452Y-123772168D01*
X161672455Y-123772168D01*
X161842722Y-123712589D01*
X161909827Y-123670424D01*
X161977064Y-123651423D01*
X162041773Y-123670424D01*
X162108875Y-123712588D01*
X162279145Y-123772168D01*
X162279150Y-123772169D01*
X162458396Y-123792365D01*
X162458400Y-123792365D01*
X162458404Y-123792365D01*
X162637649Y-123772169D01*
X162637652Y-123772168D01*
X162637655Y-123772168D01*
X162807922Y-123712589D01*
X162960662Y-123616616D01*
X163088216Y-123489062D01*
X163184189Y-123336322D01*
X163243768Y-123166055D01*
X163263965Y-122986800D01*
X163258489Y-122938200D01*
X163243769Y-122807550D01*
X163243768Y-122807545D01*
X163231017Y-122771105D01*
X163184189Y-122637278D01*
X163173395Y-122620100D01*
X163088213Y-122484534D01*
X163085950Y-122481696D01*
X163085059Y-122479515D01*
X163084511Y-122478642D01*
X163084664Y-122478545D01*
X163059544Y-122417009D01*
X163058900Y-122404387D01*
X163058900Y-122016896D01*
X163078585Y-121949857D01*
X163095214Y-121929220D01*
X167439706Y-117584727D01*
X167439711Y-117584724D01*
X167449914Y-117574520D01*
X167449916Y-117574520D01*
X167561720Y-117462716D01*
X167640777Y-117325784D01*
X167675032Y-117197942D01*
X167681700Y-117173058D01*
X167681700Y-117014943D01*
X167681700Y-109548412D01*
X167701385Y-109481373D01*
X167708755Y-109471097D01*
X167711010Y-109468267D01*
X167711016Y-109468262D01*
X167806989Y-109315522D01*
X167866568Y-109145255D01*
X167866569Y-109145249D01*
X167886765Y-108966003D01*
X167886765Y-108965996D01*
X167866569Y-108786750D01*
X167866568Y-108786745D01*
X167806988Y-108616476D01*
X167711015Y-108463737D01*
X167583462Y-108336184D01*
X167430723Y-108240211D01*
X167260454Y-108180631D01*
X167260449Y-108180630D01*
X167081204Y-108160435D01*
X167081196Y-108160435D01*
X166901950Y-108180630D01*
X166901945Y-108180631D01*
X166731676Y-108240211D01*
X166578937Y-108336184D01*
X166451384Y-108463737D01*
X166355410Y-108616478D01*
X166303106Y-108765957D01*
X166262384Y-108822734D01*
X166199948Y-108848223D01*
X166038349Y-108866430D01*
X166038345Y-108866431D01*
X165868076Y-108926011D01*
X165715337Y-109021984D01*
X165587784Y-109149537D01*
X165491811Y-109302276D01*
X165432231Y-109472545D01*
X165432230Y-109472550D01*
X165412035Y-109651796D01*
X165412035Y-109651803D01*
X165432230Y-109831049D01*
X165432231Y-109831054D01*
X165491811Y-110001323D01*
X165587785Y-110154063D01*
X165590045Y-110156897D01*
X165590934Y-110159075D01*
X165591489Y-110159958D01*
X165591334Y-110160055D01*
X165616455Y-110221583D01*
X165617100Y-110234212D01*
X165617100Y-116336702D01*
X165597415Y-116403741D01*
X165580781Y-116424383D01*
X161012681Y-120992482D01*
X161012679Y-120992485D01*
X160962561Y-121079294D01*
X160962559Y-121079296D01*
X160933625Y-121129409D01*
X160933624Y-121129410D01*
X160933623Y-121129415D01*
X160892699Y-121282143D01*
X160892699Y-121282145D01*
X160892699Y-121450246D01*
X160892700Y-121450259D01*
X160892700Y-122404387D01*
X160873015Y-122471426D01*
X160865650Y-122481696D01*
X160863386Y-122484534D01*
X160767411Y-122637276D01*
X160707831Y-122807545D01*
X160707830Y-122807550D01*
X160687635Y-122986796D01*
X148646523Y-122986796D01*
X148612495Y-122938199D01*
X148490567Y-122816271D01*
X148457084Y-122754951D01*
X148462068Y-122685259D01*
X148503939Y-122629325D01*
X148534915Y-122612410D01*
X148666331Y-122563396D01*
X148781546Y-122477146D01*
X148867796Y-122361931D01*
X148918091Y-122227083D01*
X148924500Y-122167473D01*
X148924499Y-120371728D01*
X148918091Y-120312117D01*
X148867796Y-120177269D01*
X148867795Y-120177268D01*
X148867793Y-120177264D01*
X148781547Y-120062055D01*
X148781544Y-120062052D01*
X148666335Y-119975806D01*
X148666328Y-119975802D01*
X148531482Y-119925508D01*
X148531483Y-119925508D01*
X148471883Y-119919101D01*
X148471881Y-119919100D01*
X148471873Y-119919100D01*
X148471864Y-119919100D01*
X146676129Y-119919100D01*
X146676123Y-119919101D01*
X146616516Y-119925508D01*
X146481671Y-119975802D01*
X146481664Y-119975806D01*
X146366455Y-120062052D01*
X146366452Y-120062055D01*
X146280206Y-120177264D01*
X146280202Y-120177271D01*
X146229908Y-120312117D01*
X146223501Y-120371716D01*
X146223501Y-120371723D01*
X146223500Y-120371735D01*
X146223500Y-122167470D01*
X146223501Y-122167476D01*
X146229908Y-122227083D01*
X146280202Y-122361928D01*
X146280206Y-122361935D01*
X146366452Y-122477144D01*
X146366455Y-122477147D01*
X146481664Y-122563393D01*
X146481671Y-122563397D01*
X146613081Y-122612410D01*
X146669015Y-122654281D01*
X146693432Y-122719745D01*
X146678580Y-122788018D01*
X146657430Y-122816273D01*
X146535503Y-122938200D01*
X146399965Y-123131769D01*
X146399964Y-123131771D01*
X146300098Y-123345935D01*
X146300094Y-123345944D01*
X146238938Y-123574186D01*
X146238936Y-123574196D01*
X146218341Y-123809599D01*
X131793100Y-123809599D01*
X131793100Y-117698534D01*
X134379901Y-117698534D01*
X134379901Y-119494269D01*
X134379902Y-119494275D01*
X134386309Y-119553882D01*
X134436603Y-119688727D01*
X134436607Y-119688734D01*
X134522853Y-119803943D01*
X134522856Y-119803946D01*
X134638065Y-119890192D01*
X134638072Y-119890196D01*
X134772918Y-119940490D01*
X134772917Y-119940490D01*
X134779845Y-119941234D01*
X134832528Y-119946899D01*
X136628273Y-119946898D01*
X136687884Y-119940490D01*
X136822732Y-119890195D01*
X136937947Y-119803945D01*
X137024197Y-119688730D01*
X137074492Y-119553882D01*
X137080901Y-119494272D01*
X137080900Y-117698527D01*
X137074492Y-117638916D01*
X137065451Y-117614677D01*
X137024198Y-117504070D01*
X137024194Y-117504063D01*
X136937948Y-117388854D01*
X136937945Y-117388851D01*
X136822736Y-117302605D01*
X136822729Y-117302601D01*
X136687883Y-117252307D01*
X136687884Y-117252307D01*
X136632935Y-117246400D01*
X152918202Y-117246400D01*
X152937988Y-117434656D01*
X152937989Y-117434659D01*
X152996480Y-117614677D01*
X152996483Y-117614684D01*
X153091129Y-117778616D01*
X153217791Y-117919288D01*
X153370927Y-118030548D01*
X153370932Y-118030551D01*
X153543854Y-118107542D01*
X153543859Y-118107544D01*
X153729016Y-118146900D01*
X153729017Y-118146900D01*
X153918306Y-118146900D01*
X153918308Y-118146900D01*
X154103465Y-118107544D01*
X154276392Y-118030551D01*
X154429533Y-117919288D01*
X154556195Y-117778616D01*
X154650841Y-117614684D01*
X154709336Y-117434656D01*
X154718907Y-117343586D01*
X154745492Y-117278974D01*
X154802789Y-117238989D01*
X154842228Y-117232550D01*
X159255434Y-117232550D01*
X159322473Y-117252235D01*
X159368228Y-117305039D01*
X159378754Y-117343585D01*
X159388326Y-117434656D01*
X159388327Y-117434659D01*
X159446818Y-117614677D01*
X159446821Y-117614684D01*
X159541467Y-117778616D01*
X159668129Y-117919288D01*
X159821265Y-118030548D01*
X159821270Y-118030551D01*
X159994192Y-118107542D01*
X159994197Y-118107544D01*
X160179354Y-118146900D01*
X160179355Y-118146900D01*
X160368644Y-118146900D01*
X160368646Y-118146900D01*
X160553803Y-118107544D01*
X160726730Y-118030551D01*
X160879871Y-117919288D01*
X161006533Y-117778616D01*
X161101179Y-117614684D01*
X161159674Y-117434656D01*
X161179460Y-117246400D01*
X161159674Y-117058144D01*
X161101179Y-116878116D01*
X161085963Y-116851761D01*
X161069491Y-116783865D01*
X161078792Y-116742307D01*
X161080453Y-116738297D01*
X161087616Y-116723773D01*
X161101179Y-116700284D01*
X161117796Y-116649139D01*
X161121153Y-116640038D01*
X161139942Y-116594681D01*
X161145541Y-116566529D01*
X161149225Y-116552413D01*
X161159674Y-116520256D01*
X161164601Y-116473371D01*
X161166300Y-116462162D01*
X161174550Y-116420696D01*
X161174550Y-116385216D01*
X161175229Y-116372255D01*
X161179460Y-116332000D01*
X161175229Y-116291742D01*
X161174550Y-116278782D01*
X161174550Y-116243304D01*
X161166300Y-116201833D01*
X161164599Y-116190614D01*
X161159674Y-116143745D01*
X161149226Y-116111587D01*
X161145541Y-116097469D01*
X161139942Y-116069319D01*
X161121157Y-116023968D01*
X161117791Y-116014843D01*
X161117790Y-116014840D01*
X161101179Y-115963716D01*
X161087617Y-115940227D01*
X161080445Y-115925682D01*
X161072057Y-115905430D01*
X161040982Y-115858923D01*
X161036717Y-115852065D01*
X161006533Y-115799784D01*
X160992869Y-115784608D01*
X160981921Y-115770531D01*
X160973504Y-115757934D01*
X160973500Y-115757929D01*
X160929083Y-115713513D01*
X160924612Y-115708802D01*
X160879875Y-115659115D01*
X160879871Y-115659112D01*
X160868787Y-115651059D01*
X160853994Y-115638424D01*
X160848067Y-115632497D01*
X160848058Y-115632491D01*
X160789992Y-115593692D01*
X160786001Y-115590909D01*
X160726736Y-115547852D01*
X160726725Y-115547846D01*
X160720360Y-115545012D01*
X160701902Y-115534833D01*
X160700573Y-115533944D01*
X160700568Y-115533942D01*
X160629262Y-115504406D01*
X160626280Y-115503125D01*
X160553796Y-115470853D01*
X160553545Y-115470800D01*
X160542631Y-115467414D01*
X160542507Y-115467825D01*
X160536681Y-115466058D01*
X160452588Y-115449330D01*
X160451000Y-115449004D01*
X160368641Y-115431499D01*
X160368175Y-115431450D01*
X160362696Y-115431450D01*
X153784504Y-115431450D01*
X153779026Y-115431450D01*
X153778556Y-115431499D01*
X153696212Y-115449001D01*
X153694625Y-115449327D01*
X153610526Y-115466055D01*
X153604697Y-115467824D01*
X153604573Y-115467417D01*
X153593658Y-115470799D01*
X153593408Y-115470852D01*
X153593393Y-115470856D01*
X153520929Y-115503119D01*
X153517951Y-115504399D01*
X153446626Y-115533944D01*
X153446624Y-115533945D01*
X153445277Y-115534846D01*
X153426844Y-115545010D01*
X153420476Y-115547845D01*
X153420467Y-115547850D01*
X153361204Y-115590906D01*
X153357213Y-115593687D01*
X153299140Y-115632491D01*
X153299131Y-115632498D01*
X153293196Y-115638433D01*
X153278412Y-115651058D01*
X153267336Y-115659105D01*
X153267326Y-115659114D01*
X153222585Y-115708803D01*
X153218119Y-115713509D01*
X153173703Y-115757925D01*
X153173695Y-115757935D01*
X153165274Y-115770537D01*
X153154330Y-115784608D01*
X153140666Y-115799784D01*
X153110495Y-115852041D01*
X153106213Y-115858927D01*
X153075143Y-115905428D01*
X153066750Y-115925690D01*
X153059580Y-115940228D01*
X153046022Y-115963711D01*
X153046018Y-115963721D01*
X153029408Y-116014840D01*
X153026041Y-116023968D01*
X153007258Y-116069318D01*
X153001656Y-116097473D01*
X152997973Y-116111586D01*
X152987526Y-116143742D01*
X152982597Y-116190628D01*
X152980895Y-116201853D01*
X152972650Y-116243305D01*
X152972650Y-116278782D01*
X152971971Y-116291742D01*
X152967740Y-116331999D01*
X152971971Y-116372255D01*
X152972650Y-116385216D01*
X152972650Y-116420700D01*
X152980894Y-116462145D01*
X152982597Y-116473371D01*
X152987526Y-116520257D01*
X152987526Y-116520258D01*
X152997973Y-116552413D01*
X153001657Y-116566530D01*
X153007258Y-116594680D01*
X153026035Y-116640014D01*
X153029403Y-116649145D01*
X153048028Y-116706463D01*
X153045262Y-116707361D01*
X153052668Y-116764241D01*
X153037564Y-116806958D01*
X152996483Y-116878113D01*
X152996482Y-116878117D01*
X152952025Y-117014943D01*
X152937988Y-117058144D01*
X152918202Y-117246400D01*
X136632935Y-117246400D01*
X136628284Y-117245900D01*
X136628282Y-117245899D01*
X136628274Y-117245899D01*
X136628265Y-117245899D01*
X134832530Y-117245899D01*
X134832524Y-117245900D01*
X134772917Y-117252307D01*
X134638072Y-117302601D01*
X134638065Y-117302605D01*
X134522856Y-117388851D01*
X134522853Y-117388854D01*
X134436607Y-117504063D01*
X134436603Y-117504070D01*
X134386309Y-117638916D01*
X134379902Y-117698515D01*
X134379902Y-117698522D01*
X134379901Y-117698534D01*
X131793100Y-117698534D01*
X131793100Y-113368798D01*
X149987132Y-113368798D01*
X149987132Y-113368801D01*
X150006964Y-113595486D01*
X150006966Y-113595497D01*
X150065858Y-113815288D01*
X150065861Y-113815297D01*
X150162031Y-114021532D01*
X150162032Y-114021534D01*
X150292554Y-114207941D01*
X150453458Y-114368845D01*
X150453461Y-114368847D01*
X150639866Y-114499368D01*
X150846104Y-114595539D01*
X151065908Y-114654435D01*
X151227830Y-114668601D01*
X151292598Y-114674268D01*
X151292600Y-114674268D01*
X151292602Y-114674268D01*
X151349273Y-114669309D01*
X151519292Y-114654435D01*
X151739096Y-114595539D01*
X151945334Y-114499368D01*
X152131739Y-114368847D01*
X152292647Y-114207939D01*
X152423168Y-114021534D01*
X152519339Y-113815296D01*
X152578235Y-113595492D01*
X152598068Y-113368800D01*
X152578235Y-113142108D01*
X152519339Y-112922304D01*
X152423168Y-112716066D01*
X152292647Y-112529661D01*
X152292645Y-112529658D01*
X152131741Y-112368754D01*
X151945334Y-112238232D01*
X151945332Y-112238231D01*
X151739097Y-112142061D01*
X151739088Y-112142058D01*
X151519297Y-112083166D01*
X151519293Y-112083165D01*
X151519292Y-112083165D01*
X151519291Y-112083164D01*
X151519286Y-112083164D01*
X151292602Y-112063332D01*
X151292598Y-112063332D01*
X151065913Y-112083164D01*
X151065902Y-112083166D01*
X150846111Y-112142058D01*
X150846102Y-112142061D01*
X150639867Y-112238231D01*
X150639865Y-112238232D01*
X150453458Y-112368754D01*
X150292554Y-112529658D01*
X150162032Y-112716065D01*
X150162031Y-112716067D01*
X150065861Y-112922302D01*
X150065858Y-112922311D01*
X150006966Y-113142102D01*
X150006964Y-113142113D01*
X149987132Y-113368798D01*
X131793100Y-113368798D01*
X131793100Y-104749596D01*
X140469235Y-104749596D01*
X140469235Y-104749603D01*
X140489430Y-104928849D01*
X140489431Y-104928854D01*
X140549011Y-105099123D01*
X140633540Y-105233649D01*
X140644984Y-105251862D01*
X140772538Y-105379416D01*
X140925278Y-105475389D01*
X141095545Y-105534968D01*
X141095550Y-105534969D01*
X141187495Y-105545328D01*
X141213243Y-105548229D01*
X141261355Y-105564059D01*
X141297692Y-105585037D01*
X141297694Y-105585039D01*
X141297695Y-105585039D01*
X141347815Y-105613977D01*
X141500542Y-105654900D01*
X141500543Y-105654900D01*
X157354788Y-105654900D01*
X157421827Y-105674585D01*
X157432103Y-105681955D01*
X157434936Y-105684214D01*
X157434938Y-105684216D01*
X157587678Y-105780189D01*
X157757945Y-105839768D01*
X157757950Y-105839769D01*
X157937196Y-105859965D01*
X157937200Y-105859965D01*
X157937204Y-105859965D01*
X158116449Y-105839769D01*
X158116452Y-105839768D01*
X158116455Y-105839768D01*
X158286722Y-105780189D01*
X158439462Y-105684216D01*
X158567016Y-105556662D01*
X158662989Y-105403922D01*
X158722568Y-105233655D01*
X158740030Y-105078673D01*
X158767096Y-105014260D01*
X158822296Y-104975515D01*
X158845522Y-104967389D01*
X158998262Y-104871416D01*
X159125816Y-104743862D01*
X159136631Y-104726648D01*
X159188960Y-104680360D01*
X159258013Y-104669709D01*
X159321863Y-104698081D01*
X159329305Y-104704940D01*
X162227539Y-107603174D01*
X162227549Y-107603185D01*
X162231879Y-107607515D01*
X162231880Y-107607516D01*
X162343684Y-107719320D01*
X162430495Y-107769439D01*
X162430497Y-107769441D01*
X162468551Y-107791411D01*
X162480615Y-107798377D01*
X162633343Y-107839301D01*
X162633346Y-107839301D01*
X162799053Y-107839301D01*
X162799069Y-107839300D01*
X175177560Y-107839300D01*
X175244599Y-107858985D01*
X175290354Y-107911789D01*
X175300298Y-107980947D01*
X175294602Y-108004254D01*
X175287431Y-108024747D01*
X175267235Y-108203996D01*
X175267235Y-108204003D01*
X175287430Y-108383249D01*
X175287431Y-108383254D01*
X175347011Y-108553523D01*
X175386569Y-108616478D01*
X175442984Y-108706262D01*
X175570538Y-108833816D01*
X175723278Y-108929789D01*
X175826752Y-108965996D01*
X175893545Y-108989368D01*
X175893550Y-108989369D01*
X176072796Y-109009565D01*
X176072800Y-109009565D01*
X176072804Y-109009565D01*
X176252049Y-108989369D01*
X176252052Y-108989368D01*
X176252055Y-108989368D01*
X176422322Y-108929789D01*
X176565628Y-108839743D01*
X176632864Y-108820743D01*
X176697571Y-108839743D01*
X176707903Y-108846235D01*
X176840875Y-108929788D01*
X177011145Y-108989368D01*
X177011150Y-108989369D01*
X177190396Y-109009565D01*
X177190400Y-109009565D01*
X177190404Y-109009565D01*
X177369649Y-108989369D01*
X177369652Y-108989368D01*
X177369655Y-108989368D01*
X177539922Y-108929789D01*
X177692662Y-108833816D01*
X177820216Y-108706262D01*
X177916189Y-108553522D01*
X177975768Y-108383255D01*
X177995965Y-108204000D01*
X177993332Y-108180632D01*
X177975769Y-108024750D01*
X177975768Y-108024745D01*
X177916188Y-107854476D01*
X177862755Y-107769439D01*
X177820216Y-107701738D01*
X177820214Y-107701736D01*
X177820213Y-107701734D01*
X177817950Y-107698896D01*
X177817059Y-107696715D01*
X177816511Y-107695842D01*
X177816664Y-107695745D01*
X177791544Y-107634209D01*
X177790900Y-107621587D01*
X177790900Y-107429459D01*
X177790901Y-107429446D01*
X177790901Y-107261345D01*
X177790901Y-107261343D01*
X177749977Y-107108615D01*
X177721039Y-107058495D01*
X177670920Y-106971684D01*
X177559116Y-106859880D01*
X177559115Y-106859879D01*
X177554785Y-106855549D01*
X177554774Y-106855539D01*
X176763590Y-106064355D01*
X176763588Y-106064352D01*
X176644717Y-105945481D01*
X176644716Y-105945480D01*
X176557904Y-105895360D01*
X176557904Y-105895359D01*
X176557900Y-105895358D01*
X176507785Y-105866423D01*
X176355057Y-105825499D01*
X176196943Y-105825499D01*
X176189347Y-105825499D01*
X176189331Y-105825500D01*
X163317297Y-105825500D01*
X163250258Y-105805815D01*
X163229616Y-105789181D01*
X161426732Y-103986297D01*
X161393247Y-103924974D01*
X161398231Y-103855282D01*
X161440103Y-103799349D01*
X161505567Y-103774932D01*
X161528297Y-103775396D01*
X161543997Y-103777165D01*
X161544000Y-103777165D01*
X161544004Y-103777165D01*
X161723249Y-103756969D01*
X161723252Y-103756968D01*
X161723255Y-103756968D01*
X161893522Y-103697389D01*
X162046262Y-103601416D01*
X162173816Y-103473862D01*
X162269789Y-103321122D01*
X162329368Y-103150855D01*
X162329369Y-103150849D01*
X162349565Y-102971603D01*
X162349565Y-102971596D01*
X162329369Y-102792350D01*
X162329368Y-102792345D01*
X162269788Y-102622076D01*
X162197584Y-102507165D01*
X162173816Y-102469338D01*
X162173814Y-102469336D01*
X162173813Y-102469334D01*
X162171550Y-102466496D01*
X162170659Y-102464315D01*
X162170111Y-102463442D01*
X162170264Y-102463345D01*
X162145144Y-102401809D01*
X162144500Y-102389187D01*
X162144500Y-101701596D01*
X166072435Y-101701596D01*
X166072435Y-101701603D01*
X166092630Y-101880849D01*
X166092631Y-101880854D01*
X166152211Y-102051123D01*
X166213944Y-102149370D01*
X166248184Y-102203862D01*
X166375738Y-102331416D01*
X166377952Y-102332807D01*
X166504586Y-102412377D01*
X166528478Y-102427389D01*
X166677726Y-102479613D01*
X166698745Y-102486968D01*
X166698750Y-102486969D01*
X166877996Y-102507165D01*
X166878000Y-102507165D01*
X166878004Y-102507165D01*
X167057249Y-102486969D01*
X167057252Y-102486968D01*
X167057255Y-102486968D01*
X167227522Y-102427389D01*
X167380262Y-102331416D01*
X167479119Y-102232559D01*
X167540442Y-102199074D01*
X167610134Y-102204058D01*
X167666067Y-102245930D01*
X167690484Y-102311394D01*
X167690800Y-102320240D01*
X167690800Y-105156000D01*
X167749041Y-105233655D01*
X167843199Y-105359200D01*
X167843200Y-105359200D01*
X170789600Y-105359200D01*
X170992800Y-105156000D01*
X170992800Y-103428800D01*
X170992800Y-101498400D01*
X170840400Y-101346000D01*
X167843200Y-101346000D01*
X167843199Y-101346000D01*
X167803206Y-101385993D01*
X167741883Y-101419477D01*
X167672191Y-101414492D01*
X167616258Y-101372621D01*
X167603804Y-101352109D01*
X167603788Y-101352076D01*
X167507813Y-101199334D01*
X167505550Y-101196496D01*
X167504659Y-101194315D01*
X167504111Y-101193442D01*
X167504264Y-101193345D01*
X167479144Y-101131809D01*
X167478500Y-101119187D01*
X167478500Y-100884097D01*
X167498185Y-100817058D01*
X167514819Y-100796416D01*
X168106416Y-100204819D01*
X168167739Y-100171334D01*
X168194097Y-100168500D01*
X174756703Y-100168500D01*
X174823742Y-100188185D01*
X174844384Y-100204819D01*
X175255821Y-100616256D01*
X175289306Y-100677579D01*
X175284322Y-100747271D01*
X175273134Y-100769909D01*
X175194611Y-100894876D01*
X175135031Y-101065145D01*
X175135030Y-101065150D01*
X175114835Y-101244396D01*
X175114835Y-101244403D01*
X175135030Y-101423649D01*
X175135031Y-101423654D01*
X175194611Y-101593923D01*
X175290584Y-101746662D01*
X175418138Y-101874216D01*
X175508480Y-101930982D01*
X175556320Y-101961042D01*
X175570878Y-101970189D01*
X175741145Y-102029768D01*
X175741150Y-102029769D01*
X175920396Y-102049965D01*
X175920400Y-102049965D01*
X175920404Y-102049965D01*
X176099649Y-102029769D01*
X176099652Y-102029768D01*
X176099655Y-102029768D01*
X176269922Y-101970189D01*
X176422662Y-101874216D01*
X176550216Y-101746662D01*
X176646189Y-101593922D01*
X176705768Y-101423655D01*
X176706239Y-101419477D01*
X176725965Y-101244403D01*
X176725965Y-101244396D01*
X176705769Y-101065150D01*
X176705768Y-101065145D01*
X176700379Y-101049743D01*
X176646189Y-100894878D01*
X176550216Y-100742138D01*
X176550214Y-100742136D01*
X176550213Y-100742134D01*
X176547950Y-100739296D01*
X176547059Y-100737115D01*
X176546511Y-100736242D01*
X176546664Y-100736145D01*
X176521544Y-100674609D01*
X176520900Y-100661987D01*
X176520900Y-100520659D01*
X176520901Y-100520646D01*
X176520901Y-100352545D01*
X176520901Y-100352543D01*
X176479977Y-100199815D01*
X176434733Y-100121451D01*
X176434733Y-100121449D01*
X176400924Y-100062890D01*
X176400921Y-100062886D01*
X176400920Y-100062884D01*
X176289116Y-99951080D01*
X176289115Y-99951079D01*
X176284785Y-99946749D01*
X176284774Y-99946739D01*
X175544390Y-99206355D01*
X175544388Y-99206352D01*
X175425517Y-99087481D01*
X175425516Y-99087480D01*
X175338704Y-99037360D01*
X175338704Y-99037359D01*
X175338700Y-99037358D01*
X175288585Y-99008423D01*
X175135857Y-98967499D01*
X174977743Y-98967499D01*
X174970147Y-98967499D01*
X174970131Y-98967500D01*
X167980669Y-98967500D01*
X167980653Y-98967499D01*
X167973057Y-98967499D01*
X167814943Y-98967499D01*
X167707587Y-98996265D01*
X167662210Y-99008424D01*
X167662209Y-99008425D01*
X167612096Y-99037359D01*
X167612095Y-99037360D01*
X167568689Y-99062420D01*
X167525285Y-99087479D01*
X167525282Y-99087481D01*
X166397481Y-100215282D01*
X166397479Y-100215285D01*
X166347361Y-100302094D01*
X166347359Y-100302096D01*
X166318425Y-100352209D01*
X166318424Y-100352210D01*
X166310728Y-100380931D01*
X166277499Y-100504943D01*
X166277499Y-100504945D01*
X166277499Y-100673046D01*
X166277500Y-100673059D01*
X166277500Y-101119187D01*
X166257815Y-101186226D01*
X166250450Y-101196496D01*
X166248186Y-101199334D01*
X166152211Y-101352076D01*
X166092631Y-101522345D01*
X166092630Y-101522350D01*
X166072435Y-101701596D01*
X162144500Y-101701596D01*
X162144500Y-92368798D01*
X167987132Y-92368798D01*
X167987132Y-92368801D01*
X168006964Y-92595486D01*
X168006966Y-92595497D01*
X168065858Y-92815288D01*
X168065861Y-92815297D01*
X168162031Y-93021532D01*
X168162032Y-93021534D01*
X168292554Y-93207941D01*
X168453458Y-93368845D01*
X168453461Y-93368847D01*
X168639866Y-93499368D01*
X168846104Y-93595539D01*
X169065908Y-93654435D01*
X169227830Y-93668601D01*
X169292598Y-93674268D01*
X169292600Y-93674268D01*
X169292602Y-93674268D01*
X169349273Y-93669309D01*
X169519292Y-93654435D01*
X169739096Y-93595539D01*
X169945334Y-93499368D01*
X170131739Y-93368847D01*
X170292647Y-93207939D01*
X170423168Y-93021534D01*
X170519339Y-92815296D01*
X170578235Y-92595492D01*
X170598068Y-92368800D01*
X170578235Y-92142108D01*
X170519339Y-91922304D01*
X170423168Y-91716066D01*
X170292647Y-91529661D01*
X170292645Y-91529658D01*
X170131741Y-91368754D01*
X169945334Y-91238232D01*
X169945332Y-91238231D01*
X169739097Y-91142061D01*
X169739088Y-91142058D01*
X169519297Y-91083166D01*
X169519293Y-91083165D01*
X169519292Y-91083165D01*
X169519291Y-91083164D01*
X169519286Y-91083164D01*
X169292602Y-91063332D01*
X169292598Y-91063332D01*
X169065913Y-91083164D01*
X169065902Y-91083166D01*
X168846111Y-91142058D01*
X168846102Y-91142061D01*
X168639867Y-91238231D01*
X168639865Y-91238232D01*
X168453458Y-91368754D01*
X168292554Y-91529658D01*
X168162032Y-91716065D01*
X168162031Y-91716067D01*
X168065861Y-91922302D01*
X168065858Y-91922311D01*
X168006966Y-92142102D01*
X168006964Y-92142113D01*
X167987132Y-92368798D01*
X162144500Y-92368798D01*
X162144500Y-89950996D01*
X174810035Y-89950996D01*
X174810035Y-89951003D01*
X174830230Y-90130249D01*
X174830231Y-90130254D01*
X174889811Y-90300523D01*
X174984664Y-90451479D01*
X174985784Y-90453262D01*
X175113338Y-90580816D01*
X175266078Y-90676789D01*
X175436345Y-90736368D01*
X175436354Y-90736369D01*
X175440502Y-90737316D01*
X175501484Y-90771419D01*
X175529962Y-90817255D01*
X175550210Y-90875120D01*
X175550212Y-90875124D01*
X175646184Y-91027862D01*
X175773738Y-91155416D01*
X175864080Y-91212182D01*
X175882382Y-91223682D01*
X175926478Y-91251389D01*
X176096745Y-91310968D01*
X176096750Y-91310969D01*
X176275996Y-91331165D01*
X176276000Y-91331165D01*
X176276004Y-91331165D01*
X176455249Y-91310969D01*
X176455252Y-91310968D01*
X176455255Y-91310968D01*
X176625522Y-91251389D01*
X176778262Y-91155416D01*
X176905816Y-91027862D01*
X176985240Y-90901458D01*
X177037575Y-90855168D01*
X177106628Y-90844520D01*
X177170477Y-90872895D01*
X177177915Y-90879750D01*
X177594539Y-91296374D01*
X177594549Y-91296385D01*
X177598879Y-91300715D01*
X177598880Y-91300716D01*
X177710684Y-91412520D01*
X177797495Y-91462639D01*
X177797497Y-91462641D01*
X177835551Y-91484611D01*
X177847615Y-91491577D01*
X178000343Y-91532501D01*
X178000346Y-91532501D01*
X178166053Y-91532501D01*
X178166069Y-91532500D01*
X183951503Y-91532500D01*
X184018542Y-91552185D01*
X184039179Y-91568814D01*
X184208216Y-91737852D01*
X184241700Y-91799174D01*
X184236716Y-91868866D01*
X184225528Y-91891503D01*
X184186213Y-91954072D01*
X184186209Y-91954081D01*
X184126633Y-92124337D01*
X184126630Y-92124350D01*
X184106435Y-92303596D01*
X184106435Y-92303603D01*
X184126630Y-92482849D01*
X184126631Y-92482854D01*
X184186211Y-92653123D01*
X184254314Y-92761507D01*
X184282184Y-92805862D01*
X184409738Y-92933416D01*
X184500080Y-92990182D01*
X184549973Y-93021532D01*
X184562478Y-93029389D01*
X184644458Y-93058075D01*
X184732745Y-93088968D01*
X184732750Y-93088969D01*
X184911996Y-93109165D01*
X184912000Y-93109165D01*
X184912004Y-93109165D01*
X185091249Y-93088969D01*
X185091252Y-93088968D01*
X185091255Y-93088968D01*
X185261522Y-93029389D01*
X185414262Y-92933416D01*
X185541816Y-92805862D01*
X185637789Y-92653122D01*
X185697368Y-92482855D01*
X185697369Y-92482849D01*
X185717565Y-92303603D01*
X185717565Y-92303596D01*
X185697369Y-92124350D01*
X185697368Y-92124345D01*
X185679699Y-92073850D01*
X185637789Y-91954078D01*
X185617828Y-91922311D01*
X185584247Y-91868866D01*
X185541816Y-91801338D01*
X185541814Y-91801336D01*
X185541813Y-91801334D01*
X185539550Y-91798496D01*
X185538659Y-91796315D01*
X185538111Y-91795442D01*
X185538264Y-91795345D01*
X185513144Y-91733809D01*
X185512500Y-91721187D01*
X185512500Y-91681460D01*
X185512501Y-91681447D01*
X185512501Y-91513344D01*
X185512501Y-91513343D01*
X185471577Y-91360616D01*
X185436994Y-91300716D01*
X185392524Y-91223690D01*
X185392518Y-91223682D01*
X184739190Y-90570355D01*
X184739188Y-90570352D01*
X184620317Y-90451481D01*
X184620316Y-90451480D01*
X184533453Y-90401330D01*
X184533452Y-90401329D01*
X184483390Y-90372425D01*
X184483389Y-90372424D01*
X184470863Y-90369067D01*
X184330657Y-90331499D01*
X184172543Y-90331499D01*
X184164947Y-90331499D01*
X184164931Y-90331500D01*
X178379497Y-90331500D01*
X178312458Y-90311815D01*
X178291816Y-90295181D01*
X177995700Y-89999065D01*
X177962215Y-89937742D01*
X177960163Y-89925286D01*
X177950368Y-89838345D01*
X177890789Y-89668078D01*
X177794816Y-89515338D01*
X177667262Y-89387784D01*
X177636710Y-89368587D01*
X177514523Y-89291811D01*
X177344254Y-89232231D01*
X177344249Y-89232230D01*
X177165004Y-89212035D01*
X177164996Y-89212035D01*
X177014383Y-89229004D01*
X176945561Y-89216949D01*
X176894182Y-89169600D01*
X176876500Y-89105784D01*
X176876500Y-89098496D01*
X176896185Y-89031457D01*
X176912814Y-89010820D01*
X181231906Y-84691727D01*
X181231911Y-84691724D01*
X181242114Y-84681520D01*
X181242116Y-84681520D01*
X181353920Y-84569716D01*
X181432977Y-84432784D01*
X181467006Y-84305785D01*
X181473900Y-84280058D01*
X181473900Y-84121943D01*
X181473900Y-81379812D01*
X181493585Y-81312773D01*
X181500955Y-81302497D01*
X181503210Y-81299667D01*
X181503216Y-81299662D01*
X181599189Y-81146922D01*
X181658768Y-80976655D01*
X181673241Y-80848203D01*
X181678965Y-80797403D01*
X181678965Y-80797396D01*
X181658769Y-80618150D01*
X181658768Y-80618145D01*
X181599189Y-80447878D01*
X181503216Y-80295138D01*
X181375662Y-80167584D01*
X181303770Y-80122411D01*
X181222923Y-80071611D01*
X181052654Y-80012031D01*
X181052649Y-80012030D01*
X180873404Y-79991835D01*
X180873396Y-79991835D01*
X180694150Y-80012030D01*
X180694145Y-80012031D01*
X180523876Y-80071611D01*
X180371137Y-80167584D01*
X180243584Y-80295137D01*
X180147611Y-80447876D01*
X180088031Y-80618145D01*
X180088030Y-80618150D01*
X180067835Y-80797396D01*
X180067835Y-80797403D01*
X180088030Y-80976649D01*
X180088031Y-80976654D01*
X180147611Y-81146923D01*
X180243585Y-81299663D01*
X180245845Y-81302497D01*
X180246734Y-81304675D01*
X180247289Y-81305558D01*
X180247134Y-81305655D01*
X180272255Y-81367183D01*
X180272900Y-81379812D01*
X180272900Y-83900903D01*
X180253215Y-83967942D01*
X180236581Y-83988584D01*
X176427781Y-87797384D01*
X176366458Y-87830869D01*
X176296766Y-87825885D01*
X176240833Y-87784013D01*
X176216416Y-87718549D01*
X176216100Y-87709703D01*
X176216100Y-87625296D01*
X176235785Y-87558257D01*
X176252414Y-87537620D01*
X179225306Y-84564727D01*
X179225311Y-84564724D01*
X179235514Y-84554520D01*
X179235516Y-84554520D01*
X179347320Y-84442716D01*
X179422500Y-84312500D01*
X179426377Y-84305785D01*
X179467300Y-84153057D01*
X179467300Y-83994943D01*
X179467300Y-81430612D01*
X179486985Y-81363573D01*
X179494355Y-81353297D01*
X179496610Y-81350467D01*
X179496616Y-81350462D01*
X179592589Y-81197722D01*
X179652168Y-81027455D01*
X179657892Y-80976654D01*
X179672365Y-80848203D01*
X179672365Y-80848196D01*
X179652169Y-80668950D01*
X179652168Y-80668945D01*
X179592588Y-80498676D01*
X179496615Y-80345937D01*
X179369062Y-80218384D01*
X179216323Y-80122411D01*
X179046054Y-80062831D01*
X179046049Y-80062830D01*
X178866804Y-80042635D01*
X178866796Y-80042635D01*
X178687550Y-80062830D01*
X178687545Y-80062831D01*
X178517276Y-80122411D01*
X178364537Y-80218384D01*
X178236984Y-80345937D01*
X178141011Y-80498676D01*
X178081431Y-80668945D01*
X178081430Y-80668950D01*
X178061235Y-80848196D01*
X178061235Y-80848203D01*
X178081430Y-81027449D01*
X178081431Y-81027454D01*
X178141011Y-81197723D01*
X178201315Y-81293696D01*
X178213302Y-81312773D01*
X178236985Y-81350463D01*
X178239245Y-81353297D01*
X178240134Y-81355475D01*
X178240689Y-81356358D01*
X178240534Y-81356455D01*
X178265655Y-81417983D01*
X178266300Y-81430612D01*
X178266300Y-83773902D01*
X178246615Y-83840941D01*
X178229981Y-83861583D01*
X175135081Y-86956482D01*
X175135077Y-86956487D01*
X175112342Y-86995868D01*
X175112341Y-86995870D01*
X175056023Y-87093415D01*
X175015099Y-87246143D01*
X175015099Y-87246145D01*
X175015099Y-87414246D01*
X175015100Y-87414259D01*
X175015100Y-89368587D01*
X174995415Y-89435626D01*
X174988050Y-89445896D01*
X174985786Y-89448734D01*
X174889811Y-89601476D01*
X174830231Y-89771745D01*
X174830230Y-89771750D01*
X174810035Y-89950996D01*
X162144500Y-89950996D01*
X162144500Y-86449059D01*
X162144501Y-86449046D01*
X162144501Y-86280945D01*
X162144501Y-86280943D01*
X162103577Y-86128215D01*
X162055180Y-86044389D01*
X162024520Y-85991284D01*
X161912716Y-85879480D01*
X161912715Y-85879479D01*
X161908385Y-85875149D01*
X161908374Y-85875139D01*
X161358700Y-85325465D01*
X161325215Y-85264142D01*
X161323163Y-85251686D01*
X161313368Y-85164745D01*
X161253789Y-84994478D01*
X161157816Y-84841738D01*
X161030262Y-84714184D01*
X160989838Y-84688784D01*
X160877523Y-84618211D01*
X160707254Y-84558631D01*
X160707249Y-84558630D01*
X160528004Y-84538435D01*
X160527996Y-84538435D01*
X160348750Y-84558630D01*
X160348745Y-84558631D01*
X160178476Y-84618211D01*
X160025737Y-84714184D01*
X159898184Y-84841737D01*
X159802211Y-84994476D01*
X159742631Y-85164745D01*
X159742630Y-85164750D01*
X159722435Y-85343996D01*
X159722435Y-85344003D01*
X159742630Y-85523249D01*
X159742631Y-85523254D01*
X159802211Y-85693523D01*
X159882224Y-85820862D01*
X159898184Y-85846262D01*
X160025738Y-85973816D01*
X160178478Y-86069789D01*
X160348745Y-86129368D01*
X160435669Y-86139161D01*
X160500080Y-86166226D01*
X160509465Y-86174700D01*
X160907181Y-86572416D01*
X160940666Y-86633739D01*
X160943500Y-86660097D01*
X160943500Y-102076360D01*
X160923815Y-102143399D01*
X160871011Y-102189154D01*
X160801853Y-102199098D01*
X160778549Y-102193403D01*
X160758055Y-102186232D01*
X160758053Y-102186231D01*
X160758048Y-102186230D01*
X160671130Y-102176437D01*
X160606716Y-102149370D01*
X160597333Y-102140898D01*
X160315205Y-101858769D01*
X160281720Y-101797446D01*
X160278886Y-101771088D01*
X160278886Y-87285531D01*
X160278886Y-87285529D01*
X160246610Y-87165076D01*
X160237963Y-87132801D01*
X160237963Y-87132800D01*
X160204449Y-87074753D01*
X160158908Y-86995873D01*
X160158907Y-86995872D01*
X160158906Y-86995870D01*
X160047102Y-86884066D01*
X160047101Y-86884065D01*
X160042771Y-86879735D01*
X160042760Y-86879725D01*
X158463100Y-85300065D01*
X158429615Y-85238742D01*
X158427563Y-85226286D01*
X158417768Y-85139345D01*
X158358189Y-84969078D01*
X158262216Y-84816338D01*
X158134662Y-84688784D01*
X158123101Y-84681520D01*
X157981923Y-84592811D01*
X157811654Y-84533231D01*
X157811649Y-84533230D01*
X157632404Y-84513035D01*
X157632396Y-84513035D01*
X157453150Y-84533230D01*
X157453145Y-84533231D01*
X157282876Y-84592811D01*
X157130137Y-84688784D01*
X157002584Y-84816337D01*
X156906611Y-84969076D01*
X156847031Y-85139345D01*
X156847030Y-85139350D01*
X156826835Y-85318596D01*
X156826835Y-85318603D01*
X156847030Y-85497849D01*
X156847031Y-85497854D01*
X156906611Y-85668123D01*
X157002584Y-85820862D01*
X157130138Y-85948416D01*
X157282878Y-86044389D01*
X157453145Y-86103968D01*
X157540069Y-86113761D01*
X157604480Y-86140826D01*
X157613865Y-86149300D01*
X159041567Y-87577002D01*
X159075052Y-87638325D01*
X159077886Y-87664683D01*
X159077886Y-101354050D01*
X159058201Y-101421089D01*
X159005397Y-101466844D01*
X158936239Y-101476788D01*
X158891887Y-101461438D01*
X158828704Y-101424960D01*
X158828704Y-101424959D01*
X158828700Y-101424958D01*
X158778585Y-101396023D01*
X158625857Y-101355099D01*
X158467743Y-101355099D01*
X158460147Y-101355099D01*
X158460131Y-101355100D01*
X158367212Y-101355100D01*
X158300173Y-101335415D01*
X158289897Y-101328045D01*
X158287063Y-101325785D01*
X158287062Y-101325784D01*
X158230296Y-101290115D01*
X158134323Y-101229811D01*
X157964054Y-101170231D01*
X157964049Y-101170230D01*
X157784804Y-101150035D01*
X157784796Y-101150035D01*
X157605550Y-101170230D01*
X157605545Y-101170231D01*
X157435276Y-101229811D01*
X157282537Y-101325784D01*
X157154984Y-101453337D01*
X157059011Y-101606076D01*
X156999431Y-101776345D01*
X156999430Y-101776350D01*
X156979235Y-101955596D01*
X156979235Y-101955603D01*
X156999430Y-102134849D01*
X156999431Y-102134854D01*
X157059011Y-102305122D01*
X157126404Y-102412377D01*
X157145404Y-102479613D01*
X157125036Y-102546449D01*
X157109092Y-102566030D01*
X157053383Y-102621739D01*
X156957411Y-102774476D01*
X156897831Y-102944745D01*
X156897830Y-102944750D01*
X156877635Y-103123996D01*
X156877635Y-103124003D01*
X156897830Y-103303249D01*
X156897833Y-103303262D01*
X156958328Y-103476145D01*
X156961890Y-103545924D01*
X156927162Y-103606551D01*
X156865168Y-103638779D01*
X156841287Y-103641100D01*
X145237069Y-103641100D01*
X145170030Y-103621415D01*
X145149388Y-103604781D01*
X142013219Y-100468612D01*
X141979734Y-100407289D01*
X141976900Y-100380931D01*
X141976900Y-91723013D01*
X152222727Y-91723013D01*
X152222727Y-91723014D01*
X152243322Y-91958417D01*
X152243324Y-91958427D01*
X152304480Y-92186669D01*
X152304482Y-92186673D01*
X152304483Y-92186677D01*
X152359005Y-92303600D01*
X152404351Y-92400844D01*
X152404353Y-92400848D01*
X152512667Y-92555535D01*
X152539891Y-92594415D01*
X152706985Y-92761509D01*
X152770328Y-92805862D01*
X152900551Y-92897046D01*
X152900553Y-92897047D01*
X152900556Y-92897049D01*
X153114723Y-92996917D01*
X153342978Y-93058077D01*
X153531304Y-93074553D01*
X153578385Y-93078673D01*
X153578386Y-93078673D01*
X153578387Y-93078673D01*
X153617620Y-93075240D01*
X153813794Y-93058077D01*
X154042049Y-92996917D01*
X154256216Y-92897049D01*
X154449787Y-92761509D01*
X154616881Y-92594415D01*
X154752421Y-92400844D01*
X154852289Y-92186677D01*
X154913449Y-91958422D01*
X154934045Y-91723014D01*
X154913449Y-91487606D01*
X154852289Y-91259351D01*
X154752421Y-91045185D01*
X154740291Y-91027862D01*
X154616882Y-90851614D01*
X154572711Y-90807443D01*
X154494953Y-90729685D01*
X154461470Y-90668365D01*
X154466454Y-90598673D01*
X154508325Y-90542739D01*
X154539301Y-90525824D01*
X154670717Y-90476810D01*
X154785932Y-90390560D01*
X154872182Y-90275345D01*
X154922477Y-90140497D01*
X154928886Y-90080887D01*
X154928885Y-88285142D01*
X154922477Y-88225531D01*
X154872182Y-88090683D01*
X154872181Y-88090682D01*
X154872179Y-88090678D01*
X154785933Y-87975469D01*
X154785930Y-87975466D01*
X154670721Y-87889220D01*
X154670714Y-87889216D01*
X154535868Y-87838922D01*
X154535869Y-87838922D01*
X154476269Y-87832515D01*
X154476267Y-87832514D01*
X154476259Y-87832514D01*
X154476250Y-87832514D01*
X152680515Y-87832514D01*
X152680509Y-87832515D01*
X152620902Y-87838922D01*
X152486057Y-87889216D01*
X152486050Y-87889220D01*
X152370841Y-87975466D01*
X152370838Y-87975469D01*
X152284592Y-88090678D01*
X152284588Y-88090685D01*
X152234294Y-88225531D01*
X152227887Y-88285130D01*
X152227887Y-88285137D01*
X152227886Y-88285149D01*
X152227886Y-90080884D01*
X152227887Y-90080890D01*
X152234294Y-90140497D01*
X152284588Y-90275342D01*
X152284592Y-90275349D01*
X152370838Y-90390558D01*
X152370841Y-90390561D01*
X152486050Y-90476807D01*
X152486057Y-90476811D01*
X152617467Y-90525824D01*
X152673401Y-90567695D01*
X152697818Y-90633159D01*
X152682966Y-90701432D01*
X152661816Y-90729687D01*
X152539889Y-90851614D01*
X152404351Y-91045183D01*
X152404350Y-91045185D01*
X152304484Y-91259349D01*
X152304480Y-91259358D01*
X152243324Y-91487600D01*
X152243322Y-91487610D01*
X152222727Y-91723013D01*
X141976900Y-91723013D01*
X141976900Y-90532025D01*
X141995907Y-90466053D01*
X142089987Y-90316326D01*
X142089988Y-90316323D01*
X142089989Y-90316322D01*
X142149568Y-90146055D01*
X142149569Y-90146049D01*
X142169765Y-89966803D01*
X142169765Y-89966796D01*
X142149569Y-89787550D01*
X142149568Y-89787545D01*
X142122170Y-89709245D01*
X142089989Y-89617278D01*
X141994016Y-89464538D01*
X141866462Y-89336984D01*
X141794570Y-89291811D01*
X141713723Y-89241011D01*
X141543454Y-89181431D01*
X141543449Y-89181430D01*
X141364204Y-89161235D01*
X141364196Y-89161235D01*
X141184950Y-89181430D01*
X141184945Y-89181431D01*
X141014676Y-89241011D01*
X140861937Y-89336984D01*
X140734384Y-89464537D01*
X140638411Y-89617276D01*
X140578831Y-89787545D01*
X140578830Y-89787550D01*
X140558635Y-89966796D01*
X140558635Y-89966803D01*
X140578830Y-90146049D01*
X140578831Y-90146054D01*
X140638411Y-90316323D01*
X140734384Y-90469062D01*
X140739581Y-90474259D01*
X140773066Y-90535582D01*
X140775900Y-90561940D01*
X140775900Y-100594358D01*
X140775899Y-100594376D01*
X140775899Y-100760082D01*
X140775898Y-100760082D01*
X140775899Y-100760085D01*
X140816823Y-100912813D01*
X140816824Y-100912815D01*
X140816823Y-100912815D01*
X140832446Y-100939873D01*
X140832448Y-100939875D01*
X140832449Y-100939877D01*
X140874736Y-101013121D01*
X140895879Y-101049743D01*
X141014749Y-101168613D01*
X141014755Y-101168618D01*
X144088356Y-104242219D01*
X144121841Y-104303542D01*
X144116857Y-104373234D01*
X144074985Y-104429167D01*
X144009521Y-104453584D01*
X144000675Y-104453900D01*
X142102940Y-104453900D01*
X142035901Y-104434215D01*
X141997946Y-104395872D01*
X141904615Y-104247337D01*
X141777062Y-104119784D01*
X141624323Y-104023811D01*
X141454054Y-103964231D01*
X141454049Y-103964230D01*
X141274804Y-103944035D01*
X141274796Y-103944035D01*
X141095550Y-103964230D01*
X141095545Y-103964231D01*
X140925276Y-104023811D01*
X140772537Y-104119784D01*
X140644984Y-104247337D01*
X140549011Y-104400076D01*
X140489431Y-104570345D01*
X140489430Y-104570350D01*
X140469235Y-104749596D01*
X131793100Y-104749596D01*
X131793100Y-103106312D01*
X134160500Y-103106312D01*
X134160500Y-103318885D01*
X134185407Y-103476145D01*
X134193754Y-103528842D01*
X134248518Y-103697389D01*
X134259444Y-103731013D01*
X134355951Y-103920419D01*
X134480890Y-104092385D01*
X134631213Y-104242708D01*
X134803179Y-104367647D01*
X134803181Y-104367648D01*
X134803184Y-104367650D01*
X134992588Y-104464156D01*
X135194757Y-104529845D01*
X135404713Y-104563099D01*
X135404714Y-104563099D01*
X135867286Y-104563099D01*
X135867287Y-104563099D01*
X136077243Y-104529845D01*
X136279412Y-104464156D01*
X136468816Y-104367650D01*
X136557054Y-104303542D01*
X136640786Y-104242708D01*
X136640788Y-104242705D01*
X136640792Y-104242703D01*
X136791104Y-104092391D01*
X136791106Y-104092387D01*
X136791109Y-104092385D01*
X136916048Y-103920419D01*
X136916047Y-103920419D01*
X136916051Y-103920415D01*
X137012557Y-103731011D01*
X137078246Y-103528842D01*
X137111500Y-103318886D01*
X137111500Y-103106312D01*
X137078246Y-102896356D01*
X137012557Y-102694187D01*
X136916051Y-102504783D01*
X136916049Y-102504780D01*
X136916048Y-102504778D01*
X136791109Y-102332812D01*
X136640786Y-102182489D01*
X136468820Y-102057550D01*
X136279414Y-101961043D01*
X136279413Y-101961042D01*
X136279412Y-101961042D01*
X136077243Y-101895353D01*
X136077241Y-101895352D01*
X136077240Y-101895352D01*
X135915957Y-101869807D01*
X135867287Y-101862099D01*
X135404713Y-101862099D01*
X135356042Y-101869807D01*
X135194760Y-101895352D01*
X135194757Y-101895353D01*
X135009328Y-101955603D01*
X134992585Y-101961043D01*
X134803179Y-102057550D01*
X134631213Y-102182489D01*
X134480890Y-102332812D01*
X134355951Y-102504778D01*
X134259444Y-102694184D01*
X134193753Y-102896359D01*
X134160500Y-103106312D01*
X131793100Y-103106312D01*
X131793100Y-97642816D01*
X134160500Y-97642816D01*
X134160500Y-98622383D01*
X134166858Y-98703174D01*
X134166858Y-98703177D01*
X134166859Y-98703178D01*
X134217212Y-98891096D01*
X134305535Y-99064440D01*
X134427968Y-99215632D01*
X134579160Y-99338065D01*
X134752504Y-99426388D01*
X134940422Y-99476741D01*
X135021222Y-99483100D01*
X135021230Y-99483100D01*
X136250770Y-99483100D01*
X136250778Y-99483100D01*
X136331578Y-99476741D01*
X136519496Y-99426388D01*
X136692840Y-99338065D01*
X136844032Y-99215632D01*
X136966465Y-99064440D01*
X137054788Y-98891096D01*
X137105141Y-98703178D01*
X137111500Y-98622378D01*
X137111500Y-97642822D01*
X137105141Y-97562022D01*
X137054788Y-97374104D01*
X136966465Y-97200760D01*
X136844032Y-97049568D01*
X136692840Y-96927135D01*
X136519496Y-96838812D01*
X136331578Y-96788459D01*
X136331577Y-96788458D01*
X136331574Y-96788458D01*
X136250783Y-96782100D01*
X136250778Y-96782100D01*
X135021222Y-96782100D01*
X135021216Y-96782100D01*
X134940425Y-96788458D01*
X134752504Y-96838812D01*
X134579161Y-96927134D01*
X134427968Y-97049568D01*
X134305534Y-97200761D01*
X134217212Y-97374104D01*
X134166858Y-97562025D01*
X134160500Y-97642816D01*
X131793100Y-97642816D01*
X131793100Y-88285712D01*
X134211300Y-88285712D01*
X134211300Y-88498285D01*
X134244553Y-88708238D01*
X134310244Y-88910413D01*
X134406751Y-89099819D01*
X134531690Y-89271785D01*
X134682013Y-89422108D01*
X134853979Y-89547047D01*
X134853981Y-89547048D01*
X134853984Y-89547050D01*
X135043388Y-89643556D01*
X135245557Y-89709245D01*
X135455513Y-89742499D01*
X135455514Y-89742499D01*
X135918086Y-89742499D01*
X135918087Y-89742499D01*
X136128043Y-89709245D01*
X136330212Y-89643556D01*
X136519616Y-89547050D01*
X136633185Y-89464538D01*
X136691586Y-89422108D01*
X136691588Y-89422105D01*
X136691592Y-89422103D01*
X136841904Y-89271791D01*
X136841906Y-89271787D01*
X136841909Y-89271785D01*
X136966848Y-89099819D01*
X136966847Y-89099819D01*
X136966851Y-89099815D01*
X137063357Y-88910411D01*
X137129046Y-88708242D01*
X137162300Y-88498286D01*
X137162300Y-88285712D01*
X137129046Y-88075756D01*
X137063357Y-87873587D01*
X136966851Y-87684183D01*
X136966849Y-87684180D01*
X136966848Y-87684178D01*
X136841909Y-87512212D01*
X136691586Y-87361889D01*
X136519620Y-87236950D01*
X136330214Y-87140443D01*
X136330213Y-87140442D01*
X136330212Y-87140442D01*
X136128043Y-87074753D01*
X136128041Y-87074752D01*
X136128040Y-87074752D01*
X135966757Y-87049207D01*
X135918087Y-87041499D01*
X135455513Y-87041499D01*
X135406842Y-87049207D01*
X135245560Y-87074752D01*
X135245557Y-87074753D01*
X135066905Y-87132801D01*
X135043385Y-87140443D01*
X134853979Y-87236950D01*
X134682013Y-87361889D01*
X134531690Y-87512212D01*
X134406751Y-87684178D01*
X134310244Y-87873584D01*
X134244553Y-88075759D01*
X134211300Y-88285712D01*
X131793100Y-88285712D01*
X131793100Y-82822216D01*
X134211300Y-82822216D01*
X134211300Y-83801783D01*
X134217658Y-83882574D01*
X134217658Y-83882577D01*
X134217659Y-83882578D01*
X134268012Y-84070496D01*
X134356335Y-84243840D01*
X134478768Y-84395032D01*
X134629960Y-84517465D01*
X134803304Y-84605788D01*
X134991222Y-84656141D01*
X135072022Y-84662500D01*
X135072030Y-84662500D01*
X136301570Y-84662500D01*
X136301578Y-84662500D01*
X136382378Y-84656141D01*
X136570296Y-84605788D01*
X136743640Y-84517465D01*
X136894832Y-84395032D01*
X137017265Y-84243840D01*
X137105588Y-84070496D01*
X137155941Y-83882578D01*
X137162300Y-83801778D01*
X137162300Y-82822222D01*
X137155941Y-82741422D01*
X137105588Y-82553504D01*
X137017265Y-82380160D01*
X136894832Y-82228968D01*
X136743640Y-82106535D01*
X136570296Y-82018212D01*
X136382378Y-81967859D01*
X136382377Y-81967858D01*
X136382374Y-81967858D01*
X136301583Y-81961500D01*
X136301578Y-81961500D01*
X135072022Y-81961500D01*
X135072016Y-81961500D01*
X134991225Y-81967858D01*
X134803304Y-82018212D01*
X134629961Y-82106534D01*
X134478768Y-82228968D01*
X134356334Y-82380161D01*
X134268012Y-82553504D01*
X134217658Y-82741425D01*
X134211300Y-82822216D01*
X131793100Y-82822216D01*
X131793100Y-80010000D01*
X158140400Y-80010000D01*
X158165800Y-82804000D01*
X158526347Y-82804000D01*
X158592318Y-82823005D01*
X158728864Y-82908803D01*
X158899131Y-82968382D01*
X158899136Y-82968383D01*
X159078382Y-82988579D01*
X159078386Y-82988579D01*
X159078390Y-82988579D01*
X159257635Y-82968383D01*
X159257638Y-82968382D01*
X159257641Y-82968382D01*
X159427908Y-82908803D01*
X159564453Y-82823005D01*
X159630425Y-82804000D01*
X160020000Y-82804000D01*
X160020000Y-80010000D01*
X159456907Y-80010000D01*
X159415952Y-80003041D01*
X159257648Y-79947647D01*
X159257635Y-79947644D01*
X159078390Y-79927449D01*
X159078382Y-79927449D01*
X158899136Y-79947644D01*
X158899123Y-79947647D01*
X158740820Y-80003041D01*
X158699865Y-80010000D01*
X158140400Y-80010000D01*
X131793100Y-80010000D01*
X131793100Y-78373227D01*
X131793416Y-78364381D01*
X131807730Y-78164243D01*
X131807731Y-78164242D01*
X131807730Y-78164236D01*
X131810246Y-78146738D01*
X131851956Y-77954999D01*
X131856933Y-77938048D01*
X131925511Y-77754185D01*
X131932859Y-77738098D01*
X131995415Y-77623534D01*
X132026891Y-77565889D01*
X132036445Y-77551021D01*
X132154048Y-77393923D01*
X132165620Y-77380569D01*
X132304369Y-77241820D01*
X132317723Y-77230248D01*
X132474821Y-77112645D01*
X132489689Y-77103091D01*
X132661898Y-77009058D01*
X132677985Y-77001711D01*
X132861848Y-76933133D01*
X132878799Y-76928156D01*
X133070538Y-76886446D01*
X133088036Y-76883930D01*
X133288182Y-76869616D01*
X133297028Y-76869300D01*
X133358492Y-76869300D01*
X187226708Y-76869300D01*
X187288172Y-76869300D01*
X187297018Y-76869616D01*
G37*
%TD.AperFunction*%
%TD*%
M02*
