%TF.GenerationSoftware,KiCad,Pcbnew,8.0.5*%
%TF.CreationDate,2024-11-10T21:06:56+07:00*%
%TF.ProjectId,Project_241,50726f6a-6563-4745-9f32-34312e6b6963,rev?*%
%TF.SameCoordinates,Original*%
%TF.FileFunction,Legend,Top*%
%TF.FilePolarity,Positive*%
%FSLAX46Y46*%
G04 Gerber Fmt 4.6, Leading zero omitted, Abs format (unit mm)*
G04 Created by KiCad (PCBNEW 8.0.5) date 2024-11-10 21:06:56*
%MOMM*%
%LPD*%
G01*
G04 APERTURE LIST*
%ADD10C,0.100000*%
%ADD11C,0.200000*%
%ADD12C,0.300000*%
%ADD13C,0.150000*%
%ADD14C,0.120000*%
%ADD15C,0.127000*%
%ADD16C,0.152400*%
%ADD17C,0.152700*%
%ADD18C,0.812800*%
G04 APERTURE END LIST*
D10*
X132842000Y-114909600D02*
X134264400Y-114909600D01*
X152603200Y-119938800D02*
X152577800Y-130225800D01*
X158541086Y-87589514D02*
X158537921Y-95633013D01*
X133553200Y-114909600D02*
X133553200Y-114350800D01*
X155670886Y-87589514D02*
X158541086Y-87589514D01*
X171221400Y-105054400D02*
X171221400Y-105613200D01*
X133553200Y-114909600D02*
X133553200Y-115519200D01*
X133553200Y-115519200D02*
X133553200Y-114909600D01*
X171221400Y-105613200D02*
X170662600Y-105613200D01*
X149733000Y-119938800D02*
X152603200Y-119938800D01*
D11*
X156119487Y-92389433D02*
X155786154Y-91913242D01*
X155548059Y-92389433D02*
X155548059Y-91389433D01*
X155548059Y-91389433D02*
X155929011Y-91389433D01*
X155929011Y-91389433D02*
X156024249Y-91437052D01*
X156024249Y-91437052D02*
X156071868Y-91484671D01*
X156071868Y-91484671D02*
X156119487Y-91579909D01*
X156119487Y-91579909D02*
X156119487Y-91722766D01*
X156119487Y-91722766D02*
X156071868Y-91818004D01*
X156071868Y-91818004D02*
X156024249Y-91865623D01*
X156024249Y-91865623D02*
X155929011Y-91913242D01*
X155929011Y-91913242D02*
X155548059Y-91913242D01*
X156452821Y-91389433D02*
X157119487Y-92389433D01*
X157119487Y-91389433D02*
X156452821Y-92389433D01*
D12*
X178729053Y-99673628D02*
X178229053Y-98959342D01*
X177871910Y-99673628D02*
X177871910Y-98173628D01*
X177871910Y-98173628D02*
X178443339Y-98173628D01*
X178443339Y-98173628D02*
X178586196Y-98245057D01*
X178586196Y-98245057D02*
X178657625Y-98316485D01*
X178657625Y-98316485D02*
X178729053Y-98459342D01*
X178729053Y-98459342D02*
X178729053Y-98673628D01*
X178729053Y-98673628D02*
X178657625Y-98816485D01*
X178657625Y-98816485D02*
X178586196Y-98887914D01*
X178586196Y-98887914D02*
X178443339Y-98959342D01*
X178443339Y-98959342D02*
X177871910Y-98959342D01*
X179371910Y-98887914D02*
X179871910Y-98887914D01*
X180086196Y-99673628D02*
X179371910Y-99673628D01*
X179371910Y-99673628D02*
X179371910Y-98173628D01*
X179371910Y-98173628D02*
X180086196Y-98173628D01*
X180657625Y-99602200D02*
X180871911Y-99673628D01*
X180871911Y-99673628D02*
X181229053Y-99673628D01*
X181229053Y-99673628D02*
X181371911Y-99602200D01*
X181371911Y-99602200D02*
X181443339Y-99530771D01*
X181443339Y-99530771D02*
X181514768Y-99387914D01*
X181514768Y-99387914D02*
X181514768Y-99245057D01*
X181514768Y-99245057D02*
X181443339Y-99102200D01*
X181443339Y-99102200D02*
X181371911Y-99030771D01*
X181371911Y-99030771D02*
X181229053Y-98959342D01*
X181229053Y-98959342D02*
X180943339Y-98887914D01*
X180943339Y-98887914D02*
X180800482Y-98816485D01*
X180800482Y-98816485D02*
X180729053Y-98745057D01*
X180729053Y-98745057D02*
X180657625Y-98602200D01*
X180657625Y-98602200D02*
X180657625Y-98459342D01*
X180657625Y-98459342D02*
X180729053Y-98316485D01*
X180729053Y-98316485D02*
X180800482Y-98245057D01*
X180800482Y-98245057D02*
X180943339Y-98173628D01*
X180943339Y-98173628D02*
X181300482Y-98173628D01*
X181300482Y-98173628D02*
X181514768Y-98245057D01*
X182157624Y-98887914D02*
X182657624Y-98887914D01*
X182871910Y-99673628D02*
X182157624Y-99673628D01*
X182157624Y-99673628D02*
X182157624Y-98173628D01*
X182157624Y-98173628D02*
X182871910Y-98173628D01*
X183300482Y-98173628D02*
X184157625Y-98173628D01*
X183729053Y-99673628D02*
X183729053Y-98173628D01*
D11*
X156071868Y-94078652D02*
X155976630Y-94031033D01*
X155976630Y-94031033D02*
X155833773Y-94031033D01*
X155833773Y-94031033D02*
X155690916Y-94078652D01*
X155690916Y-94078652D02*
X155595678Y-94173890D01*
X155595678Y-94173890D02*
X155548059Y-94269128D01*
X155548059Y-94269128D02*
X155500440Y-94459604D01*
X155500440Y-94459604D02*
X155500440Y-94602461D01*
X155500440Y-94602461D02*
X155548059Y-94792937D01*
X155548059Y-94792937D02*
X155595678Y-94888175D01*
X155595678Y-94888175D02*
X155690916Y-94983414D01*
X155690916Y-94983414D02*
X155833773Y-95031033D01*
X155833773Y-95031033D02*
X155929011Y-95031033D01*
X155929011Y-95031033D02*
X156071868Y-94983414D01*
X156071868Y-94983414D02*
X156119487Y-94935794D01*
X156119487Y-94935794D02*
X156119487Y-94602461D01*
X156119487Y-94602461D02*
X155929011Y-94602461D01*
X156548059Y-95031033D02*
X156548059Y-94031033D01*
X156548059Y-94031033D02*
X157119487Y-95031033D01*
X157119487Y-95031033D02*
X157119487Y-94031033D01*
X157595678Y-95031033D02*
X157595678Y-94031033D01*
X157595678Y-94031033D02*
X157833773Y-94031033D01*
X157833773Y-94031033D02*
X157976630Y-94078652D01*
X157976630Y-94078652D02*
X158071868Y-94173890D01*
X158071868Y-94173890D02*
X158119487Y-94269128D01*
X158119487Y-94269128D02*
X158167106Y-94459604D01*
X158167106Y-94459604D02*
X158167106Y-94602461D01*
X158167106Y-94602461D02*
X158119487Y-94792937D01*
X158119487Y-94792937D02*
X158071868Y-94888175D01*
X158071868Y-94888175D02*
X157976630Y-94983414D01*
X157976630Y-94983414D02*
X157833773Y-95031033D01*
X157833773Y-95031033D02*
X157595678Y-95031033D01*
X149550235Y-120685619D02*
X150169282Y-120685619D01*
X150169282Y-120685619D02*
X149835949Y-121066571D01*
X149835949Y-121066571D02*
X149978806Y-121066571D01*
X149978806Y-121066571D02*
X150074044Y-121114190D01*
X150074044Y-121114190D02*
X150121663Y-121161809D01*
X150121663Y-121161809D02*
X150169282Y-121257047D01*
X150169282Y-121257047D02*
X150169282Y-121495142D01*
X150169282Y-121495142D02*
X150121663Y-121590380D01*
X150121663Y-121590380D02*
X150074044Y-121638000D01*
X150074044Y-121638000D02*
X149978806Y-121685619D01*
X149978806Y-121685619D02*
X149693092Y-121685619D01*
X149693092Y-121685619D02*
X149597854Y-121638000D01*
X149597854Y-121638000D02*
X149550235Y-121590380D01*
X150454997Y-120685619D02*
X150788330Y-121685619D01*
X150788330Y-121685619D02*
X151121663Y-120685619D01*
X151359759Y-120685619D02*
X151978806Y-120685619D01*
X151978806Y-120685619D02*
X151645473Y-121066571D01*
X151645473Y-121066571D02*
X151788330Y-121066571D01*
X151788330Y-121066571D02*
X151883568Y-121114190D01*
X151883568Y-121114190D02*
X151931187Y-121161809D01*
X151931187Y-121161809D02*
X151978806Y-121257047D01*
X151978806Y-121257047D02*
X151978806Y-121495142D01*
X151978806Y-121495142D02*
X151931187Y-121590380D01*
X151931187Y-121590380D02*
X151883568Y-121638000D01*
X151883568Y-121638000D02*
X151788330Y-121685619D01*
X151788330Y-121685619D02*
X151502616Y-121685619D01*
X151502616Y-121685619D02*
X151407378Y-121638000D01*
X151407378Y-121638000D02*
X151359759Y-121590380D01*
X150216901Y-126644980D02*
X150169282Y-126692600D01*
X150169282Y-126692600D02*
X150026425Y-126740219D01*
X150026425Y-126740219D02*
X149931187Y-126740219D01*
X149931187Y-126740219D02*
X149788330Y-126692600D01*
X149788330Y-126692600D02*
X149693092Y-126597361D01*
X149693092Y-126597361D02*
X149645473Y-126502123D01*
X149645473Y-126502123D02*
X149597854Y-126311647D01*
X149597854Y-126311647D02*
X149597854Y-126168790D01*
X149597854Y-126168790D02*
X149645473Y-125978314D01*
X149645473Y-125978314D02*
X149693092Y-125883076D01*
X149693092Y-125883076D02*
X149788330Y-125787838D01*
X149788330Y-125787838D02*
X149931187Y-125740219D01*
X149931187Y-125740219D02*
X150026425Y-125740219D01*
X150026425Y-125740219D02*
X150169282Y-125787838D01*
X150169282Y-125787838D02*
X150216901Y-125835457D01*
X151121663Y-126740219D02*
X150645473Y-126740219D01*
X150645473Y-126740219D02*
X150645473Y-125740219D01*
X151454997Y-126740219D02*
X151454997Y-125740219D01*
X152026425Y-126740219D02*
X151597854Y-126168790D01*
X152026425Y-125740219D02*
X151454997Y-126311647D01*
X155405202Y-88900233D02*
X155976630Y-88900233D01*
X155690916Y-89900233D02*
X155690916Y-88900233D01*
X156214726Y-88900233D02*
X156881392Y-89900233D01*
X156881392Y-88900233D02*
X156214726Y-89900233D01*
X150169282Y-128429438D02*
X150074044Y-128381819D01*
X150074044Y-128381819D02*
X149931187Y-128381819D01*
X149931187Y-128381819D02*
X149788330Y-128429438D01*
X149788330Y-128429438D02*
X149693092Y-128524676D01*
X149693092Y-128524676D02*
X149645473Y-128619914D01*
X149645473Y-128619914D02*
X149597854Y-128810390D01*
X149597854Y-128810390D02*
X149597854Y-128953247D01*
X149597854Y-128953247D02*
X149645473Y-129143723D01*
X149645473Y-129143723D02*
X149693092Y-129238961D01*
X149693092Y-129238961D02*
X149788330Y-129334200D01*
X149788330Y-129334200D02*
X149931187Y-129381819D01*
X149931187Y-129381819D02*
X150026425Y-129381819D01*
X150026425Y-129381819D02*
X150169282Y-129334200D01*
X150169282Y-129334200D02*
X150216901Y-129286580D01*
X150216901Y-129286580D02*
X150216901Y-128953247D01*
X150216901Y-128953247D02*
X150026425Y-128953247D01*
X150645473Y-129381819D02*
X150645473Y-128381819D01*
X150645473Y-128381819D02*
X151216901Y-129381819D01*
X151216901Y-129381819D02*
X151216901Y-128381819D01*
X151693092Y-129381819D02*
X151693092Y-128381819D01*
X151693092Y-128381819D02*
X151931187Y-128381819D01*
X151931187Y-128381819D02*
X152074044Y-128429438D01*
X152074044Y-128429438D02*
X152169282Y-128524676D01*
X152169282Y-128524676D02*
X152216901Y-128619914D01*
X152216901Y-128619914D02*
X152264520Y-128810390D01*
X152264520Y-128810390D02*
X152264520Y-128953247D01*
X152264520Y-128953247D02*
X152216901Y-129143723D01*
X152216901Y-129143723D02*
X152169282Y-129238961D01*
X152169282Y-129238961D02*
X152074044Y-129334200D01*
X152074044Y-129334200D02*
X151931187Y-129381819D01*
X151931187Y-129381819D02*
X151693092Y-129381819D01*
X149645473Y-124251019D02*
X149645473Y-123251019D01*
X149645473Y-123251019D02*
X149883568Y-123251019D01*
X149883568Y-123251019D02*
X150026425Y-123298638D01*
X150026425Y-123298638D02*
X150121663Y-123393876D01*
X150121663Y-123393876D02*
X150169282Y-123489114D01*
X150169282Y-123489114D02*
X150216901Y-123679590D01*
X150216901Y-123679590D02*
X150216901Y-123822447D01*
X150216901Y-123822447D02*
X150169282Y-124012923D01*
X150169282Y-124012923D02*
X150121663Y-124108161D01*
X150121663Y-124108161D02*
X150026425Y-124203400D01*
X150026425Y-124203400D02*
X149883568Y-124251019D01*
X149883568Y-124251019D02*
X149645473Y-124251019D01*
X150645473Y-124251019D02*
X150645473Y-123251019D01*
X151312139Y-123251019D02*
X151502615Y-123251019D01*
X151502615Y-123251019D02*
X151597853Y-123298638D01*
X151597853Y-123298638D02*
X151693091Y-123393876D01*
X151693091Y-123393876D02*
X151740710Y-123584352D01*
X151740710Y-123584352D02*
X151740710Y-123917685D01*
X151740710Y-123917685D02*
X151693091Y-124108161D01*
X151693091Y-124108161D02*
X151597853Y-124203400D01*
X151597853Y-124203400D02*
X151502615Y-124251019D01*
X151502615Y-124251019D02*
X151312139Y-124251019D01*
X151312139Y-124251019D02*
X151216901Y-124203400D01*
X151216901Y-124203400D02*
X151121663Y-124108161D01*
X151121663Y-124108161D02*
X151074044Y-123917685D01*
X151074044Y-123917685D02*
X151074044Y-123584352D01*
X151074044Y-123584352D02*
X151121663Y-123393876D01*
X151121663Y-123393876D02*
X151216901Y-123298638D01*
X151216901Y-123298638D02*
X151312139Y-123251019D01*
D13*
X154631580Y-97804266D02*
X154679200Y-97851885D01*
X154679200Y-97851885D02*
X154726819Y-97994742D01*
X154726819Y-97994742D02*
X154726819Y-98089980D01*
X154726819Y-98089980D02*
X154679200Y-98232837D01*
X154679200Y-98232837D02*
X154583961Y-98328075D01*
X154583961Y-98328075D02*
X154488723Y-98375694D01*
X154488723Y-98375694D02*
X154298247Y-98423313D01*
X154298247Y-98423313D02*
X154155390Y-98423313D01*
X154155390Y-98423313D02*
X153964914Y-98375694D01*
X153964914Y-98375694D02*
X153869676Y-98328075D01*
X153869676Y-98328075D02*
X153774438Y-98232837D01*
X153774438Y-98232837D02*
X153726819Y-98089980D01*
X153726819Y-98089980D02*
X153726819Y-97994742D01*
X153726819Y-97994742D02*
X153774438Y-97851885D01*
X153774438Y-97851885D02*
X153822057Y-97804266D01*
X153822057Y-97423313D02*
X153774438Y-97375694D01*
X153774438Y-97375694D02*
X153726819Y-97280456D01*
X153726819Y-97280456D02*
X153726819Y-97042361D01*
X153726819Y-97042361D02*
X153774438Y-96947123D01*
X153774438Y-96947123D02*
X153822057Y-96899504D01*
X153822057Y-96899504D02*
X153917295Y-96851885D01*
X153917295Y-96851885D02*
X154012533Y-96851885D01*
X154012533Y-96851885D02*
X154155390Y-96899504D01*
X154155390Y-96899504D02*
X154726819Y-97470932D01*
X154726819Y-97470932D02*
X154726819Y-96851885D01*
X149502019Y-80183458D02*
X149025828Y-80516791D01*
X149502019Y-80754886D02*
X148502019Y-80754886D01*
X148502019Y-80754886D02*
X148502019Y-80373934D01*
X148502019Y-80373934D02*
X148549638Y-80278696D01*
X148549638Y-80278696D02*
X148597257Y-80231077D01*
X148597257Y-80231077D02*
X148692495Y-80183458D01*
X148692495Y-80183458D02*
X148835352Y-80183458D01*
X148835352Y-80183458D02*
X148930590Y-80231077D01*
X148930590Y-80231077D02*
X148978209Y-80278696D01*
X148978209Y-80278696D02*
X149025828Y-80373934D01*
X149025828Y-80373934D02*
X149025828Y-80754886D01*
X149502019Y-79231077D02*
X149502019Y-79802505D01*
X149502019Y-79516791D02*
X148502019Y-79516791D01*
X148502019Y-79516791D02*
X148644876Y-79612029D01*
X148644876Y-79612029D02*
X148740114Y-79707267D01*
X148740114Y-79707267D02*
X148787733Y-79802505D01*
X148835352Y-78373934D02*
X149502019Y-78373934D01*
X148454400Y-78612029D02*
X149168685Y-78850124D01*
X149168685Y-78850124D02*
X149168685Y-78231077D01*
X153245052Y-86307833D02*
X153245052Y-87022118D01*
X153245052Y-87022118D02*
X153197433Y-87164975D01*
X153197433Y-87164975D02*
X153102195Y-87260214D01*
X153102195Y-87260214D02*
X152959338Y-87307833D01*
X152959338Y-87307833D02*
X152864100Y-87307833D01*
X154245052Y-87307833D02*
X153673624Y-87307833D01*
X153959338Y-87307833D02*
X153959338Y-86307833D01*
X153959338Y-86307833D02*
X153864100Y-86450690D01*
X153864100Y-86450690D02*
X153768862Y-86545928D01*
X153768862Y-86545928D02*
X153673624Y-86593547D01*
X181353619Y-125509257D02*
X180877428Y-125842590D01*
X181353619Y-126080685D02*
X180353619Y-126080685D01*
X180353619Y-126080685D02*
X180353619Y-125699733D01*
X180353619Y-125699733D02*
X180401238Y-125604495D01*
X180401238Y-125604495D02*
X180448857Y-125556876D01*
X180448857Y-125556876D02*
X180544095Y-125509257D01*
X180544095Y-125509257D02*
X180686952Y-125509257D01*
X180686952Y-125509257D02*
X180782190Y-125556876D01*
X180782190Y-125556876D02*
X180829809Y-125604495D01*
X180829809Y-125604495D02*
X180877428Y-125699733D01*
X180877428Y-125699733D02*
X180877428Y-126080685D01*
X181353619Y-124556876D02*
X181353619Y-125128304D01*
X181353619Y-124842590D02*
X180353619Y-124842590D01*
X180353619Y-124842590D02*
X180496476Y-124937828D01*
X180496476Y-124937828D02*
X180591714Y-125033066D01*
X180591714Y-125033066D02*
X180639333Y-125128304D01*
X181353619Y-124080685D02*
X181353619Y-123890209D01*
X181353619Y-123890209D02*
X181306000Y-123794971D01*
X181306000Y-123794971D02*
X181258380Y-123747352D01*
X181258380Y-123747352D02*
X181115523Y-123652114D01*
X181115523Y-123652114D02*
X180925047Y-123604495D01*
X180925047Y-123604495D02*
X180544095Y-123604495D01*
X180544095Y-123604495D02*
X180448857Y-123652114D01*
X180448857Y-123652114D02*
X180401238Y-123699733D01*
X180401238Y-123699733D02*
X180353619Y-123794971D01*
X180353619Y-123794971D02*
X180353619Y-123985447D01*
X180353619Y-123985447D02*
X180401238Y-124080685D01*
X180401238Y-124080685D02*
X180448857Y-124128304D01*
X180448857Y-124128304D02*
X180544095Y-124175923D01*
X180544095Y-124175923D02*
X180782190Y-124175923D01*
X180782190Y-124175923D02*
X180877428Y-124128304D01*
X180877428Y-124128304D02*
X180925047Y-124080685D01*
X180925047Y-124080685D02*
X180972666Y-123985447D01*
X180972666Y-123985447D02*
X180972666Y-123794971D01*
X180972666Y-123794971D02*
X180925047Y-123699733D01*
X180925047Y-123699733D02*
X180877428Y-123652114D01*
X180877428Y-123652114D02*
X180782190Y-123604495D01*
X139898720Y-113766266D02*
X139422529Y-114099599D01*
X139898720Y-114337694D02*
X138898720Y-114337694D01*
X138898720Y-114337694D02*
X138898720Y-113956742D01*
X138898720Y-113956742D02*
X138946339Y-113861504D01*
X138946339Y-113861504D02*
X138993958Y-113813885D01*
X138993958Y-113813885D02*
X139089196Y-113766266D01*
X139089196Y-113766266D02*
X139232053Y-113766266D01*
X139232053Y-113766266D02*
X139327291Y-113813885D01*
X139327291Y-113813885D02*
X139374910Y-113861504D01*
X139374910Y-113861504D02*
X139422529Y-113956742D01*
X139422529Y-113956742D02*
X139422529Y-114337694D01*
X139327291Y-113194837D02*
X139279672Y-113290075D01*
X139279672Y-113290075D02*
X139232053Y-113337694D01*
X139232053Y-113337694D02*
X139136815Y-113385313D01*
X139136815Y-113385313D02*
X139089196Y-113385313D01*
X139089196Y-113385313D02*
X138993958Y-113337694D01*
X138993958Y-113337694D02*
X138946339Y-113290075D01*
X138946339Y-113290075D02*
X138898720Y-113194837D01*
X138898720Y-113194837D02*
X138898720Y-113004361D01*
X138898720Y-113004361D02*
X138946339Y-112909123D01*
X138946339Y-112909123D02*
X138993958Y-112861504D01*
X138993958Y-112861504D02*
X139089196Y-112813885D01*
X139089196Y-112813885D02*
X139136815Y-112813885D01*
X139136815Y-112813885D02*
X139232053Y-112861504D01*
X139232053Y-112861504D02*
X139279672Y-112909123D01*
X139279672Y-112909123D02*
X139327291Y-113004361D01*
X139327291Y-113004361D02*
X139327291Y-113194837D01*
X139327291Y-113194837D02*
X139374910Y-113290075D01*
X139374910Y-113290075D02*
X139422529Y-113337694D01*
X139422529Y-113337694D02*
X139517767Y-113385313D01*
X139517767Y-113385313D02*
X139708243Y-113385313D01*
X139708243Y-113385313D02*
X139803481Y-113337694D01*
X139803481Y-113337694D02*
X139851101Y-113290075D01*
X139851101Y-113290075D02*
X139898720Y-113194837D01*
X139898720Y-113194837D02*
X139898720Y-113004361D01*
X139898720Y-113004361D02*
X139851101Y-112909123D01*
X139851101Y-112909123D02*
X139803481Y-112861504D01*
X139803481Y-112861504D02*
X139708243Y-112813885D01*
X139708243Y-112813885D02*
X139517767Y-112813885D01*
X139517767Y-112813885D02*
X139422529Y-112861504D01*
X139422529Y-112861504D02*
X139374910Y-112909123D01*
X139374910Y-112909123D02*
X139327291Y-113004361D01*
X149298819Y-99652057D02*
X148822628Y-99985390D01*
X149298819Y-100223485D02*
X148298819Y-100223485D01*
X148298819Y-100223485D02*
X148298819Y-99842533D01*
X148298819Y-99842533D02*
X148346438Y-99747295D01*
X148346438Y-99747295D02*
X148394057Y-99699676D01*
X148394057Y-99699676D02*
X148489295Y-99652057D01*
X148489295Y-99652057D02*
X148632152Y-99652057D01*
X148632152Y-99652057D02*
X148727390Y-99699676D01*
X148727390Y-99699676D02*
X148775009Y-99747295D01*
X148775009Y-99747295D02*
X148822628Y-99842533D01*
X148822628Y-99842533D02*
X148822628Y-100223485D01*
X149298819Y-98699676D02*
X149298819Y-99271104D01*
X149298819Y-98985390D02*
X148298819Y-98985390D01*
X148298819Y-98985390D02*
X148441676Y-99080628D01*
X148441676Y-99080628D02*
X148536914Y-99175866D01*
X148536914Y-99175866D02*
X148584533Y-99271104D01*
X148394057Y-98318723D02*
X148346438Y-98271104D01*
X148346438Y-98271104D02*
X148298819Y-98175866D01*
X148298819Y-98175866D02*
X148298819Y-97937771D01*
X148298819Y-97937771D02*
X148346438Y-97842533D01*
X148346438Y-97842533D02*
X148394057Y-97794914D01*
X148394057Y-97794914D02*
X148489295Y-97747295D01*
X148489295Y-97747295D02*
X148584533Y-97747295D01*
X148584533Y-97747295D02*
X148727390Y-97794914D01*
X148727390Y-97794914D02*
X149298819Y-98366342D01*
X149298819Y-98366342D02*
X149298819Y-97747295D01*
X152751980Y-104713066D02*
X152799600Y-104760685D01*
X152799600Y-104760685D02*
X152847219Y-104903542D01*
X152847219Y-104903542D02*
X152847219Y-104998780D01*
X152847219Y-104998780D02*
X152799600Y-105141637D01*
X152799600Y-105141637D02*
X152704361Y-105236875D01*
X152704361Y-105236875D02*
X152609123Y-105284494D01*
X152609123Y-105284494D02*
X152418647Y-105332113D01*
X152418647Y-105332113D02*
X152275790Y-105332113D01*
X152275790Y-105332113D02*
X152085314Y-105284494D01*
X152085314Y-105284494D02*
X151990076Y-105236875D01*
X151990076Y-105236875D02*
X151894838Y-105141637D01*
X151894838Y-105141637D02*
X151847219Y-104998780D01*
X151847219Y-104998780D02*
X151847219Y-104903542D01*
X151847219Y-104903542D02*
X151894838Y-104760685D01*
X151894838Y-104760685D02*
X151942457Y-104713066D01*
X151847219Y-104379732D02*
X151847219Y-103713066D01*
X151847219Y-103713066D02*
X152847219Y-104141637D01*
X173430405Y-128855694D02*
X172430405Y-128855694D01*
X172430405Y-128855694D02*
X172430405Y-128617599D01*
X172430405Y-128617599D02*
X172478024Y-128474742D01*
X172478024Y-128474742D02*
X172573262Y-128379504D01*
X172573262Y-128379504D02*
X172668500Y-128331885D01*
X172668500Y-128331885D02*
X172858976Y-128284266D01*
X172858976Y-128284266D02*
X173001833Y-128284266D01*
X173001833Y-128284266D02*
X173192309Y-128331885D01*
X173192309Y-128331885D02*
X173287547Y-128379504D01*
X173287547Y-128379504D02*
X173382786Y-128474742D01*
X173382786Y-128474742D02*
X173430405Y-128617599D01*
X173430405Y-128617599D02*
X173430405Y-128855694D01*
X172525643Y-127903313D02*
X172478024Y-127855694D01*
X172478024Y-127855694D02*
X172430405Y-127760456D01*
X172430405Y-127760456D02*
X172430405Y-127522361D01*
X172430405Y-127522361D02*
X172478024Y-127427123D01*
X172478024Y-127427123D02*
X172525643Y-127379504D01*
X172525643Y-127379504D02*
X172620881Y-127331885D01*
X172620881Y-127331885D02*
X172716119Y-127331885D01*
X172716119Y-127331885D02*
X172858976Y-127379504D01*
X172858976Y-127379504D02*
X173430405Y-127950932D01*
X173430405Y-127950932D02*
X173430405Y-127331885D01*
X146978019Y-113233104D02*
X147787542Y-113233104D01*
X147787542Y-113233104D02*
X147882780Y-113185485D01*
X147882780Y-113185485D02*
X147930400Y-113137866D01*
X147930400Y-113137866D02*
X147978019Y-113042628D01*
X147978019Y-113042628D02*
X147978019Y-112852152D01*
X147978019Y-112852152D02*
X147930400Y-112756914D01*
X147930400Y-112756914D02*
X147882780Y-112709295D01*
X147882780Y-112709295D02*
X147787542Y-112661676D01*
X147787542Y-112661676D02*
X146978019Y-112661676D01*
X146978019Y-112280723D02*
X146978019Y-111614057D01*
X146978019Y-111614057D02*
X147978019Y-112042628D01*
X164984133Y-112525980D02*
X164936514Y-112573600D01*
X164936514Y-112573600D02*
X164793657Y-112621219D01*
X164793657Y-112621219D02*
X164698419Y-112621219D01*
X164698419Y-112621219D02*
X164555562Y-112573600D01*
X164555562Y-112573600D02*
X164460324Y-112478361D01*
X164460324Y-112478361D02*
X164412705Y-112383123D01*
X164412705Y-112383123D02*
X164365086Y-112192647D01*
X164365086Y-112192647D02*
X164365086Y-112049790D01*
X164365086Y-112049790D02*
X164412705Y-111859314D01*
X164412705Y-111859314D02*
X164460324Y-111764076D01*
X164460324Y-111764076D02*
X164555562Y-111668838D01*
X164555562Y-111668838D02*
X164698419Y-111621219D01*
X164698419Y-111621219D02*
X164793657Y-111621219D01*
X164793657Y-111621219D02*
X164936514Y-111668838D01*
X164936514Y-111668838D02*
X164984133Y-111716457D01*
X165555562Y-112049790D02*
X165460324Y-112002171D01*
X165460324Y-112002171D02*
X165412705Y-111954552D01*
X165412705Y-111954552D02*
X165365086Y-111859314D01*
X165365086Y-111859314D02*
X165365086Y-111811695D01*
X165365086Y-111811695D02*
X165412705Y-111716457D01*
X165412705Y-111716457D02*
X165460324Y-111668838D01*
X165460324Y-111668838D02*
X165555562Y-111621219D01*
X165555562Y-111621219D02*
X165746038Y-111621219D01*
X165746038Y-111621219D02*
X165841276Y-111668838D01*
X165841276Y-111668838D02*
X165888895Y-111716457D01*
X165888895Y-111716457D02*
X165936514Y-111811695D01*
X165936514Y-111811695D02*
X165936514Y-111859314D01*
X165936514Y-111859314D02*
X165888895Y-111954552D01*
X165888895Y-111954552D02*
X165841276Y-112002171D01*
X165841276Y-112002171D02*
X165746038Y-112049790D01*
X165746038Y-112049790D02*
X165555562Y-112049790D01*
X165555562Y-112049790D02*
X165460324Y-112097409D01*
X165460324Y-112097409D02*
X165412705Y-112145028D01*
X165412705Y-112145028D02*
X165365086Y-112240266D01*
X165365086Y-112240266D02*
X165365086Y-112430742D01*
X165365086Y-112430742D02*
X165412705Y-112525980D01*
X165412705Y-112525980D02*
X165460324Y-112573600D01*
X165460324Y-112573600D02*
X165555562Y-112621219D01*
X165555562Y-112621219D02*
X165746038Y-112621219D01*
X165746038Y-112621219D02*
X165841276Y-112573600D01*
X165841276Y-112573600D02*
X165888895Y-112525980D01*
X165888895Y-112525980D02*
X165936514Y-112430742D01*
X165936514Y-112430742D02*
X165936514Y-112240266D01*
X165936514Y-112240266D02*
X165888895Y-112145028D01*
X165888895Y-112145028D02*
X165841276Y-112097409D01*
X165841276Y-112097409D02*
X165746038Y-112049790D01*
X149863980Y-106916457D02*
X149911600Y-106964076D01*
X149911600Y-106964076D02*
X149959219Y-107106933D01*
X149959219Y-107106933D02*
X149959219Y-107202171D01*
X149959219Y-107202171D02*
X149911600Y-107345028D01*
X149911600Y-107345028D02*
X149816361Y-107440266D01*
X149816361Y-107440266D02*
X149721123Y-107487885D01*
X149721123Y-107487885D02*
X149530647Y-107535504D01*
X149530647Y-107535504D02*
X149387790Y-107535504D01*
X149387790Y-107535504D02*
X149197314Y-107487885D01*
X149197314Y-107487885D02*
X149102076Y-107440266D01*
X149102076Y-107440266D02*
X149006838Y-107345028D01*
X149006838Y-107345028D02*
X148959219Y-107202171D01*
X148959219Y-107202171D02*
X148959219Y-107106933D01*
X148959219Y-107106933D02*
X149006838Y-106964076D01*
X149006838Y-106964076D02*
X149054457Y-106916457D01*
X149959219Y-105964076D02*
X149959219Y-106535504D01*
X149959219Y-106249790D02*
X148959219Y-106249790D01*
X148959219Y-106249790D02*
X149102076Y-106345028D01*
X149102076Y-106345028D02*
X149197314Y-106440266D01*
X149197314Y-106440266D02*
X149244933Y-106535504D01*
X149959219Y-105487885D02*
X149959219Y-105297409D01*
X149959219Y-105297409D02*
X149911600Y-105202171D01*
X149911600Y-105202171D02*
X149863980Y-105154552D01*
X149863980Y-105154552D02*
X149721123Y-105059314D01*
X149721123Y-105059314D02*
X149530647Y-105011695D01*
X149530647Y-105011695D02*
X149149695Y-105011695D01*
X149149695Y-105011695D02*
X149054457Y-105059314D01*
X149054457Y-105059314D02*
X149006838Y-105106933D01*
X149006838Y-105106933D02*
X148959219Y-105202171D01*
X148959219Y-105202171D02*
X148959219Y-105392647D01*
X148959219Y-105392647D02*
X149006838Y-105487885D01*
X149006838Y-105487885D02*
X149054457Y-105535504D01*
X149054457Y-105535504D02*
X149149695Y-105583123D01*
X149149695Y-105583123D02*
X149387790Y-105583123D01*
X149387790Y-105583123D02*
X149483028Y-105535504D01*
X149483028Y-105535504D02*
X149530647Y-105487885D01*
X149530647Y-105487885D02*
X149578266Y-105392647D01*
X149578266Y-105392647D02*
X149578266Y-105202171D01*
X149578266Y-105202171D02*
X149530647Y-105106933D01*
X149530647Y-105106933D02*
X149483028Y-105059314D01*
X149483028Y-105059314D02*
X149387790Y-105011695D01*
X171943733Y-106683980D02*
X171896114Y-106731600D01*
X171896114Y-106731600D02*
X171753257Y-106779219D01*
X171753257Y-106779219D02*
X171658019Y-106779219D01*
X171658019Y-106779219D02*
X171515162Y-106731600D01*
X171515162Y-106731600D02*
X171419924Y-106636361D01*
X171419924Y-106636361D02*
X171372305Y-106541123D01*
X171372305Y-106541123D02*
X171324686Y-106350647D01*
X171324686Y-106350647D02*
X171324686Y-106207790D01*
X171324686Y-106207790D02*
X171372305Y-106017314D01*
X171372305Y-106017314D02*
X171419924Y-105922076D01*
X171419924Y-105922076D02*
X171515162Y-105826838D01*
X171515162Y-105826838D02*
X171658019Y-105779219D01*
X171658019Y-105779219D02*
X171753257Y-105779219D01*
X171753257Y-105779219D02*
X171896114Y-105826838D01*
X171896114Y-105826838D02*
X171943733Y-105874457D01*
X172800876Y-106112552D02*
X172800876Y-106779219D01*
X172562781Y-105731600D02*
X172324686Y-106445885D01*
X172324686Y-106445885D02*
X172943733Y-106445885D01*
X172666819Y-105017675D02*
X171666819Y-105017675D01*
X172143009Y-105017675D02*
X172143009Y-104446247D01*
X172666819Y-104446247D02*
X171666819Y-104446247D01*
X172619200Y-104017675D02*
X172666819Y-103874818D01*
X172666819Y-103874818D02*
X172666819Y-103636723D01*
X172666819Y-103636723D02*
X172619200Y-103541485D01*
X172619200Y-103541485D02*
X172571580Y-103493866D01*
X172571580Y-103493866D02*
X172476342Y-103446247D01*
X172476342Y-103446247D02*
X172381104Y-103446247D01*
X172381104Y-103446247D02*
X172285866Y-103493866D01*
X172285866Y-103493866D02*
X172238247Y-103541485D01*
X172238247Y-103541485D02*
X172190628Y-103636723D01*
X172190628Y-103636723D02*
X172143009Y-103827199D01*
X172143009Y-103827199D02*
X172095390Y-103922437D01*
X172095390Y-103922437D02*
X172047771Y-103970056D01*
X172047771Y-103970056D02*
X171952533Y-104017675D01*
X171952533Y-104017675D02*
X171857295Y-104017675D01*
X171857295Y-104017675D02*
X171762057Y-103970056D01*
X171762057Y-103970056D02*
X171714438Y-103922437D01*
X171714438Y-103922437D02*
X171666819Y-103827199D01*
X171666819Y-103827199D02*
X171666819Y-103589104D01*
X171666819Y-103589104D02*
X171714438Y-103446247D01*
X172143009Y-103017675D02*
X172143009Y-102684342D01*
X172666819Y-102541485D02*
X172666819Y-103017675D01*
X172666819Y-103017675D02*
X171666819Y-103017675D01*
X171666819Y-103017675D02*
X171666819Y-102541485D01*
X172666819Y-101589104D02*
X172666819Y-102160532D01*
X172666819Y-101874818D02*
X171666819Y-101874818D01*
X171666819Y-101874818D02*
X171809676Y-101970056D01*
X171809676Y-101970056D02*
X171904914Y-102065294D01*
X171904914Y-102065294D02*
X171952533Y-102160532D01*
X135353466Y-79464819D02*
X135353466Y-80179104D01*
X135353466Y-80179104D02*
X135305847Y-80321961D01*
X135305847Y-80321961D02*
X135210609Y-80417200D01*
X135210609Y-80417200D02*
X135067752Y-80464819D01*
X135067752Y-80464819D02*
X134972514Y-80464819D01*
X136305847Y-79464819D02*
X135829657Y-79464819D01*
X135829657Y-79464819D02*
X135782038Y-79941009D01*
X135782038Y-79941009D02*
X135829657Y-79893390D01*
X135829657Y-79893390D02*
X135924895Y-79845771D01*
X135924895Y-79845771D02*
X136162990Y-79845771D01*
X136162990Y-79845771D02*
X136258228Y-79893390D01*
X136258228Y-79893390D02*
X136305847Y-79941009D01*
X136305847Y-79941009D02*
X136353466Y-80036247D01*
X136353466Y-80036247D02*
X136353466Y-80274342D01*
X136353466Y-80274342D02*
X136305847Y-80369580D01*
X136305847Y-80369580D02*
X136258228Y-80417200D01*
X136258228Y-80417200D02*
X136162990Y-80464819D01*
X136162990Y-80464819D02*
X135924895Y-80464819D01*
X135924895Y-80464819D02*
X135829657Y-80417200D01*
X135829657Y-80417200D02*
X135782038Y-80369580D01*
X135302666Y-94247619D02*
X135302666Y-94961904D01*
X135302666Y-94961904D02*
X135255047Y-95104761D01*
X135255047Y-95104761D02*
X135159809Y-95200000D01*
X135159809Y-95200000D02*
X135016952Y-95247619D01*
X135016952Y-95247619D02*
X134921714Y-95247619D01*
X135731238Y-94342857D02*
X135778857Y-94295238D01*
X135778857Y-94295238D02*
X135874095Y-94247619D01*
X135874095Y-94247619D02*
X136112190Y-94247619D01*
X136112190Y-94247619D02*
X136207428Y-94295238D01*
X136207428Y-94295238D02*
X136255047Y-94342857D01*
X136255047Y-94342857D02*
X136302666Y-94438095D01*
X136302666Y-94438095D02*
X136302666Y-94533333D01*
X136302666Y-94533333D02*
X136255047Y-94676190D01*
X136255047Y-94676190D02*
X135683619Y-95247619D01*
X135683619Y-95247619D02*
X136302666Y-95247619D01*
X139856380Y-87561658D02*
X139904000Y-87609277D01*
X139904000Y-87609277D02*
X139951619Y-87752134D01*
X139951619Y-87752134D02*
X139951619Y-87847372D01*
X139951619Y-87847372D02*
X139904000Y-87990229D01*
X139904000Y-87990229D02*
X139808761Y-88085467D01*
X139808761Y-88085467D02*
X139713523Y-88133086D01*
X139713523Y-88133086D02*
X139523047Y-88180705D01*
X139523047Y-88180705D02*
X139380190Y-88180705D01*
X139380190Y-88180705D02*
X139189714Y-88133086D01*
X139189714Y-88133086D02*
X139094476Y-88085467D01*
X139094476Y-88085467D02*
X138999238Y-87990229D01*
X138999238Y-87990229D02*
X138951619Y-87847372D01*
X138951619Y-87847372D02*
X138951619Y-87752134D01*
X138951619Y-87752134D02*
X138999238Y-87609277D01*
X138999238Y-87609277D02*
X139046857Y-87561658D01*
X139951619Y-86609277D02*
X139951619Y-87180705D01*
X139951619Y-86894991D02*
X138951619Y-86894991D01*
X138951619Y-86894991D02*
X139094476Y-86990229D01*
X139094476Y-86990229D02*
X139189714Y-87085467D01*
X139189714Y-87085467D02*
X139237333Y-87180705D01*
X139284952Y-85752134D02*
X139951619Y-85752134D01*
X138904000Y-85990229D02*
X139618285Y-86228324D01*
X139618285Y-86228324D02*
X139618285Y-85609277D01*
X138735528Y-92737833D02*
X138402195Y-92261642D01*
X138164100Y-92737833D02*
X138164100Y-91737833D01*
X138164100Y-91737833D02*
X138545052Y-91737833D01*
X138545052Y-91737833D02*
X138640290Y-91785452D01*
X138640290Y-91785452D02*
X138687909Y-91833071D01*
X138687909Y-91833071D02*
X138735528Y-91928309D01*
X138735528Y-91928309D02*
X138735528Y-92071166D01*
X138735528Y-92071166D02*
X138687909Y-92166404D01*
X138687909Y-92166404D02*
X138640290Y-92214023D01*
X138640290Y-92214023D02*
X138545052Y-92261642D01*
X138545052Y-92261642D02*
X138164100Y-92261642D01*
X139687909Y-92737833D02*
X139116481Y-92737833D01*
X139402195Y-92737833D02*
X139402195Y-91737833D01*
X139402195Y-91737833D02*
X139306957Y-91880690D01*
X139306957Y-91880690D02*
X139211719Y-91975928D01*
X139211719Y-91975928D02*
X139116481Y-92023547D01*
X140259338Y-92166404D02*
X140164100Y-92118785D01*
X140164100Y-92118785D02*
X140116481Y-92071166D01*
X140116481Y-92071166D02*
X140068862Y-91975928D01*
X140068862Y-91975928D02*
X140068862Y-91928309D01*
X140068862Y-91928309D02*
X140116481Y-91833071D01*
X140116481Y-91833071D02*
X140164100Y-91785452D01*
X140164100Y-91785452D02*
X140259338Y-91737833D01*
X140259338Y-91737833D02*
X140449814Y-91737833D01*
X140449814Y-91737833D02*
X140545052Y-91785452D01*
X140545052Y-91785452D02*
X140592671Y-91833071D01*
X140592671Y-91833071D02*
X140640290Y-91928309D01*
X140640290Y-91928309D02*
X140640290Y-91975928D01*
X140640290Y-91975928D02*
X140592671Y-92071166D01*
X140592671Y-92071166D02*
X140545052Y-92118785D01*
X140545052Y-92118785D02*
X140449814Y-92166404D01*
X140449814Y-92166404D02*
X140259338Y-92166404D01*
X140259338Y-92166404D02*
X140164100Y-92214023D01*
X140164100Y-92214023D02*
X140116481Y-92261642D01*
X140116481Y-92261642D02*
X140068862Y-92356880D01*
X140068862Y-92356880D02*
X140068862Y-92547356D01*
X140068862Y-92547356D02*
X140116481Y-92642594D01*
X140116481Y-92642594D02*
X140164100Y-92690214D01*
X140164100Y-92690214D02*
X140259338Y-92737833D01*
X140259338Y-92737833D02*
X140449814Y-92737833D01*
X140449814Y-92737833D02*
X140545052Y-92690214D01*
X140545052Y-92690214D02*
X140592671Y-92642594D01*
X140592671Y-92642594D02*
X140640290Y-92547356D01*
X140640290Y-92547356D02*
X140640290Y-92356880D01*
X140640290Y-92356880D02*
X140592671Y-92261642D01*
X140592671Y-92261642D02*
X140545052Y-92214023D01*
X140545052Y-92214023D02*
X140449814Y-92166404D01*
X181471352Y-128467304D02*
X181947542Y-128467304D01*
X181376114Y-128753019D02*
X181709447Y-127753019D01*
X181709447Y-127753019D02*
X182042780Y-128753019D01*
X182376114Y-128753019D02*
X182376114Y-127753019D01*
X182376114Y-127753019D02*
X182947542Y-128753019D01*
X182947542Y-128753019D02*
X182947542Y-127753019D01*
X183280876Y-127753019D02*
X183852304Y-127753019D01*
X183566590Y-128753019D02*
X183566590Y-127753019D01*
X184709447Y-128753019D02*
X184138019Y-128753019D01*
X184423733Y-128753019D02*
X184423733Y-127753019D01*
X184423733Y-127753019D02*
X184328495Y-127895876D01*
X184328495Y-127895876D02*
X184233257Y-127991114D01*
X184233257Y-127991114D02*
X184138019Y-128038733D01*
X146514641Y-114913580D02*
X146467022Y-114961200D01*
X146467022Y-114961200D02*
X146324165Y-115008819D01*
X146324165Y-115008819D02*
X146228927Y-115008819D01*
X146228927Y-115008819D02*
X146086070Y-114961200D01*
X146086070Y-114961200D02*
X145990832Y-114865961D01*
X145990832Y-114865961D02*
X145943213Y-114770723D01*
X145943213Y-114770723D02*
X145895594Y-114580247D01*
X145895594Y-114580247D02*
X145895594Y-114437390D01*
X145895594Y-114437390D02*
X145943213Y-114246914D01*
X145943213Y-114246914D02*
X145990832Y-114151676D01*
X145990832Y-114151676D02*
X146086070Y-114056438D01*
X146086070Y-114056438D02*
X146228927Y-114008819D01*
X146228927Y-114008819D02*
X146324165Y-114008819D01*
X146324165Y-114008819D02*
X146467022Y-114056438D01*
X146467022Y-114056438D02*
X146514641Y-114104057D01*
X147467022Y-115008819D02*
X146895594Y-115008819D01*
X147181308Y-115008819D02*
X147181308Y-114008819D01*
X147181308Y-114008819D02*
X147086070Y-114151676D01*
X147086070Y-114151676D02*
X146990832Y-114246914D01*
X146990832Y-114246914D02*
X146895594Y-114294533D01*
X148038451Y-114437390D02*
X147943213Y-114389771D01*
X147943213Y-114389771D02*
X147895594Y-114342152D01*
X147895594Y-114342152D02*
X147847975Y-114246914D01*
X147847975Y-114246914D02*
X147847975Y-114199295D01*
X147847975Y-114199295D02*
X147895594Y-114104057D01*
X147895594Y-114104057D02*
X147943213Y-114056438D01*
X147943213Y-114056438D02*
X148038451Y-114008819D01*
X148038451Y-114008819D02*
X148228927Y-114008819D01*
X148228927Y-114008819D02*
X148324165Y-114056438D01*
X148324165Y-114056438D02*
X148371784Y-114104057D01*
X148371784Y-114104057D02*
X148419403Y-114199295D01*
X148419403Y-114199295D02*
X148419403Y-114246914D01*
X148419403Y-114246914D02*
X148371784Y-114342152D01*
X148371784Y-114342152D02*
X148324165Y-114389771D01*
X148324165Y-114389771D02*
X148228927Y-114437390D01*
X148228927Y-114437390D02*
X148038451Y-114437390D01*
X148038451Y-114437390D02*
X147943213Y-114485009D01*
X147943213Y-114485009D02*
X147895594Y-114532628D01*
X147895594Y-114532628D02*
X147847975Y-114627866D01*
X147847975Y-114627866D02*
X147847975Y-114818342D01*
X147847975Y-114818342D02*
X147895594Y-114913580D01*
X147895594Y-114913580D02*
X147943213Y-114961200D01*
X147943213Y-114961200D02*
X148038451Y-115008819D01*
X148038451Y-115008819D02*
X148228927Y-115008819D01*
X148228927Y-115008819D02*
X148324165Y-114961200D01*
X148324165Y-114961200D02*
X148371784Y-114913580D01*
X148371784Y-114913580D02*
X148419403Y-114818342D01*
X148419403Y-114818342D02*
X148419403Y-114627866D01*
X148419403Y-114627866D02*
X148371784Y-114532628D01*
X148371784Y-114532628D02*
X148324165Y-114485009D01*
X148324165Y-114485009D02*
X148228927Y-114437390D01*
X179362267Y-102769200D02*
X179505124Y-102816819D01*
X179505124Y-102816819D02*
X179743219Y-102816819D01*
X179743219Y-102816819D02*
X179838457Y-102769200D01*
X179838457Y-102769200D02*
X179886076Y-102721580D01*
X179886076Y-102721580D02*
X179933695Y-102626342D01*
X179933695Y-102626342D02*
X179933695Y-102531104D01*
X179933695Y-102531104D02*
X179886076Y-102435866D01*
X179886076Y-102435866D02*
X179838457Y-102388247D01*
X179838457Y-102388247D02*
X179743219Y-102340628D01*
X179743219Y-102340628D02*
X179552743Y-102293009D01*
X179552743Y-102293009D02*
X179457505Y-102245390D01*
X179457505Y-102245390D02*
X179409886Y-102197771D01*
X179409886Y-102197771D02*
X179362267Y-102102533D01*
X179362267Y-102102533D02*
X179362267Y-102007295D01*
X179362267Y-102007295D02*
X179409886Y-101912057D01*
X179409886Y-101912057D02*
X179457505Y-101864438D01*
X179457505Y-101864438D02*
X179552743Y-101816819D01*
X179552743Y-101816819D02*
X179790838Y-101816819D01*
X179790838Y-101816819D02*
X179933695Y-101864438D01*
X180267029Y-101816819D02*
X180505124Y-102816819D01*
X180505124Y-102816819D02*
X180695600Y-102102533D01*
X180695600Y-102102533D02*
X180886076Y-102816819D01*
X180886076Y-102816819D02*
X181124172Y-101816819D01*
X182028933Y-102816819D02*
X181457505Y-102816819D01*
X181743219Y-102816819D02*
X181743219Y-101816819D01*
X181743219Y-101816819D02*
X181647981Y-101959676D01*
X181647981Y-101959676D02*
X181552743Y-102054914D01*
X181552743Y-102054914D02*
X181457505Y-102102533D01*
X149298819Y-95569066D02*
X148822628Y-95902399D01*
X149298819Y-96140494D02*
X148298819Y-96140494D01*
X148298819Y-96140494D02*
X148298819Y-95759542D01*
X148298819Y-95759542D02*
X148346438Y-95664304D01*
X148346438Y-95664304D02*
X148394057Y-95616685D01*
X148394057Y-95616685D02*
X148489295Y-95569066D01*
X148489295Y-95569066D02*
X148632152Y-95569066D01*
X148632152Y-95569066D02*
X148727390Y-95616685D01*
X148727390Y-95616685D02*
X148775009Y-95664304D01*
X148775009Y-95664304D02*
X148822628Y-95759542D01*
X148822628Y-95759542D02*
X148822628Y-96140494D01*
X148298819Y-95235732D02*
X148298819Y-94569066D01*
X148298819Y-94569066D02*
X149298819Y-94997637D01*
X170200968Y-121114700D02*
X171010491Y-121114700D01*
X171010491Y-121114700D02*
X171105729Y-121067081D01*
X171105729Y-121067081D02*
X171153349Y-121019462D01*
X171153349Y-121019462D02*
X171200968Y-120924224D01*
X171200968Y-120924224D02*
X171200968Y-120733748D01*
X171200968Y-120733748D02*
X171153349Y-120638510D01*
X171153349Y-120638510D02*
X171105729Y-120590891D01*
X171105729Y-120590891D02*
X171010491Y-120543272D01*
X171010491Y-120543272D02*
X170200968Y-120543272D01*
X170296206Y-120114700D02*
X170248587Y-120067081D01*
X170248587Y-120067081D02*
X170200968Y-119971843D01*
X170200968Y-119971843D02*
X170200968Y-119733748D01*
X170200968Y-119733748D02*
X170248587Y-119638510D01*
X170248587Y-119638510D02*
X170296206Y-119590891D01*
X170296206Y-119590891D02*
X170391444Y-119543272D01*
X170391444Y-119543272D02*
X170486682Y-119543272D01*
X170486682Y-119543272D02*
X170629539Y-119590891D01*
X170629539Y-119590891D02*
X171200968Y-120162319D01*
X171200968Y-120162319D02*
X171200968Y-119543272D01*
X140511965Y-116848209D02*
X140178632Y-116848209D01*
X140178632Y-117372019D02*
X140178632Y-116372019D01*
X140178632Y-116372019D02*
X140654822Y-116372019D01*
X141559584Y-117372019D02*
X140988156Y-117372019D01*
X141273870Y-117372019D02*
X141273870Y-116372019D01*
X141273870Y-116372019D02*
X141178632Y-116514876D01*
X141178632Y-116514876D02*
X141083394Y-116610114D01*
X141083394Y-116610114D02*
X140988156Y-116657733D01*
X146514641Y-118848280D02*
X146467022Y-118895900D01*
X146467022Y-118895900D02*
X146324165Y-118943519D01*
X146324165Y-118943519D02*
X146228927Y-118943519D01*
X146228927Y-118943519D02*
X146086070Y-118895900D01*
X146086070Y-118895900D02*
X145990832Y-118800661D01*
X145990832Y-118800661D02*
X145943213Y-118705423D01*
X145943213Y-118705423D02*
X145895594Y-118514947D01*
X145895594Y-118514947D02*
X145895594Y-118372090D01*
X145895594Y-118372090D02*
X145943213Y-118181614D01*
X145943213Y-118181614D02*
X145990832Y-118086376D01*
X145990832Y-118086376D02*
X146086070Y-117991138D01*
X146086070Y-117991138D02*
X146228927Y-117943519D01*
X146228927Y-117943519D02*
X146324165Y-117943519D01*
X146324165Y-117943519D02*
X146467022Y-117991138D01*
X146467022Y-117991138D02*
X146514641Y-118038757D01*
X146895594Y-118038757D02*
X146943213Y-117991138D01*
X146943213Y-117991138D02*
X147038451Y-117943519D01*
X147038451Y-117943519D02*
X147276546Y-117943519D01*
X147276546Y-117943519D02*
X147371784Y-117991138D01*
X147371784Y-117991138D02*
X147419403Y-118038757D01*
X147419403Y-118038757D02*
X147467022Y-118133995D01*
X147467022Y-118133995D02*
X147467022Y-118229233D01*
X147467022Y-118229233D02*
X147419403Y-118372090D01*
X147419403Y-118372090D02*
X146847975Y-118943519D01*
X146847975Y-118943519D02*
X147467022Y-118943519D01*
X148086070Y-117943519D02*
X148181308Y-117943519D01*
X148181308Y-117943519D02*
X148276546Y-117991138D01*
X148276546Y-117991138D02*
X148324165Y-118038757D01*
X148324165Y-118038757D02*
X148371784Y-118133995D01*
X148371784Y-118133995D02*
X148419403Y-118324471D01*
X148419403Y-118324471D02*
X148419403Y-118562566D01*
X148419403Y-118562566D02*
X148371784Y-118753042D01*
X148371784Y-118753042D02*
X148324165Y-118848280D01*
X148324165Y-118848280D02*
X148276546Y-118895900D01*
X148276546Y-118895900D02*
X148181308Y-118943519D01*
X148181308Y-118943519D02*
X148086070Y-118943519D01*
X148086070Y-118943519D02*
X147990832Y-118895900D01*
X147990832Y-118895900D02*
X147943213Y-118848280D01*
X147943213Y-118848280D02*
X147895594Y-118753042D01*
X147895594Y-118753042D02*
X147847975Y-118562566D01*
X147847975Y-118562566D02*
X147847975Y-118324471D01*
X147847975Y-118324471D02*
X147895594Y-118133995D01*
X147895594Y-118133995D02*
X147943213Y-118038757D01*
X147943213Y-118038757D02*
X147990832Y-117991138D01*
X147990832Y-117991138D02*
X148086070Y-117943519D01*
X139856380Y-102293657D02*
X139904000Y-102341276D01*
X139904000Y-102341276D02*
X139951619Y-102484133D01*
X139951619Y-102484133D02*
X139951619Y-102579371D01*
X139951619Y-102579371D02*
X139904000Y-102722228D01*
X139904000Y-102722228D02*
X139808761Y-102817466D01*
X139808761Y-102817466D02*
X139713523Y-102865085D01*
X139713523Y-102865085D02*
X139523047Y-102912704D01*
X139523047Y-102912704D02*
X139380190Y-102912704D01*
X139380190Y-102912704D02*
X139189714Y-102865085D01*
X139189714Y-102865085D02*
X139094476Y-102817466D01*
X139094476Y-102817466D02*
X138999238Y-102722228D01*
X138999238Y-102722228D02*
X138951619Y-102579371D01*
X138951619Y-102579371D02*
X138951619Y-102484133D01*
X138951619Y-102484133D02*
X138999238Y-102341276D01*
X138999238Y-102341276D02*
X139046857Y-102293657D01*
X139951619Y-101341276D02*
X139951619Y-101912704D01*
X139951619Y-101626990D02*
X138951619Y-101626990D01*
X138951619Y-101626990D02*
X139094476Y-101722228D01*
X139094476Y-101722228D02*
X139189714Y-101817466D01*
X139189714Y-101817466D02*
X139237333Y-101912704D01*
X139951619Y-100388895D02*
X139951619Y-100960323D01*
X139951619Y-100674609D02*
X138951619Y-100674609D01*
X138951619Y-100674609D02*
X139094476Y-100769847D01*
X139094476Y-100769847D02*
X139189714Y-100865085D01*
X139189714Y-100865085D02*
X139237333Y-100960323D01*
X166678780Y-96229466D02*
X166726400Y-96277085D01*
X166726400Y-96277085D02*
X166774019Y-96419942D01*
X166774019Y-96419942D02*
X166774019Y-96515180D01*
X166774019Y-96515180D02*
X166726400Y-96658037D01*
X166726400Y-96658037D02*
X166631161Y-96753275D01*
X166631161Y-96753275D02*
X166535923Y-96800894D01*
X166535923Y-96800894D02*
X166345447Y-96848513D01*
X166345447Y-96848513D02*
X166202590Y-96848513D01*
X166202590Y-96848513D02*
X166012114Y-96800894D01*
X166012114Y-96800894D02*
X165916876Y-96753275D01*
X165916876Y-96753275D02*
X165821638Y-96658037D01*
X165821638Y-96658037D02*
X165774019Y-96515180D01*
X165774019Y-96515180D02*
X165774019Y-96419942D01*
X165774019Y-96419942D02*
X165821638Y-96277085D01*
X165821638Y-96277085D02*
X165869257Y-96229466D01*
X166774019Y-95753275D02*
X166774019Y-95562799D01*
X166774019Y-95562799D02*
X166726400Y-95467561D01*
X166726400Y-95467561D02*
X166678780Y-95419942D01*
X166678780Y-95419942D02*
X166535923Y-95324704D01*
X166535923Y-95324704D02*
X166345447Y-95277085D01*
X166345447Y-95277085D02*
X165964495Y-95277085D01*
X165964495Y-95277085D02*
X165869257Y-95324704D01*
X165869257Y-95324704D02*
X165821638Y-95372323D01*
X165821638Y-95372323D02*
X165774019Y-95467561D01*
X165774019Y-95467561D02*
X165774019Y-95658037D01*
X165774019Y-95658037D02*
X165821638Y-95753275D01*
X165821638Y-95753275D02*
X165869257Y-95800894D01*
X165869257Y-95800894D02*
X165964495Y-95848513D01*
X165964495Y-95848513D02*
X166202590Y-95848513D01*
X166202590Y-95848513D02*
X166297828Y-95800894D01*
X166297828Y-95800894D02*
X166345447Y-95753275D01*
X166345447Y-95753275D02*
X166393066Y-95658037D01*
X166393066Y-95658037D02*
X166393066Y-95467561D01*
X166393066Y-95467561D02*
X166345447Y-95372323D01*
X166345447Y-95372323D02*
X166297828Y-95324704D01*
X166297828Y-95324704D02*
X166202590Y-95277085D01*
X173430405Y-125033066D02*
X172954214Y-125366399D01*
X173430405Y-125604494D02*
X172430405Y-125604494D01*
X172430405Y-125604494D02*
X172430405Y-125223542D01*
X172430405Y-125223542D02*
X172478024Y-125128304D01*
X172478024Y-125128304D02*
X172525643Y-125080685D01*
X172525643Y-125080685D02*
X172620881Y-125033066D01*
X172620881Y-125033066D02*
X172763738Y-125033066D01*
X172763738Y-125033066D02*
X172858976Y-125080685D01*
X172858976Y-125080685D02*
X172906595Y-125128304D01*
X172906595Y-125128304D02*
X172954214Y-125223542D01*
X172954214Y-125223542D02*
X172954214Y-125604494D01*
X172430405Y-124699732D02*
X172430405Y-124080685D01*
X172430405Y-124080685D02*
X172811357Y-124414018D01*
X172811357Y-124414018D02*
X172811357Y-124271161D01*
X172811357Y-124271161D02*
X172858976Y-124175923D01*
X172858976Y-124175923D02*
X172906595Y-124128304D01*
X172906595Y-124128304D02*
X173001833Y-124080685D01*
X173001833Y-124080685D02*
X173239928Y-124080685D01*
X173239928Y-124080685D02*
X173335166Y-124128304D01*
X173335166Y-124128304D02*
X173382786Y-124175923D01*
X173382786Y-124175923D02*
X173430405Y-124271161D01*
X173430405Y-124271161D02*
X173430405Y-124556875D01*
X173430405Y-124556875D02*
X173382786Y-124652113D01*
X173382786Y-124652113D02*
X173335166Y-124699732D01*
X135404266Y-114466019D02*
X135404266Y-115180304D01*
X135404266Y-115180304D02*
X135356647Y-115323161D01*
X135356647Y-115323161D02*
X135261409Y-115418400D01*
X135261409Y-115418400D02*
X135118552Y-115466019D01*
X135118552Y-115466019D02*
X135023314Y-115466019D01*
X136309028Y-114466019D02*
X136118552Y-114466019D01*
X136118552Y-114466019D02*
X136023314Y-114513638D01*
X136023314Y-114513638D02*
X135975695Y-114561257D01*
X135975695Y-114561257D02*
X135880457Y-114704114D01*
X135880457Y-114704114D02*
X135832838Y-114894590D01*
X135832838Y-114894590D02*
X135832838Y-115275542D01*
X135832838Y-115275542D02*
X135880457Y-115370780D01*
X135880457Y-115370780D02*
X135928076Y-115418400D01*
X135928076Y-115418400D02*
X136023314Y-115466019D01*
X136023314Y-115466019D02*
X136213790Y-115466019D01*
X136213790Y-115466019D02*
X136309028Y-115418400D01*
X136309028Y-115418400D02*
X136356647Y-115370780D01*
X136356647Y-115370780D02*
X136404266Y-115275542D01*
X136404266Y-115275542D02*
X136404266Y-115037447D01*
X136404266Y-115037447D02*
X136356647Y-114942209D01*
X136356647Y-114942209D02*
X136309028Y-114894590D01*
X136309028Y-114894590D02*
X136213790Y-114846971D01*
X136213790Y-114846971D02*
X136023314Y-114846971D01*
X136023314Y-114846971D02*
X135928076Y-114894590D01*
X135928076Y-114894590D02*
X135880457Y-114942209D01*
X135880457Y-114942209D02*
X135832838Y-115037447D01*
X144540361Y-95164820D02*
X144207028Y-94688629D01*
X143968933Y-95164820D02*
X143968933Y-94164820D01*
X143968933Y-94164820D02*
X144349885Y-94164820D01*
X144349885Y-94164820D02*
X144445123Y-94212439D01*
X144445123Y-94212439D02*
X144492742Y-94260058D01*
X144492742Y-94260058D02*
X144540361Y-94355296D01*
X144540361Y-94355296D02*
X144540361Y-94498153D01*
X144540361Y-94498153D02*
X144492742Y-94593391D01*
X144492742Y-94593391D02*
X144445123Y-94641010D01*
X144445123Y-94641010D02*
X144349885Y-94688629D01*
X144349885Y-94688629D02*
X143968933Y-94688629D01*
X144826076Y-94164820D02*
X145159409Y-95164820D01*
X145159409Y-95164820D02*
X145492742Y-94164820D01*
X146349885Y-95164820D02*
X145778457Y-95164820D01*
X146064171Y-95164820D02*
X146064171Y-94164820D01*
X146064171Y-94164820D02*
X145968933Y-94307677D01*
X145968933Y-94307677D02*
X145873695Y-94402915D01*
X145873695Y-94402915D02*
X145778457Y-94450534D01*
X153162095Y-99480019D02*
X153162095Y-100289542D01*
X153162095Y-100289542D02*
X153209714Y-100384780D01*
X153209714Y-100384780D02*
X153257333Y-100432400D01*
X153257333Y-100432400D02*
X153352571Y-100480019D01*
X153352571Y-100480019D02*
X153543047Y-100480019D01*
X153543047Y-100480019D02*
X153638285Y-100432400D01*
X153638285Y-100432400D02*
X153685904Y-100384780D01*
X153685904Y-100384780D02*
X153733523Y-100289542D01*
X153733523Y-100289542D02*
X153733523Y-99480019D01*
X154733523Y-100480019D02*
X154162095Y-100480019D01*
X154447809Y-100480019D02*
X154447809Y-99480019D01*
X154447809Y-99480019D02*
X154352571Y-99622876D01*
X154352571Y-99622876D02*
X154257333Y-99718114D01*
X154257333Y-99718114D02*
X154162095Y-99765733D01*
X169167980Y-114993657D02*
X169215600Y-115041276D01*
X169215600Y-115041276D02*
X169263219Y-115184133D01*
X169263219Y-115184133D02*
X169263219Y-115279371D01*
X169263219Y-115279371D02*
X169215600Y-115422228D01*
X169215600Y-115422228D02*
X169120361Y-115517466D01*
X169120361Y-115517466D02*
X169025123Y-115565085D01*
X169025123Y-115565085D02*
X168834647Y-115612704D01*
X168834647Y-115612704D02*
X168691790Y-115612704D01*
X168691790Y-115612704D02*
X168501314Y-115565085D01*
X168501314Y-115565085D02*
X168406076Y-115517466D01*
X168406076Y-115517466D02*
X168310838Y-115422228D01*
X168310838Y-115422228D02*
X168263219Y-115279371D01*
X168263219Y-115279371D02*
X168263219Y-115184133D01*
X168263219Y-115184133D02*
X168310838Y-115041276D01*
X168310838Y-115041276D02*
X168358457Y-114993657D01*
X169263219Y-114041276D02*
X169263219Y-114612704D01*
X169263219Y-114326990D02*
X168263219Y-114326990D01*
X168263219Y-114326990D02*
X168406076Y-114422228D01*
X168406076Y-114422228D02*
X168501314Y-114517466D01*
X168501314Y-114517466D02*
X168548933Y-114612704D01*
X168263219Y-113184133D02*
X168263219Y-113374609D01*
X168263219Y-113374609D02*
X168310838Y-113469847D01*
X168310838Y-113469847D02*
X168358457Y-113517466D01*
X168358457Y-113517466D02*
X168501314Y-113612704D01*
X168501314Y-113612704D02*
X168691790Y-113660323D01*
X168691790Y-113660323D02*
X169072742Y-113660323D01*
X169072742Y-113660323D02*
X169167980Y-113612704D01*
X169167980Y-113612704D02*
X169215600Y-113565085D01*
X169215600Y-113565085D02*
X169263219Y-113469847D01*
X169263219Y-113469847D02*
X169263219Y-113279371D01*
X169263219Y-113279371D02*
X169215600Y-113184133D01*
X169215600Y-113184133D02*
X169167980Y-113136514D01*
X169167980Y-113136514D02*
X169072742Y-113088895D01*
X169072742Y-113088895D02*
X168834647Y-113088895D01*
X168834647Y-113088895D02*
X168739409Y-113136514D01*
X168739409Y-113136514D02*
X168691790Y-113184133D01*
X168691790Y-113184133D02*
X168644171Y-113279371D01*
X168644171Y-113279371D02*
X168644171Y-113469847D01*
X168644171Y-113469847D02*
X168691790Y-113565085D01*
X168691790Y-113565085D02*
X168739409Y-113612704D01*
X168739409Y-113612704D02*
X168834647Y-113660323D01*
X172045333Y-100791180D02*
X171997714Y-100838800D01*
X171997714Y-100838800D02*
X171854857Y-100886419D01*
X171854857Y-100886419D02*
X171759619Y-100886419D01*
X171759619Y-100886419D02*
X171616762Y-100838800D01*
X171616762Y-100838800D02*
X171521524Y-100743561D01*
X171521524Y-100743561D02*
X171473905Y-100648323D01*
X171473905Y-100648323D02*
X171426286Y-100457847D01*
X171426286Y-100457847D02*
X171426286Y-100314990D01*
X171426286Y-100314990D02*
X171473905Y-100124514D01*
X171473905Y-100124514D02*
X171521524Y-100029276D01*
X171521524Y-100029276D02*
X171616762Y-99934038D01*
X171616762Y-99934038D02*
X171759619Y-99886419D01*
X171759619Y-99886419D02*
X171854857Y-99886419D01*
X171854857Y-99886419D02*
X171997714Y-99934038D01*
X171997714Y-99934038D02*
X172045333Y-99981657D01*
X172902476Y-99886419D02*
X172712000Y-99886419D01*
X172712000Y-99886419D02*
X172616762Y-99934038D01*
X172616762Y-99934038D02*
X172569143Y-99981657D01*
X172569143Y-99981657D02*
X172473905Y-100124514D01*
X172473905Y-100124514D02*
X172426286Y-100314990D01*
X172426286Y-100314990D02*
X172426286Y-100695942D01*
X172426286Y-100695942D02*
X172473905Y-100791180D01*
X172473905Y-100791180D02*
X172521524Y-100838800D01*
X172521524Y-100838800D02*
X172616762Y-100886419D01*
X172616762Y-100886419D02*
X172807238Y-100886419D01*
X172807238Y-100886419D02*
X172902476Y-100838800D01*
X172902476Y-100838800D02*
X172950095Y-100791180D01*
X172950095Y-100791180D02*
X172997714Y-100695942D01*
X172997714Y-100695942D02*
X172997714Y-100457847D01*
X172997714Y-100457847D02*
X172950095Y-100362609D01*
X172950095Y-100362609D02*
X172902476Y-100314990D01*
X172902476Y-100314990D02*
X172807238Y-100267371D01*
X172807238Y-100267371D02*
X172616762Y-100267371D01*
X172616762Y-100267371D02*
X172521524Y-100314990D01*
X172521524Y-100314990D02*
X172473905Y-100362609D01*
X172473905Y-100362609D02*
X172426286Y-100457847D01*
X165034933Y-109173180D02*
X164987314Y-109220800D01*
X164987314Y-109220800D02*
X164844457Y-109268419D01*
X164844457Y-109268419D02*
X164749219Y-109268419D01*
X164749219Y-109268419D02*
X164606362Y-109220800D01*
X164606362Y-109220800D02*
X164511124Y-109125561D01*
X164511124Y-109125561D02*
X164463505Y-109030323D01*
X164463505Y-109030323D02*
X164415886Y-108839847D01*
X164415886Y-108839847D02*
X164415886Y-108696990D01*
X164415886Y-108696990D02*
X164463505Y-108506514D01*
X164463505Y-108506514D02*
X164511124Y-108411276D01*
X164511124Y-108411276D02*
X164606362Y-108316038D01*
X164606362Y-108316038D02*
X164749219Y-108268419D01*
X164749219Y-108268419D02*
X164844457Y-108268419D01*
X164844457Y-108268419D02*
X164987314Y-108316038D01*
X164987314Y-108316038D02*
X165034933Y-108363657D01*
X165987314Y-109268419D02*
X165415886Y-109268419D01*
X165701600Y-109268419D02*
X165701600Y-108268419D01*
X165701600Y-108268419D02*
X165606362Y-108411276D01*
X165606362Y-108411276D02*
X165511124Y-108506514D01*
X165511124Y-108506514D02*
X165415886Y-108554133D01*
X174825819Y-103189066D02*
X174349628Y-103522399D01*
X174825819Y-103760494D02*
X173825819Y-103760494D01*
X173825819Y-103760494D02*
X173825819Y-103379542D01*
X173825819Y-103379542D02*
X173873438Y-103284304D01*
X173873438Y-103284304D02*
X173921057Y-103236685D01*
X173921057Y-103236685D02*
X174016295Y-103189066D01*
X174016295Y-103189066D02*
X174159152Y-103189066D01*
X174159152Y-103189066D02*
X174254390Y-103236685D01*
X174254390Y-103236685D02*
X174302009Y-103284304D01*
X174302009Y-103284304D02*
X174349628Y-103379542D01*
X174349628Y-103379542D02*
X174349628Y-103760494D01*
X174825819Y-102236685D02*
X174825819Y-102808113D01*
X174825819Y-102522399D02*
X173825819Y-102522399D01*
X173825819Y-102522399D02*
X173968676Y-102617637D01*
X173968676Y-102617637D02*
X174063914Y-102712875D01*
X174063914Y-102712875D02*
X174111533Y-102808113D01*
X165034933Y-110849580D02*
X164987314Y-110897200D01*
X164987314Y-110897200D02*
X164844457Y-110944819D01*
X164844457Y-110944819D02*
X164749219Y-110944819D01*
X164749219Y-110944819D02*
X164606362Y-110897200D01*
X164606362Y-110897200D02*
X164511124Y-110801961D01*
X164511124Y-110801961D02*
X164463505Y-110706723D01*
X164463505Y-110706723D02*
X164415886Y-110516247D01*
X164415886Y-110516247D02*
X164415886Y-110373390D01*
X164415886Y-110373390D02*
X164463505Y-110182914D01*
X164463505Y-110182914D02*
X164511124Y-110087676D01*
X164511124Y-110087676D02*
X164606362Y-109992438D01*
X164606362Y-109992438D02*
X164749219Y-109944819D01*
X164749219Y-109944819D02*
X164844457Y-109944819D01*
X164844457Y-109944819D02*
X164987314Y-109992438D01*
X164987314Y-109992438D02*
X165034933Y-110040057D01*
X165939695Y-109944819D02*
X165463505Y-109944819D01*
X165463505Y-109944819D02*
X165415886Y-110421009D01*
X165415886Y-110421009D02*
X165463505Y-110373390D01*
X165463505Y-110373390D02*
X165558743Y-110325771D01*
X165558743Y-110325771D02*
X165796838Y-110325771D01*
X165796838Y-110325771D02*
X165892076Y-110373390D01*
X165892076Y-110373390D02*
X165939695Y-110421009D01*
X165939695Y-110421009D02*
X165987314Y-110516247D01*
X165987314Y-110516247D02*
X165987314Y-110754342D01*
X165987314Y-110754342D02*
X165939695Y-110849580D01*
X165939695Y-110849580D02*
X165892076Y-110897200D01*
X165892076Y-110897200D02*
X165796838Y-110944819D01*
X165796838Y-110944819D02*
X165558743Y-110944819D01*
X165558743Y-110944819D02*
X165463505Y-110897200D01*
X165463505Y-110897200D02*
X165415886Y-110849580D01*
X170336380Y-98229657D02*
X170384000Y-98277276D01*
X170384000Y-98277276D02*
X170431619Y-98420133D01*
X170431619Y-98420133D02*
X170431619Y-98515371D01*
X170431619Y-98515371D02*
X170384000Y-98658228D01*
X170384000Y-98658228D02*
X170288761Y-98753466D01*
X170288761Y-98753466D02*
X170193523Y-98801085D01*
X170193523Y-98801085D02*
X170003047Y-98848704D01*
X170003047Y-98848704D02*
X169860190Y-98848704D01*
X169860190Y-98848704D02*
X169669714Y-98801085D01*
X169669714Y-98801085D02*
X169574476Y-98753466D01*
X169574476Y-98753466D02*
X169479238Y-98658228D01*
X169479238Y-98658228D02*
X169431619Y-98515371D01*
X169431619Y-98515371D02*
X169431619Y-98420133D01*
X169431619Y-98420133D02*
X169479238Y-98277276D01*
X169479238Y-98277276D02*
X169526857Y-98229657D01*
X170431619Y-97277276D02*
X170431619Y-97848704D01*
X170431619Y-97562990D02*
X169431619Y-97562990D01*
X169431619Y-97562990D02*
X169574476Y-97658228D01*
X169574476Y-97658228D02*
X169669714Y-97753466D01*
X169669714Y-97753466D02*
X169717333Y-97848704D01*
X169431619Y-96658228D02*
X169431619Y-96562990D01*
X169431619Y-96562990D02*
X169479238Y-96467752D01*
X169479238Y-96467752D02*
X169526857Y-96420133D01*
X169526857Y-96420133D02*
X169622095Y-96372514D01*
X169622095Y-96372514D02*
X169812571Y-96324895D01*
X169812571Y-96324895D02*
X170050666Y-96324895D01*
X170050666Y-96324895D02*
X170241142Y-96372514D01*
X170241142Y-96372514D02*
X170336380Y-96420133D01*
X170336380Y-96420133D02*
X170384000Y-96467752D01*
X170384000Y-96467752D02*
X170431619Y-96562990D01*
X170431619Y-96562990D02*
X170431619Y-96658228D01*
X170431619Y-96658228D02*
X170384000Y-96753466D01*
X170384000Y-96753466D02*
X170336380Y-96801085D01*
X170336380Y-96801085D02*
X170241142Y-96848704D01*
X170241142Y-96848704D02*
X170050666Y-96896323D01*
X170050666Y-96896323D02*
X169812571Y-96896323D01*
X169812571Y-96896323D02*
X169622095Y-96848704D01*
X169622095Y-96848704D02*
X169526857Y-96801085D01*
X169526857Y-96801085D02*
X169479238Y-96753466D01*
X169479238Y-96753466D02*
X169431619Y-96658228D01*
X187608380Y-102935066D02*
X187656000Y-102982685D01*
X187656000Y-102982685D02*
X187703619Y-103125542D01*
X187703619Y-103125542D02*
X187703619Y-103220780D01*
X187703619Y-103220780D02*
X187656000Y-103363637D01*
X187656000Y-103363637D02*
X187560761Y-103458875D01*
X187560761Y-103458875D02*
X187465523Y-103506494D01*
X187465523Y-103506494D02*
X187275047Y-103554113D01*
X187275047Y-103554113D02*
X187132190Y-103554113D01*
X187132190Y-103554113D02*
X186941714Y-103506494D01*
X186941714Y-103506494D02*
X186846476Y-103458875D01*
X186846476Y-103458875D02*
X186751238Y-103363637D01*
X186751238Y-103363637D02*
X186703619Y-103220780D01*
X186703619Y-103220780D02*
X186703619Y-103125542D01*
X186703619Y-103125542D02*
X186751238Y-102982685D01*
X186751238Y-102982685D02*
X186798857Y-102935066D01*
X186703619Y-102601732D02*
X186703619Y-101982685D01*
X186703619Y-101982685D02*
X187084571Y-102316018D01*
X187084571Y-102316018D02*
X187084571Y-102173161D01*
X187084571Y-102173161D02*
X187132190Y-102077923D01*
X187132190Y-102077923D02*
X187179809Y-102030304D01*
X187179809Y-102030304D02*
X187275047Y-101982685D01*
X187275047Y-101982685D02*
X187513142Y-101982685D01*
X187513142Y-101982685D02*
X187608380Y-102030304D01*
X187608380Y-102030304D02*
X187656000Y-102077923D01*
X187656000Y-102077923D02*
X187703619Y-102173161D01*
X187703619Y-102173161D02*
X187703619Y-102458875D01*
X187703619Y-102458875D02*
X187656000Y-102554113D01*
X187656000Y-102554113D02*
X187608380Y-102601732D01*
X146470019Y-103987504D02*
X147279542Y-103987504D01*
X147279542Y-103987504D02*
X147374780Y-103939885D01*
X147374780Y-103939885D02*
X147422400Y-103892266D01*
X147422400Y-103892266D02*
X147470019Y-103797028D01*
X147470019Y-103797028D02*
X147470019Y-103606552D01*
X147470019Y-103606552D02*
X147422400Y-103511314D01*
X147422400Y-103511314D02*
X147374780Y-103463695D01*
X147374780Y-103463695D02*
X147279542Y-103416076D01*
X147279542Y-103416076D02*
X146470019Y-103416076D01*
X146470019Y-102511314D02*
X146470019Y-102701790D01*
X146470019Y-102701790D02*
X146517638Y-102797028D01*
X146517638Y-102797028D02*
X146565257Y-102844647D01*
X146565257Y-102844647D02*
X146708114Y-102939885D01*
X146708114Y-102939885D02*
X146898590Y-102987504D01*
X146898590Y-102987504D02*
X147279542Y-102987504D01*
X147279542Y-102987504D02*
X147374780Y-102939885D01*
X147374780Y-102939885D02*
X147422400Y-102892266D01*
X147422400Y-102892266D02*
X147470019Y-102797028D01*
X147470019Y-102797028D02*
X147470019Y-102606552D01*
X147470019Y-102606552D02*
X147422400Y-102511314D01*
X147422400Y-102511314D02*
X147374780Y-102463695D01*
X147374780Y-102463695D02*
X147279542Y-102416076D01*
X147279542Y-102416076D02*
X147041447Y-102416076D01*
X147041447Y-102416076D02*
X146946209Y-102463695D01*
X146946209Y-102463695D02*
X146898590Y-102511314D01*
X146898590Y-102511314D02*
X146850971Y-102606552D01*
X146850971Y-102606552D02*
X146850971Y-102797028D01*
X146850971Y-102797028D02*
X146898590Y-102892266D01*
X146898590Y-102892266D02*
X146946209Y-102939885D01*
X146946209Y-102939885D02*
X147041447Y-102987504D01*
X144472066Y-128664619D02*
X144472066Y-129378904D01*
X144472066Y-129378904D02*
X144424447Y-129521761D01*
X144424447Y-129521761D02*
X144329209Y-129617000D01*
X144329209Y-129617000D02*
X144186352Y-129664619D01*
X144186352Y-129664619D02*
X144091114Y-129664619D01*
X145376828Y-128997952D02*
X145376828Y-129664619D01*
X145138733Y-128617000D02*
X144900638Y-129331285D01*
X144900638Y-129331285D02*
X145519685Y-129331285D01*
X165808819Y-122804657D02*
X165332628Y-123137990D01*
X165808819Y-123376085D02*
X164808819Y-123376085D01*
X164808819Y-123376085D02*
X164808819Y-122995133D01*
X164808819Y-122995133D02*
X164856438Y-122899895D01*
X164856438Y-122899895D02*
X164904057Y-122852276D01*
X164904057Y-122852276D02*
X164999295Y-122804657D01*
X164999295Y-122804657D02*
X165142152Y-122804657D01*
X165142152Y-122804657D02*
X165237390Y-122852276D01*
X165237390Y-122852276D02*
X165285009Y-122899895D01*
X165285009Y-122899895D02*
X165332628Y-122995133D01*
X165332628Y-122995133D02*
X165332628Y-123376085D01*
X165808819Y-121852276D02*
X165808819Y-122423704D01*
X165808819Y-122137990D02*
X164808819Y-122137990D01*
X164808819Y-122137990D02*
X164951676Y-122233228D01*
X164951676Y-122233228D02*
X165046914Y-122328466D01*
X165046914Y-122328466D02*
X165094533Y-122423704D01*
X165808819Y-120899895D02*
X165808819Y-121471323D01*
X165808819Y-121185609D02*
X164808819Y-121185609D01*
X164808819Y-121185609D02*
X164951676Y-121280847D01*
X164951676Y-121280847D02*
X165046914Y-121376085D01*
X165046914Y-121376085D02*
X165094533Y-121471323D01*
X139850019Y-108135657D02*
X139373828Y-108468990D01*
X139850019Y-108707085D02*
X138850019Y-108707085D01*
X138850019Y-108707085D02*
X138850019Y-108326133D01*
X138850019Y-108326133D02*
X138897638Y-108230895D01*
X138897638Y-108230895D02*
X138945257Y-108183276D01*
X138945257Y-108183276D02*
X139040495Y-108135657D01*
X139040495Y-108135657D02*
X139183352Y-108135657D01*
X139183352Y-108135657D02*
X139278590Y-108183276D01*
X139278590Y-108183276D02*
X139326209Y-108230895D01*
X139326209Y-108230895D02*
X139373828Y-108326133D01*
X139373828Y-108326133D02*
X139373828Y-108707085D01*
X139850019Y-107183276D02*
X139850019Y-107754704D01*
X139850019Y-107468990D02*
X138850019Y-107468990D01*
X138850019Y-107468990D02*
X138992876Y-107564228D01*
X138992876Y-107564228D02*
X139088114Y-107659466D01*
X139088114Y-107659466D02*
X139135733Y-107754704D01*
X138850019Y-106849942D02*
X138850019Y-106230895D01*
X138850019Y-106230895D02*
X139230971Y-106564228D01*
X139230971Y-106564228D02*
X139230971Y-106421371D01*
X139230971Y-106421371D02*
X139278590Y-106326133D01*
X139278590Y-106326133D02*
X139326209Y-106278514D01*
X139326209Y-106278514D02*
X139421447Y-106230895D01*
X139421447Y-106230895D02*
X139659542Y-106230895D01*
X139659542Y-106230895D02*
X139754780Y-106278514D01*
X139754780Y-106278514D02*
X139802400Y-106326133D01*
X139802400Y-106326133D02*
X139850019Y-106421371D01*
X139850019Y-106421371D02*
X139850019Y-106707085D01*
X139850019Y-106707085D02*
X139802400Y-106802323D01*
X139802400Y-106802323D02*
X139754780Y-106849942D01*
X144513160Y-80652019D02*
X144179827Y-80175828D01*
X143941732Y-80652019D02*
X143941732Y-79652019D01*
X143941732Y-79652019D02*
X144322684Y-79652019D01*
X144322684Y-79652019D02*
X144417922Y-79699638D01*
X144417922Y-79699638D02*
X144465541Y-79747257D01*
X144465541Y-79747257D02*
X144513160Y-79842495D01*
X144513160Y-79842495D02*
X144513160Y-79985352D01*
X144513160Y-79985352D02*
X144465541Y-80080590D01*
X144465541Y-80080590D02*
X144417922Y-80128209D01*
X144417922Y-80128209D02*
X144322684Y-80175828D01*
X144322684Y-80175828D02*
X143941732Y-80175828D01*
X144798875Y-79652019D02*
X145132208Y-80652019D01*
X145132208Y-80652019D02*
X145465541Y-79652019D01*
X145751256Y-79747257D02*
X145798875Y-79699638D01*
X145798875Y-79699638D02*
X145894113Y-79652019D01*
X145894113Y-79652019D02*
X146132208Y-79652019D01*
X146132208Y-79652019D02*
X146227446Y-79699638D01*
X146227446Y-79699638D02*
X146275065Y-79747257D01*
X146275065Y-79747257D02*
X146322684Y-79842495D01*
X146322684Y-79842495D02*
X146322684Y-79937733D01*
X146322684Y-79937733D02*
X146275065Y-80080590D01*
X146275065Y-80080590D02*
X145703637Y-80652019D01*
X145703637Y-80652019D02*
X146322684Y-80652019D01*
X147781180Y-106916457D02*
X147828800Y-106964076D01*
X147828800Y-106964076D02*
X147876419Y-107106933D01*
X147876419Y-107106933D02*
X147876419Y-107202171D01*
X147876419Y-107202171D02*
X147828800Y-107345028D01*
X147828800Y-107345028D02*
X147733561Y-107440266D01*
X147733561Y-107440266D02*
X147638323Y-107487885D01*
X147638323Y-107487885D02*
X147447847Y-107535504D01*
X147447847Y-107535504D02*
X147304990Y-107535504D01*
X147304990Y-107535504D02*
X147114514Y-107487885D01*
X147114514Y-107487885D02*
X147019276Y-107440266D01*
X147019276Y-107440266D02*
X146924038Y-107345028D01*
X146924038Y-107345028D02*
X146876419Y-107202171D01*
X146876419Y-107202171D02*
X146876419Y-107106933D01*
X146876419Y-107106933D02*
X146924038Y-106964076D01*
X146924038Y-106964076D02*
X146971657Y-106916457D01*
X146971657Y-106535504D02*
X146924038Y-106487885D01*
X146924038Y-106487885D02*
X146876419Y-106392647D01*
X146876419Y-106392647D02*
X146876419Y-106154552D01*
X146876419Y-106154552D02*
X146924038Y-106059314D01*
X146924038Y-106059314D02*
X146971657Y-106011695D01*
X146971657Y-106011695D02*
X147066895Y-105964076D01*
X147066895Y-105964076D02*
X147162133Y-105964076D01*
X147162133Y-105964076D02*
X147304990Y-106011695D01*
X147304990Y-106011695D02*
X147876419Y-106583123D01*
X147876419Y-106583123D02*
X147876419Y-105964076D01*
X147876419Y-105011695D02*
X147876419Y-105583123D01*
X147876419Y-105297409D02*
X146876419Y-105297409D01*
X146876419Y-105297409D02*
X147019276Y-105392647D01*
X147019276Y-105392647D02*
X147114514Y-105487885D01*
X147114514Y-105487885D02*
X147162133Y-105583123D01*
X165707219Y-119801095D02*
X164707219Y-119801095D01*
X164707219Y-119801095D02*
X164707219Y-119563000D01*
X164707219Y-119563000D02*
X164754838Y-119420143D01*
X164754838Y-119420143D02*
X164850076Y-119324905D01*
X164850076Y-119324905D02*
X164945314Y-119277286D01*
X164945314Y-119277286D02*
X165135790Y-119229667D01*
X165135790Y-119229667D02*
X165278647Y-119229667D01*
X165278647Y-119229667D02*
X165469123Y-119277286D01*
X165469123Y-119277286D02*
X165564361Y-119324905D01*
X165564361Y-119324905D02*
X165659600Y-119420143D01*
X165659600Y-119420143D02*
X165707219Y-119563000D01*
X165707219Y-119563000D02*
X165707219Y-119801095D01*
X165040552Y-118372524D02*
X165707219Y-118372524D01*
X164659600Y-118610619D02*
X165373885Y-118848714D01*
X165373885Y-118848714D02*
X165373885Y-118229667D01*
X163898342Y-84681219D02*
X163565009Y-84205028D01*
X163326914Y-84681219D02*
X163326914Y-83681219D01*
X163326914Y-83681219D02*
X163707866Y-83681219D01*
X163707866Y-83681219D02*
X163803104Y-83728838D01*
X163803104Y-83728838D02*
X163850723Y-83776457D01*
X163850723Y-83776457D02*
X163898342Y-83871695D01*
X163898342Y-83871695D02*
X163898342Y-84014552D01*
X163898342Y-84014552D02*
X163850723Y-84109790D01*
X163850723Y-84109790D02*
X163803104Y-84157409D01*
X163803104Y-84157409D02*
X163707866Y-84205028D01*
X163707866Y-84205028D02*
X163326914Y-84205028D01*
X164850723Y-84681219D02*
X164279295Y-84681219D01*
X164565009Y-84681219D02*
X164565009Y-83681219D01*
X164565009Y-83681219D02*
X164469771Y-83824076D01*
X164469771Y-83824076D02*
X164374533Y-83919314D01*
X164374533Y-83919314D02*
X164279295Y-83966933D01*
X165469771Y-83681219D02*
X165565009Y-83681219D01*
X165565009Y-83681219D02*
X165660247Y-83728838D01*
X165660247Y-83728838D02*
X165707866Y-83776457D01*
X165707866Y-83776457D02*
X165755485Y-83871695D01*
X165755485Y-83871695D02*
X165803104Y-84062171D01*
X165803104Y-84062171D02*
X165803104Y-84300266D01*
X165803104Y-84300266D02*
X165755485Y-84490742D01*
X165755485Y-84490742D02*
X165707866Y-84585980D01*
X165707866Y-84585980D02*
X165660247Y-84633600D01*
X165660247Y-84633600D02*
X165565009Y-84681219D01*
X165565009Y-84681219D02*
X165469771Y-84681219D01*
X165469771Y-84681219D02*
X165374533Y-84633600D01*
X165374533Y-84633600D02*
X165326914Y-84585980D01*
X165326914Y-84585980D02*
X165279295Y-84490742D01*
X165279295Y-84490742D02*
X165231676Y-84300266D01*
X165231676Y-84300266D02*
X165231676Y-84062171D01*
X165231676Y-84062171D02*
X165279295Y-83871695D01*
X165279295Y-83871695D02*
X165326914Y-83776457D01*
X165326914Y-83776457D02*
X165374533Y-83728838D01*
X165374533Y-83728838D02*
X165469771Y-83681219D01*
X144635528Y-92737833D02*
X144302195Y-92261642D01*
X144064100Y-92737833D02*
X144064100Y-91737833D01*
X144064100Y-91737833D02*
X144445052Y-91737833D01*
X144445052Y-91737833D02*
X144540290Y-91785452D01*
X144540290Y-91785452D02*
X144587909Y-91833071D01*
X144587909Y-91833071D02*
X144635528Y-91928309D01*
X144635528Y-91928309D02*
X144635528Y-92071166D01*
X144635528Y-92071166D02*
X144587909Y-92166404D01*
X144587909Y-92166404D02*
X144540290Y-92214023D01*
X144540290Y-92214023D02*
X144445052Y-92261642D01*
X144445052Y-92261642D02*
X144064100Y-92261642D01*
X145587909Y-92737833D02*
X145016481Y-92737833D01*
X145302195Y-92737833D02*
X145302195Y-91737833D01*
X145302195Y-91737833D02*
X145206957Y-91880690D01*
X145206957Y-91880690D02*
X145111719Y-91975928D01*
X145111719Y-91975928D02*
X145016481Y-92023547D01*
X146445052Y-91737833D02*
X146254576Y-91737833D01*
X146254576Y-91737833D02*
X146159338Y-91785452D01*
X146159338Y-91785452D02*
X146111719Y-91833071D01*
X146111719Y-91833071D02*
X146016481Y-91975928D01*
X146016481Y-91975928D02*
X145968862Y-92166404D01*
X145968862Y-92166404D02*
X145968862Y-92547356D01*
X145968862Y-92547356D02*
X146016481Y-92642594D01*
X146016481Y-92642594D02*
X146064100Y-92690214D01*
X146064100Y-92690214D02*
X146159338Y-92737833D01*
X146159338Y-92737833D02*
X146349814Y-92737833D01*
X146349814Y-92737833D02*
X146445052Y-92690214D01*
X146445052Y-92690214D02*
X146492671Y-92642594D01*
X146492671Y-92642594D02*
X146540290Y-92547356D01*
X146540290Y-92547356D02*
X146540290Y-92309261D01*
X146540290Y-92309261D02*
X146492671Y-92214023D01*
X146492671Y-92214023D02*
X146445052Y-92166404D01*
X146445052Y-92166404D02*
X146349814Y-92118785D01*
X146349814Y-92118785D02*
X146159338Y-92118785D01*
X146159338Y-92118785D02*
X146064100Y-92166404D01*
X146064100Y-92166404D02*
X146016481Y-92214023D01*
X146016481Y-92214023D02*
X145968862Y-92309261D01*
X161594895Y-80836419D02*
X161594895Y-81645942D01*
X161594895Y-81645942D02*
X161642514Y-81741180D01*
X161642514Y-81741180D02*
X161690133Y-81788800D01*
X161690133Y-81788800D02*
X161785371Y-81836419D01*
X161785371Y-81836419D02*
X161975847Y-81836419D01*
X161975847Y-81836419D02*
X162071085Y-81788800D01*
X162071085Y-81788800D02*
X162118704Y-81741180D01*
X162118704Y-81741180D02*
X162166323Y-81645942D01*
X162166323Y-81645942D02*
X162166323Y-80836419D01*
X163118704Y-80836419D02*
X162642514Y-80836419D01*
X162642514Y-80836419D02*
X162594895Y-81312609D01*
X162594895Y-81312609D02*
X162642514Y-81264990D01*
X162642514Y-81264990D02*
X162737752Y-81217371D01*
X162737752Y-81217371D02*
X162975847Y-81217371D01*
X162975847Y-81217371D02*
X163071085Y-81264990D01*
X163071085Y-81264990D02*
X163118704Y-81312609D01*
X163118704Y-81312609D02*
X163166323Y-81407847D01*
X163166323Y-81407847D02*
X163166323Y-81645942D01*
X163166323Y-81645942D02*
X163118704Y-81741180D01*
X163118704Y-81741180D02*
X163071085Y-81788800D01*
X163071085Y-81788800D02*
X162975847Y-81836419D01*
X162975847Y-81836419D02*
X162737752Y-81836419D01*
X162737752Y-81836419D02*
X162642514Y-81788800D01*
X162642514Y-81788800D02*
X162594895Y-81741180D01*
X184846933Y-124559219D02*
X184370743Y-124559219D01*
X184370743Y-124559219D02*
X184370743Y-123559219D01*
X185704076Y-124559219D02*
X185132648Y-124559219D01*
X185418362Y-124559219D02*
X185418362Y-123559219D01*
X185418362Y-123559219D02*
X185323124Y-123702076D01*
X185323124Y-123702076D02*
X185227886Y-123797314D01*
X185227886Y-123797314D02*
X185132648Y-123844933D01*
X151289041Y-81791980D02*
X151241422Y-81839600D01*
X151241422Y-81839600D02*
X151098565Y-81887219D01*
X151098565Y-81887219D02*
X151003327Y-81887219D01*
X151003327Y-81887219D02*
X150860470Y-81839600D01*
X150860470Y-81839600D02*
X150765232Y-81744361D01*
X150765232Y-81744361D02*
X150717613Y-81649123D01*
X150717613Y-81649123D02*
X150669994Y-81458647D01*
X150669994Y-81458647D02*
X150669994Y-81315790D01*
X150669994Y-81315790D02*
X150717613Y-81125314D01*
X150717613Y-81125314D02*
X150765232Y-81030076D01*
X150765232Y-81030076D02*
X150860470Y-80934838D01*
X150860470Y-80934838D02*
X151003327Y-80887219D01*
X151003327Y-80887219D02*
X151098565Y-80887219D01*
X151098565Y-80887219D02*
X151241422Y-80934838D01*
X151241422Y-80934838D02*
X151289041Y-80982457D01*
X152241422Y-81887219D02*
X151669994Y-81887219D01*
X151955708Y-81887219D02*
X151955708Y-80887219D01*
X151955708Y-80887219D02*
X151860470Y-81030076D01*
X151860470Y-81030076D02*
X151765232Y-81125314D01*
X151765232Y-81125314D02*
X151669994Y-81172933D01*
X152574756Y-80887219D02*
X153193803Y-80887219D01*
X153193803Y-80887219D02*
X152860470Y-81268171D01*
X152860470Y-81268171D02*
X153003327Y-81268171D01*
X153003327Y-81268171D02*
X153098565Y-81315790D01*
X153098565Y-81315790D02*
X153146184Y-81363409D01*
X153146184Y-81363409D02*
X153193803Y-81458647D01*
X153193803Y-81458647D02*
X153193803Y-81696742D01*
X153193803Y-81696742D02*
X153146184Y-81791980D01*
X153146184Y-81791980D02*
X153098565Y-81839600D01*
X153098565Y-81839600D02*
X153003327Y-81887219D01*
X153003327Y-81887219D02*
X152717613Y-81887219D01*
X152717613Y-81887219D02*
X152622375Y-81839600D01*
X152622375Y-81839600D02*
X152574756Y-81791980D01*
X141870133Y-107795219D02*
X141536800Y-107319028D01*
X141298705Y-107795219D02*
X141298705Y-106795219D01*
X141298705Y-106795219D02*
X141679657Y-106795219D01*
X141679657Y-106795219D02*
X141774895Y-106842838D01*
X141774895Y-106842838D02*
X141822514Y-106890457D01*
X141822514Y-106890457D02*
X141870133Y-106985695D01*
X141870133Y-106985695D02*
X141870133Y-107128552D01*
X141870133Y-107128552D02*
X141822514Y-107223790D01*
X141822514Y-107223790D02*
X141774895Y-107271409D01*
X141774895Y-107271409D02*
X141679657Y-107319028D01*
X141679657Y-107319028D02*
X141298705Y-107319028D01*
X142774895Y-106795219D02*
X142298705Y-106795219D01*
X142298705Y-106795219D02*
X142251086Y-107271409D01*
X142251086Y-107271409D02*
X142298705Y-107223790D01*
X142298705Y-107223790D02*
X142393943Y-107176171D01*
X142393943Y-107176171D02*
X142632038Y-107176171D01*
X142632038Y-107176171D02*
X142727276Y-107223790D01*
X142727276Y-107223790D02*
X142774895Y-107271409D01*
X142774895Y-107271409D02*
X142822514Y-107366647D01*
X142822514Y-107366647D02*
X142822514Y-107604742D01*
X142822514Y-107604742D02*
X142774895Y-107699980D01*
X142774895Y-107699980D02*
X142727276Y-107747600D01*
X142727276Y-107747600D02*
X142632038Y-107795219D01*
X142632038Y-107795219D02*
X142393943Y-107795219D01*
X142393943Y-107795219D02*
X142298705Y-107747600D01*
X142298705Y-107747600D02*
X142251086Y-107699980D01*
X143760380Y-121597657D02*
X143808000Y-121645276D01*
X143808000Y-121645276D02*
X143855619Y-121788133D01*
X143855619Y-121788133D02*
X143855619Y-121883371D01*
X143855619Y-121883371D02*
X143808000Y-122026228D01*
X143808000Y-122026228D02*
X143712761Y-122121466D01*
X143712761Y-122121466D02*
X143617523Y-122169085D01*
X143617523Y-122169085D02*
X143427047Y-122216704D01*
X143427047Y-122216704D02*
X143284190Y-122216704D01*
X143284190Y-122216704D02*
X143093714Y-122169085D01*
X143093714Y-122169085D02*
X142998476Y-122121466D01*
X142998476Y-122121466D02*
X142903238Y-122026228D01*
X142903238Y-122026228D02*
X142855619Y-121883371D01*
X142855619Y-121883371D02*
X142855619Y-121788133D01*
X142855619Y-121788133D02*
X142903238Y-121645276D01*
X142903238Y-121645276D02*
X142950857Y-121597657D01*
X143855619Y-120645276D02*
X143855619Y-121216704D01*
X143855619Y-120930990D02*
X142855619Y-120930990D01*
X142855619Y-120930990D02*
X142998476Y-121026228D01*
X142998476Y-121026228D02*
X143093714Y-121121466D01*
X143093714Y-121121466D02*
X143141333Y-121216704D01*
X142950857Y-120264323D02*
X142903238Y-120216704D01*
X142903238Y-120216704D02*
X142855619Y-120121466D01*
X142855619Y-120121466D02*
X142855619Y-119883371D01*
X142855619Y-119883371D02*
X142903238Y-119788133D01*
X142903238Y-119788133D02*
X142950857Y-119740514D01*
X142950857Y-119740514D02*
X143046095Y-119692895D01*
X143046095Y-119692895D02*
X143141333Y-119692895D01*
X143141333Y-119692895D02*
X143284190Y-119740514D01*
X143284190Y-119740514D02*
X143855619Y-120311942D01*
X143855619Y-120311942D02*
X143855619Y-119692895D01*
X137731106Y-114324308D02*
X136731106Y-114324308D01*
X136731106Y-114324308D02*
X136731106Y-114086213D01*
X136731106Y-114086213D02*
X136778725Y-113943356D01*
X136778725Y-113943356D02*
X136873963Y-113848118D01*
X136873963Y-113848118D02*
X136969201Y-113800499D01*
X136969201Y-113800499D02*
X137159677Y-113752880D01*
X137159677Y-113752880D02*
X137302534Y-113752880D01*
X137302534Y-113752880D02*
X137493010Y-113800499D01*
X137493010Y-113800499D02*
X137588248Y-113848118D01*
X137588248Y-113848118D02*
X137683487Y-113943356D01*
X137683487Y-113943356D02*
X137731106Y-114086213D01*
X137731106Y-114086213D02*
X137731106Y-114324308D01*
X136731106Y-113419546D02*
X136731106Y-112800499D01*
X136731106Y-112800499D02*
X137112058Y-113133832D01*
X137112058Y-113133832D02*
X137112058Y-112990975D01*
X137112058Y-112990975D02*
X137159677Y-112895737D01*
X137159677Y-112895737D02*
X137207296Y-112848118D01*
X137207296Y-112848118D02*
X137302534Y-112800499D01*
X137302534Y-112800499D02*
X137540629Y-112800499D01*
X137540629Y-112800499D02*
X137635867Y-112848118D01*
X137635867Y-112848118D02*
X137683487Y-112895737D01*
X137683487Y-112895737D02*
X137731106Y-112990975D01*
X137731106Y-112990975D02*
X137731106Y-113276689D01*
X137731106Y-113276689D02*
X137683487Y-113371927D01*
X137683487Y-113371927D02*
X137635867Y-113419546D01*
X144968933Y-107795219D02*
X144635600Y-107319028D01*
X144397505Y-107795219D02*
X144397505Y-106795219D01*
X144397505Y-106795219D02*
X144778457Y-106795219D01*
X144778457Y-106795219D02*
X144873695Y-106842838D01*
X144873695Y-106842838D02*
X144921314Y-106890457D01*
X144921314Y-106890457D02*
X144968933Y-106985695D01*
X144968933Y-106985695D02*
X144968933Y-107128552D01*
X144968933Y-107128552D02*
X144921314Y-107223790D01*
X144921314Y-107223790D02*
X144873695Y-107271409D01*
X144873695Y-107271409D02*
X144778457Y-107319028D01*
X144778457Y-107319028D02*
X144397505Y-107319028D01*
X145826076Y-106795219D02*
X145635600Y-106795219D01*
X145635600Y-106795219D02*
X145540362Y-106842838D01*
X145540362Y-106842838D02*
X145492743Y-106890457D01*
X145492743Y-106890457D02*
X145397505Y-107033314D01*
X145397505Y-107033314D02*
X145349886Y-107223790D01*
X145349886Y-107223790D02*
X145349886Y-107604742D01*
X145349886Y-107604742D02*
X145397505Y-107699980D01*
X145397505Y-107699980D02*
X145445124Y-107747600D01*
X145445124Y-107747600D02*
X145540362Y-107795219D01*
X145540362Y-107795219D02*
X145730838Y-107795219D01*
X145730838Y-107795219D02*
X145826076Y-107747600D01*
X145826076Y-107747600D02*
X145873695Y-107699980D01*
X145873695Y-107699980D02*
X145921314Y-107604742D01*
X145921314Y-107604742D02*
X145921314Y-107366647D01*
X145921314Y-107366647D02*
X145873695Y-107271409D01*
X145873695Y-107271409D02*
X145826076Y-107223790D01*
X145826076Y-107223790D02*
X145730838Y-107176171D01*
X145730838Y-107176171D02*
X145540362Y-107176171D01*
X145540362Y-107176171D02*
X145445124Y-107223790D01*
X145445124Y-107223790D02*
X145397505Y-107271409D01*
X145397505Y-107271409D02*
X145349886Y-107366647D01*
X141635528Y-92737833D02*
X141302195Y-92261642D01*
X141064100Y-92737833D02*
X141064100Y-91737833D01*
X141064100Y-91737833D02*
X141445052Y-91737833D01*
X141445052Y-91737833D02*
X141540290Y-91785452D01*
X141540290Y-91785452D02*
X141587909Y-91833071D01*
X141587909Y-91833071D02*
X141635528Y-91928309D01*
X141635528Y-91928309D02*
X141635528Y-92071166D01*
X141635528Y-92071166D02*
X141587909Y-92166404D01*
X141587909Y-92166404D02*
X141540290Y-92214023D01*
X141540290Y-92214023D02*
X141445052Y-92261642D01*
X141445052Y-92261642D02*
X141064100Y-92261642D01*
X142587909Y-92737833D02*
X142016481Y-92737833D01*
X142302195Y-92737833D02*
X142302195Y-91737833D01*
X142302195Y-91737833D02*
X142206957Y-91880690D01*
X142206957Y-91880690D02*
X142111719Y-91975928D01*
X142111719Y-91975928D02*
X142016481Y-92023547D01*
X142921243Y-91737833D02*
X143587909Y-91737833D01*
X143587909Y-91737833D02*
X143159338Y-92737833D01*
X159154019Y-109894666D02*
X158677828Y-110227999D01*
X159154019Y-110466094D02*
X158154019Y-110466094D01*
X158154019Y-110466094D02*
X158154019Y-110085142D01*
X158154019Y-110085142D02*
X158201638Y-109989904D01*
X158201638Y-109989904D02*
X158249257Y-109942285D01*
X158249257Y-109942285D02*
X158344495Y-109894666D01*
X158344495Y-109894666D02*
X158487352Y-109894666D01*
X158487352Y-109894666D02*
X158582590Y-109942285D01*
X158582590Y-109942285D02*
X158630209Y-109989904D01*
X158630209Y-109989904D02*
X158677828Y-110085142D01*
X158677828Y-110085142D02*
X158677828Y-110466094D01*
X158487352Y-109037523D02*
X159154019Y-109037523D01*
X158106400Y-109275618D02*
X158820685Y-109513713D01*
X158820685Y-109513713D02*
X158820685Y-108894666D01*
X149552819Y-84818457D02*
X149076628Y-85151790D01*
X149552819Y-85389885D02*
X148552819Y-85389885D01*
X148552819Y-85389885D02*
X148552819Y-85008933D01*
X148552819Y-85008933D02*
X148600438Y-84913695D01*
X148600438Y-84913695D02*
X148648057Y-84866076D01*
X148648057Y-84866076D02*
X148743295Y-84818457D01*
X148743295Y-84818457D02*
X148886152Y-84818457D01*
X148886152Y-84818457D02*
X148981390Y-84866076D01*
X148981390Y-84866076D02*
X149029009Y-84913695D01*
X149029009Y-84913695D02*
X149076628Y-85008933D01*
X149076628Y-85008933D02*
X149076628Y-85389885D01*
X149552819Y-83866076D02*
X149552819Y-84437504D01*
X149552819Y-84151790D02*
X148552819Y-84151790D01*
X148552819Y-84151790D02*
X148695676Y-84247028D01*
X148695676Y-84247028D02*
X148790914Y-84342266D01*
X148790914Y-84342266D02*
X148838533Y-84437504D01*
X148552819Y-82961314D02*
X148552819Y-83437504D01*
X148552819Y-83437504D02*
X149029009Y-83485123D01*
X149029009Y-83485123D02*
X148981390Y-83437504D01*
X148981390Y-83437504D02*
X148933771Y-83342266D01*
X148933771Y-83342266D02*
X148933771Y-83104171D01*
X148933771Y-83104171D02*
X148981390Y-83008933D01*
X148981390Y-83008933D02*
X149029009Y-82961314D01*
X149029009Y-82961314D02*
X149124247Y-82913695D01*
X149124247Y-82913695D02*
X149362342Y-82913695D01*
X149362342Y-82913695D02*
X149457580Y-82961314D01*
X149457580Y-82961314D02*
X149505200Y-83008933D01*
X149505200Y-83008933D02*
X149552819Y-83104171D01*
X149552819Y-83104171D02*
X149552819Y-83342266D01*
X149552819Y-83342266D02*
X149505200Y-83437504D01*
X149505200Y-83437504D02*
X149457580Y-83485123D01*
X170895180Y-114993657D02*
X170942800Y-115041276D01*
X170942800Y-115041276D02*
X170990419Y-115184133D01*
X170990419Y-115184133D02*
X170990419Y-115279371D01*
X170990419Y-115279371D02*
X170942800Y-115422228D01*
X170942800Y-115422228D02*
X170847561Y-115517466D01*
X170847561Y-115517466D02*
X170752323Y-115565085D01*
X170752323Y-115565085D02*
X170561847Y-115612704D01*
X170561847Y-115612704D02*
X170418990Y-115612704D01*
X170418990Y-115612704D02*
X170228514Y-115565085D01*
X170228514Y-115565085D02*
X170133276Y-115517466D01*
X170133276Y-115517466D02*
X170038038Y-115422228D01*
X170038038Y-115422228D02*
X169990419Y-115279371D01*
X169990419Y-115279371D02*
X169990419Y-115184133D01*
X169990419Y-115184133D02*
X170038038Y-115041276D01*
X170038038Y-115041276D02*
X170085657Y-114993657D01*
X170990419Y-114041276D02*
X170990419Y-114612704D01*
X170990419Y-114326990D02*
X169990419Y-114326990D01*
X169990419Y-114326990D02*
X170133276Y-114422228D01*
X170133276Y-114422228D02*
X170228514Y-114517466D01*
X170228514Y-114517466D02*
X170276133Y-114612704D01*
X169990419Y-113136514D02*
X169990419Y-113612704D01*
X169990419Y-113612704D02*
X170466609Y-113660323D01*
X170466609Y-113660323D02*
X170418990Y-113612704D01*
X170418990Y-113612704D02*
X170371371Y-113517466D01*
X170371371Y-113517466D02*
X170371371Y-113279371D01*
X170371371Y-113279371D02*
X170418990Y-113184133D01*
X170418990Y-113184133D02*
X170466609Y-113136514D01*
X170466609Y-113136514D02*
X170561847Y-113088895D01*
X170561847Y-113088895D02*
X170799942Y-113088895D01*
X170799942Y-113088895D02*
X170895180Y-113136514D01*
X170895180Y-113136514D02*
X170942800Y-113184133D01*
X170942800Y-113184133D02*
X170990419Y-113279371D01*
X170990419Y-113279371D02*
X170990419Y-113517466D01*
X170990419Y-113517466D02*
X170942800Y-113612704D01*
X170942800Y-113612704D02*
X170895180Y-113660323D01*
X146514641Y-116880930D02*
X146467022Y-116928550D01*
X146467022Y-116928550D02*
X146324165Y-116976169D01*
X146324165Y-116976169D02*
X146228927Y-116976169D01*
X146228927Y-116976169D02*
X146086070Y-116928550D01*
X146086070Y-116928550D02*
X145990832Y-116833311D01*
X145990832Y-116833311D02*
X145943213Y-116738073D01*
X145943213Y-116738073D02*
X145895594Y-116547597D01*
X145895594Y-116547597D02*
X145895594Y-116404740D01*
X145895594Y-116404740D02*
X145943213Y-116214264D01*
X145943213Y-116214264D02*
X145990832Y-116119026D01*
X145990832Y-116119026D02*
X146086070Y-116023788D01*
X146086070Y-116023788D02*
X146228927Y-115976169D01*
X146228927Y-115976169D02*
X146324165Y-115976169D01*
X146324165Y-115976169D02*
X146467022Y-116023788D01*
X146467022Y-116023788D02*
X146514641Y-116071407D01*
X147467022Y-116976169D02*
X146895594Y-116976169D01*
X147181308Y-116976169D02*
X147181308Y-115976169D01*
X147181308Y-115976169D02*
X147086070Y-116119026D01*
X147086070Y-116119026D02*
X146990832Y-116214264D01*
X146990832Y-116214264D02*
X146895594Y-116261883D01*
X147800356Y-115976169D02*
X148467022Y-115976169D01*
X148467022Y-115976169D02*
X148038451Y-116976169D01*
X146470019Y-89255504D02*
X147279542Y-89255504D01*
X147279542Y-89255504D02*
X147374780Y-89207885D01*
X147374780Y-89207885D02*
X147422400Y-89160266D01*
X147422400Y-89160266D02*
X147470019Y-89065028D01*
X147470019Y-89065028D02*
X147470019Y-88874552D01*
X147470019Y-88874552D02*
X147422400Y-88779314D01*
X147422400Y-88779314D02*
X147374780Y-88731695D01*
X147374780Y-88731695D02*
X147279542Y-88684076D01*
X147279542Y-88684076D02*
X146470019Y-88684076D01*
X146470019Y-88303123D02*
X146470019Y-87684076D01*
X146470019Y-87684076D02*
X146850971Y-88017409D01*
X146850971Y-88017409D02*
X146850971Y-87874552D01*
X146850971Y-87874552D02*
X146898590Y-87779314D01*
X146898590Y-87779314D02*
X146946209Y-87731695D01*
X146946209Y-87731695D02*
X147041447Y-87684076D01*
X147041447Y-87684076D02*
X147279542Y-87684076D01*
X147279542Y-87684076D02*
X147374780Y-87731695D01*
X147374780Y-87731695D02*
X147422400Y-87779314D01*
X147422400Y-87779314D02*
X147470019Y-87874552D01*
X147470019Y-87874552D02*
X147470019Y-88160266D01*
X147470019Y-88160266D02*
X147422400Y-88255504D01*
X147422400Y-88255504D02*
X147374780Y-88303123D01*
X156611719Y-86337833D02*
X156278386Y-85861642D01*
X156040291Y-86337833D02*
X156040291Y-85337833D01*
X156040291Y-85337833D02*
X156421243Y-85337833D01*
X156421243Y-85337833D02*
X156516481Y-85385452D01*
X156516481Y-85385452D02*
X156564100Y-85433071D01*
X156564100Y-85433071D02*
X156611719Y-85528309D01*
X156611719Y-85528309D02*
X156611719Y-85671166D01*
X156611719Y-85671166D02*
X156564100Y-85766404D01*
X156564100Y-85766404D02*
X156516481Y-85814023D01*
X156516481Y-85814023D02*
X156421243Y-85861642D01*
X156421243Y-85861642D02*
X156040291Y-85861642D01*
X157087910Y-86337833D02*
X157278386Y-86337833D01*
X157278386Y-86337833D02*
X157373624Y-86290214D01*
X157373624Y-86290214D02*
X157421243Y-86242594D01*
X157421243Y-86242594D02*
X157516481Y-86099737D01*
X157516481Y-86099737D02*
X157564100Y-85909261D01*
X157564100Y-85909261D02*
X157564100Y-85528309D01*
X157564100Y-85528309D02*
X157516481Y-85433071D01*
X157516481Y-85433071D02*
X157468862Y-85385452D01*
X157468862Y-85385452D02*
X157373624Y-85337833D01*
X157373624Y-85337833D02*
X157183148Y-85337833D01*
X157183148Y-85337833D02*
X157087910Y-85385452D01*
X157087910Y-85385452D02*
X157040291Y-85433071D01*
X157040291Y-85433071D02*
X156992672Y-85528309D01*
X156992672Y-85528309D02*
X156992672Y-85766404D01*
X156992672Y-85766404D02*
X157040291Y-85861642D01*
X157040291Y-85861642D02*
X157087910Y-85909261D01*
X157087910Y-85909261D02*
X157183148Y-85956880D01*
X157183148Y-85956880D02*
X157373624Y-85956880D01*
X157373624Y-85956880D02*
X157468862Y-85909261D01*
X157468862Y-85909261D02*
X157516481Y-85861642D01*
X157516481Y-85861642D02*
X157564100Y-85766404D01*
X168884695Y-77940819D02*
X168884695Y-78750342D01*
X168884695Y-78750342D02*
X168932314Y-78845580D01*
X168932314Y-78845580D02*
X168979933Y-78893200D01*
X168979933Y-78893200D02*
X169075171Y-78940819D01*
X169075171Y-78940819D02*
X169265647Y-78940819D01*
X169265647Y-78940819D02*
X169360885Y-78893200D01*
X169360885Y-78893200D02*
X169408504Y-78845580D01*
X169408504Y-78845580D02*
X169456123Y-78750342D01*
X169456123Y-78750342D02*
X169456123Y-77940819D01*
X170360885Y-78274152D02*
X170360885Y-78940819D01*
X170122790Y-77893200D02*
X169884695Y-78607485D01*
X169884695Y-78607485D02*
X170503742Y-78607485D01*
X158900019Y-122328466D02*
X158423828Y-122661799D01*
X158900019Y-122899894D02*
X157900019Y-122899894D01*
X157900019Y-122899894D02*
X157900019Y-122518942D01*
X157900019Y-122518942D02*
X157947638Y-122423704D01*
X157947638Y-122423704D02*
X157995257Y-122376085D01*
X157995257Y-122376085D02*
X158090495Y-122328466D01*
X158090495Y-122328466D02*
X158233352Y-122328466D01*
X158233352Y-122328466D02*
X158328590Y-122376085D01*
X158328590Y-122376085D02*
X158376209Y-122423704D01*
X158376209Y-122423704D02*
X158423828Y-122518942D01*
X158423828Y-122518942D02*
X158423828Y-122899894D01*
X157995257Y-121947513D02*
X157947638Y-121899894D01*
X157947638Y-121899894D02*
X157900019Y-121804656D01*
X157900019Y-121804656D02*
X157900019Y-121566561D01*
X157900019Y-121566561D02*
X157947638Y-121471323D01*
X157947638Y-121471323D02*
X157995257Y-121423704D01*
X157995257Y-121423704D02*
X158090495Y-121376085D01*
X158090495Y-121376085D02*
X158185733Y-121376085D01*
X158185733Y-121376085D02*
X158328590Y-121423704D01*
X158328590Y-121423704D02*
X158900019Y-121995132D01*
X158900019Y-121995132D02*
X158900019Y-121376085D01*
X158900019Y-119801095D02*
X157900019Y-119801095D01*
X157900019Y-119801095D02*
X157900019Y-119563000D01*
X157900019Y-119563000D02*
X157947638Y-119420143D01*
X157947638Y-119420143D02*
X158042876Y-119324905D01*
X158042876Y-119324905D02*
X158138114Y-119277286D01*
X158138114Y-119277286D02*
X158328590Y-119229667D01*
X158328590Y-119229667D02*
X158471447Y-119229667D01*
X158471447Y-119229667D02*
X158661923Y-119277286D01*
X158661923Y-119277286D02*
X158757161Y-119324905D01*
X158757161Y-119324905D02*
X158852400Y-119420143D01*
X158852400Y-119420143D02*
X158900019Y-119563000D01*
X158900019Y-119563000D02*
X158900019Y-119801095D01*
X158900019Y-118277286D02*
X158900019Y-118848714D01*
X158900019Y-118563000D02*
X157900019Y-118563000D01*
X157900019Y-118563000D02*
X158042876Y-118658238D01*
X158042876Y-118658238D02*
X158138114Y-118753476D01*
X158138114Y-118753476D02*
X158185733Y-118848714D01*
D14*
%TO.C,C2*%
X155192000Y-97778181D02*
X155192000Y-97497019D01*
X156212000Y-97778181D02*
X156212000Y-97497019D01*
%TO.C,R14*%
X146695900Y-79315542D02*
X146695900Y-79790058D01*
X147740900Y-79315542D02*
X147740900Y-79790058D01*
%TO.C,J1*%
X152248386Y-87853014D02*
X153578386Y-87853014D01*
X152248386Y-89183014D02*
X152248386Y-87853014D01*
X152248386Y-90453014D02*
X152248386Y-95593014D01*
X152248386Y-90453014D02*
X154908386Y-90453014D01*
X152248386Y-95593014D02*
X154908386Y-95593014D01*
X154908386Y-90453014D02*
X154908386Y-95593014D01*
%TO.C,R19*%
X181849500Y-125103658D02*
X181849500Y-124629142D01*
X182894500Y-125103658D02*
X182894500Y-124629142D01*
%TO.C,R8*%
X138923500Y-110619142D02*
X138923500Y-111093658D01*
X139968500Y-110619142D02*
X139968500Y-111093658D01*
%TO.C,R12*%
X146645100Y-98771942D02*
X146645100Y-99246458D01*
X147690100Y-98771942D02*
X147690100Y-99246458D01*
%TO.C,C7*%
X153312400Y-104686981D02*
X153312400Y-104405819D01*
X154332400Y-104686981D02*
X154332400Y-104405819D01*
%TO.C,D2*%
X174245600Y-127317600D02*
X174245600Y-129602600D01*
X174245600Y-129602600D02*
X175715600Y-129602600D01*
X175715600Y-129602600D02*
X175715600Y-127317600D01*
D11*
%TO.C,U7*%
X142887299Y-113174701D02*
X142887299Y-111924701D01*
X142953299Y-111024701D02*
X145849299Y-111024701D01*
X142953299Y-111574701D02*
X142953299Y-111024701D01*
X145849299Y-111024701D02*
X145849299Y-111574701D01*
X145849299Y-111574701D02*
X142953299Y-111574701D01*
D14*
%TO.C,C8*%
X162852981Y-111656400D02*
X162571819Y-111656400D01*
X162852981Y-112676400D02*
X162571819Y-112676400D01*
%TO.C,C19*%
X148971299Y-109130219D02*
X148971299Y-109411381D01*
X149991299Y-109130219D02*
X149991299Y-109411381D01*
%TO.C,C4*%
X169470874Y-105793437D02*
X169189712Y-105793437D01*
X169470874Y-106813437D02*
X169189712Y-106813437D01*
%TO.C,HSE1*%
X167680293Y-105357037D02*
X170980293Y-105357037D01*
X170980293Y-105357037D02*
X170980293Y-101357037D01*
%TO.C,J5*%
X132286800Y-80812000D02*
X132286800Y-90812000D01*
X132286800Y-80812000D02*
X138186800Y-80812000D01*
X132286800Y-90812000D02*
X138186800Y-90812000D01*
X133186800Y-80812000D02*
X132286800Y-81712000D01*
X136786799Y-89212000D02*
X138186800Y-89212000D01*
X136786800Y-82462000D02*
X136786800Y-84212001D01*
X136786800Y-84212001D02*
X138186800Y-84212000D01*
X136786800Y-87462001D02*
X136786799Y-89212000D01*
X138186800Y-80812000D02*
X138186800Y-90812000D01*
X138186800Y-82462000D02*
X136786800Y-82462000D01*
X138186800Y-87462000D02*
X136786800Y-87462001D01*
X133236800Y-90012000D02*
G75*
G02*
X132936800Y-90012000I-150000J0D01*
G01*
X132936800Y-90012000D02*
G75*
G02*
X133236800Y-90012000I150000J0D01*
G01*
%TO.C,J2*%
X132236000Y-95632600D02*
X132236000Y-105632600D01*
X132236000Y-95632600D02*
X138136000Y-95632600D01*
X132236000Y-105632600D02*
X138136000Y-105632600D01*
X133136000Y-95632600D02*
X132236000Y-96532600D01*
X136735999Y-104032600D02*
X138136000Y-104032600D01*
X136736000Y-97282600D02*
X136736000Y-99032601D01*
X136736000Y-99032601D02*
X138136000Y-99032600D01*
X136736000Y-102282601D02*
X136735999Y-104032600D01*
X138136000Y-95632600D02*
X138136000Y-105632600D01*
X138136000Y-97282600D02*
X136736000Y-97282600D01*
X138136000Y-102282600D02*
X136736000Y-102282601D01*
X133186000Y-104832600D02*
G75*
G02*
X132886000Y-104832600I-150000J0D01*
G01*
X132886000Y-104832600D02*
G75*
G02*
X133186000Y-104832600I150000J0D01*
G01*
%TO.C,C14*%
X138986800Y-83933419D02*
X138986800Y-84214581D01*
X140006800Y-83933419D02*
X140006800Y-84214581D01*
%TO.C,R18*%
X138974300Y-90204058D02*
X138974300Y-89729542D01*
X140019300Y-90204058D02*
X140019300Y-89729542D01*
D15*
%TO.C,ANT1*%
X188580400Y-129600000D02*
X188580400Y-127000000D01*
D14*
%TO.C,C18*%
X143968918Y-114094800D02*
X144250080Y-114094800D01*
X143968918Y-115114800D02*
X144250080Y-115114800D01*
%TO.C,SW1*%
X178245600Y-100330600D02*
X178245600Y-100380600D01*
X178245600Y-100330600D02*
X183145600Y-100330600D01*
X178245600Y-102030600D02*
X178245600Y-103530600D01*
X178245600Y-105230600D02*
X178245600Y-105180600D01*
X178245600Y-105230600D02*
X183145600Y-105230600D01*
X183145600Y-100330600D02*
X183145600Y-100380600D01*
X183145600Y-102030600D02*
X183145600Y-103530600D01*
X183145600Y-105230600D02*
X183145600Y-105180600D01*
%TO.C,R7*%
X146645100Y-95165142D02*
X146645100Y-95639658D01*
X147690100Y-95165142D02*
X147690100Y-95639658D01*
D15*
%TO.C,U2*%
X171781200Y-109880426D02*
X172061200Y-109880426D01*
X171781200Y-122080426D02*
X171781200Y-109880426D01*
X172061200Y-122080426D02*
X171781200Y-122080426D01*
X187501200Y-122080426D02*
X187781200Y-122080426D01*
X187781200Y-109880426D02*
X187501200Y-109880426D01*
X187781200Y-122080426D02*
X187781200Y-109880426D01*
D11*
X172481200Y-123580426D02*
G75*
G02*
X172281200Y-123580426I-100000J0D01*
G01*
X172281200Y-123580426D02*
G75*
G02*
X172481200Y-123580426I100000J0D01*
G01*
D14*
%TO.C,F1*%
X140586721Y-117857200D02*
X141103877Y-117857200D01*
X140586721Y-119277200D02*
X141103877Y-119277200D01*
%TO.C,C20*%
X143968918Y-118029500D02*
X144250080Y-118029500D01*
X143968918Y-119049500D02*
X144250080Y-119049500D01*
%TO.C,C11*%
X138936000Y-98767019D02*
X138936000Y-99048181D01*
X139956000Y-98767019D02*
X139956000Y-99048181D01*
%TO.C,C9*%
X165809200Y-98997381D02*
X165809200Y-98716219D01*
X166829200Y-98997381D02*
X166829200Y-98716219D01*
%TO.C,R3*%
X174458100Y-125103658D02*
X174458100Y-124629142D01*
X175503100Y-125103658D02*
X175503100Y-124629142D01*
%TO.C,J6*%
X133030401Y-123536400D02*
X133030401Y-116036400D01*
X137630400Y-118036400D02*
X138430401Y-118036400D01*
X137630400Y-120536400D02*
X138430401Y-120536400D01*
X137630401Y-119236400D02*
X137630400Y-118036400D01*
X137630401Y-121736400D02*
X137630400Y-120536400D01*
X138430401Y-119236400D02*
X137630401Y-119236400D01*
X138430401Y-121736400D02*
X137630401Y-121736400D01*
X138480401Y-123536400D02*
X132180401Y-123536400D01*
X132180401Y-116036400D01*
X138480401Y-116036400D01*
X138480401Y-123536400D01*
D10*
%TO.C,RV1*%
X141446000Y-94726000D02*
G75*
G02*
X140446000Y-94726000I-500000J0D01*
G01*
X140446000Y-94726000D02*
G75*
G02*
X141446000Y-94726000I500000J0D01*
G01*
X143096000Y-96276000D02*
X139346000Y-96276000D01*
X139346000Y-93176000D01*
X143096000Y-93176000D01*
X143096000Y-96276000D01*
D14*
%TO.C,U1*%
X156638600Y-98955200D02*
X156638600Y-99405200D01*
X156638600Y-106175200D02*
X156638600Y-105725200D01*
X157088600Y-98955200D02*
X156638600Y-98955200D01*
X157088600Y-106175200D02*
X156638600Y-106175200D01*
X163408600Y-98955200D02*
X163858600Y-98955200D01*
X163408600Y-106175200D02*
X163858600Y-106175200D01*
X163858600Y-98955200D02*
X163858600Y-99405200D01*
X163858600Y-106175200D02*
X163858600Y-105725200D01*
X164788600Y-106195200D02*
X164108600Y-106195200D01*
X164448600Y-105725200D01*
X164788600Y-106195200D01*
G36*
X164788600Y-106195200D02*
G01*
X164108600Y-106195200D01*
X164448600Y-105725200D01*
X164788600Y-106195200D01*
G37*
%TO.C,C16*%
X168247600Y-111263819D02*
X168247600Y-111544981D01*
X169267600Y-111263819D02*
X169267600Y-111544981D01*
%TO.C,C6*%
X169189712Y-99900637D02*
X169470874Y-99900637D01*
X169189712Y-100920637D02*
X169470874Y-100920637D01*
%TO.C,C1*%
X162866874Y-108282636D02*
X162585712Y-108282636D01*
X162866874Y-109302636D02*
X162585712Y-109302636D01*
%TO.C,R1*%
X175397900Y-102797342D02*
X175397900Y-103271858D01*
X176442900Y-102797342D02*
X176442900Y-103271858D01*
%TO.C,C5*%
X162866874Y-109959037D02*
X162585712Y-109959037D01*
X162866874Y-110979037D02*
X162585712Y-110979037D01*
%TO.C,C10*%
X167739600Y-97727381D02*
X167739600Y-97446219D01*
X168759600Y-97727381D02*
X168759600Y-97446219D01*
%TO.C,C3*%
X184910000Y-102908181D02*
X184910000Y-102627019D01*
X185930000Y-102908181D02*
X185930000Y-102627019D01*
D16*
%TO.C,U6*%
X140679800Y-101092000D02*
X140679800Y-102787201D01*
X140690600Y-99110800D02*
X140690600Y-100482400D01*
X140690600Y-100482400D02*
X140690600Y-101092000D01*
D17*
X140879800Y-102787200D02*
X140690600Y-102787200D01*
X140879800Y-102787200D02*
X140879800Y-104087200D01*
D16*
X145669000Y-102463600D02*
X145669000Y-99110800D01*
X140690600Y-100482400D02*
G75*
G02*
X140690600Y-101092000I0J-304800D01*
G01*
D14*
%TO.C,J4*%
X146244000Y-119939600D02*
X147574000Y-119939600D01*
X146244000Y-121269600D02*
X146244000Y-119939600D01*
X146244000Y-122539601D02*
X146244000Y-130219600D01*
X146244000Y-122539601D02*
X148904000Y-122539601D01*
X146244000Y-130219600D02*
X148904000Y-130219600D01*
X148904000Y-122539601D02*
X148904000Y-130219600D01*
%TO.C,R11*%
X163002700Y-122411258D02*
X163002700Y-121936742D01*
X164047700Y-122411258D02*
X164047700Y-121936742D01*
%TO.C,R13*%
X138923500Y-104783658D02*
X138923500Y-104309142D01*
X139968500Y-104783658D02*
X139968500Y-104309142D01*
D10*
%TO.C,RV2*%
X141496800Y-80095600D02*
G75*
G02*
X140496800Y-80095600I-500000J0D01*
G01*
X140496800Y-80095600D02*
G75*
G02*
X141496800Y-80095600I500000J0D01*
G01*
X143146800Y-81645600D02*
X139396800Y-81645600D01*
X139396800Y-78545600D01*
X143146800Y-78545600D01*
X143146800Y-81645600D01*
D14*
%TO.C,C21*%
X146888499Y-109130219D02*
X146888499Y-109411381D01*
X147908499Y-109130219D02*
X147908499Y-109411381D01*
%TO.C,D4*%
X162790200Y-118237499D02*
X162790200Y-120522499D01*
X162790200Y-120522499D02*
X164260200Y-120522499D01*
X164260200Y-120522499D02*
X164260200Y-118237499D01*
%TO.C,R10*%
X161115742Y-83703900D02*
X161590258Y-83703900D01*
X161115742Y-84748900D02*
X161590258Y-84748900D01*
%TO.C,R16*%
X145050742Y-90409500D02*
X145525258Y-90409500D01*
X145050742Y-91454500D02*
X145525258Y-91454500D01*
D15*
%TO.C,U5*%
X157582099Y-79932400D02*
X160582099Y-79932400D01*
X160582099Y-82932400D02*
X157582099Y-82932400D01*
D11*
X161682099Y-82932400D02*
G75*
G02*
X161482099Y-82932400I-100000J0D01*
G01*
X161482099Y-82932400D02*
G75*
G02*
X161682099Y-82932400I100000J0D01*
G01*
D14*
%TO.C,L1*%
X184825420Y-125169200D02*
X185150980Y-125169200D01*
X184825420Y-126189200D02*
X185150980Y-126189200D01*
%TO.C,C13*%
X155053419Y-80922400D02*
X155334581Y-80922400D01*
X155053419Y-81942400D02*
X155334581Y-81942400D01*
%TO.C,R5*%
X141850342Y-105141500D02*
X142324858Y-105141500D01*
X141850342Y-106186500D02*
X142324858Y-106186500D01*
%TO.C,C12*%
X144320800Y-121095381D02*
X144320800Y-120814219D01*
X145340800Y-121095381D02*
X145340800Y-120814219D01*
%TO.C,D3*%
X136543386Y-109398014D02*
X136543386Y-111683014D01*
X138013386Y-109398014D02*
X136543386Y-109398014D01*
X138013386Y-111683014D02*
X138013386Y-109398014D01*
%TO.C,R6*%
X144949142Y-105141500D02*
X145423658Y-105141500D01*
X144949142Y-106186500D02*
X145423658Y-106186500D01*
%TO.C,R17*%
X141951942Y-90409500D02*
X142426458Y-90409500D01*
X141951942Y-91454500D02*
X142426458Y-91454500D01*
%TO.C,R4*%
X159700700Y-109490742D02*
X159700700Y-109965258D01*
X160745700Y-109490742D02*
X160745700Y-109965258D01*
%TO.C,R15*%
X146746700Y-83950541D02*
X146746700Y-84425057D01*
X147791700Y-83950541D02*
X147791700Y-84425057D01*
%TO.C,C15*%
X169974800Y-111263819D02*
X169974800Y-111544981D01*
X170994800Y-111263819D02*
X170994800Y-111544981D01*
%TO.C,C17*%
X143968918Y-116062150D02*
X144250080Y-116062150D01*
X143968918Y-117082150D02*
X144250080Y-117082150D01*
D16*
%TO.C,U3*%
X140756000Y-86258400D02*
X140756000Y-87953601D01*
X140766800Y-84277200D02*
X140766800Y-85648800D01*
X140766800Y-85648800D02*
X140766800Y-86258400D01*
D17*
X140956000Y-87953600D02*
X140766800Y-87953600D01*
X140956000Y-87953600D02*
X140956000Y-89253600D01*
D16*
X145745200Y-87630000D02*
X145745200Y-84277200D01*
X140766800Y-85648800D02*
G75*
G02*
X140766800Y-86258400I0J-304800D01*
G01*
D14*
%TO.C,R9*%
X157044657Y-83703900D02*
X156570141Y-83703900D01*
X157044657Y-84748900D02*
X156570141Y-84748900D01*
D11*
%TO.C,U4*%
X171382800Y-78563200D02*
X171382800Y-94563200D01*
X171382800Y-78563200D02*
X188382800Y-78563200D01*
X188382800Y-78563200D02*
X188382800Y-94563200D01*
X188382800Y-94563200D02*
X171382800Y-94563200D01*
D18*
X186982800Y-81305200D02*
G75*
G02*
X186782800Y-81305200I-100000J0D01*
G01*
X186782800Y-81305200D02*
G75*
G02*
X186982800Y-81305200I100000J0D01*
G01*
D14*
%TO.C,R2*%
X159751500Y-122399058D02*
X159751500Y-121924542D01*
X160796500Y-122399058D02*
X160796500Y-121924542D01*
%TO.C,D1*%
X159539000Y-118263001D02*
X159539000Y-120548001D01*
X159539000Y-120548001D02*
X161009000Y-120548001D01*
X161009000Y-120548001D02*
X161009000Y-118263001D01*
%TD*%
M02*
