M48
; DRILL file {KiCad 8.0.5} date 2024-11-10T21:18:19+0700
; FORMAT={-:-/ absolute / inch / decimal}
; #@! TF.CreationDate,2024-11-10T21:18:19+07:00
; #@! TF.GenerationSoftware,Kicad,Pcbnew,8.0.5
; #@! TF.FileFunction,Plated,1,2,PTH
FMAT,2
INCH
; #@! TA.AperFunction,Plated,PTH,ViaDrill
T1C0.0118
; #@! TA.AperFunction,Plated,PTH,ViaDrill
T2C0.0157
; #@! TA.AperFunction,Plated,PTH,ComponentDrill
T3C0.0236
; #@! TA.AperFunction,Plated,PTH,ComponentDrill
T4C0.0394
%
G90
G05
T1
X4.9094Y-3.0118
X4.9094Y-3.7224
X5.0098Y-2.8858
X5.0587Y-2.8799
X5.1535Y-3.0945
X5.2067Y-3.5768
X5.2067Y-3.7185
X5.2587Y-3.0827
X5.3622Y-3.0512
X5.407Y-3.5824
X5.4587Y-3.5157
X5.4587Y-3.5768
X5.7717Y-3.1969
X6.0157Y-3.2382
X6.0157Y-3.3189
X6.0157Y-3.3976
X6.6004Y-3.2402
X6.6004Y-3.3189
T2
X3.8976Y-2.7795
X4.0236Y-3.4508
X4.0236Y-3.5079
X4.0394Y-3.248
X4.0394Y-3.2953
X4.2402Y-3.2835
X4.2756Y-3.4567
X4.2756Y-3.5217
X4.2992Y-3.7106
X4.3031Y-3.2835
X4.3661Y-3.7106
X4.3701Y-3.2835
X4.4528Y-3.4449
X4.4547Y-3.5157
X4.5453Y-3.7106
X4.5945Y-3.7106
X4.6339Y-4.2126
X4.6339Y-4.2756
X4.6575Y-2.7795
X4.7933Y-3.8543
X4.7953Y-3.7835
X4.8031Y-3.5846
X4.815Y-2.7795
X4.8465Y-4.0551
X4.8563Y-3.5846
X4.8858Y-3.9094
X5.1102Y-2.8307
X5.1476Y-2.7205
X5.2087Y-2.7224
X5.2402Y-4.2756
X5.3268Y-2.6969
X5.4567Y-3.1102
X5.4567Y-3.1732
X5.8701Y-4.2717
X6.2283Y-3.8287
X6.2283Y-3.8819
X6.5886Y-3.7244
X6.5886Y-3.7579
T4
X3.8209Y-2.6339
X3.8209Y-2.7339
X3.8209Y-2.8339
X3.8209Y-2.9339
X5.0756Y-2.6378
X5.1756Y-2.6378
X5.2756Y-2.6378
X5.3756Y-2.6378
T3
X3.815Y-3.2748G85X3.7913Y-3.2748
G05
X3.815Y-3.615G85X3.7913Y-3.615
G05
X3.9646Y-3.2748G85X3.9409Y-3.2748
G05
X3.9646Y-3.615G85X3.9409Y-3.615
G05
M30
