%TF.GenerationSoftware,KiCad,Pcbnew,8.0.5*%
%TF.CreationDate,2024-11-10T21:17:35+07:00*%
%TF.ProjectId,PCB_MASTER,5043425f-4d41-4535-9445-522e6b696361,rev?*%
%TF.SameCoordinates,Original*%
%TF.FileFunction,Copper,L1,Top*%
%TF.FilePolarity,Positive*%
%FSLAX46Y46*%
G04 Gerber Fmt 4.6, Leading zero omitted, Abs format (unit mm)*
G04 Created by KiCad (PCBNEW 8.0.5) date 2024-11-10 21:17:35*
%MOMM*%
%LPD*%
G01*
G04 APERTURE LIST*
G04 Aperture macros list*
%AMRoundRect*
0 Rectangle with rounded corners*
0 $1 Rounding radius*
0 $2 $3 $4 $5 $6 $7 $8 $9 X,Y pos of 4 corners*
0 Add a 4 corners polygon primitive as box body*
4,1,4,$2,$3,$4,$5,$6,$7,$8,$9,$2,$3,0*
0 Add four circle primitives for the rounded corners*
1,1,$1+$1,$2,$3*
1,1,$1+$1,$4,$5*
1,1,$1+$1,$6,$7*
1,1,$1+$1,$8,$9*
0 Add four rect primitives between the rounded corners*
20,1,$1+$1,$2,$3,$4,$5,0*
20,1,$1+$1,$4,$5,$6,$7,0*
20,1,$1+$1,$6,$7,$8,$9,0*
20,1,$1+$1,$8,$9,$2,$3,0*%
G04 Aperture macros list end*
%TA.AperFunction,SMDPad,CuDef*%
%ADD10RoundRect,0.200000X-0.200000X-0.275000X0.200000X-0.275000X0.200000X0.275000X-0.200000X0.275000X0*%
%TD*%
%TA.AperFunction,SMDPad,CuDef*%
%ADD11RoundRect,0.225000X-0.250000X0.225000X-0.250000X-0.225000X0.250000X-0.225000X0.250000X0.225000X0*%
%TD*%
%TA.AperFunction,SMDPad,CuDef*%
%ADD12RoundRect,0.218750X0.218750X0.256250X-0.218750X0.256250X-0.218750X-0.256250X0.218750X-0.256250X0*%
%TD*%
%TA.AperFunction,SMDPad,CuDef*%
%ADD13RoundRect,0.250000X0.525000X0.250000X-0.525000X0.250000X-0.525000X-0.250000X0.525000X-0.250000X0*%
%TD*%
%TA.AperFunction,SMDPad,CuDef*%
%ADD14RoundRect,0.200000X0.275000X-0.200000X0.275000X0.200000X-0.275000X0.200000X-0.275000X-0.200000X0*%
%TD*%
%TA.AperFunction,SMDPad,CuDef*%
%ADD15R,0.900000X1.500000*%
%TD*%
%TA.AperFunction,SMDPad,CuDef*%
%ADD16R,1.500000X0.900000*%
%TD*%
%TA.AperFunction,SMDPad,CuDef*%
%ADD17R,0.900000X0.900000*%
%TD*%
%TA.AperFunction,SMDPad,CuDef*%
%ADD18R,2.800000X1.100000*%
%TD*%
%TA.AperFunction,SMDPad,CuDef*%
%ADD19R,2.600000X1.100000*%
%TD*%
%TA.AperFunction,SMDPad,CuDef*%
%ADD20RoundRect,0.218750X0.256250X-0.218750X0.256250X0.218750X-0.256250X0.218750X-0.256250X-0.218750X0*%
%TD*%
%TA.AperFunction,SMDPad,CuDef*%
%ADD21RoundRect,0.175000X-0.425000X0.175000X-0.425000X-0.175000X0.425000X-0.175000X0.425000X0.175000X0*%
%TD*%
%TA.AperFunction,SMDPad,CuDef*%
%ADD22RoundRect,0.190000X0.410000X-0.190000X0.410000X0.190000X-0.410000X0.190000X-0.410000X-0.190000X0*%
%TD*%
%TA.AperFunction,SMDPad,CuDef*%
%ADD23RoundRect,0.200000X0.400000X-0.200000X0.400000X0.200000X-0.400000X0.200000X-0.400000X-0.200000X0*%
%TD*%
%TA.AperFunction,SMDPad,CuDef*%
%ADD24RoundRect,0.175000X0.425000X-0.175000X0.425000X0.175000X-0.425000X0.175000X-0.425000X-0.175000X0*%
%TD*%
%TA.AperFunction,SMDPad,CuDef*%
%ADD25RoundRect,0.190000X-0.410000X0.190000X-0.410000X-0.190000X0.410000X-0.190000X0.410000X0.190000X0*%
%TD*%
%TA.AperFunction,SMDPad,CuDef*%
%ADD26RoundRect,0.200000X-0.400000X0.200000X-0.400000X-0.200000X0.400000X-0.200000X0.400000X0.200000X0*%
%TD*%
%TA.AperFunction,ComponentPad*%
%ADD27O,1.700000X1.100000*%
%TD*%
%TA.AperFunction,SMDPad,CuDef*%
%ADD28RoundRect,0.250000X0.425000X-0.450000X0.425000X0.450000X-0.425000X0.450000X-0.425000X-0.450000X0*%
%TD*%
%TA.AperFunction,SMDPad,CuDef*%
%ADD29RoundRect,0.225000X-0.225000X-0.250000X0.225000X-0.250000X0.225000X0.250000X-0.225000X0.250000X0*%
%TD*%
%TA.AperFunction,ComponentPad*%
%ADD30R,1.700000X1.700000*%
%TD*%
%TA.AperFunction,ComponentPad*%
%ADD31O,1.700000X1.700000*%
%TD*%
%TA.AperFunction,SMDPad,CuDef*%
%ADD32RoundRect,0.225000X0.250000X-0.225000X0.250000X0.225000X-0.250000X0.225000X-0.250000X-0.225000X0*%
%TD*%
%TA.AperFunction,SMDPad,CuDef*%
%ADD33RoundRect,0.375000X-0.375000X0.625000X-0.375000X-0.625000X0.375000X-0.625000X0.375000X0.625000X0*%
%TD*%
%TA.AperFunction,SMDPad,CuDef*%
%ADD34RoundRect,0.500000X-1.400000X0.500000X-1.400000X-0.500000X1.400000X-0.500000X1.400000X0.500000X0*%
%TD*%
%TA.AperFunction,ViaPad*%
%ADD35C,0.800000*%
%TD*%
%TA.AperFunction,ViaPad*%
%ADD36C,0.600000*%
%TD*%
%TA.AperFunction,Conductor*%
%ADD37C,0.800100*%
%TD*%
%TA.AperFunction,Conductor*%
%ADD38C,0.200000*%
%TD*%
%TA.AperFunction,Conductor*%
%ADD39C,0.300000*%
%TD*%
G04 APERTURE END LIST*
D10*
%TO.P,R2,1*%
%TO.N,Net-(U1-IO2)*%
X159850000Y-96150000D03*
%TO.P,R2,2*%
%TO.N,Net-(D1-A)*%
X161500000Y-96150000D03*
%TD*%
D11*
%TO.P,C10,1*%
%TO.N,/BUTTON_1*%
X136600000Y-105525000D03*
%TO.P,C10,2*%
%TO.N,GND*%
X136600000Y-107075000D03*
%TD*%
D12*
%TO.P,D1,1,K*%
%TO.N,GND*%
X165087501Y-96150000D03*
%TO.P,D1,2,A*%
%TO.N,Net-(D1-A)*%
X163512499Y-96150000D03*
%TD*%
D13*
%TO.P,SW1,1,1*%
%TO.N,GND*%
X112772243Y-107875000D03*
X107522243Y-107875000D03*
%TO.P,SW1,2,2*%
%TO.N,/EN*%
X112772243Y-104875000D03*
X107522243Y-104875000D03*
%TD*%
D14*
%TO.P,R4,1*%
%TO.N,+3V3*%
X130500000Y-107125000D03*
%TO.P,R4,2*%
%TO.N,/IO0*%
X130500000Y-105475000D03*
%TD*%
%TO.P,R7,1*%
%TO.N,+3V3*%
X161300000Y-107125000D03*
%TO.P,R7,2*%
%TO.N,/BUTTON_2*%
X161300000Y-105475000D03*
%TD*%
D12*
%TO.P,D3,1,K*%
%TO.N,GND*%
X165112501Y-99910000D03*
%TO.P,D3,2,A*%
%TO.N,Net-(D3-A)*%
X163537499Y-99910000D03*
%TD*%
D15*
%TO.P,U1,1,GND_1*%
%TO.N,GND*%
X123410000Y-92700000D03*
%TO.P,U1,2,3V3*%
%TO.N,+3V3*%
X124680000Y-92700000D03*
%TO.P,U1,3,EN*%
%TO.N,/EN*%
X125950000Y-92700000D03*
%TO.P,U1,4,SENSOR_VP*%
%TO.N,unconnected-(U1-SENSOR_VP-Pad4)*%
X127220000Y-92700000D03*
%TO.P,U1,5,SENSOR_VN*%
%TO.N,unconnected-(U1-SENSOR_VN-Pad5)*%
X128490000Y-92700000D03*
%TO.P,U1,6,IO34*%
%TO.N,unconnected-(U1-IO34-Pad6)*%
X129760000Y-92700000D03*
%TO.P,U1,7,IO35*%
%TO.N,unconnected-(U1-IO35-Pad7)*%
X131030000Y-92700000D03*
%TO.P,U1,8,IO32*%
%TO.N,unconnected-(U1-IO32-Pad8)*%
X132300000Y-92700000D03*
%TO.P,U1,9,IO33*%
%TO.N,/BUTTON_1*%
X133570000Y-92700000D03*
%TO.P,U1,10,IO25*%
%TO.N,/BUTTON_2*%
X134840000Y-92700000D03*
%TO.P,U1,11,IO26*%
%TO.N,/DIO1*%
X136110000Y-92700000D03*
%TO.P,U1,12,IO27*%
%TO.N,unconnected-(U1-IO27-Pad12)*%
X137380000Y-92700000D03*
%TO.P,U1,13,IO14*%
%TO.N,/LORA_RESET*%
X138650000Y-92700000D03*
%TO.P,U1,14,IO12*%
%TO.N,unconnected-(U1-IO12-Pad14)*%
X139920000Y-92700000D03*
D16*
%TO.P,U1,15,GND_2*%
%TO.N,GND*%
X141170000Y-89665000D03*
%TO.P,U1,16,IO13*%
%TO.N,unconnected-(U1-IO13-Pad16)*%
X141170000Y-88395000D03*
%TO.P,U1,17,NC_1*%
%TO.N,unconnected-(U1-NC_1-Pad17)*%
X141170000Y-87125000D03*
%TO.P,U1,18,NC_2*%
%TO.N,unconnected-(U1-NC_2-Pad18)*%
X141170000Y-85855000D03*
%TO.P,U1,19,NC_3*%
%TO.N,unconnected-(U1-NC_3-Pad19)*%
X141170000Y-84585000D03*
%TO.P,U1,20,NC_4*%
%TO.N,unconnected-(U1-NC_4-Pad20)*%
X141170000Y-83315000D03*
%TO.P,U1,21,NC_5*%
%TO.N,unconnected-(U1-NC_5-Pad21)*%
X141170000Y-82045000D03*
%TO.P,U1,22,NC_6*%
%TO.N,unconnected-(U1-NC_6-Pad22)*%
X141170000Y-80775000D03*
%TO.P,U1,23,IO15*%
%TO.N,Net-(U1-IO15)*%
X141170000Y-79505000D03*
%TO.P,U1,24,IO2*%
%TO.N,Net-(U1-IO2)*%
X141170000Y-78235000D03*
D15*
%TO.P,U1,25,IO0*%
%TO.N,/IO0*%
X139920000Y-75200000D03*
%TO.P,U1,26,IO4*%
%TO.N,unconnected-(U1-IO4-Pad26)*%
X138650000Y-75200000D03*
%TO.P,U1,27,IO16*%
%TO.N,unconnected-(U1-IO16-Pad27)*%
X137380000Y-75200000D03*
%TO.P,U1,28,IO17*%
%TO.N,unconnected-(U1-IO17-Pad28)*%
X136110000Y-75200000D03*
%TO.P,U1,29,IO5*%
%TO.N,/NSS*%
X134840000Y-75200000D03*
%TO.P,U1,30,IO18*%
%TO.N,/SCK*%
X133570000Y-75200000D03*
%TO.P,U1,31,IO19*%
%TO.N,/MISO*%
X132300000Y-75200000D03*
%TO.P,U1,32,NC_7*%
%TO.N,unconnected-(U1-NC_7-Pad32)*%
X131030000Y-75200000D03*
%TO.P,U1,33,IO21*%
%TO.N,/SDA*%
X129760000Y-75200000D03*
%TO.P,U1,34,RXD0*%
%TO.N,/RX_D0*%
X128490000Y-75200000D03*
%TO.P,U1,35,TXD0*%
%TO.N,/TX_D0*%
X127220000Y-75200000D03*
%TO.P,U1,36,IO22*%
%TO.N,/SCL*%
X125950000Y-75200000D03*
%TO.P,U1,37,IO23*%
%TO.N,/MOSI*%
X124680000Y-75200000D03*
%TO.P,U1,38,GND_3*%
%TO.N,GND*%
X123410000Y-75200000D03*
D17*
%TO.P,U1,39,GND_4*%
X130750000Y-85450000D03*
%TO.P,U1,40,GND_5*%
X130750000Y-86850000D03*
%TO.P,U1,41,GND_6*%
X132150000Y-86850000D03*
%TO.P,U1,42,GND_7*%
X132150000Y-85450000D03*
%TO.P,U1,43,GND_8*%
X132150000Y-84050000D03*
%TO.P,U1,44,GND_9*%
X130750000Y-84050000D03*
%TO.P,U1,45,GND_10*%
X129350000Y-84050000D03*
%TO.P,U1,46,GND_11*%
X129350000Y-85450000D03*
%TO.P,U1,47,GND_12*%
X129350000Y-86850000D03*
%TD*%
D18*
%TO.P,U3,1,GND*%
%TO.N,GND*%
X170400000Y-90300000D03*
D19*
%TO.P,U3,2,GND*%
X170500000Y-88300000D03*
%TO.P,U3,3,3.3V*%
%TO.N,+3V3*%
X170500000Y-86300000D03*
%TO.P,U3,4,RESET*%
%TO.N,/LORA_RESET*%
X170500000Y-84300000D03*
%TO.P,U3,5,DI00*%
%TO.N,/DIO1*%
X170500000Y-82300000D03*
%TO.P,U3,6,DI01*%
%TO.N,unconnected-(U3-DI01-Pad6)*%
X170500000Y-80300000D03*
%TO.P,U3,7,DI02*%
%TO.N,unconnected-(U3-DI02-Pad7)*%
X170500000Y-78300000D03*
%TO.P,U3,8,DI03*%
%TO.N,unconnected-(U3-DI03-Pad8)*%
X170500000Y-76300000D03*
%TO.P,U3,9,GND*%
%TO.N,GND*%
X155100000Y-76300000D03*
%TO.P,U3,10,DI04*%
%TO.N,unconnected-(U3-DI04-Pad10)*%
X155100000Y-78300000D03*
%TO.P,U3,11,DI05*%
%TO.N,unconnected-(U3-DI05-Pad11)*%
X155100000Y-80300000D03*
%TO.P,U3,12,SCK*%
%TO.N,/SCK*%
X155100000Y-82300000D03*
%TO.P,U3,13,MISO*%
%TO.N,/MISO*%
X155100000Y-84300000D03*
%TO.P,U3,14,MOSI*%
%TO.N,/MOSI*%
X155100000Y-86300000D03*
%TO.P,U3,15,NSS*%
%TO.N,/NSS*%
X155100000Y-88300000D03*
%TO.P,U3,16,GND*%
%TO.N,GND*%
X155100000Y-90300000D03*
%TD*%
D20*
%TO.P,D2,1,K*%
%TO.N,GND*%
X104005359Y-91859562D03*
%TO.P,D2,2,A*%
%TO.N,Net-(D2-A)*%
X104005359Y-90284560D03*
%TD*%
D21*
%TO.P,J3,A5,CC1*%
%TO.N,unconnected-(J3-CC1-PadA5)*%
X100479999Y-87000000D03*
D22*
%TO.P,J3,A9,VBUS*%
%TO.N,VBUS*%
X100480000Y-89020000D03*
D23*
%TO.P,J3,A12,GND*%
%TO.N,GND*%
X100480000Y-90250000D03*
D24*
%TO.P,J3,B5,CC2*%
%TO.N,unconnected-(J3-CC2-PadB5)*%
X100479999Y-88000000D03*
D25*
%TO.P,J3,B9,VBUS*%
%TO.N,VBUS*%
X100480000Y-85980000D03*
D26*
%TO.P,J3,B12,GND*%
%TO.N,GND*%
X100480000Y-84750000D03*
D27*
%TO.P,J3,S1,SHIELD*%
X100400000Y-83180000D03*
X96600000Y-83180000D03*
X100400000Y-91820000D03*
X96600000Y-91820000D03*
%TD*%
D28*
%TO.P,C7,1*%
%TO.N,+3V3*%
X116350000Y-91800000D03*
%TO.P,C7,2*%
%TO.N,GND*%
X116350000Y-89100000D03*
%TD*%
D13*
%TO.P,SW4,1,1*%
%TO.N,GND*%
X143938984Y-107875000D03*
X138688984Y-107875000D03*
%TO.P,SW4,2,2*%
%TO.N,/BUTTON_1*%
X143938984Y-104875000D03*
X138688984Y-104875000D03*
%TD*%
D11*
%TO.P,C9,1*%
%TO.N,/BUTTON_2*%
X151804122Y-105567989D03*
%TO.P,C9,2*%
%TO.N,GND*%
X151804122Y-107117989D03*
%TD*%
D14*
%TO.P,R5,1*%
%TO.N,+3V3*%
X105955359Y-91897061D03*
%TO.P,R5,2*%
%TO.N,Net-(D2-A)*%
X105955359Y-90247061D03*
%TD*%
D29*
%TO.P,C3,1*%
%TO.N,GND*%
X123125000Y-97800000D03*
%TO.P,C3,2*%
%TO.N,+3V3*%
X124675000Y-97800000D03*
%TD*%
D30*
%TO.P,J1,1,Pin_1*%
%TO.N,+3V3*%
X97050000Y-66900000D03*
D31*
%TO.P,J1,2,Pin_2*%
%TO.N,/RX_D0*%
X97050000Y-69440000D03*
%TO.P,J1,3,Pin_3*%
%TO.N,/TX_D0*%
X97050000Y-71979999D03*
%TO.P,J1,4,Pin_4*%
%TO.N,GND*%
X97050000Y-74520000D03*
%TD*%
D28*
%TO.P,C6,1*%
%TO.N,VBUS*%
X104300000Y-85650000D03*
%TO.P,C6,2*%
%TO.N,GND*%
X104300000Y-82950000D03*
%TD*%
D13*
%TO.P,SW3,1,1*%
%TO.N,GND*%
X159118690Y-107875000D03*
X153868690Y-107875000D03*
%TO.P,SW3,2,2*%
%TO.N,/BUTTON_2*%
X159118690Y-104875000D03*
X153868690Y-104875000D03*
%TD*%
%TO.P,SW2,1,1*%
%TO.N,GND*%
X128266668Y-107875000D03*
X123016668Y-107875000D03*
%TO.P,SW2,2,2*%
%TO.N,/IO0*%
X128266668Y-104875000D03*
X123016668Y-104875000D03*
%TD*%
D32*
%TO.P,C8,1*%
%TO.N,+3V3*%
X118500000Y-91275000D03*
%TO.P,C8,2*%
%TO.N,GND*%
X118500000Y-89725000D03*
%TD*%
D30*
%TO.P,J2,1,Pin_1*%
%TO.N,+3V3*%
X128920000Y-67000000D03*
D31*
%TO.P,J2,2,Pin_2*%
%TO.N,GND*%
X131460000Y-67000000D03*
%TO.P,J2,3,Pin_3*%
%TO.N,/SCL*%
X134000000Y-67000000D03*
%TO.P,J2,4,Pin_4*%
%TO.N,/SDA*%
X136540000Y-67000000D03*
%TD*%
D11*
%TO.P,C1,1*%
%TO.N,/EN*%
X105500000Y-105825000D03*
%TO.P,C1,2*%
%TO.N,GND*%
X105500000Y-107375000D03*
%TD*%
D10*
%TO.P,R6,1*%
%TO.N,Net-(U1-IO15)*%
X159875000Y-99950000D03*
%TO.P,R6,2*%
%TO.N,Net-(D3-A)*%
X161525000Y-99950000D03*
%TD*%
D33*
%TO.P,U2,1,GND*%
%TO.N,GND*%
X113200000Y-85600000D03*
%TO.P,U2,2,VO*%
%TO.N,+3V3*%
X110900000Y-85600001D03*
D34*
X110900000Y-91899999D03*
D33*
%TO.P,U2,3,VI*%
%TO.N,VBUS*%
X108600000Y-85600000D03*
%TD*%
D11*
%TO.P,C4,1*%
%TO.N,/IO0*%
X121000000Y-105525000D03*
%TO.P,C4,2*%
%TO.N,GND*%
X121000000Y-107075000D03*
%TD*%
D29*
%TO.P,C2,1*%
%TO.N,GND*%
X123125000Y-96150000D03*
%TO.P,C2,2*%
%TO.N,+3V3*%
X124675000Y-96150000D03*
%TD*%
D14*
%TO.P,R1,1*%
%TO.N,+3V3*%
X114900000Y-107425000D03*
%TO.P,R1,2*%
%TO.N,/EN*%
X114900000Y-105775000D03*
%TD*%
D32*
%TO.P,C5,1*%
%TO.N,VBUS*%
X106300000Y-85075000D03*
%TO.P,C5,2*%
%TO.N,GND*%
X106300000Y-83525000D03*
%TD*%
D14*
%TO.P,R8,1*%
%TO.N,+3V3*%
X146150000Y-107075000D03*
%TO.P,R8,2*%
%TO.N,/BUTTON_1*%
X146150000Y-105425000D03*
%TD*%
D35*
%TO.N,GND*%
X102600000Y-83700000D03*
X118300000Y-70600000D03*
X149100000Y-108500000D03*
X158200000Y-98600000D03*
X109200000Y-94250000D03*
X109300000Y-83400000D03*
X133100000Y-108600000D03*
X138600000Y-80600000D03*
X121750000Y-97900000D03*
X124100000Y-99300000D03*
X102200000Y-87650000D03*
X117700000Y-107000000D03*
X117700000Y-108600000D03*
X116700000Y-94250000D03*
X110900000Y-94250000D03*
X121800000Y-96100000D03*
X129800000Y-71900000D03*
X111000000Y-83400000D03*
X132300000Y-69150000D03*
X99000000Y-70600000D03*
X135300000Y-68500000D03*
X138600000Y-79000000D03*
X122300000Y-70600000D03*
X122000000Y-91050000D03*
X102200000Y-89100000D03*
X115450000Y-94250000D03*
X113150000Y-89300000D03*
X102600000Y-82500000D03*
X107700000Y-83400000D03*
X130750000Y-69100000D03*
X108600000Y-87800000D03*
X108600000Y-89450000D03*
X123350000Y-91050000D03*
X158200000Y-97250000D03*
X123100000Y-103000000D03*
X113100000Y-87500000D03*
D36*
X137338469Y-90992967D03*
%TO.N,+3V3*%
X124700000Y-94550000D03*
D35*
X167350000Y-94600000D03*
X167350000Y-95450000D03*
D36*
%TO.N,/IO0*%
X132250000Y-90850000D03*
X132250000Y-94450000D03*
%TO.N,/TX_D0*%
X127250000Y-73300000D03*
%TO.N,/RX_D0*%
X128490000Y-73150000D03*
%TO.N,/LORA_RESET*%
X138650000Y-90850000D03*
X167650000Y-84300000D03*
%TO.N,/NSS*%
X136200000Y-77500000D03*
X146600000Y-81200000D03*
%TO.N,/DIO1*%
X167650000Y-82300000D03*
X138650000Y-89300000D03*
%TO.N,/SCK*%
X133570000Y-78300000D03*
X152800000Y-82250000D03*
%TO.N,/MISO*%
X130900000Y-78600000D03*
X152800000Y-84300000D03*
%TO.N,/MOSI*%
X124700000Y-76500000D03*
X152800000Y-86300000D03*
%TD*%
D37*
%TO.N,+3V3*%
X120628110Y-94550000D02*
G75*
G02*
X119214441Y-93964437I-10J1999200D01*
G01*
X118500000Y-93125736D02*
G75*
G03*
X118587886Y-93337850I300000J36D01*
G01*
D38*
%TO.N,/EN*%
X117200000Y-101400000D02*
X114900000Y-103700000D01*
X114900000Y-103700000D02*
X114900000Y-105775000D01*
X106822243Y-105825000D02*
X107522243Y-105125000D01*
X107522243Y-105125000D02*
X112772243Y-105125000D01*
X125950000Y-92700000D02*
X125950000Y-99450000D01*
X124000000Y-101400000D02*
X117200000Y-101400000D01*
X125950000Y-99450000D02*
X124000000Y-101400000D01*
X113422243Y-105775000D02*
X112772243Y-105125000D01*
X105500000Y-105825000D02*
X106822243Y-105825000D01*
X114900000Y-105775000D02*
X113422243Y-105775000D01*
D39*
%TO.N,+3V3*%
X129600000Y-109900000D02*
X129000000Y-109900000D01*
X145900000Y-109900000D02*
X146150000Y-109650000D01*
X146400000Y-109900000D02*
X145250000Y-109900000D01*
D37*
X119850000Y-91275000D02*
X120375000Y-90750000D01*
D39*
X114900000Y-109300000D02*
X114900000Y-107425000D01*
X130500000Y-109600000D02*
X130500000Y-109500000D01*
D37*
X118500000Y-91275000D02*
X118500000Y-93125736D01*
X124700000Y-96125000D02*
X124675000Y-96150000D01*
X124700000Y-94550000D02*
X124700000Y-92720000D01*
X120375000Y-90750000D02*
X120375000Y-67800000D01*
X97150000Y-67000000D02*
X97050000Y-66900000D01*
D39*
X161300000Y-107125000D02*
X161325000Y-107150000D01*
X164150000Y-107150000D02*
X167350000Y-103950000D01*
X167350000Y-103950000D02*
X167350000Y-94600000D01*
D37*
X120375000Y-67125000D02*
X120500000Y-67000000D01*
X120628110Y-94550000D02*
X124700000Y-94550000D01*
D39*
X130500000Y-109900000D02*
X130500000Y-109500000D01*
D37*
X110900000Y-85600001D02*
X110900000Y-91899999D01*
X116250001Y-91899999D02*
X116350000Y-91800000D01*
X119600000Y-67000000D02*
X120375000Y-67775000D01*
D39*
X146150000Y-109650000D02*
X146400000Y-109900000D01*
D37*
X124675000Y-96150000D02*
X124675000Y-97800000D01*
D39*
X145250000Y-109900000D02*
X130900000Y-109900000D01*
D37*
X120375000Y-67775000D02*
X120375000Y-67800000D01*
X120500000Y-67000000D02*
X121350000Y-67000000D01*
D39*
X130500000Y-109600000D02*
X130800000Y-109900000D01*
X161325000Y-107150000D02*
X164150000Y-107150000D01*
X115500000Y-109900000D02*
X114900000Y-109300000D01*
D37*
X120500000Y-67000000D02*
X119500000Y-67000000D01*
X121350000Y-67000000D02*
X128920000Y-67000000D01*
D39*
X108397061Y-91897061D02*
X108399999Y-91899999D01*
D37*
X119500000Y-67000000D02*
X119600000Y-67000000D01*
D39*
X161300000Y-107125000D02*
X161300000Y-108600000D01*
D37*
X120375000Y-67800000D02*
X120375000Y-67125000D01*
D39*
X130200000Y-109900000D02*
X130500000Y-109600000D01*
D37*
X116350000Y-91800000D02*
X117975000Y-91800000D01*
D39*
X160000000Y-109900000D02*
X146400000Y-109900000D01*
X130500000Y-109500000D02*
X130500000Y-107125000D01*
X129950000Y-109900000D02*
X129600000Y-109900000D01*
X130200000Y-109900000D02*
X129950000Y-109900000D01*
D37*
X118500000Y-91275000D02*
X119850000Y-91275000D01*
D39*
X108399999Y-91899999D02*
X110900000Y-91899999D01*
D37*
X119500000Y-67000000D02*
X97150000Y-67000000D01*
D39*
X161300000Y-108600000D02*
X160000000Y-109900000D01*
D37*
X124700000Y-92720000D02*
X124680000Y-92700000D01*
D39*
X105955359Y-91897061D02*
X108397061Y-91897061D01*
X129000000Y-109900000D02*
X129250000Y-109900000D01*
X130900000Y-109900000D02*
X130200000Y-109900000D01*
X145250000Y-109900000D02*
X145900000Y-109900000D01*
D37*
X124700000Y-94550000D02*
X124700000Y-96125000D01*
X117975000Y-91800000D02*
X118500000Y-91275000D01*
D39*
X129600000Y-109900000D02*
X130500000Y-109900000D01*
D37*
X170500000Y-86300000D02*
X168850000Y-86300000D01*
X118587868Y-93337868D02*
X119214439Y-93964439D01*
D39*
X146150000Y-109650000D02*
X146150000Y-107075000D01*
D37*
X167350000Y-87800000D02*
X167350000Y-94600000D01*
X121350000Y-67000000D02*
X121175000Y-67000000D01*
X110900000Y-91899999D02*
X116250001Y-91899999D01*
D39*
X129000000Y-109900000D02*
X115500000Y-109900000D01*
D37*
X121175000Y-67000000D02*
X120375000Y-67800000D01*
X168850000Y-86300000D02*
X167350000Y-87800000D01*
D39*
X130800000Y-109900000D02*
X130900000Y-109900000D01*
D38*
%TO.N,/IO0*%
X132250000Y-90850000D02*
X139920000Y-83180000D01*
X121000000Y-105525000D02*
X122341668Y-105525000D01*
X128891668Y-105475000D02*
X128266668Y-104850000D01*
X132250000Y-94450000D02*
X132250000Y-102200000D01*
X130500000Y-103950000D02*
X130500000Y-105475000D01*
X132250000Y-102200000D02*
X130500000Y-103950000D01*
X122341668Y-105525000D02*
X123016668Y-104850000D01*
X130500000Y-105475000D02*
X128891668Y-105475000D01*
X123016668Y-104850000D02*
X128266668Y-104850000D01*
X139920000Y-83180000D02*
X139920000Y-75200000D01*
D37*
%TO.N,VBUS*%
X100480000Y-89020000D02*
X99370000Y-89020000D01*
X99370000Y-89020000D02*
X98800000Y-88450000D01*
X98800000Y-86400000D02*
X99220000Y-85980000D01*
X103970000Y-85980000D02*
X104300000Y-85650000D01*
X99220000Y-85980000D02*
X100480000Y-85980000D01*
X100480000Y-85980000D02*
X103970000Y-85980000D01*
X98800000Y-88450000D02*
X98800000Y-86400000D01*
D38*
%TO.N,/BUTTON_2*%
X151822111Y-105550000D02*
X151804122Y-105567989D01*
X159718690Y-105475000D02*
X159118690Y-104875000D01*
X153868690Y-104875000D02*
X153193690Y-105550000D01*
X153868690Y-104875000D02*
X159118690Y-104875000D01*
X161300000Y-105475000D02*
X159718690Y-105475000D01*
X134840000Y-92700000D02*
X134840000Y-99540000D01*
X151804122Y-104504122D02*
X151804122Y-105567989D01*
X134840000Y-99540000D02*
X137800000Y-102500000D01*
X149800000Y-102500000D02*
X151804122Y-104504122D01*
X137800000Y-102500000D02*
X149800000Y-102500000D01*
X153193690Y-105550000D02*
X151822111Y-105550000D01*
%TO.N,/BUTTON_1*%
X133570000Y-101120000D02*
X136600000Y-104150000D01*
X133570000Y-92700000D02*
X133570000Y-101120000D01*
X146150000Y-105425000D02*
X144550106Y-105425000D01*
X136600000Y-104150000D02*
X136600000Y-105525000D01*
X137977862Y-105525000D02*
X138688984Y-104813878D01*
X138688984Y-104813878D02*
X143938984Y-104813878D01*
X136600000Y-105525000D02*
X137977862Y-105525000D01*
X144550106Y-105425000D02*
X143938984Y-104813878D01*
%TO.N,Net-(D1-A)*%
X161500000Y-96150000D02*
X163512499Y-96150000D01*
D39*
%TO.N,Net-(D2-A)*%
X105955359Y-90247061D02*
X104042858Y-90247061D01*
X104042858Y-90247061D02*
X104005359Y-90284560D01*
D38*
%TO.N,Net-(D3-A)*%
X163497499Y-99950000D02*
X163537499Y-99910000D01*
X161525000Y-99950000D02*
X163497499Y-99950000D01*
%TO.N,/TX_D0*%
X127220000Y-73330000D02*
X127220000Y-75200000D01*
X127250000Y-73300000D02*
X127220000Y-73330000D01*
%TO.N,/RX_D0*%
X128490000Y-73150000D02*
X128490000Y-75200000D01*
%TO.N,/SDA*%
X129760000Y-75200000D02*
X129760000Y-73540000D01*
X136540000Y-69860000D02*
X136540000Y-67000000D01*
X131100000Y-72200000D02*
X134200000Y-72200000D01*
X134200000Y-72200000D02*
X136540000Y-69860000D01*
X129760000Y-73540000D02*
X131100000Y-72200000D01*
%TO.N,/SCL*%
X134000000Y-67000000D02*
X134000000Y-69200000D01*
X128000000Y-70700000D02*
X125950000Y-72750000D01*
X132500000Y-70700000D02*
X128000000Y-70700000D01*
X134000000Y-69200000D02*
X132500000Y-70700000D01*
X125950000Y-72750000D02*
X125950000Y-75200000D01*
%TO.N,Net-(U1-IO2)*%
X143785000Y-78235000D02*
X145600000Y-80050000D01*
X141170000Y-78235000D02*
X143785000Y-78235000D01*
X145600000Y-85550000D02*
X156200000Y-96150000D01*
X156200000Y-96150000D02*
X159850000Y-96150000D01*
X145600000Y-80050000D02*
X145600000Y-85550000D01*
%TO.N,Net-(U1-IO15)*%
X144050000Y-80800000D02*
X144050000Y-86650000D01*
X142755000Y-79505000D02*
X144050000Y-80800000D01*
X144050000Y-86650000D02*
X157350000Y-99950000D01*
X141170000Y-79505000D02*
X142755000Y-79505000D01*
X157350000Y-99950000D02*
X159875000Y-99950000D01*
%TO.N,/LORA_RESET*%
X138650000Y-90850000D02*
X138650000Y-92700000D01*
X167650000Y-84300000D02*
X170500000Y-84300000D01*
%TO.N,/NSS*%
X146600000Y-84300000D02*
X146600000Y-81200000D01*
X134840000Y-76590000D02*
X134840000Y-75200000D01*
X150600000Y-88300000D02*
X146600000Y-84300000D01*
X155100000Y-88300000D02*
X150600000Y-88300000D01*
X135750000Y-77500000D02*
X134840000Y-76590000D01*
X136200000Y-77500000D02*
X135750000Y-77500000D01*
%TO.N,/DIO1*%
X136110000Y-92700000D02*
X136110000Y-90640000D01*
X167650000Y-82300000D02*
X170500000Y-82300000D01*
X137450000Y-89300000D02*
X138650000Y-89300000D01*
X136110000Y-90640000D02*
X137450000Y-89300000D01*
%TO.N,/SCK*%
X152800000Y-82250000D02*
X152850000Y-82300000D01*
X152850000Y-82300000D02*
X155100000Y-82300000D01*
X133570000Y-78300000D02*
X133570000Y-75200000D01*
%TO.N,/MISO*%
X132300000Y-77200000D02*
X130900000Y-78600000D01*
X132300000Y-75200000D02*
X132300000Y-77200000D01*
X155100000Y-84300000D02*
X152800000Y-84300000D01*
%TO.N,/MOSI*%
X124680000Y-75200000D02*
X124680000Y-76480000D01*
X152800000Y-86300000D02*
X155100000Y-86300000D01*
X124680000Y-76480000D02*
X124700000Y-76500000D01*
D37*
%TO.N,+3V3*%
X167350000Y-95450000D02*
X167350000Y-94600000D01*
%TD*%
%TA.AperFunction,Conductor*%
%TO.N,+3V3*%
G36*
X111665677Y-84469685D02*
G01*
X111686319Y-84486319D01*
X111813681Y-84613681D01*
X111847166Y-84675004D01*
X111850000Y-84701362D01*
X111850000Y-90250000D01*
X112100000Y-90400000D01*
X118073467Y-90400000D01*
X118116801Y-90407818D01*
X118147885Y-90419412D01*
X118191381Y-90424088D01*
X118204496Y-90425498D01*
X118204506Y-90425499D01*
X118204515Y-90425500D01*
X118795484Y-90425499D01*
X118852114Y-90419412D01*
X118883198Y-90407817D01*
X118926532Y-90400000D01*
X119248638Y-90400000D01*
X119315677Y-90419685D01*
X119336319Y-90436319D01*
X119463681Y-90563681D01*
X119497166Y-90625004D01*
X119500000Y-90651362D01*
X119500000Y-92656503D01*
X119480315Y-92723542D01*
X119472828Y-92733965D01*
X119337230Y-92903462D01*
X119279979Y-92943514D01*
X119240402Y-92950000D01*
X109101362Y-92950000D01*
X109034323Y-92930315D01*
X109013681Y-92913681D01*
X108836319Y-92736319D01*
X108802834Y-92674996D01*
X108800000Y-92648638D01*
X108800000Y-90801362D01*
X108819685Y-90734323D01*
X108836319Y-90713681D01*
X108913681Y-90636319D01*
X108975004Y-90602834D01*
X109001362Y-90600000D01*
X109850000Y-90600000D01*
X110000000Y-90500000D01*
X110000000Y-84758078D01*
X110019685Y-84691039D01*
X110044613Y-84662822D01*
X110265513Y-84478739D01*
X110329614Y-84450945D01*
X110344894Y-84450000D01*
X111598638Y-84450000D01*
X111665677Y-84469685D01*
G37*
%TD.AperFunction*%
%TD*%
%TA.AperFunction,Conductor*%
%TO.N,VBUS*%
G36*
X109446832Y-84469685D02*
G01*
X109486122Y-84510203D01*
X109582329Y-84670548D01*
X109600000Y-84734345D01*
X109600000Y-86429792D01*
X109580315Y-86496831D01*
X109539797Y-86536121D01*
X109379450Y-86632329D01*
X109315655Y-86650000D01*
X104050000Y-86650000D01*
X102951362Y-86650000D01*
X102884323Y-86630315D01*
X102863681Y-86613681D01*
X102750000Y-86500000D01*
X101400000Y-86500000D01*
X101230893Y-86500000D01*
X101163854Y-86480315D01*
X101158273Y-86476500D01*
X101158219Y-86476472D01*
X101038125Y-86415281D01*
X101038123Y-86415280D01*
X101038120Y-86415279D01*
X100938492Y-86399500D01*
X100938487Y-86399500D01*
X100021511Y-86399500D01*
X100021506Y-86399500D01*
X99943398Y-86411871D01*
X99874104Y-86402916D01*
X99820652Y-86357920D01*
X99800013Y-86291169D01*
X99800000Y-86289398D01*
X99800000Y-85651362D01*
X99819685Y-85584323D01*
X99836319Y-85563681D01*
X99913681Y-85486319D01*
X99975004Y-85452834D01*
X100001362Y-85450000D01*
X102750000Y-85450000D01*
X102900000Y-85300000D01*
X102900000Y-84651362D01*
X102919685Y-84584323D01*
X102936319Y-84563681D01*
X103013681Y-84486319D01*
X103075004Y-84452834D01*
X103101362Y-84450000D01*
X109379793Y-84450000D01*
X109446832Y-84469685D01*
G37*
%TD.AperFunction*%
%TD*%
%TA.AperFunction,Conductor*%
%TO.N,GND*%
G36*
X130438327Y-93931338D02*
G01*
X130472517Y-93944091D01*
X130532127Y-93950500D01*
X131401928Y-93950499D01*
X131468967Y-93970183D01*
X131514722Y-94022987D01*
X131524666Y-94092146D01*
X131518970Y-94115453D01*
X131464632Y-94270742D01*
X131464630Y-94270750D01*
X131444435Y-94449996D01*
X131444435Y-94450003D01*
X131464630Y-94629249D01*
X131464631Y-94629254D01*
X131524211Y-94799523D01*
X131620185Y-94952263D01*
X131622445Y-94955097D01*
X131623334Y-94957275D01*
X131623889Y-94958158D01*
X131623734Y-94958255D01*
X131648855Y-95019783D01*
X131649500Y-95032412D01*
X131649500Y-101899902D01*
X131629815Y-101966941D01*
X131613181Y-101987583D01*
X130019481Y-103581282D01*
X130019475Y-103581290D01*
X129984499Y-103641872D01*
X129984499Y-103641874D01*
X129940423Y-103718214D01*
X129940423Y-103718215D01*
X129899499Y-103870943D01*
X129899499Y-103870945D01*
X129899499Y-104039046D01*
X129899500Y-104039059D01*
X129899500Y-104583284D01*
X129879815Y-104650323D01*
X129839652Y-104689400D01*
X129789811Y-104719530D01*
X129789810Y-104719531D01*
X129753848Y-104755494D01*
X129692525Y-104788979D01*
X129622833Y-104783995D01*
X129566900Y-104742123D01*
X129542483Y-104676659D01*
X129542167Y-104667813D01*
X129542167Y-104574998D01*
X129542166Y-104574981D01*
X129531667Y-104472203D01*
X129531666Y-104472200D01*
X129520832Y-104439505D01*
X129476482Y-104305666D01*
X129384380Y-104156344D01*
X129260324Y-104032288D01*
X129167556Y-103975069D01*
X129111004Y-103940187D01*
X129110999Y-103940185D01*
X129089491Y-103933058D01*
X128944465Y-103885001D01*
X128944463Y-103885000D01*
X128841678Y-103874500D01*
X127691666Y-103874500D01*
X127691649Y-103874501D01*
X127588871Y-103885000D01*
X127588868Y-103885001D01*
X127422336Y-103940185D01*
X127422331Y-103940187D01*
X127273010Y-104032289D01*
X127148957Y-104156342D01*
X127127829Y-104190597D01*
X127075881Y-104237321D01*
X127022290Y-104249500D01*
X124261046Y-104249500D01*
X124194007Y-104229815D01*
X124155507Y-104190597D01*
X124137391Y-104161226D01*
X124134380Y-104156344D01*
X124010324Y-104032288D01*
X123917556Y-103975069D01*
X123861004Y-103940187D01*
X123860999Y-103940185D01*
X123839491Y-103933058D01*
X123694465Y-103885001D01*
X123694463Y-103885000D01*
X123591678Y-103874500D01*
X122441666Y-103874500D01*
X122441649Y-103874501D01*
X122338871Y-103885000D01*
X122338868Y-103885001D01*
X122172336Y-103940185D01*
X122172331Y-103940187D01*
X122023010Y-104032289D01*
X121898957Y-104156342D01*
X121806855Y-104305663D01*
X121806854Y-104305666D01*
X121755025Y-104462077D01*
X121751669Y-104472204D01*
X121751668Y-104472205D01*
X121744399Y-104543363D01*
X121718003Y-104608054D01*
X121660822Y-104648206D01*
X121591011Y-104651069D01*
X121565569Y-104640354D01*
X121565245Y-104641051D01*
X121558699Y-104637998D01*
X121558697Y-104637997D01*
X121539157Y-104631522D01*
X121397709Y-104584651D01*
X121298346Y-104574500D01*
X120701662Y-104574500D01*
X120701644Y-104574501D01*
X120602292Y-104584650D01*
X120602289Y-104584651D01*
X120441305Y-104637996D01*
X120441294Y-104638001D01*
X120296959Y-104727029D01*
X120296955Y-104727032D01*
X120177032Y-104846955D01*
X120177029Y-104846959D01*
X120088001Y-104991294D01*
X120087996Y-104991305D01*
X120034651Y-105152290D01*
X120024500Y-105251647D01*
X120024500Y-105798337D01*
X120024501Y-105798355D01*
X120034650Y-105897707D01*
X120034651Y-105897710D01*
X120087996Y-106058694D01*
X120088001Y-106058705D01*
X120177029Y-106203040D01*
X120177032Y-106203044D01*
X120296955Y-106322967D01*
X120296959Y-106322970D01*
X120441294Y-106411998D01*
X120441297Y-106411999D01*
X120441303Y-106412003D01*
X120602292Y-106465349D01*
X120701655Y-106475500D01*
X121298344Y-106475499D01*
X121298352Y-106475498D01*
X121298355Y-106475498D01*
X121352760Y-106469940D01*
X121397708Y-106465349D01*
X121558697Y-106412003D01*
X121703044Y-106322968D01*
X121822968Y-106203044D01*
X121834465Y-106184403D01*
X121886412Y-106137679D01*
X121940004Y-106125500D01*
X122254999Y-106125500D01*
X122255015Y-106125501D01*
X122262611Y-106125501D01*
X122420722Y-106125501D01*
X122420725Y-106125501D01*
X122573453Y-106084577D01*
X122660055Y-106034577D01*
X122660059Y-106034575D01*
X122710377Y-106005524D01*
X122710376Y-106005524D01*
X122710384Y-106005520D01*
X122804086Y-105911818D01*
X122865409Y-105878333D01*
X122891767Y-105875499D01*
X123591670Y-105875499D01*
X123591676Y-105875499D01*
X123694465Y-105864999D01*
X123861002Y-105809814D01*
X124010324Y-105717712D01*
X124134380Y-105593656D01*
X124186348Y-105509402D01*
X124238295Y-105462679D01*
X124291886Y-105450500D01*
X126991450Y-105450500D01*
X127058489Y-105470185D01*
X127096987Y-105509401D01*
X127148956Y-105593656D01*
X127273012Y-105717712D01*
X127422334Y-105809814D01*
X127588871Y-105864999D01*
X127691659Y-105875500D01*
X128391569Y-105875499D01*
X128458608Y-105895183D01*
X128479250Y-105911818D01*
X128522952Y-105955520D01*
X128522954Y-105955521D01*
X128522958Y-105955524D01*
X128609555Y-106005520D01*
X128659884Y-106034577D01*
X128755455Y-106060185D01*
X128812610Y-106075500D01*
X128812611Y-106075500D01*
X129583480Y-106075500D01*
X129650519Y-106095185D01*
X129671161Y-106111819D01*
X129771661Y-106212319D01*
X129805146Y-106273642D01*
X129800162Y-106343334D01*
X129771661Y-106387681D01*
X129669531Y-106489810D01*
X129669530Y-106489811D01*
X129581522Y-106635393D01*
X129530913Y-106797807D01*
X129524500Y-106868386D01*
X129524500Y-107381613D01*
X129530913Y-107452192D01*
X129530913Y-107452194D01*
X129530914Y-107452196D01*
X129581522Y-107614606D01*
X129664698Y-107752196D01*
X129669530Y-107760188D01*
X129789810Y-107880468D01*
X129795715Y-107885094D01*
X129794911Y-107886119D01*
X129836833Y-107931890D01*
X129849500Y-107986488D01*
X129849500Y-109125500D01*
X129829815Y-109192539D01*
X129777011Y-109238294D01*
X129725500Y-109249500D01*
X115820807Y-109249500D01*
X115753768Y-109229815D01*
X115733131Y-109213185D01*
X115586816Y-109066871D01*
X115553334Y-109005550D01*
X115550500Y-108979192D01*
X115550500Y-108286488D01*
X115570185Y-108219449D01*
X115604809Y-108185763D01*
X115604285Y-108185094D01*
X115610180Y-108180474D01*
X115610185Y-108180472D01*
X115730472Y-108060185D01*
X115818478Y-107914606D01*
X115869086Y-107752196D01*
X115875500Y-107681616D01*
X115875500Y-107168384D01*
X115869086Y-107097804D01*
X115818478Y-106935394D01*
X115730472Y-106789815D01*
X115730470Y-106789813D01*
X115730469Y-106789811D01*
X115628339Y-106687681D01*
X115594854Y-106626358D01*
X115599838Y-106556666D01*
X115628339Y-106512319D01*
X115730468Y-106410189D01*
X115730469Y-106410188D01*
X115730472Y-106410185D01*
X115818478Y-106264606D01*
X115869086Y-106102196D01*
X115875500Y-106031616D01*
X115875500Y-105518384D01*
X115869086Y-105447804D01*
X115818478Y-105285394D01*
X115730472Y-105139815D01*
X115730470Y-105139813D01*
X115730469Y-105139811D01*
X115610188Y-105019530D01*
X115560348Y-104989400D01*
X115513162Y-104937871D01*
X115500500Y-104883284D01*
X115500500Y-104000097D01*
X115520185Y-103933058D01*
X115536819Y-103912416D01*
X117412416Y-102036819D01*
X117473739Y-102003334D01*
X117500097Y-102000500D01*
X123913331Y-102000500D01*
X123913347Y-102000501D01*
X123920943Y-102000501D01*
X124079054Y-102000501D01*
X124079057Y-102000501D01*
X124231785Y-101959577D01*
X124281904Y-101930639D01*
X124368716Y-101880520D01*
X124480520Y-101768716D01*
X124480520Y-101768714D01*
X124490728Y-101758507D01*
X124490730Y-101758504D01*
X126308506Y-99940728D01*
X126308511Y-99940724D01*
X126318714Y-99930520D01*
X126318716Y-99930520D01*
X126430520Y-99818716D01*
X126509577Y-99681784D01*
X126550500Y-99529057D01*
X126550500Y-94070093D01*
X126570185Y-94003054D01*
X126622989Y-93957299D01*
X126687754Y-93946804D01*
X126722127Y-93950500D01*
X127717872Y-93950499D01*
X127777483Y-93944091D01*
X127811667Y-93931340D01*
X127881358Y-93926357D01*
X127898327Y-93931338D01*
X127932517Y-93944091D01*
X127992127Y-93950500D01*
X128987872Y-93950499D01*
X129047483Y-93944091D01*
X129081667Y-93931340D01*
X129151358Y-93926357D01*
X129168327Y-93931338D01*
X129202517Y-93944091D01*
X129262127Y-93950500D01*
X130257872Y-93950499D01*
X130317483Y-93944091D01*
X130351667Y-93931340D01*
X130421358Y-93926357D01*
X130438327Y-93931338D01*
G37*
%TD.AperFunction*%
%TA.AperFunction,Conductor*%
G36*
X133055703Y-101443851D02*
G01*
X133081889Y-101475567D01*
X133089479Y-101488715D01*
X133208349Y-101607585D01*
X133208355Y-101607590D01*
X135963181Y-104362416D01*
X135996666Y-104423739D01*
X135999500Y-104450097D01*
X135999500Y-104594574D01*
X135979815Y-104661613D01*
X135940598Y-104700112D01*
X135896957Y-104727030D01*
X135777029Y-104846959D01*
X135688001Y-104991294D01*
X135687996Y-104991305D01*
X135634651Y-105152290D01*
X135624500Y-105251647D01*
X135624500Y-105798337D01*
X135624501Y-105798355D01*
X135634650Y-105897707D01*
X135634651Y-105897710D01*
X135687996Y-106058694D01*
X135688001Y-106058705D01*
X135777029Y-106203040D01*
X135777032Y-106203044D01*
X135896955Y-106322967D01*
X135896959Y-106322970D01*
X136041294Y-106411998D01*
X136041297Y-106411999D01*
X136041303Y-106412003D01*
X136202292Y-106465349D01*
X136301655Y-106475500D01*
X136898344Y-106475499D01*
X136898352Y-106475498D01*
X136898355Y-106475498D01*
X136952760Y-106469940D01*
X136997708Y-106465349D01*
X137158697Y-106412003D01*
X137303044Y-106322968D01*
X137422968Y-106203044D01*
X137434465Y-106184403D01*
X137486412Y-106137679D01*
X137540004Y-106125500D01*
X137891193Y-106125500D01*
X137891209Y-106125501D01*
X137898805Y-106125501D01*
X138056916Y-106125501D01*
X138056919Y-106125501D01*
X138209647Y-106084577D01*
X138296249Y-106034577D01*
X138296253Y-106034575D01*
X138346571Y-106005524D01*
X138346570Y-106005524D01*
X138346578Y-106005520D01*
X138440280Y-105911818D01*
X138501603Y-105878333D01*
X138527961Y-105875499D01*
X139263986Y-105875499D01*
X139263992Y-105875499D01*
X139366781Y-105864999D01*
X139533318Y-105809814D01*
X139682640Y-105717712D01*
X139806696Y-105593656D01*
X139880943Y-105473280D01*
X139932889Y-105426557D01*
X139986481Y-105414378D01*
X142641487Y-105414378D01*
X142708526Y-105434063D01*
X142747023Y-105473279D01*
X142821272Y-105593656D01*
X142945328Y-105717712D01*
X143094650Y-105809814D01*
X143261187Y-105864999D01*
X143363975Y-105875500D01*
X144100174Y-105875499D01*
X144167213Y-105895183D01*
X144175663Y-105901125D01*
X144181386Y-105905516D01*
X144181390Y-105905520D01*
X144235405Y-105936705D01*
X144235404Y-105936705D01*
X144235407Y-105936706D01*
X144318315Y-105984574D01*
X144318316Y-105984575D01*
X144318318Y-105984575D01*
X144318321Y-105984577D01*
X144471049Y-106025501D01*
X144471052Y-106025501D01*
X144636759Y-106025501D01*
X144636775Y-106025500D01*
X145233480Y-106025500D01*
X145300519Y-106045185D01*
X145321161Y-106061819D01*
X145421661Y-106162319D01*
X145455146Y-106223642D01*
X145450162Y-106293334D01*
X145421661Y-106337681D01*
X145319531Y-106439810D01*
X145319530Y-106439811D01*
X145231522Y-106585393D01*
X145180913Y-106747807D01*
X145174500Y-106818386D01*
X145174500Y-107331613D01*
X145180913Y-107402192D01*
X145180913Y-107402194D01*
X145180914Y-107402196D01*
X145231522Y-107564606D01*
X145302257Y-107681616D01*
X145319529Y-107710186D01*
X145319531Y-107710189D01*
X145439810Y-107830468D01*
X145445715Y-107835094D01*
X145444911Y-107836119D01*
X145486833Y-107881890D01*
X145499500Y-107936488D01*
X145499500Y-109125500D01*
X145479815Y-109192539D01*
X145427011Y-109238294D01*
X145375500Y-109249500D01*
X131274500Y-109249500D01*
X131207461Y-109229815D01*
X131161706Y-109177011D01*
X131150500Y-109125500D01*
X131150500Y-107986488D01*
X131170185Y-107919449D01*
X131204809Y-107885763D01*
X131204285Y-107885094D01*
X131210180Y-107880474D01*
X131210185Y-107880472D01*
X131330472Y-107760185D01*
X131418478Y-107614606D01*
X131469086Y-107452196D01*
X131475500Y-107381616D01*
X131475500Y-106868384D01*
X131469086Y-106797804D01*
X131418478Y-106635394D01*
X131330472Y-106489815D01*
X131330470Y-106489813D01*
X131330469Y-106489811D01*
X131228339Y-106387681D01*
X131194854Y-106326358D01*
X131199838Y-106256666D01*
X131228339Y-106212319D01*
X131330468Y-106110189D01*
X131330469Y-106110188D01*
X131330472Y-106110185D01*
X131418478Y-105964606D01*
X131469086Y-105802196D01*
X131475500Y-105731616D01*
X131475500Y-105218384D01*
X131469086Y-105147804D01*
X131418478Y-104985394D01*
X131330472Y-104839815D01*
X131330470Y-104839813D01*
X131330469Y-104839811D01*
X131210188Y-104719530D01*
X131178067Y-104700112D01*
X131160347Y-104689399D01*
X131113162Y-104637871D01*
X131100500Y-104583284D01*
X131100500Y-104250097D01*
X131120185Y-104183058D01*
X131136819Y-104162416D01*
X131881141Y-103418094D01*
X132730520Y-102568716D01*
X132809577Y-102431784D01*
X132850501Y-102279057D01*
X132850501Y-102120942D01*
X132850501Y-102113347D01*
X132850500Y-102113329D01*
X132850500Y-101537564D01*
X132870185Y-101470525D01*
X132922989Y-101424770D01*
X132992147Y-101414826D01*
X133055703Y-101443851D01*
G37*
%TD.AperFunction*%
%TA.AperFunction,Conductor*%
G36*
X134375703Y-99925385D02*
G01*
X134382181Y-99931417D01*
X134478349Y-100027585D01*
X134478355Y-100027590D01*
X137315139Y-102864374D01*
X137315149Y-102864385D01*
X137319479Y-102868715D01*
X137319480Y-102868716D01*
X137431284Y-102980520D01*
X137518095Y-103030639D01*
X137518097Y-103030641D01*
X137556151Y-103052611D01*
X137568215Y-103059577D01*
X137720943Y-103100500D01*
X149499903Y-103100500D01*
X149566942Y-103120185D01*
X149587584Y-103136819D01*
X151073250Y-104622486D01*
X151106735Y-104683809D01*
X151101751Y-104753501D01*
X151073251Y-104797848D01*
X150981151Y-104889948D01*
X150892123Y-105034283D01*
X150892118Y-105034294D01*
X150838773Y-105195279D01*
X150828622Y-105294636D01*
X150828622Y-105841326D01*
X150828623Y-105841344D01*
X150838772Y-105940696D01*
X150838773Y-105940699D01*
X150892118Y-106101683D01*
X150892123Y-106101694D01*
X150981151Y-106246029D01*
X150981154Y-106246033D01*
X151101077Y-106365956D01*
X151101081Y-106365959D01*
X151245416Y-106454987D01*
X151245419Y-106454988D01*
X151245425Y-106454992D01*
X151406414Y-106508338D01*
X151505777Y-106518489D01*
X152102466Y-106518488D01*
X152102474Y-106518487D01*
X152102477Y-106518487D01*
X152162858Y-106512319D01*
X152201830Y-106508338D01*
X152362819Y-106454992D01*
X152507166Y-106365957D01*
X152627090Y-106246033D01*
X152649684Y-106209401D01*
X152701631Y-106162679D01*
X152755222Y-106150500D01*
X153107021Y-106150500D01*
X153107037Y-106150501D01*
X153114633Y-106150501D01*
X153272744Y-106150501D01*
X153272747Y-106150501D01*
X153425475Y-106109577D01*
X153475594Y-106080639D01*
X153562406Y-106030520D01*
X153674210Y-105918716D01*
X153674210Y-105918714D01*
X153681107Y-105911818D01*
X153742430Y-105878333D01*
X153768789Y-105875499D01*
X154443692Y-105875499D01*
X154443698Y-105875499D01*
X154546487Y-105864999D01*
X154713024Y-105809814D01*
X154862346Y-105717712D01*
X154986402Y-105593656D01*
X155022949Y-105534402D01*
X155074897Y-105487679D01*
X155128488Y-105475500D01*
X157858892Y-105475500D01*
X157925931Y-105495185D01*
X157964429Y-105534401D01*
X158000978Y-105593656D01*
X158125034Y-105717712D01*
X158274356Y-105809814D01*
X158440893Y-105864999D01*
X158543681Y-105875500D01*
X159218591Y-105875499D01*
X159285630Y-105895183D01*
X159306272Y-105911818D01*
X159349974Y-105955520D01*
X159349976Y-105955521D01*
X159349980Y-105955524D01*
X159400300Y-105984576D01*
X159400305Y-105984578D01*
X159486899Y-106034574D01*
X159486900Y-106034574D01*
X159486905Y-106034577D01*
X159639633Y-106075500D01*
X160383480Y-106075500D01*
X160450519Y-106095185D01*
X160471161Y-106111819D01*
X160571661Y-106212319D01*
X160605146Y-106273642D01*
X160600162Y-106343334D01*
X160571661Y-106387681D01*
X160469531Y-106489810D01*
X160469530Y-106489811D01*
X160381522Y-106635393D01*
X160330913Y-106797807D01*
X160324500Y-106868386D01*
X160324500Y-107381613D01*
X160330913Y-107452192D01*
X160330913Y-107452194D01*
X160330914Y-107452196D01*
X160381522Y-107614606D01*
X160464698Y-107752196D01*
X160469530Y-107760188D01*
X160589810Y-107880468D01*
X160595715Y-107885094D01*
X160594911Y-107886119D01*
X160636833Y-107931890D01*
X160649500Y-107986488D01*
X160649500Y-108279192D01*
X160629815Y-108346231D01*
X160613181Y-108366873D01*
X159766873Y-109213181D01*
X159705550Y-109246666D01*
X159679192Y-109249500D01*
X146924500Y-109249500D01*
X146857461Y-109229815D01*
X146811706Y-109177011D01*
X146800500Y-109125500D01*
X146800500Y-107936488D01*
X146820185Y-107869449D01*
X146854809Y-107835763D01*
X146854285Y-107835094D01*
X146860180Y-107830474D01*
X146860185Y-107830472D01*
X146980472Y-107710185D01*
X147068478Y-107564606D01*
X147119086Y-107402196D01*
X147125500Y-107331616D01*
X147125500Y-106818384D01*
X147119086Y-106747804D01*
X147068478Y-106585394D01*
X146980472Y-106439815D01*
X146980470Y-106439813D01*
X146980469Y-106439811D01*
X146878339Y-106337681D01*
X146844854Y-106276358D01*
X146849838Y-106206666D01*
X146878339Y-106162319D01*
X146980468Y-106060189D01*
X146980469Y-106060188D01*
X146980472Y-106060185D01*
X147068478Y-105914606D01*
X147119086Y-105752196D01*
X147125500Y-105681616D01*
X147125500Y-105168384D01*
X147119086Y-105097804D01*
X147068478Y-104935394D01*
X146980472Y-104789815D01*
X146980470Y-104789813D01*
X146980469Y-104789811D01*
X146860188Y-104669530D01*
X146813078Y-104641051D01*
X146714606Y-104581522D01*
X146552196Y-104530914D01*
X146552194Y-104530913D01*
X146552192Y-104530913D01*
X146502778Y-104526423D01*
X146481616Y-104524500D01*
X145818384Y-104524500D01*
X145799145Y-104526248D01*
X145747807Y-104530913D01*
X145585393Y-104581522D01*
X145439811Y-104669530D01*
X145439810Y-104669531D01*
X145426164Y-104683178D01*
X145364841Y-104716663D01*
X145295149Y-104711679D01*
X145239216Y-104669807D01*
X145214799Y-104604343D01*
X145214483Y-104595497D01*
X145214483Y-104574998D01*
X145214482Y-104574981D01*
X145203983Y-104472203D01*
X145203982Y-104472200D01*
X145193148Y-104439505D01*
X145148798Y-104305666D01*
X145056696Y-104156344D01*
X144932640Y-104032288D01*
X144839872Y-103975069D01*
X144783320Y-103940187D01*
X144783315Y-103940185D01*
X144761807Y-103933058D01*
X144616781Y-103885001D01*
X144616779Y-103885000D01*
X144513994Y-103874500D01*
X143363982Y-103874500D01*
X143363965Y-103874501D01*
X143261187Y-103885000D01*
X143261184Y-103885001D01*
X143094652Y-103940185D01*
X143094647Y-103940187D01*
X142945326Y-104032289D01*
X142821272Y-104156343D01*
X142816791Y-104162011D01*
X142815330Y-104160856D01*
X142770471Y-104201202D01*
X142716886Y-104213378D01*
X139911082Y-104213378D01*
X139844043Y-104193693D01*
X139812169Y-104161226D01*
X139811177Y-104162011D01*
X139806695Y-104156343D01*
X139682641Y-104032289D01*
X139682640Y-104032288D01*
X139589872Y-103975069D01*
X139533320Y-103940187D01*
X139533315Y-103940185D01*
X139511807Y-103933058D01*
X139366781Y-103885001D01*
X139366779Y-103885000D01*
X139263994Y-103874500D01*
X138113982Y-103874500D01*
X138113965Y-103874501D01*
X138011187Y-103885000D01*
X138011184Y-103885001D01*
X137844652Y-103940185D01*
X137844647Y-103940187D01*
X137695326Y-104032289D01*
X137571273Y-104156342D01*
X137479171Y-104305663D01*
X137479169Y-104305668D01*
X137442206Y-104417216D01*
X137402433Y-104474661D01*
X137337917Y-104501484D01*
X137269141Y-104489169D01*
X137217942Y-104441626D01*
X137200500Y-104378212D01*
X137200500Y-104070945D01*
X137200500Y-104070943D01*
X137199903Y-104068716D01*
X137159577Y-103918215D01*
X137130639Y-103868095D01*
X137080520Y-103781284D01*
X136968716Y-103669480D01*
X136968715Y-103669479D01*
X136964385Y-103665149D01*
X136964374Y-103665139D01*
X134206819Y-100907584D01*
X134173334Y-100846261D01*
X134170500Y-100819903D01*
X134170500Y-100019098D01*
X134190185Y-99952059D01*
X134242989Y-99906304D01*
X134312147Y-99896360D01*
X134375703Y-99925385D01*
G37*
%TD.AperFunction*%
%TA.AperFunction,Conductor*%
G36*
X138134627Y-89920185D02*
G01*
X138144903Y-89927555D01*
X138147736Y-89929814D01*
X138147738Y-89929816D01*
X138167336Y-89942130D01*
X138211700Y-89970006D01*
X138257991Y-90022341D01*
X138268639Y-90091395D01*
X138240264Y-90155243D01*
X138211700Y-90179994D01*
X138147737Y-90220184D01*
X138020186Y-90347736D01*
X138020184Y-90347738D01*
X137989557Y-90396480D01*
X137924211Y-90500476D01*
X137864631Y-90670745D01*
X137864630Y-90670750D01*
X137844435Y-90849996D01*
X137844435Y-90850003D01*
X137864630Y-91029249D01*
X137864631Y-91029254D01*
X137924211Y-91199523D01*
X137961915Y-91259528D01*
X137980915Y-91326765D01*
X137960547Y-91393600D01*
X137907279Y-91438814D01*
X137856921Y-91449500D01*
X136882129Y-91449500D01*
X136882123Y-91449501D01*
X136847753Y-91453196D01*
X136778994Y-91440789D01*
X136727857Y-91393178D01*
X136710500Y-91329906D01*
X136710500Y-90940097D01*
X136730185Y-90873058D01*
X136746819Y-90852416D01*
X137662416Y-89936819D01*
X137723739Y-89903334D01*
X137750097Y-89900500D01*
X138067588Y-89900500D01*
X138134627Y-89920185D01*
G37*
%TD.AperFunction*%
%TA.AperFunction,Conductor*%
G36*
X135354855Y-67666546D02*
G01*
X135371575Y-67685842D01*
X135501500Y-67871395D01*
X135501505Y-67871401D01*
X135668599Y-68038495D01*
X135765384Y-68106265D01*
X135862165Y-68174032D01*
X135862167Y-68174033D01*
X135862170Y-68174035D01*
X135867898Y-68176706D01*
X135920339Y-68222872D01*
X135939500Y-68289090D01*
X135939500Y-69559902D01*
X135919815Y-69626941D01*
X135903181Y-69647583D01*
X133987584Y-71563181D01*
X133926261Y-71596666D01*
X133899903Y-71599500D01*
X131179057Y-71599500D01*
X131020943Y-71599500D01*
X130868215Y-71640423D01*
X130868214Y-71640423D01*
X130868212Y-71640424D01*
X130868209Y-71640425D01*
X130818096Y-71669359D01*
X130818095Y-71669360D01*
X130774689Y-71694420D01*
X130731285Y-71719479D01*
X130731282Y-71719481D01*
X130619478Y-71831286D01*
X129467960Y-72982803D01*
X129406637Y-73016288D01*
X129336945Y-73011304D01*
X129281012Y-72969432D01*
X129263237Y-72936077D01*
X129215789Y-72800478D01*
X129119816Y-72647738D01*
X128992262Y-72520184D01*
X128983426Y-72514632D01*
X128839523Y-72424211D01*
X128669254Y-72364631D01*
X128669249Y-72364630D01*
X128490004Y-72344435D01*
X128489996Y-72344435D01*
X128310750Y-72364630D01*
X128310745Y-72364631D01*
X128140476Y-72424211D01*
X127987739Y-72520183D01*
X127874678Y-72633244D01*
X127813355Y-72666728D01*
X127743663Y-72661744D01*
X127721025Y-72650556D01*
X127599523Y-72574211D01*
X127429254Y-72514631D01*
X127429250Y-72514630D01*
X127330435Y-72503497D01*
X127266021Y-72476430D01*
X127226466Y-72418836D01*
X127224329Y-72348999D01*
X127256638Y-72292596D01*
X127333823Y-72215412D01*
X128212417Y-71336819D01*
X128273740Y-71303334D01*
X128300098Y-71300500D01*
X132413331Y-71300500D01*
X132413347Y-71300501D01*
X132420943Y-71300501D01*
X132579054Y-71300501D01*
X132579057Y-71300501D01*
X132731785Y-71259577D01*
X132781904Y-71230639D01*
X132868716Y-71180520D01*
X132980520Y-71068716D01*
X132980520Y-71068714D01*
X132990728Y-71058507D01*
X132990730Y-71058504D01*
X134358506Y-69690728D01*
X134358511Y-69690724D01*
X134368714Y-69680520D01*
X134368716Y-69680520D01*
X134480520Y-69568716D01*
X134559577Y-69431784D01*
X134600500Y-69279057D01*
X134600500Y-68289090D01*
X134620185Y-68222051D01*
X134672101Y-68176706D01*
X134677830Y-68174035D01*
X134871401Y-68038495D01*
X135038495Y-67871401D01*
X135168425Y-67685842D01*
X135223002Y-67642217D01*
X135292500Y-67635023D01*
X135354855Y-67666546D01*
G37*
%TD.AperFunction*%
%TA.AperFunction,Conductor*%
G36*
X172004417Y-65000815D02*
G01*
X172204561Y-65015129D01*
X172222063Y-65017646D01*
X172413797Y-65059354D01*
X172430755Y-65064333D01*
X172614606Y-65132907D01*
X172614609Y-65132908D01*
X172630702Y-65140258D01*
X172802908Y-65234289D01*
X172817791Y-65243854D01*
X172974864Y-65361437D01*
X172988235Y-65373023D01*
X173126975Y-65511763D01*
X173138561Y-65525134D01*
X173256144Y-65682207D01*
X173265709Y-65697090D01*
X173359742Y-65869298D01*
X173367092Y-65885391D01*
X173435663Y-66069236D01*
X173440647Y-66086212D01*
X173482352Y-66277931D01*
X173484870Y-66295442D01*
X173499184Y-66495566D01*
X173499500Y-66504413D01*
X173499501Y-109934107D01*
X173499501Y-109995571D01*
X173499185Y-110004418D01*
X173484870Y-110204557D01*
X173482352Y-110222068D01*
X173440647Y-110413787D01*
X173435663Y-110430763D01*
X173367091Y-110614609D01*
X173359741Y-110630702D01*
X173265710Y-110802908D01*
X173256145Y-110817791D01*
X173138562Y-110974864D01*
X173126976Y-110988235D01*
X172988236Y-111126975D01*
X172974865Y-111138561D01*
X172817792Y-111256144D01*
X172802909Y-111265709D01*
X172630701Y-111359742D01*
X172614608Y-111367092D01*
X172430763Y-111435663D01*
X172413787Y-111440647D01*
X172222068Y-111482352D01*
X172204557Y-111484870D01*
X172023447Y-111497823D01*
X172004430Y-111499184D01*
X171995585Y-111499500D01*
X96004427Y-111499500D01*
X95995581Y-111499184D01*
X95795443Y-111484870D01*
X95777931Y-111482352D01*
X95586212Y-111440647D01*
X95569236Y-111435663D01*
X95385390Y-111367091D01*
X95369298Y-111359741D01*
X95197095Y-111265712D01*
X95182210Y-111256147D01*
X95025132Y-111138559D01*
X95011762Y-111126973D01*
X94873026Y-110988237D01*
X94861440Y-110974867D01*
X94861438Y-110974864D01*
X94743848Y-110817784D01*
X94734287Y-110802904D01*
X94640258Y-110630701D01*
X94632908Y-110614609D01*
X94608996Y-110550500D01*
X94564333Y-110430755D01*
X94559354Y-110413797D01*
X94517646Y-110222063D01*
X94515129Y-110204556D01*
X94500815Y-110004418D01*
X94500499Y-109995572D01*
X94500499Y-69439999D01*
X95694341Y-69439999D01*
X95694341Y-69440000D01*
X95714936Y-69675403D01*
X95714938Y-69675413D01*
X95776094Y-69903655D01*
X95776096Y-69903659D01*
X95776097Y-69903663D01*
X95792601Y-69939055D01*
X95875965Y-70117830D01*
X95875967Y-70117834D01*
X96011501Y-70311395D01*
X96011506Y-70311402D01*
X96178597Y-70478493D01*
X96178603Y-70478498D01*
X96364157Y-70608424D01*
X96407782Y-70663001D01*
X96414976Y-70732499D01*
X96383453Y-70794854D01*
X96364158Y-70811574D01*
X96178594Y-70941507D01*
X96011505Y-71108596D01*
X95875965Y-71302168D01*
X95875964Y-71302170D01*
X95776098Y-71516334D01*
X95776094Y-71516343D01*
X95714938Y-71744585D01*
X95714936Y-71744595D01*
X95694341Y-71979998D01*
X95694341Y-71979999D01*
X95714936Y-72215402D01*
X95714938Y-72215412D01*
X95776094Y-72443654D01*
X95776096Y-72443658D01*
X95776097Y-72443662D01*
X95872574Y-72650556D01*
X95875965Y-72657829D01*
X95875967Y-72657833D01*
X95947208Y-72759575D01*
X96011505Y-72851400D01*
X96178599Y-73018494D01*
X96237130Y-73059478D01*
X96372165Y-73154031D01*
X96372167Y-73154032D01*
X96372170Y-73154034D01*
X96586337Y-73253902D01*
X96814592Y-73315062D01*
X97002918Y-73331538D01*
X97049999Y-73335658D01*
X97050000Y-73335658D01*
X97050001Y-73335658D01*
X97089234Y-73332225D01*
X97285408Y-73315062D01*
X97513663Y-73253902D01*
X97727830Y-73154034D01*
X97921401Y-73018494D01*
X98088495Y-72851400D01*
X98224035Y-72657829D01*
X98323903Y-72443662D01*
X98385063Y-72215407D01*
X98405659Y-71979999D01*
X98385063Y-71744591D01*
X98323903Y-71516336D01*
X98224035Y-71302170D01*
X98222867Y-71300501D01*
X98088494Y-71108596D01*
X97921402Y-70941505D01*
X97921401Y-70941504D01*
X97735842Y-70811574D01*
X97692218Y-70756997D01*
X97685025Y-70687498D01*
X97716547Y-70625144D01*
X97735843Y-70608424D01*
X97921401Y-70478495D01*
X98088495Y-70311401D01*
X98224035Y-70117830D01*
X98323903Y-69903663D01*
X98385063Y-69675408D01*
X98405659Y-69440000D01*
X98385063Y-69204592D01*
X98323903Y-68976337D01*
X98224035Y-68762171D01*
X98088495Y-68568599D01*
X97966567Y-68446671D01*
X97933084Y-68385351D01*
X97938068Y-68315659D01*
X97979939Y-68259725D01*
X98010915Y-68242810D01*
X98142331Y-68193796D01*
X98257546Y-68107546D01*
X98343796Y-67992331D01*
X98343798Y-67992326D01*
X98347943Y-67981215D01*
X98389815Y-67925282D01*
X98455279Y-67900866D01*
X98464124Y-67900550D01*
X119175618Y-67900550D01*
X119242657Y-67920235D01*
X119263299Y-67936869D01*
X119438131Y-68111701D01*
X119471616Y-68173024D01*
X119474450Y-68199382D01*
X119474450Y-89783863D01*
X119454765Y-89850902D01*
X119401961Y-89896657D01*
X119332804Y-89906601D01*
X119248638Y-89894500D01*
X118926532Y-89894500D01*
X118859471Y-89900500D01*
X118836781Y-89902530D01*
X118793463Y-89910344D01*
X118777149Y-89914820D01*
X118774375Y-89915581D01*
X118741572Y-89919999D01*
X118258427Y-89919999D01*
X118225625Y-89915581D01*
X118219010Y-89913766D01*
X118206546Y-89910347D01*
X118163223Y-89902532D01*
X118163221Y-89902531D01*
X118163217Y-89902531D01*
X118073467Y-89894500D01*
X118073461Y-89894500D01*
X112479500Y-89894500D01*
X112412461Y-89874815D01*
X112366706Y-89822011D01*
X112355500Y-89770500D01*
X112355500Y-84701359D01*
X112354683Y-84686139D01*
X112352603Y-84647322D01*
X112349769Y-84620964D01*
X112341114Y-84567552D01*
X112290832Y-84432743D01*
X112257347Y-84371420D01*
X112171123Y-84256239D01*
X112043761Y-84128877D01*
X112031412Y-84117784D01*
X112003515Y-84092725D01*
X112003507Y-84092718D01*
X112000634Y-84090403D01*
X111982858Y-84076078D01*
X111982856Y-84076076D01*
X111938974Y-84044433D01*
X111808100Y-83984663D01*
X111741055Y-83964976D01*
X111693582Y-83958150D01*
X111598638Y-83944500D01*
X110344894Y-83944500D01*
X110338653Y-83944692D01*
X110313679Y-83945464D01*
X110298410Y-83946409D01*
X110267330Y-83949296D01*
X110267328Y-83949296D01*
X110128523Y-83987163D01*
X110064434Y-84014952D01*
X110064416Y-84014960D01*
X110064407Y-84014965D01*
X109941898Y-84090404D01*
X109938503Y-84093233D01*
X109874399Y-84121025D01*
X109805445Y-84109747D01*
X109780579Y-84093919D01*
X109720131Y-84044434D01*
X109720130Y-84044433D01*
X109589255Y-83984663D01*
X109522210Y-83964976D01*
X109474737Y-83958150D01*
X109379793Y-83944500D01*
X103101362Y-83944500D01*
X103101360Y-83944500D01*
X103047311Y-83947397D01*
X103047310Y-83947397D01*
X103020977Y-83950229D01*
X103020950Y-83950232D01*
X102967554Y-83958885D01*
X102967552Y-83958885D01*
X102832747Y-84009166D01*
X102771422Y-84042651D01*
X102656240Y-84128876D01*
X102656236Y-84128879D01*
X102578874Y-84206242D01*
X102578855Y-84206262D01*
X102542728Y-84246480D01*
X102542718Y-84246492D01*
X102526076Y-84267143D01*
X102494433Y-84311025D01*
X102434663Y-84441899D01*
X102414976Y-84508944D01*
X102401325Y-84603890D01*
X102394765Y-84649523D01*
X102394500Y-84651363D01*
X102394500Y-84820500D01*
X102374815Y-84887539D01*
X102322011Y-84933294D01*
X102270500Y-84944500D01*
X100001360Y-84944500D01*
X99947311Y-84947397D01*
X99947310Y-84947397D01*
X99920977Y-84950229D01*
X99920950Y-84950232D01*
X99867554Y-84958885D01*
X99867552Y-84958885D01*
X99732747Y-85009166D01*
X99671419Y-85042653D01*
X99671417Y-85042654D01*
X99655304Y-85054717D01*
X99589840Y-85079134D01*
X99580994Y-85079450D01*
X99131301Y-85079450D01*
X98957326Y-85114056D01*
X98957318Y-85114058D01*
X98793427Y-85181943D01*
X98645937Y-85280493D01*
X98645929Y-85280499D01*
X98100499Y-85825929D01*
X98100493Y-85825937D01*
X98001943Y-85973427D01*
X97934058Y-86137318D01*
X97934056Y-86137326D01*
X97901987Y-86298549D01*
X97901699Y-86300000D01*
X97899450Y-86311304D01*
X97899450Y-88361303D01*
X97899450Y-88538697D01*
X97899450Y-88538699D01*
X97899449Y-88538699D01*
X97934056Y-88712675D01*
X97934058Y-88712681D01*
X98001943Y-88876572D01*
X98100493Y-89024062D01*
X98100499Y-89024070D01*
X98795929Y-89719500D01*
X98795937Y-89719506D01*
X98943428Y-89818056D01*
X98943427Y-89818056D01*
X98991429Y-89837939D01*
X99107319Y-89885942D01*
X99275397Y-89919375D01*
X99281299Y-89920549D01*
X99281302Y-89920550D01*
X99281304Y-89920550D01*
X100568697Y-89920550D01*
X100657517Y-89902882D01*
X100681709Y-89900499D01*
X100945807Y-89900499D01*
X101015375Y-89894178D01*
X101015378Y-89894177D01*
X101015380Y-89894177D01*
X101175471Y-89844291D01*
X101318972Y-89757542D01*
X101437542Y-89638972D01*
X101524291Y-89495471D01*
X101574177Y-89335380D01*
X101580500Y-89265801D01*
X101580499Y-88774200D01*
X101580499Y-88774191D01*
X101574178Y-88704623D01*
X101574175Y-88704613D01*
X101522162Y-88537695D01*
X101521010Y-88467835D01*
X101523315Y-88461442D01*
X101523280Y-88461432D01*
X101554481Y-88361303D01*
X101574314Y-88297657D01*
X101580499Y-88229594D01*
X101580499Y-87770406D01*
X101574314Y-87702343D01*
X101548291Y-87618833D01*
X101523280Y-87538568D01*
X101526020Y-87537713D01*
X101518263Y-87481727D01*
X101524142Y-87461700D01*
X101523280Y-87461432D01*
X101557847Y-87350500D01*
X101574314Y-87297657D01*
X101580499Y-87229594D01*
X101580499Y-87129500D01*
X101600184Y-87062461D01*
X101652988Y-87016706D01*
X101704499Y-87005500D01*
X102501549Y-87005500D01*
X102568588Y-87025185D01*
X102574075Y-87028922D01*
X102611024Y-87055566D01*
X102611025Y-87055566D01*
X102611026Y-87055567D01*
X102741903Y-87115338D01*
X102808942Y-87135023D01*
X102808946Y-87135024D01*
X102951362Y-87155500D01*
X102951365Y-87155500D01*
X109315649Y-87155500D01*
X109315655Y-87155500D01*
X109353799Y-87150314D01*
X109422876Y-87160788D01*
X109475327Y-87206947D01*
X109494500Y-87273184D01*
X109494500Y-89970500D01*
X109474815Y-90037539D01*
X109422011Y-90083294D01*
X109370500Y-90094500D01*
X109001360Y-90094500D01*
X108947311Y-90097397D01*
X108947310Y-90097397D01*
X108920977Y-90100229D01*
X108920950Y-90100232D01*
X108867554Y-90108885D01*
X108867552Y-90108885D01*
X108732747Y-90159166D01*
X108732744Y-90159167D01*
X108732743Y-90159168D01*
X108732172Y-90159480D01*
X108671422Y-90192651D01*
X108556240Y-90278876D01*
X108556236Y-90278879D01*
X108478874Y-90356242D01*
X108478855Y-90356262D01*
X108442728Y-90396480D01*
X108442718Y-90396492D01*
X108426076Y-90417143D01*
X108394433Y-90461025D01*
X108334663Y-90591899D01*
X108314976Y-90658944D01*
X108294500Y-90801363D01*
X108294500Y-91122561D01*
X108274815Y-91189600D01*
X108222011Y-91235355D01*
X108170500Y-91246561D01*
X106821878Y-91246561D01*
X106754839Y-91226876D01*
X106734197Y-91210242D01*
X106683697Y-91159742D01*
X106650212Y-91098419D01*
X106655196Y-91028727D01*
X106683695Y-90984381D01*
X106785831Y-90882246D01*
X106873837Y-90736667D01*
X106924445Y-90574257D01*
X106930859Y-90503677D01*
X106930859Y-89990445D01*
X106924445Y-89919865D01*
X106873837Y-89757455D01*
X106785831Y-89611876D01*
X106785829Y-89611874D01*
X106785828Y-89611872D01*
X106665547Y-89491591D01*
X106645139Y-89479254D01*
X106519965Y-89403583D01*
X106357555Y-89352975D01*
X106357553Y-89352974D01*
X106357551Y-89352974D01*
X106308137Y-89348484D01*
X106286975Y-89346561D01*
X105623743Y-89346561D01*
X105604504Y-89348309D01*
X105553166Y-89352974D01*
X105390752Y-89403583D01*
X105245172Y-89491590D01*
X105210847Y-89525916D01*
X105176519Y-89560243D01*
X105115199Y-89593727D01*
X105088840Y-89596561D01*
X104860894Y-89596561D01*
X104793855Y-89576876D01*
X104773213Y-89560242D01*
X104710750Y-89497779D01*
X104710746Y-89497776D01*
X104567654Y-89409515D01*
X104567648Y-89409512D01*
X104567646Y-89409511D01*
X104408044Y-89356624D01*
X104408042Y-89356623D01*
X104309540Y-89346560D01*
X104309533Y-89346560D01*
X103701185Y-89346560D01*
X103701177Y-89346560D01*
X103602675Y-89356623D01*
X103602674Y-89356624D01*
X103523578Y-89382833D01*
X103443074Y-89409510D01*
X103443063Y-89409515D01*
X103299971Y-89497776D01*
X103299967Y-89497779D01*
X103181078Y-89616668D01*
X103181075Y-89616672D01*
X103092814Y-89759764D01*
X103092809Y-89759775D01*
X103072186Y-89822011D01*
X103039923Y-89919375D01*
X103039923Y-89919376D01*
X103039922Y-89919376D01*
X103029859Y-90017878D01*
X103029859Y-90551241D01*
X103039922Y-90649743D01*
X103092809Y-90809344D01*
X103092814Y-90809355D01*
X103181075Y-90952447D01*
X103181078Y-90952451D01*
X103299967Y-91071340D01*
X103299971Y-91071343D01*
X103443063Y-91159604D01*
X103443066Y-91159605D01*
X103443072Y-91159609D01*
X103602674Y-91212496D01*
X103701185Y-91222560D01*
X103701190Y-91222560D01*
X104309528Y-91222560D01*
X104309533Y-91222560D01*
X104408044Y-91212496D01*
X104567646Y-91159609D01*
X104710750Y-91071341D01*
X104829640Y-90952451D01*
X104829643Y-90952445D01*
X104834121Y-90946784D01*
X104836148Y-90948386D01*
X104879102Y-90909744D01*
X104932703Y-90897561D01*
X105088840Y-90897561D01*
X105155879Y-90917246D01*
X105176521Y-90933880D01*
X105227020Y-90984379D01*
X105260505Y-91045702D01*
X105255521Y-91115394D01*
X105227021Y-91159741D01*
X105124888Y-91261874D01*
X105036881Y-91407454D01*
X104986272Y-91569868D01*
X104979859Y-91640447D01*
X104979859Y-92153674D01*
X104986272Y-92224253D01*
X105036881Y-92386667D01*
X105124889Y-92532249D01*
X105245170Y-92652530D01*
X105245172Y-92652531D01*
X105245174Y-92652533D01*
X105390753Y-92740539D01*
X105553163Y-92791147D01*
X105623743Y-92797561D01*
X105623746Y-92797561D01*
X106286972Y-92797561D01*
X106286975Y-92797561D01*
X106357555Y-92791147D01*
X106519965Y-92740539D01*
X106665544Y-92652533D01*
X106734198Y-92583878D01*
X106795519Y-92550395D01*
X106821878Y-92547561D01*
X108171551Y-92547561D01*
X108238590Y-92567246D01*
X108284345Y-92620050D01*
X108295373Y-92664923D01*
X108297397Y-92702688D01*
X108297397Y-92702689D01*
X108300229Y-92729022D01*
X108300232Y-92729049D01*
X108308885Y-92782445D01*
X108308885Y-92782447D01*
X108359166Y-92917252D01*
X108359168Y-92917257D01*
X108392653Y-92978580D01*
X108478877Y-93093761D01*
X108478881Y-93093765D01*
X108478886Y-93093771D01*
X108598330Y-93213214D01*
X108656239Y-93271123D01*
X108656255Y-93271137D01*
X108656262Y-93271144D01*
X108696480Y-93307271D01*
X108696492Y-93307281D01*
X108696500Y-93307288D01*
X108711778Y-93319600D01*
X108717143Y-93323923D01*
X108722324Y-93327659D01*
X108761026Y-93355567D01*
X108891903Y-93415338D01*
X108958942Y-93435023D01*
X108958946Y-93435024D01*
X109101362Y-93455500D01*
X117554713Y-93455500D01*
X117621752Y-93475185D01*
X117667507Y-93527989D01*
X117672640Y-93541169D01*
X117687431Y-93586676D01*
X117741279Y-93692331D01*
X117773237Y-93755036D01*
X117884322Y-93907903D01*
X117950929Y-93974499D01*
X117950936Y-93974506D01*
X118645331Y-94668901D01*
X118645354Y-94668921D01*
X118678383Y-94701951D01*
X118678388Y-94701956D01*
X118797272Y-94799522D01*
X118898625Y-94882701D01*
X119135523Y-95040992D01*
X119386796Y-95175301D01*
X119522525Y-95231522D01*
X119650018Y-95284332D01*
X119650022Y-95284333D01*
X119650024Y-95284334D01*
X119922671Y-95367041D01*
X119922677Y-95367042D01*
X119922680Y-95367043D01*
X119922691Y-95367046D01*
X120078846Y-95398106D01*
X120202113Y-95422625D01*
X120485657Y-95450551D01*
X120628115Y-95450550D01*
X123662917Y-95450550D01*
X123729956Y-95470235D01*
X123775711Y-95523039D01*
X123785655Y-95592197D01*
X123780623Y-95613553D01*
X123734651Y-95752288D01*
X123724500Y-95851647D01*
X123724500Y-96448337D01*
X123724501Y-96448355D01*
X123734650Y-96547707D01*
X123734651Y-96547710D01*
X123768156Y-96648820D01*
X123774450Y-96687824D01*
X123774450Y-97262175D01*
X123768156Y-97301179D01*
X123734651Y-97402290D01*
X123724500Y-97501647D01*
X123724500Y-98098337D01*
X123724501Y-98098355D01*
X123734650Y-98197707D01*
X123734651Y-98197710D01*
X123787996Y-98358694D01*
X123788001Y-98358705D01*
X123877029Y-98503040D01*
X123877032Y-98503044D01*
X123996955Y-98622967D01*
X123996959Y-98622970D01*
X124141294Y-98711998D01*
X124141297Y-98711999D01*
X124141303Y-98712003D01*
X124302292Y-98765349D01*
X124401655Y-98775500D01*
X124948344Y-98775499D01*
X124948352Y-98775498D01*
X124948355Y-98775498D01*
X125002760Y-98769940D01*
X125047708Y-98765349D01*
X125186498Y-98719358D01*
X125256324Y-98716957D01*
X125316366Y-98752689D01*
X125347559Y-98815209D01*
X125349500Y-98837065D01*
X125349500Y-99149903D01*
X125329815Y-99216942D01*
X125313181Y-99237584D01*
X123787584Y-100763181D01*
X123726261Y-100796666D01*
X123699903Y-100799500D01*
X117120942Y-100799500D01*
X116968213Y-100840423D01*
X116919623Y-100868478D01*
X116919622Y-100868478D01*
X116831287Y-100919477D01*
X116831282Y-100919481D01*
X114419481Y-103331282D01*
X114419479Y-103331285D01*
X114369361Y-103418094D01*
X114369359Y-103418096D01*
X114340425Y-103468209D01*
X114340424Y-103468210D01*
X114340084Y-103469480D01*
X114299499Y-103620943D01*
X114299499Y-103620945D01*
X114299499Y-103789046D01*
X114299500Y-103789059D01*
X114299500Y-104883284D01*
X114279815Y-104950323D01*
X114239654Y-104989398D01*
X114235896Y-104991670D01*
X114168342Y-105009509D01*
X114101868Y-104987994D01*
X114057578Y-104933956D01*
X114047742Y-104885558D01*
X114047742Y-104574992D01*
X114043239Y-104530914D01*
X114037242Y-104472203D01*
X114037241Y-104472200D01*
X114026407Y-104439505D01*
X113982057Y-104305666D01*
X113889955Y-104156344D01*
X113765899Y-104032288D01*
X113673131Y-103975069D01*
X113616579Y-103940187D01*
X113616574Y-103940185D01*
X113595066Y-103933058D01*
X113450040Y-103885001D01*
X113450038Y-103885000D01*
X113347253Y-103874500D01*
X112197241Y-103874500D01*
X112197224Y-103874501D01*
X112094446Y-103885000D01*
X112094443Y-103885001D01*
X111927911Y-103940185D01*
X111927906Y-103940187D01*
X111778585Y-104032289D01*
X111654532Y-104156342D01*
X111562430Y-104305663D01*
X111562429Y-104305666D01*
X111518078Y-104439505D01*
X111478307Y-104496949D01*
X111413792Y-104523772D01*
X111400374Y-104524500D01*
X108894113Y-104524500D01*
X108827074Y-104504815D01*
X108781319Y-104452011D01*
X108776407Y-104439505D01*
X108756096Y-104378212D01*
X108732057Y-104305666D01*
X108639955Y-104156344D01*
X108515899Y-104032288D01*
X108423131Y-103975069D01*
X108366579Y-103940187D01*
X108366574Y-103940185D01*
X108345066Y-103933058D01*
X108200040Y-103885001D01*
X108200038Y-103885000D01*
X108097253Y-103874500D01*
X106947241Y-103874500D01*
X106947224Y-103874501D01*
X106844446Y-103885000D01*
X106844443Y-103885001D01*
X106677911Y-103940185D01*
X106677906Y-103940187D01*
X106528585Y-104032289D01*
X106404532Y-104156342D01*
X106312430Y-104305663D01*
X106312429Y-104305666D01*
X106257244Y-104472203D01*
X106257244Y-104472204D01*
X106257243Y-104472204D01*
X106246743Y-104574983D01*
X106246743Y-104831810D01*
X106227058Y-104898849D01*
X106174254Y-104944604D01*
X106105096Y-104954548D01*
X106065622Y-104940240D01*
X106065245Y-104941051D01*
X106058699Y-104937998D01*
X106058697Y-104937997D01*
X106046502Y-104933956D01*
X105897709Y-104884651D01*
X105798346Y-104874500D01*
X105201662Y-104874500D01*
X105201644Y-104874501D01*
X105102292Y-104884650D01*
X105102289Y-104884651D01*
X104941305Y-104937996D01*
X104941294Y-104938001D01*
X104796959Y-105027029D01*
X104796955Y-105027032D01*
X104677032Y-105146955D01*
X104677029Y-105146959D01*
X104588001Y-105291294D01*
X104587996Y-105291305D01*
X104534651Y-105452290D01*
X104524500Y-105551647D01*
X104524500Y-106098337D01*
X104524501Y-106098355D01*
X104534650Y-106197707D01*
X104534651Y-106197710D01*
X104587996Y-106358694D01*
X104588001Y-106358705D01*
X104677029Y-106503040D01*
X104677032Y-106503044D01*
X104796955Y-106622967D01*
X104796959Y-106622970D01*
X104941294Y-106711998D01*
X104941297Y-106711999D01*
X104941303Y-106712003D01*
X105102292Y-106765349D01*
X105201655Y-106775500D01*
X105798344Y-106775499D01*
X105798352Y-106775498D01*
X105798355Y-106775498D01*
X105852760Y-106769940D01*
X105897708Y-106765349D01*
X106058697Y-106712003D01*
X106203044Y-106622968D01*
X106322968Y-106503044D01*
X106334465Y-106484403D01*
X106386412Y-106437679D01*
X106440004Y-106425500D01*
X106735574Y-106425500D01*
X106735590Y-106425501D01*
X106743186Y-106425501D01*
X106901297Y-106425501D01*
X106901300Y-106425501D01*
X107054028Y-106384577D01*
X107140630Y-106334577D01*
X107140634Y-106334575D01*
X107190952Y-106305524D01*
X107190951Y-106305524D01*
X107190959Y-106305520D01*
X107302763Y-106193716D01*
X107302763Y-106193714D01*
X107312967Y-106183511D01*
X107312971Y-106183506D01*
X107584659Y-105911818D01*
X107645982Y-105878333D01*
X107672340Y-105875499D01*
X108097245Y-105875499D01*
X108097251Y-105875499D01*
X108200040Y-105864999D01*
X108366577Y-105809814D01*
X108431046Y-105770049D01*
X108473343Y-105743961D01*
X108538439Y-105725500D01*
X111756047Y-105725500D01*
X111821143Y-105743961D01*
X111927902Y-105809810D01*
X111927903Y-105809810D01*
X111927909Y-105809814D01*
X112094446Y-105864999D01*
X112197234Y-105875500D01*
X112622145Y-105875499D01*
X112689184Y-105895183D01*
X112709826Y-105911818D01*
X112937382Y-106139374D01*
X112937392Y-106139385D01*
X112941722Y-106143715D01*
X112941723Y-106143716D01*
X113053527Y-106255520D01*
X113140129Y-106305519D01*
X113140131Y-106305521D01*
X113190454Y-106334575D01*
X113190458Y-106334577D01*
X113343186Y-106375501D01*
X113343189Y-106375501D01*
X113508896Y-106375501D01*
X113508912Y-106375500D01*
X113983480Y-106375500D01*
X114050519Y-106395185D01*
X114071161Y-106411819D01*
X114171661Y-106512319D01*
X114205146Y-106573642D01*
X114200162Y-106643334D01*
X114171661Y-106687681D01*
X114069531Y-106789810D01*
X114069530Y-106789811D01*
X113981522Y-106935393D01*
X113930913Y-107097807D01*
X113924500Y-107168386D01*
X113924500Y-107681613D01*
X113930913Y-107752192D01*
X113930913Y-107752194D01*
X113930914Y-107752196D01*
X113972326Y-107885094D01*
X113981522Y-107914606D01*
X114069530Y-108060188D01*
X114189810Y-108180468D01*
X114195715Y-108185094D01*
X114194911Y-108186119D01*
X114236833Y-108231890D01*
X114249500Y-108286488D01*
X114249500Y-109364071D01*
X114268633Y-109460254D01*
X114268633Y-109460255D01*
X114274497Y-109489737D01*
X114274500Y-109489746D01*
X114323534Y-109608125D01*
X114394726Y-109714673D01*
X114394727Y-109714674D01*
X114994724Y-110314669D01*
X115085328Y-110405273D01*
X115085332Y-110405277D01*
X115191866Y-110476461D01*
X115191872Y-110476464D01*
X115191873Y-110476465D01*
X115310256Y-110525501D01*
X115310260Y-110525501D01*
X115310261Y-110525502D01*
X115435928Y-110550500D01*
X115435931Y-110550500D01*
X160064071Y-110550500D01*
X160148615Y-110533682D01*
X160189744Y-110525501D01*
X160308127Y-110476465D01*
X160414669Y-110405277D01*
X161805277Y-109014669D01*
X161876466Y-108908126D01*
X161905189Y-108838779D01*
X161925501Y-108789744D01*
X161950500Y-108664069D01*
X161950500Y-107986488D01*
X161970185Y-107919449D01*
X162004809Y-107885763D01*
X162004285Y-107885094D01*
X162010175Y-107880477D01*
X162010185Y-107880472D01*
X162053837Y-107836820D01*
X162115160Y-107803334D01*
X162141519Y-107800500D01*
X164214071Y-107800500D01*
X164298615Y-107783682D01*
X164339744Y-107775501D01*
X164458127Y-107726465D01*
X164482492Y-107710185D01*
X164564669Y-107655277D01*
X167855276Y-104364670D01*
X167926465Y-104258127D01*
X167975501Y-104139744D01*
X167976364Y-104135406D01*
X167976365Y-104135401D01*
X168000500Y-104014071D01*
X168000500Y-96406780D01*
X168020185Y-96339741D01*
X168054723Y-96304275D01*
X168119169Y-96260409D01*
X168168030Y-96216539D01*
X168255567Y-96113700D01*
X168315338Y-95982823D01*
X168335023Y-95915784D01*
X168335024Y-95915780D01*
X168355500Y-95773364D01*
X168355500Y-94301362D01*
X168352603Y-94247322D01*
X168349769Y-94220964D01*
X168341114Y-94167552D01*
X168290832Y-94032743D01*
X168274621Y-94003054D01*
X168265717Y-93986747D01*
X168250550Y-93927322D01*
X168250550Y-88224381D01*
X168270235Y-88157342D01*
X168286865Y-88136704D01*
X169038795Y-87384773D01*
X169100116Y-87351290D01*
X169139729Y-87349167D01*
X169152127Y-87350500D01*
X171847872Y-87350499D01*
X171907483Y-87344091D01*
X172042331Y-87293796D01*
X172157546Y-87207546D01*
X172243796Y-87092331D01*
X172294091Y-86957483D01*
X172300500Y-86897873D01*
X172300499Y-85702128D01*
X172294091Y-85642517D01*
X172279896Y-85604459D01*
X172243797Y-85507671D01*
X172243793Y-85507664D01*
X172157547Y-85392455D01*
X172152773Y-85387681D01*
X172119288Y-85326358D01*
X172124272Y-85256666D01*
X172152773Y-85212319D01*
X172157542Y-85207548D01*
X172157546Y-85207546D01*
X172243796Y-85092331D01*
X172294091Y-84957483D01*
X172300500Y-84897873D01*
X172300499Y-83702128D01*
X172294091Y-83642517D01*
X172285257Y-83618833D01*
X172243797Y-83507671D01*
X172243793Y-83507664D01*
X172157547Y-83392455D01*
X172152773Y-83387681D01*
X172119288Y-83326358D01*
X172124272Y-83256666D01*
X172152773Y-83212319D01*
X172157542Y-83207548D01*
X172157546Y-83207546D01*
X172243796Y-83092331D01*
X172294091Y-82957483D01*
X172300500Y-82897873D01*
X172300499Y-81702128D01*
X172294091Y-81642517D01*
X172285761Y-81620184D01*
X172243797Y-81507671D01*
X172243793Y-81507664D01*
X172157547Y-81392455D01*
X172152773Y-81387681D01*
X172119288Y-81326358D01*
X172124272Y-81256666D01*
X172152773Y-81212319D01*
X172157542Y-81207548D01*
X172157546Y-81207546D01*
X172243796Y-81092331D01*
X172294091Y-80957483D01*
X172300500Y-80897873D01*
X172300499Y-79702128D01*
X172294091Y-79642517D01*
X172243796Y-79507669D01*
X172243795Y-79507668D01*
X172243793Y-79507664D01*
X172157547Y-79392455D01*
X172152773Y-79387681D01*
X172119288Y-79326358D01*
X172124272Y-79256666D01*
X172152773Y-79212319D01*
X172157542Y-79207548D01*
X172157546Y-79207546D01*
X172243796Y-79092331D01*
X172294091Y-78957483D01*
X172300500Y-78897873D01*
X172300499Y-77702128D01*
X172294091Y-77642517D01*
X172291100Y-77634499D01*
X172243797Y-77507671D01*
X172243793Y-77507664D01*
X172157547Y-77392455D01*
X172152773Y-77387681D01*
X172119288Y-77326358D01*
X172124272Y-77256666D01*
X172152773Y-77212319D01*
X172157542Y-77207548D01*
X172157546Y-77207546D01*
X172243796Y-77092331D01*
X172294091Y-76957483D01*
X172300500Y-76897873D01*
X172300499Y-75702128D01*
X172294091Y-75642517D01*
X172243796Y-75507669D01*
X172243795Y-75507668D01*
X172243793Y-75507664D01*
X172157547Y-75392455D01*
X172157544Y-75392452D01*
X172042335Y-75306206D01*
X172042328Y-75306202D01*
X171907482Y-75255908D01*
X171907483Y-75255908D01*
X171847883Y-75249501D01*
X171847881Y-75249500D01*
X171847873Y-75249500D01*
X171847864Y-75249500D01*
X169152129Y-75249500D01*
X169152123Y-75249501D01*
X169092516Y-75255908D01*
X168957671Y-75306202D01*
X168957664Y-75306206D01*
X168842455Y-75392452D01*
X168842452Y-75392455D01*
X168756206Y-75507664D01*
X168756202Y-75507671D01*
X168705908Y-75642517D01*
X168699501Y-75702116D01*
X168699501Y-75702123D01*
X168699500Y-75702135D01*
X168699500Y-76897870D01*
X168699501Y-76897876D01*
X168705908Y-76957483D01*
X168756202Y-77092328D01*
X168756206Y-77092335D01*
X168842452Y-77207544D01*
X168847227Y-77212319D01*
X168880712Y-77273642D01*
X168875728Y-77343334D01*
X168847227Y-77387681D01*
X168842452Y-77392455D01*
X168756206Y-77507664D01*
X168756202Y-77507671D01*
X168705908Y-77642517D01*
X168700726Y-77690724D01*
X168699501Y-77702123D01*
X168699500Y-77702135D01*
X168699500Y-78897870D01*
X168699501Y-78897876D01*
X168705908Y-78957483D01*
X168756202Y-79092328D01*
X168756206Y-79092335D01*
X168842452Y-79207544D01*
X168847227Y-79212319D01*
X168880712Y-79273642D01*
X168875728Y-79343334D01*
X168847227Y-79387681D01*
X168842452Y-79392455D01*
X168756206Y-79507664D01*
X168756202Y-79507671D01*
X168705908Y-79642517D01*
X168701740Y-79681290D01*
X168699501Y-79702123D01*
X168699500Y-79702135D01*
X168699500Y-80897870D01*
X168699501Y-80897876D01*
X168705908Y-80957483D01*
X168756202Y-81092328D01*
X168756206Y-81092335D01*
X168842452Y-81207544D01*
X168847227Y-81212319D01*
X168880712Y-81273642D01*
X168875728Y-81343334D01*
X168847227Y-81387681D01*
X168842452Y-81392455D01*
X168756206Y-81507664D01*
X168756202Y-81507671D01*
X168714742Y-81618833D01*
X168672871Y-81674767D01*
X168607407Y-81699184D01*
X168598560Y-81699500D01*
X168232412Y-81699500D01*
X168165373Y-81679815D01*
X168155097Y-81672445D01*
X168152263Y-81670185D01*
X168152262Y-81670184D01*
X168072688Y-81620184D01*
X167999523Y-81574211D01*
X167829254Y-81514631D01*
X167829249Y-81514630D01*
X167650004Y-81494435D01*
X167649996Y-81494435D01*
X167470750Y-81514630D01*
X167470745Y-81514631D01*
X167300476Y-81574211D01*
X167147737Y-81670184D01*
X167020184Y-81797737D01*
X166924211Y-81950476D01*
X166864631Y-82120745D01*
X166864630Y-82120750D01*
X166844435Y-82299996D01*
X166844435Y-82300003D01*
X166864630Y-82479249D01*
X166864631Y-82479254D01*
X166924211Y-82649523D01*
X166970590Y-82723334D01*
X167020184Y-82802262D01*
X167147738Y-82929816D01*
X167300478Y-83025789D01*
X167385573Y-83055565D01*
X167470745Y-83085368D01*
X167470750Y-83085369D01*
X167649996Y-83105565D01*
X167650000Y-83105565D01*
X167650004Y-83105565D01*
X167829249Y-83085369D01*
X167829252Y-83085368D01*
X167829255Y-83085368D01*
X167999522Y-83025789D01*
X168152262Y-82929816D01*
X168152267Y-82929810D01*
X168155097Y-82927555D01*
X168157275Y-82926665D01*
X168158158Y-82926111D01*
X168158255Y-82926265D01*
X168219783Y-82901145D01*
X168232412Y-82900500D01*
X168598560Y-82900500D01*
X168665599Y-82920185D01*
X168711354Y-82972989D01*
X168714742Y-82981167D01*
X168756202Y-83092328D01*
X168756206Y-83092335D01*
X168842452Y-83207544D01*
X168847227Y-83212319D01*
X168880712Y-83273642D01*
X168875728Y-83343334D01*
X168847227Y-83387681D01*
X168842452Y-83392455D01*
X168756206Y-83507664D01*
X168756202Y-83507671D01*
X168714742Y-83618833D01*
X168672871Y-83674767D01*
X168607407Y-83699184D01*
X168598560Y-83699500D01*
X168232412Y-83699500D01*
X168165373Y-83679815D01*
X168155097Y-83672445D01*
X168152263Y-83670185D01*
X168152262Y-83670184D01*
X168095496Y-83634515D01*
X167999523Y-83574211D01*
X167829254Y-83514631D01*
X167829249Y-83514630D01*
X167650004Y-83494435D01*
X167649996Y-83494435D01*
X167470750Y-83514630D01*
X167470745Y-83514631D01*
X167300476Y-83574211D01*
X167147737Y-83670184D01*
X167020184Y-83797737D01*
X166924211Y-83950476D01*
X166864631Y-84120745D01*
X166864630Y-84120750D01*
X166844435Y-84299996D01*
X166844435Y-84300003D01*
X166864630Y-84479249D01*
X166864631Y-84479254D01*
X166924211Y-84649523D01*
X167006523Y-84780521D01*
X167020184Y-84802262D01*
X167147738Y-84929816D01*
X167229463Y-84981167D01*
X167274022Y-85009166D01*
X167300478Y-85025789D01*
X167443650Y-85075887D01*
X167470745Y-85085368D01*
X167470750Y-85085369D01*
X167649996Y-85105565D01*
X167650000Y-85105565D01*
X167650004Y-85105565D01*
X167829249Y-85085369D01*
X167829252Y-85085368D01*
X167829255Y-85085368D01*
X167999522Y-85025789D01*
X168152262Y-84929816D01*
X168152267Y-84929810D01*
X168155097Y-84927555D01*
X168157275Y-84926665D01*
X168158158Y-84926111D01*
X168158255Y-84926265D01*
X168219783Y-84901145D01*
X168232412Y-84900500D01*
X168598560Y-84900500D01*
X168665599Y-84920185D01*
X168711354Y-84972989D01*
X168714742Y-84981167D01*
X168756202Y-85092328D01*
X168756203Y-85092329D01*
X168756204Y-85092331D01*
X168823288Y-85181943D01*
X168839044Y-85202991D01*
X168863461Y-85268455D01*
X168848610Y-85336728D01*
X168799204Y-85386134D01*
X168763969Y-85398919D01*
X168587324Y-85434056D01*
X168587318Y-85434058D01*
X168423432Y-85501941D01*
X168423423Y-85501946D01*
X168275932Y-85600497D01*
X168275928Y-85600500D01*
X166650499Y-87225929D01*
X166650493Y-87225937D01*
X166551943Y-87373427D01*
X166484058Y-87537318D01*
X166484056Y-87537326D01*
X166451169Y-87702663D01*
X166451168Y-87702669D01*
X166449450Y-87711303D01*
X166449450Y-93923065D01*
X166438244Y-93974578D01*
X166384663Y-94091899D01*
X166364976Y-94158944D01*
X166363738Y-94167554D01*
X166344501Y-94301359D01*
X166344500Y-94301363D01*
X166344500Y-95773363D01*
X166362541Y-95907210D01*
X166362541Y-95907211D01*
X166379926Y-95970525D01*
X166379930Y-95970538D01*
X166432765Y-96094822D01*
X166432766Y-96094824D01*
X166432768Y-96094827D01*
X166523100Y-96206816D01*
X166523101Y-96206817D01*
X166574254Y-96254399D01*
X166574261Y-96254405D01*
X166646174Y-96304286D01*
X166690039Y-96358669D01*
X166699500Y-96406174D01*
X166699500Y-103629192D01*
X166679815Y-103696231D01*
X166663181Y-103716873D01*
X163916873Y-106463181D01*
X163855550Y-106496666D01*
X163829192Y-106499500D01*
X162191520Y-106499500D01*
X162124481Y-106479815D01*
X162103839Y-106463181D01*
X162028339Y-106387681D01*
X161994854Y-106326358D01*
X161999838Y-106256666D01*
X162028339Y-106212319D01*
X162130468Y-106110189D01*
X162130469Y-106110188D01*
X162130472Y-106110185D01*
X162218478Y-105964606D01*
X162269086Y-105802196D01*
X162275500Y-105731616D01*
X162275500Y-105218384D01*
X162269086Y-105147804D01*
X162218478Y-104985394D01*
X162130472Y-104839815D01*
X162130470Y-104839813D01*
X162130469Y-104839811D01*
X162010188Y-104719530D01*
X162005445Y-104716663D01*
X161864606Y-104631522D01*
X161702196Y-104580914D01*
X161702194Y-104580913D01*
X161702192Y-104580913D01*
X161652778Y-104576423D01*
X161631616Y-104574500D01*
X160968384Y-104574500D01*
X160949145Y-104576248D01*
X160897807Y-104580913D01*
X160735393Y-104631522D01*
X160672521Y-104669530D01*
X160589815Y-104719528D01*
X160589813Y-104719529D01*
X160583396Y-104723409D01*
X160581841Y-104720837D01*
X160529742Y-104741581D01*
X160461160Y-104728228D01*
X160410685Y-104679917D01*
X160394189Y-104618120D01*
X160394189Y-104574998D01*
X160394188Y-104574981D01*
X160383689Y-104472203D01*
X160383688Y-104472200D01*
X160372854Y-104439505D01*
X160328504Y-104305666D01*
X160236402Y-104156344D01*
X160112346Y-104032288D01*
X160019578Y-103975069D01*
X159963026Y-103940187D01*
X159963021Y-103940185D01*
X159941513Y-103933058D01*
X159796487Y-103885001D01*
X159796485Y-103885000D01*
X159693700Y-103874500D01*
X158543688Y-103874500D01*
X158543671Y-103874501D01*
X158440893Y-103885000D01*
X158440890Y-103885001D01*
X158274358Y-103940185D01*
X158274353Y-103940187D01*
X158125032Y-104032289D01*
X158000979Y-104156342D01*
X157997233Y-104162416D01*
X157965800Y-104213378D01*
X157964431Y-104215597D01*
X157912483Y-104262321D01*
X157858892Y-104274500D01*
X155128488Y-104274500D01*
X155061449Y-104254815D01*
X155022949Y-104215597D01*
X154986402Y-104156344D01*
X154862346Y-104032288D01*
X154769578Y-103975069D01*
X154713026Y-103940187D01*
X154713021Y-103940185D01*
X154691513Y-103933058D01*
X154546487Y-103885001D01*
X154546485Y-103885000D01*
X154443700Y-103874500D01*
X153293688Y-103874500D01*
X153293671Y-103874501D01*
X153190893Y-103885000D01*
X153190890Y-103885001D01*
X153024358Y-103940185D01*
X153024353Y-103940187D01*
X152875032Y-104032289D01*
X152750979Y-104156342D01*
X152658877Y-104305663D01*
X152658876Y-104305666D01*
X152630889Y-104390125D01*
X152591116Y-104447569D01*
X152526600Y-104474392D01*
X152457824Y-104462077D01*
X152406624Y-104414533D01*
X152393410Y-104383219D01*
X152363699Y-104272338D01*
X152318294Y-104193693D01*
X152284646Y-104135412D01*
X152284640Y-104135404D01*
X151368714Y-103219478D01*
X150287589Y-102138354D01*
X150287588Y-102138352D01*
X150168717Y-102019481D01*
X150168716Y-102019480D01*
X150064960Y-101959577D01*
X150064959Y-101959576D01*
X150031783Y-101940422D01*
X149975881Y-101925443D01*
X149879057Y-101899499D01*
X149720943Y-101899499D01*
X149713347Y-101899499D01*
X149713331Y-101899500D01*
X138100097Y-101899500D01*
X138033058Y-101879815D01*
X138012416Y-101863181D01*
X135476819Y-99327584D01*
X135443334Y-99266261D01*
X135440500Y-99239903D01*
X135440500Y-94070093D01*
X135460185Y-94003054D01*
X135512989Y-93957299D01*
X135577754Y-93946804D01*
X135612127Y-93950500D01*
X136607872Y-93950499D01*
X136667483Y-93944091D01*
X136701667Y-93931340D01*
X136771358Y-93926357D01*
X136788327Y-93931338D01*
X136822517Y-93944091D01*
X136882127Y-93950500D01*
X137877872Y-93950499D01*
X137937483Y-93944091D01*
X137971667Y-93931340D01*
X138041358Y-93926357D01*
X138058327Y-93931338D01*
X138092517Y-93944091D01*
X138152127Y-93950500D01*
X139147872Y-93950499D01*
X139207483Y-93944091D01*
X139241667Y-93931340D01*
X139311358Y-93926357D01*
X139328327Y-93931338D01*
X139362517Y-93944091D01*
X139422127Y-93950500D01*
X140417872Y-93950499D01*
X140477483Y-93944091D01*
X140612331Y-93893796D01*
X140727546Y-93807546D01*
X140813796Y-93692331D01*
X140864091Y-93557483D01*
X140870500Y-93497873D01*
X140870499Y-91902128D01*
X140864091Y-91842517D01*
X140813796Y-91707669D01*
X140813795Y-91707668D01*
X140813793Y-91707664D01*
X140727547Y-91592455D01*
X140727544Y-91592452D01*
X140612335Y-91506206D01*
X140612328Y-91506202D01*
X140477482Y-91455908D01*
X140477483Y-91455908D01*
X140417883Y-91449501D01*
X140417881Y-91449500D01*
X140417873Y-91449500D01*
X140417865Y-91449500D01*
X139443078Y-91449500D01*
X139376039Y-91429815D01*
X139330284Y-91377011D01*
X139320340Y-91307853D01*
X139338085Y-91259527D01*
X139375788Y-91199524D01*
X139379261Y-91189600D01*
X139435368Y-91029255D01*
X139435369Y-91029249D01*
X139455565Y-90850003D01*
X139455565Y-90849996D01*
X139435369Y-90670750D01*
X139435368Y-90670745D01*
X139407780Y-90591903D01*
X139375789Y-90500478D01*
X139279816Y-90347738D01*
X139152262Y-90220184D01*
X139088297Y-90179992D01*
X139042008Y-90127660D01*
X139031359Y-90058606D01*
X139059734Y-89994758D01*
X139088296Y-89970008D01*
X139152262Y-89929816D01*
X139279816Y-89802262D01*
X139375789Y-89649522D01*
X139435368Y-89479255D01*
X139443226Y-89409515D01*
X139455565Y-89300003D01*
X139455565Y-89299996D01*
X139435369Y-89120750D01*
X139435368Y-89120745D01*
X139425427Y-89092335D01*
X139375789Y-88950478D01*
X139279816Y-88797738D01*
X139152262Y-88670184D01*
X139143033Y-88664385D01*
X138999523Y-88574211D01*
X138829254Y-88514631D01*
X138829249Y-88514630D01*
X138650004Y-88494435D01*
X138649996Y-88494435D01*
X138470750Y-88514630D01*
X138470745Y-88514631D01*
X138300476Y-88574211D01*
X138147736Y-88670185D01*
X138144903Y-88672445D01*
X138142724Y-88673334D01*
X138141842Y-88673889D01*
X138141744Y-88673734D01*
X138080217Y-88698855D01*
X138067588Y-88699500D01*
X137529057Y-88699500D01*
X137370943Y-88699500D01*
X137218215Y-88740423D01*
X137188951Y-88757319D01*
X137148764Y-88780521D01*
X137081285Y-88819479D01*
X137081284Y-88819480D01*
X135629481Y-90271282D01*
X135629475Y-90271290D01*
X135585340Y-90347736D01*
X135585340Y-90347737D01*
X135550423Y-90408214D01*
X135550423Y-90408215D01*
X135509499Y-90560943D01*
X135509499Y-90560945D01*
X135509499Y-90729046D01*
X135509500Y-90729059D01*
X135509500Y-91329906D01*
X135489815Y-91396945D01*
X135437011Y-91442700D01*
X135372247Y-91453195D01*
X135337873Y-91449500D01*
X135337865Y-91449500D01*
X134342129Y-91449500D01*
X134342123Y-91449501D01*
X134282518Y-91455908D01*
X134248331Y-91468659D01*
X134178639Y-91473642D01*
X134161669Y-91468659D01*
X134127480Y-91455908D01*
X134127482Y-91455908D01*
X134067883Y-91449501D01*
X134067881Y-91449500D01*
X134067873Y-91449500D01*
X134067864Y-91449500D01*
X133072129Y-91449500D01*
X133072118Y-91449501D01*
X133054706Y-91451373D01*
X132985947Y-91438965D01*
X132934811Y-91391353D01*
X132917534Y-91323653D01*
X132936462Y-91262110D01*
X132936611Y-91261874D01*
X132975789Y-91199522D01*
X133035368Y-91029255D01*
X133045161Y-90942329D01*
X133072226Y-90877918D01*
X133080690Y-90868543D01*
X139707821Y-84241412D01*
X139769142Y-84207929D01*
X139838834Y-84212913D01*
X139894767Y-84254785D01*
X139919184Y-84320249D01*
X139919500Y-84329095D01*
X139919500Y-85082870D01*
X139919501Y-85082876D01*
X139925908Y-85142481D01*
X139938659Y-85176669D01*
X139943642Y-85246361D01*
X139938659Y-85263331D01*
X139925908Y-85297518D01*
X139922808Y-85326358D01*
X139919501Y-85357123D01*
X139919500Y-85357135D01*
X139919500Y-86352870D01*
X139919501Y-86352876D01*
X139925908Y-86412481D01*
X139938659Y-86446669D01*
X139943642Y-86516361D01*
X139938659Y-86533331D01*
X139925908Y-86567518D01*
X139919501Y-86627116D01*
X139919501Y-86627123D01*
X139919500Y-86627135D01*
X139919500Y-87622870D01*
X139919501Y-87622876D01*
X139925908Y-87682481D01*
X139938659Y-87716669D01*
X139943642Y-87786361D01*
X139938659Y-87803331D01*
X139925908Y-87837518D01*
X139919501Y-87897116D01*
X139919501Y-87897123D01*
X139919500Y-87897135D01*
X139919500Y-88892870D01*
X139919501Y-88892876D01*
X139925908Y-88952483D01*
X139976202Y-89087328D01*
X139976206Y-89087335D01*
X140062452Y-89202544D01*
X140062455Y-89202547D01*
X140177664Y-89288793D01*
X140177671Y-89288797D01*
X140312517Y-89339091D01*
X140312516Y-89339091D01*
X140319444Y-89339835D01*
X140372127Y-89345500D01*
X141967872Y-89345499D01*
X142027483Y-89339091D01*
X142162331Y-89288796D01*
X142277546Y-89202546D01*
X142363796Y-89087331D01*
X142414091Y-88952483D01*
X142420500Y-88892873D01*
X142420499Y-87897128D01*
X142414091Y-87837517D01*
X142401340Y-87803332D01*
X142396357Y-87733642D01*
X142401340Y-87716669D01*
X142414091Y-87682483D01*
X142420500Y-87622873D01*
X142420499Y-86627128D01*
X142414091Y-86567517D01*
X142401340Y-86533332D01*
X142396357Y-86463642D01*
X142401340Y-86446669D01*
X142414091Y-86412483D01*
X142420500Y-86352873D01*
X142420499Y-85357128D01*
X142414091Y-85297517D01*
X142401340Y-85263332D01*
X142396357Y-85193642D01*
X142401340Y-85176669D01*
X142414091Y-85142483D01*
X142420500Y-85082873D01*
X142420499Y-84087128D01*
X142414091Y-84027517D01*
X142401340Y-83993332D01*
X142396357Y-83923642D01*
X142401338Y-83906672D01*
X142414091Y-83872483D01*
X142420500Y-83812873D01*
X142420499Y-82817128D01*
X142414091Y-82757517D01*
X142401340Y-82723332D01*
X142396357Y-82653642D01*
X142401338Y-82636672D01*
X142414091Y-82602483D01*
X142420500Y-82542873D01*
X142420499Y-81547128D01*
X142414091Y-81487517D01*
X142401340Y-81453332D01*
X142396357Y-81383642D01*
X142401338Y-81366672D01*
X142414091Y-81332483D01*
X142420500Y-81272873D01*
X142420499Y-80319095D01*
X142440183Y-80252057D01*
X142492987Y-80206302D01*
X142562146Y-80196358D01*
X142625702Y-80225383D01*
X142632180Y-80231415D01*
X143413181Y-81012416D01*
X143446666Y-81073739D01*
X143449500Y-81100097D01*
X143449500Y-86563330D01*
X143449499Y-86563348D01*
X143449499Y-86729054D01*
X143449498Y-86729054D01*
X143490423Y-86881785D01*
X143507376Y-86911148D01*
X143507375Y-86911148D01*
X143507376Y-86911149D01*
X143569475Y-87018709D01*
X143569481Y-87018717D01*
X143688349Y-87137585D01*
X143688355Y-87137590D01*
X156865139Y-100314374D01*
X156865149Y-100314385D01*
X156869479Y-100318715D01*
X156869480Y-100318716D01*
X156981284Y-100430520D01*
X156981286Y-100430521D01*
X156981290Y-100430524D01*
X157053622Y-100472284D01*
X157118216Y-100509577D01*
X157230019Y-100539534D01*
X157270942Y-100550500D01*
X157270943Y-100550500D01*
X158983285Y-100550500D01*
X159050324Y-100570185D01*
X159089402Y-100610350D01*
X159119530Y-100660188D01*
X159239811Y-100780469D01*
X159239813Y-100780470D01*
X159239815Y-100780472D01*
X159385394Y-100868478D01*
X159547804Y-100919086D01*
X159618384Y-100925500D01*
X159618387Y-100925500D01*
X160131613Y-100925500D01*
X160131616Y-100925500D01*
X160202196Y-100919086D01*
X160364606Y-100868478D01*
X160510185Y-100780472D01*
X160556377Y-100734280D01*
X160612319Y-100678339D01*
X160673642Y-100644854D01*
X160743334Y-100649838D01*
X160787681Y-100678339D01*
X160889811Y-100780469D01*
X160889813Y-100780470D01*
X160889815Y-100780472D01*
X161035394Y-100868478D01*
X161197804Y-100919086D01*
X161268384Y-100925500D01*
X161268387Y-100925500D01*
X161781613Y-100925500D01*
X161781616Y-100925500D01*
X161852196Y-100919086D01*
X162014606Y-100868478D01*
X162160185Y-100780472D01*
X162280472Y-100660185D01*
X162310598Y-100610349D01*
X162362126Y-100563162D01*
X162416715Y-100550500D01*
X162641486Y-100550500D01*
X162708525Y-100570185D01*
X162747024Y-100609403D01*
X162750715Y-100615387D01*
X162750718Y-100615391D01*
X162869607Y-100734280D01*
X162869611Y-100734283D01*
X163012703Y-100822544D01*
X163012706Y-100822545D01*
X163012712Y-100822549D01*
X163172314Y-100875436D01*
X163270825Y-100885500D01*
X163270830Y-100885500D01*
X163804168Y-100885500D01*
X163804173Y-100885500D01*
X163902684Y-100875436D01*
X164062286Y-100822549D01*
X164205390Y-100734281D01*
X164324280Y-100615391D01*
X164412548Y-100472287D01*
X164465435Y-100312685D01*
X164475499Y-100214174D01*
X164475499Y-99605826D01*
X164465435Y-99507315D01*
X164412548Y-99347713D01*
X164412544Y-99347707D01*
X164412543Y-99347704D01*
X164324282Y-99204612D01*
X164324279Y-99204608D01*
X164205390Y-99085719D01*
X164205386Y-99085716D01*
X164062294Y-98997455D01*
X164062288Y-98997452D01*
X164062286Y-98997451D01*
X163902684Y-98944564D01*
X163902682Y-98944563D01*
X163804180Y-98934500D01*
X163804173Y-98934500D01*
X163270825Y-98934500D01*
X163270817Y-98934500D01*
X163172315Y-98944563D01*
X163172314Y-98944564D01*
X163093218Y-98970773D01*
X163012714Y-98997450D01*
X163012703Y-98997455D01*
X162869611Y-99085716D01*
X162869607Y-99085719D01*
X162750718Y-99204608D01*
X162750715Y-99204612D01*
X162697679Y-99290597D01*
X162645731Y-99337322D01*
X162592141Y-99349500D01*
X162416715Y-99349500D01*
X162349676Y-99329815D01*
X162310598Y-99289650D01*
X162296459Y-99266261D01*
X162280472Y-99239815D01*
X162280470Y-99239813D01*
X162280469Y-99239811D01*
X162160188Y-99119530D01*
X162014606Y-99031522D01*
X161852196Y-98980914D01*
X161852194Y-98980913D01*
X161852192Y-98980913D01*
X161802778Y-98976423D01*
X161781616Y-98974500D01*
X161268384Y-98974500D01*
X161249145Y-98976248D01*
X161197807Y-98980913D01*
X161035393Y-99031522D01*
X160889811Y-99119530D01*
X160889810Y-99119531D01*
X160787681Y-99221661D01*
X160726358Y-99255146D01*
X160656666Y-99250162D01*
X160612319Y-99221661D01*
X160510188Y-99119530D01*
X160364606Y-99031522D01*
X160202196Y-98980914D01*
X160202194Y-98980913D01*
X160202192Y-98980913D01*
X160152778Y-98976423D01*
X160131616Y-98974500D01*
X159618384Y-98974500D01*
X159599145Y-98976248D01*
X159547807Y-98980913D01*
X159385393Y-99031522D01*
X159239811Y-99119530D01*
X159119530Y-99239811D01*
X159089402Y-99289650D01*
X159037874Y-99336838D01*
X158983285Y-99349500D01*
X157650097Y-99349500D01*
X157583058Y-99329815D01*
X157562416Y-99313181D01*
X144686819Y-86437584D01*
X144653334Y-86376261D01*
X144650500Y-86349903D01*
X144650500Y-80889060D01*
X144650501Y-80889047D01*
X144650501Y-80720944D01*
X144609576Y-80568214D01*
X144609573Y-80568209D01*
X144530524Y-80431290D01*
X144530518Y-80431282D01*
X143242590Y-79143355D01*
X143242588Y-79143352D01*
X143146417Y-79047181D01*
X143112932Y-78985858D01*
X143117916Y-78916166D01*
X143159788Y-78860233D01*
X143225252Y-78835816D01*
X143234098Y-78835500D01*
X143484903Y-78835500D01*
X143551942Y-78855185D01*
X143572584Y-78871819D01*
X144963181Y-80262416D01*
X144996666Y-80323739D01*
X144999500Y-80350097D01*
X144999500Y-85463330D01*
X144999499Y-85463348D01*
X144999499Y-85629054D01*
X144999498Y-85629054D01*
X145040424Y-85781789D01*
X145040425Y-85781790D01*
X145065911Y-85825932D01*
X145065912Y-85825934D01*
X145119475Y-85918709D01*
X145119481Y-85918717D01*
X145238349Y-86037585D01*
X145238354Y-86037589D01*
X155831284Y-96630520D01*
X155831286Y-96630521D01*
X155831290Y-96630524D01*
X155930538Y-96687824D01*
X155968216Y-96709577D01*
X156120943Y-96750501D01*
X156120945Y-96750501D01*
X156286654Y-96750501D01*
X156286670Y-96750500D01*
X158958285Y-96750500D01*
X159025324Y-96770185D01*
X159064402Y-96810350D01*
X159094530Y-96860188D01*
X159214811Y-96980469D01*
X159214813Y-96980470D01*
X159214815Y-96980472D01*
X159360394Y-97068478D01*
X159522804Y-97119086D01*
X159593384Y-97125500D01*
X159593387Y-97125500D01*
X160106613Y-97125500D01*
X160106616Y-97125500D01*
X160177196Y-97119086D01*
X160339606Y-97068478D01*
X160485185Y-96980472D01*
X160491377Y-96974280D01*
X160587319Y-96878339D01*
X160648642Y-96844854D01*
X160718334Y-96849838D01*
X160762681Y-96878339D01*
X160864811Y-96980469D01*
X160864813Y-96980470D01*
X160864815Y-96980472D01*
X161010394Y-97068478D01*
X161172804Y-97119086D01*
X161243384Y-97125500D01*
X161243387Y-97125500D01*
X161756613Y-97125500D01*
X161756616Y-97125500D01*
X161827196Y-97119086D01*
X161989606Y-97068478D01*
X162135185Y-96980472D01*
X162255472Y-96860185D01*
X162285598Y-96810349D01*
X162337126Y-96763162D01*
X162391715Y-96750500D01*
X162591814Y-96750500D01*
X162658853Y-96770185D01*
X162697350Y-96809400D01*
X162719219Y-96844854D01*
X162725719Y-96855392D01*
X162844607Y-96974280D01*
X162844611Y-96974283D01*
X162987703Y-97062544D01*
X162987706Y-97062545D01*
X162987712Y-97062549D01*
X163147314Y-97115436D01*
X163245825Y-97125500D01*
X163245830Y-97125500D01*
X163779168Y-97125500D01*
X163779173Y-97125500D01*
X163877684Y-97115436D01*
X164037286Y-97062549D01*
X164180390Y-96974281D01*
X164299280Y-96855391D01*
X164387548Y-96712287D01*
X164440435Y-96552685D01*
X164450499Y-96454174D01*
X164450499Y-95845826D01*
X164440435Y-95747315D01*
X164387548Y-95587713D01*
X164387544Y-95587707D01*
X164387543Y-95587704D01*
X164299282Y-95444612D01*
X164299279Y-95444608D01*
X164180390Y-95325719D01*
X164180386Y-95325716D01*
X164037294Y-95237455D01*
X164037288Y-95237452D01*
X164037286Y-95237451D01*
X163877684Y-95184564D01*
X163877682Y-95184563D01*
X163779180Y-95174500D01*
X163779173Y-95174500D01*
X163245825Y-95174500D01*
X163245817Y-95174500D01*
X163147315Y-95184563D01*
X163147314Y-95184564D01*
X163068218Y-95210773D01*
X162987714Y-95237450D01*
X162987703Y-95237455D01*
X162844611Y-95325716D01*
X162844607Y-95325719D01*
X162725719Y-95444607D01*
X162722053Y-95450551D01*
X162697350Y-95490598D01*
X162645405Y-95537321D01*
X162591814Y-95549500D01*
X162391715Y-95549500D01*
X162324676Y-95529815D01*
X162285598Y-95489650D01*
X162255472Y-95439815D01*
X162255470Y-95439813D01*
X162255469Y-95439811D01*
X162135188Y-95319530D01*
X161989606Y-95231522D01*
X161838906Y-95184563D01*
X161827196Y-95180914D01*
X161827194Y-95180913D01*
X161827192Y-95180913D01*
X161777778Y-95176423D01*
X161756616Y-95174500D01*
X161243384Y-95174500D01*
X161224145Y-95176248D01*
X161172807Y-95180913D01*
X161010393Y-95231522D01*
X160864811Y-95319530D01*
X160864810Y-95319531D01*
X160762681Y-95421661D01*
X160701358Y-95455146D01*
X160631666Y-95450162D01*
X160587319Y-95421661D01*
X160485188Y-95319530D01*
X160339606Y-95231522D01*
X160188906Y-95184563D01*
X160177196Y-95180914D01*
X160177194Y-95180913D01*
X160177192Y-95180913D01*
X160127778Y-95176423D01*
X160106616Y-95174500D01*
X159593384Y-95174500D01*
X159574145Y-95176248D01*
X159522807Y-95180913D01*
X159360393Y-95231522D01*
X159214811Y-95319530D01*
X159094530Y-95439811D01*
X159064402Y-95489650D01*
X159012874Y-95536838D01*
X158958285Y-95549500D01*
X156500098Y-95549500D01*
X156433059Y-95529815D01*
X156412417Y-95513181D01*
X146236819Y-85337583D01*
X146203334Y-85276260D01*
X146200500Y-85249902D01*
X146200500Y-85049097D01*
X146220185Y-84982058D01*
X146272989Y-84936303D01*
X146342147Y-84926359D01*
X146405703Y-84955384D01*
X146412181Y-84961416D01*
X150115139Y-88664374D01*
X150115149Y-88664385D01*
X150119479Y-88668715D01*
X150119480Y-88668716D01*
X150231284Y-88780520D01*
X150298767Y-88819481D01*
X150368215Y-88859577D01*
X150520942Y-88900500D01*
X150520943Y-88900500D01*
X153198560Y-88900500D01*
X153265599Y-88920185D01*
X153311354Y-88972989D01*
X153314742Y-88981167D01*
X153356202Y-89092328D01*
X153356206Y-89092335D01*
X153442452Y-89207544D01*
X153442455Y-89207547D01*
X153557664Y-89293793D01*
X153557671Y-89293797D01*
X153692517Y-89344091D01*
X153692516Y-89344091D01*
X153699444Y-89344835D01*
X153752127Y-89350500D01*
X156447872Y-89350499D01*
X156507483Y-89344091D01*
X156642331Y-89293796D01*
X156757546Y-89207546D01*
X156843796Y-89092331D01*
X156894091Y-88957483D01*
X156900500Y-88897873D01*
X156900499Y-87702128D01*
X156894091Y-87642517D01*
X156886765Y-87622876D01*
X156843797Y-87507671D01*
X156843793Y-87507664D01*
X156757547Y-87392455D01*
X156752773Y-87387681D01*
X156719288Y-87326358D01*
X156724272Y-87256666D01*
X156752773Y-87212319D01*
X156757542Y-87207548D01*
X156757546Y-87207546D01*
X156843796Y-87092331D01*
X156894091Y-86957483D01*
X156900500Y-86897873D01*
X156900499Y-85702128D01*
X156894091Y-85642517D01*
X156879896Y-85604459D01*
X156843797Y-85507671D01*
X156843793Y-85507664D01*
X156757547Y-85392455D01*
X156752773Y-85387681D01*
X156719288Y-85326358D01*
X156724272Y-85256666D01*
X156752773Y-85212319D01*
X156757542Y-85207548D01*
X156757546Y-85207546D01*
X156843796Y-85092331D01*
X156894091Y-84957483D01*
X156900500Y-84897873D01*
X156900499Y-83702128D01*
X156894091Y-83642517D01*
X156885257Y-83618833D01*
X156843797Y-83507671D01*
X156843793Y-83507664D01*
X156757547Y-83392455D01*
X156752773Y-83387681D01*
X156719288Y-83326358D01*
X156724272Y-83256666D01*
X156752773Y-83212319D01*
X156757542Y-83207548D01*
X156757546Y-83207546D01*
X156843796Y-83092331D01*
X156894091Y-82957483D01*
X156900500Y-82897873D01*
X156900499Y-81702128D01*
X156894091Y-81642517D01*
X156885761Y-81620184D01*
X156843797Y-81507671D01*
X156843793Y-81507664D01*
X156757547Y-81392455D01*
X156752773Y-81387681D01*
X156719288Y-81326358D01*
X156724272Y-81256666D01*
X156752773Y-81212319D01*
X156757542Y-81207548D01*
X156757546Y-81207546D01*
X156843796Y-81092331D01*
X156894091Y-80957483D01*
X156900500Y-80897873D01*
X156900499Y-79702128D01*
X156894091Y-79642517D01*
X156843796Y-79507669D01*
X156843795Y-79507668D01*
X156843793Y-79507664D01*
X156757547Y-79392455D01*
X156752773Y-79387681D01*
X156719288Y-79326358D01*
X156724272Y-79256666D01*
X156752773Y-79212319D01*
X156757542Y-79207548D01*
X156757546Y-79207546D01*
X156843796Y-79092331D01*
X156894091Y-78957483D01*
X156900500Y-78897873D01*
X156900499Y-77702128D01*
X156894091Y-77642517D01*
X156891100Y-77634499D01*
X156843797Y-77507671D01*
X156843793Y-77507664D01*
X156757547Y-77392455D01*
X156757544Y-77392452D01*
X156642335Y-77306206D01*
X156642328Y-77306202D01*
X156507482Y-77255908D01*
X156507483Y-77255908D01*
X156447883Y-77249501D01*
X156447881Y-77249500D01*
X156447873Y-77249500D01*
X156447864Y-77249500D01*
X153752129Y-77249500D01*
X153752123Y-77249501D01*
X153692516Y-77255908D01*
X153557671Y-77306202D01*
X153557664Y-77306206D01*
X153442455Y-77392452D01*
X153442452Y-77392455D01*
X153356206Y-77507664D01*
X153356202Y-77507671D01*
X153305908Y-77642517D01*
X153300726Y-77690724D01*
X153299501Y-77702123D01*
X153299500Y-77702135D01*
X153299500Y-78897870D01*
X153299501Y-78897876D01*
X153305908Y-78957483D01*
X153356202Y-79092328D01*
X153356206Y-79092335D01*
X153442452Y-79207544D01*
X153447227Y-79212319D01*
X153480712Y-79273642D01*
X153475728Y-79343334D01*
X153447227Y-79387681D01*
X153442452Y-79392455D01*
X153356206Y-79507664D01*
X153356202Y-79507671D01*
X153305908Y-79642517D01*
X153301740Y-79681290D01*
X153299501Y-79702123D01*
X153299500Y-79702135D01*
X153299500Y-80897870D01*
X153299501Y-80897876D01*
X153305908Y-80957483D01*
X153356202Y-81092328D01*
X153356206Y-81092335D01*
X153442452Y-81207544D01*
X153447227Y-81212319D01*
X153480712Y-81273642D01*
X153475728Y-81343334D01*
X153447227Y-81387681D01*
X153442452Y-81392455D01*
X153350888Y-81514769D01*
X153348138Y-81512710D01*
X153310378Y-81550418D01*
X153242094Y-81565222D01*
X153185056Y-81546538D01*
X153149523Y-81524211D01*
X152979254Y-81464631D01*
X152979249Y-81464630D01*
X152800004Y-81444435D01*
X152799996Y-81444435D01*
X152620750Y-81464630D01*
X152620745Y-81464631D01*
X152450476Y-81524211D01*
X152297737Y-81620184D01*
X152170184Y-81747737D01*
X152074211Y-81900476D01*
X152014631Y-82070745D01*
X152014630Y-82070750D01*
X151994435Y-82249996D01*
X151994435Y-82250003D01*
X152014630Y-82429249D01*
X152014631Y-82429254D01*
X152074211Y-82599523D01*
X152152007Y-82723334D01*
X152170184Y-82752262D01*
X152297738Y-82879816D01*
X152379619Y-82931265D01*
X152446021Y-82972989D01*
X152450478Y-82975789D01*
X152593367Y-83025788D01*
X152620745Y-83035368D01*
X152620750Y-83035369D01*
X152799996Y-83055565D01*
X152800000Y-83055565D01*
X152800004Y-83055565D01*
X152979249Y-83035369D01*
X152979251Y-83035368D01*
X152979255Y-83035368D01*
X152979258Y-83035366D01*
X152979262Y-83035366D01*
X153069377Y-83003832D01*
X153149522Y-82975789D01*
X153152802Y-82973727D01*
X153155225Y-82973042D01*
X153155798Y-82972767D01*
X153155846Y-82972867D01*
X153220037Y-82954723D01*
X153286873Y-82975086D01*
X153332091Y-83028350D01*
X153334963Y-83035383D01*
X153356203Y-83092329D01*
X153356206Y-83092335D01*
X153442452Y-83207544D01*
X153447227Y-83212319D01*
X153480712Y-83273642D01*
X153475728Y-83343334D01*
X153447227Y-83387681D01*
X153442452Y-83392455D01*
X153356206Y-83507664D01*
X153356200Y-83507674D01*
X153350069Y-83524113D01*
X153308196Y-83580045D01*
X153242730Y-83604459D01*
X153174458Y-83589605D01*
X153167917Y-83585769D01*
X153149523Y-83574211D01*
X152979254Y-83514631D01*
X152979249Y-83514630D01*
X152800004Y-83494435D01*
X152799996Y-83494435D01*
X152620750Y-83514630D01*
X152620745Y-83514631D01*
X152450476Y-83574211D01*
X152297737Y-83670184D01*
X152170184Y-83797737D01*
X152074211Y-83950476D01*
X152014631Y-84120745D01*
X152014630Y-84120750D01*
X151994435Y-84299996D01*
X151994435Y-84300003D01*
X152014630Y-84479249D01*
X152014631Y-84479254D01*
X152074211Y-84649523D01*
X152156523Y-84780521D01*
X152170184Y-84802262D01*
X152297738Y-84929816D01*
X152379463Y-84981167D01*
X152424022Y-85009166D01*
X152450478Y-85025789D01*
X152593650Y-85075887D01*
X152620745Y-85085368D01*
X152620750Y-85085369D01*
X152799996Y-85105565D01*
X152800000Y-85105565D01*
X152800004Y-85105565D01*
X152979249Y-85085369D01*
X152979252Y-85085368D01*
X152979255Y-85085368D01*
X153149522Y-85025789D01*
X153167915Y-85014231D01*
X153235150Y-84995230D01*
X153301986Y-85015596D01*
X153347201Y-85068863D01*
X153350070Y-85075887D01*
X153356203Y-85092329D01*
X153356206Y-85092335D01*
X153442452Y-85207544D01*
X153447227Y-85212319D01*
X153480712Y-85273642D01*
X153475728Y-85343334D01*
X153447227Y-85387681D01*
X153442452Y-85392455D01*
X153356206Y-85507664D01*
X153356200Y-85507674D01*
X153350069Y-85524113D01*
X153308196Y-85580045D01*
X153242730Y-85604459D01*
X153174458Y-85589605D01*
X153167917Y-85585769D01*
X153149523Y-85574211D01*
X152979254Y-85514631D01*
X152979249Y-85514630D01*
X152800004Y-85494435D01*
X152799996Y-85494435D01*
X152620750Y-85514630D01*
X152620745Y-85514631D01*
X152450476Y-85574211D01*
X152297737Y-85670184D01*
X152170184Y-85797737D01*
X152074211Y-85950476D01*
X152014631Y-86120745D01*
X152014630Y-86120750D01*
X151994435Y-86299995D01*
X151994435Y-86300001D01*
X152014630Y-86479249D01*
X152014631Y-86479254D01*
X152074211Y-86649523D01*
X152124184Y-86729054D01*
X152170184Y-86802262D01*
X152297738Y-86929816D01*
X152341768Y-86957482D01*
X152449516Y-87025185D01*
X152450478Y-87025789D01*
X152593650Y-87075887D01*
X152620745Y-87085368D01*
X152620750Y-87085369D01*
X152799996Y-87105565D01*
X152800000Y-87105565D01*
X152800004Y-87105565D01*
X152979249Y-87085369D01*
X152979252Y-87085368D01*
X152979255Y-87085368D01*
X153149522Y-87025789D01*
X153167915Y-87014231D01*
X153235150Y-86995230D01*
X153301986Y-87015596D01*
X153347201Y-87068863D01*
X153350070Y-87075887D01*
X153356203Y-87092329D01*
X153356206Y-87092335D01*
X153442452Y-87207544D01*
X153447227Y-87212319D01*
X153480712Y-87273642D01*
X153475728Y-87343334D01*
X153447227Y-87387681D01*
X153442452Y-87392455D01*
X153356206Y-87507664D01*
X153356202Y-87507671D01*
X153314742Y-87618833D01*
X153272871Y-87674767D01*
X153207407Y-87699184D01*
X153198560Y-87699500D01*
X150900097Y-87699500D01*
X150833058Y-87679815D01*
X150812416Y-87663181D01*
X147236819Y-84087584D01*
X147203334Y-84026261D01*
X147200500Y-83999903D01*
X147200500Y-81782412D01*
X147220185Y-81715373D01*
X147227555Y-81705097D01*
X147229810Y-81702267D01*
X147229816Y-81702262D01*
X147325789Y-81549522D01*
X147385368Y-81379255D01*
X147385369Y-81379249D01*
X147405565Y-81200003D01*
X147405565Y-81199996D01*
X147385369Y-81020750D01*
X147385368Y-81020745D01*
X147339285Y-80889047D01*
X147325789Y-80850478D01*
X147229816Y-80697738D01*
X147102262Y-80570184D01*
X146999500Y-80505614D01*
X146949523Y-80474211D01*
X146779254Y-80414631D01*
X146779249Y-80414630D01*
X146600004Y-80394435D01*
X146599996Y-80394435D01*
X146420750Y-80414630D01*
X146420739Y-80414633D01*
X146365453Y-80433978D01*
X146295674Y-80437539D01*
X146235047Y-80402809D01*
X146202821Y-80340816D01*
X146200500Y-80316936D01*
X146200500Y-80139060D01*
X146200501Y-80139047D01*
X146200501Y-79970944D01*
X146159576Y-79818214D01*
X146159573Y-79818209D01*
X146080524Y-79681290D01*
X146080518Y-79681282D01*
X144272590Y-77873355D01*
X144272588Y-77873352D01*
X144153717Y-77754481D01*
X144153709Y-77754475D01*
X144037364Y-77687304D01*
X144037363Y-77687303D01*
X144022899Y-77678953D01*
X144016785Y-77675423D01*
X143864057Y-77634499D01*
X143705943Y-77634499D01*
X143698347Y-77634499D01*
X143698331Y-77634500D01*
X142484141Y-77634500D01*
X142417102Y-77614815D01*
X142371347Y-77562011D01*
X142367969Y-77553859D01*
X142363796Y-77542669D01*
X142363793Y-77542665D01*
X142363793Y-77542664D01*
X142277547Y-77427455D01*
X142277544Y-77427452D01*
X142162335Y-77341206D01*
X142162328Y-77341202D01*
X142027482Y-77290908D01*
X142027483Y-77290908D01*
X141967883Y-77284501D01*
X141967881Y-77284500D01*
X141967873Y-77284500D01*
X141967865Y-77284500D01*
X140644500Y-77284500D01*
X140577461Y-77264815D01*
X140531706Y-77212011D01*
X140520500Y-77160500D01*
X140520500Y-76514141D01*
X140540185Y-76447102D01*
X140592989Y-76401347D01*
X140601149Y-76397966D01*
X140612331Y-76393796D01*
X140727546Y-76307546D01*
X140813796Y-76192331D01*
X140864091Y-76057483D01*
X140870500Y-75997873D01*
X140870499Y-74402128D01*
X140864091Y-74342517D01*
X140813796Y-74207669D01*
X140813795Y-74207668D01*
X140813793Y-74207664D01*
X140727547Y-74092455D01*
X140727544Y-74092452D01*
X140612335Y-74006206D01*
X140612328Y-74006202D01*
X140477482Y-73955908D01*
X140477483Y-73955908D01*
X140417883Y-73949501D01*
X140417881Y-73949500D01*
X140417873Y-73949500D01*
X140417864Y-73949500D01*
X139422129Y-73949500D01*
X139422123Y-73949501D01*
X139362518Y-73955908D01*
X139328331Y-73968659D01*
X139258639Y-73973642D01*
X139241669Y-73968659D01*
X139207480Y-73955908D01*
X139207482Y-73955908D01*
X139147883Y-73949501D01*
X139147881Y-73949500D01*
X139147873Y-73949500D01*
X139147864Y-73949500D01*
X138152129Y-73949500D01*
X138152123Y-73949501D01*
X138092518Y-73955908D01*
X138058331Y-73968659D01*
X137988639Y-73973642D01*
X137971669Y-73968659D01*
X137937480Y-73955908D01*
X137937482Y-73955908D01*
X137877883Y-73949501D01*
X137877881Y-73949500D01*
X137877873Y-73949500D01*
X137877864Y-73949500D01*
X136882129Y-73949500D01*
X136882123Y-73949501D01*
X136822518Y-73955908D01*
X136788331Y-73968659D01*
X136718639Y-73973642D01*
X136701669Y-73968659D01*
X136667480Y-73955908D01*
X136667482Y-73955908D01*
X136607883Y-73949501D01*
X136607881Y-73949500D01*
X136607873Y-73949500D01*
X136607864Y-73949500D01*
X135612129Y-73949500D01*
X135612123Y-73949501D01*
X135552518Y-73955908D01*
X135518331Y-73968659D01*
X135448639Y-73973642D01*
X135431669Y-73968659D01*
X135397480Y-73955908D01*
X135397482Y-73955908D01*
X135337883Y-73949501D01*
X135337881Y-73949500D01*
X135337873Y-73949500D01*
X135337864Y-73949500D01*
X134342129Y-73949500D01*
X134342123Y-73949501D01*
X134282518Y-73955908D01*
X134248331Y-73968659D01*
X134178639Y-73973642D01*
X134161669Y-73968659D01*
X134127480Y-73955908D01*
X134127482Y-73955908D01*
X134067883Y-73949501D01*
X134067881Y-73949500D01*
X134067873Y-73949500D01*
X134067864Y-73949500D01*
X133072129Y-73949500D01*
X133072123Y-73949501D01*
X133012518Y-73955908D01*
X132978331Y-73968659D01*
X132908639Y-73973642D01*
X132891669Y-73968659D01*
X132857480Y-73955908D01*
X132857482Y-73955908D01*
X132797883Y-73949501D01*
X132797881Y-73949500D01*
X132797873Y-73949500D01*
X132797864Y-73949500D01*
X131802129Y-73949500D01*
X131802123Y-73949501D01*
X131742518Y-73955908D01*
X131708331Y-73968659D01*
X131638639Y-73973642D01*
X131621669Y-73968659D01*
X131587480Y-73955908D01*
X131587482Y-73955908D01*
X131527883Y-73949501D01*
X131527881Y-73949500D01*
X131527873Y-73949500D01*
X131527864Y-73949500D01*
X130532129Y-73949500D01*
X130532115Y-73949501D01*
X130509168Y-73951968D01*
X130440409Y-73939560D01*
X130389274Y-73891947D01*
X130371997Y-73824247D01*
X130394065Y-73757954D01*
X130408231Y-73741003D01*
X131312416Y-72836819D01*
X131373739Y-72803334D01*
X131400097Y-72800500D01*
X134113331Y-72800500D01*
X134113347Y-72800501D01*
X134120943Y-72800501D01*
X134279054Y-72800501D01*
X134279057Y-72800501D01*
X134431785Y-72759577D01*
X134508180Y-72715470D01*
X134568716Y-72680520D01*
X134680520Y-72568716D01*
X134680520Y-72568714D01*
X134690724Y-72558511D01*
X134690727Y-72558506D01*
X137020520Y-70228716D01*
X137099577Y-70091784D01*
X137140501Y-69939057D01*
X137140501Y-69780942D01*
X137140501Y-69773347D01*
X137140500Y-69773329D01*
X137140500Y-68289090D01*
X137160185Y-68222051D01*
X137212101Y-68176706D01*
X137217830Y-68174035D01*
X137411401Y-68038495D01*
X137578495Y-67871401D01*
X137714035Y-67677830D01*
X137813903Y-67463663D01*
X137875063Y-67235408D01*
X137895659Y-67000000D01*
X137875063Y-66764592D01*
X137813903Y-66536337D01*
X137714035Y-66322171D01*
X137708425Y-66314158D01*
X137578494Y-66128597D01*
X137411402Y-65961506D01*
X137411395Y-65961501D01*
X137217834Y-65825967D01*
X137217830Y-65825965D01*
X137217828Y-65825964D01*
X137003663Y-65726097D01*
X137003659Y-65726096D01*
X137003655Y-65726094D01*
X136775413Y-65664938D01*
X136775403Y-65664936D01*
X136540001Y-65644341D01*
X136539999Y-65644341D01*
X136304596Y-65664936D01*
X136304586Y-65664938D01*
X136076344Y-65726094D01*
X136076335Y-65726098D01*
X135862171Y-65825964D01*
X135862169Y-65825965D01*
X135668597Y-65961505D01*
X135501505Y-66128597D01*
X135371575Y-66314158D01*
X135316998Y-66357783D01*
X135247500Y-66364977D01*
X135185145Y-66333454D01*
X135168425Y-66314158D01*
X135038494Y-66128597D01*
X134871402Y-65961506D01*
X134871395Y-65961501D01*
X134677834Y-65825967D01*
X134677830Y-65825965D01*
X134677828Y-65825964D01*
X134463663Y-65726097D01*
X134463659Y-65726096D01*
X134463655Y-65726094D01*
X134235413Y-65664938D01*
X134235403Y-65664936D01*
X134000001Y-65644341D01*
X133999999Y-65644341D01*
X133764596Y-65664936D01*
X133764586Y-65664938D01*
X133536344Y-65726094D01*
X133536335Y-65726098D01*
X133322171Y-65825964D01*
X133322169Y-65825965D01*
X133128597Y-65961505D01*
X132961505Y-66128597D01*
X132825965Y-66322169D01*
X132825964Y-66322171D01*
X132726098Y-66536335D01*
X132726094Y-66536344D01*
X132664938Y-66764586D01*
X132664936Y-66764596D01*
X132644341Y-66999999D01*
X132644341Y-67000000D01*
X132664936Y-67235403D01*
X132664938Y-67235413D01*
X132726094Y-67463655D01*
X132726096Y-67463659D01*
X132726097Y-67463663D01*
X132730000Y-67472032D01*
X132825965Y-67677830D01*
X132825967Y-67677834D01*
X132910018Y-67797870D01*
X132961505Y-67871401D01*
X133128599Y-68038495D01*
X133225384Y-68106265D01*
X133322165Y-68174032D01*
X133322167Y-68174033D01*
X133322170Y-68174035D01*
X133327898Y-68176706D01*
X133380339Y-68222872D01*
X133399500Y-68289090D01*
X133399500Y-68899903D01*
X133379815Y-68966942D01*
X133363181Y-68987584D01*
X132287584Y-70063181D01*
X132226261Y-70096666D01*
X132199903Y-70099500D01*
X128086670Y-70099500D01*
X128086654Y-70099499D01*
X128079058Y-70099499D01*
X127920943Y-70099499D01*
X127768215Y-70140423D01*
X127768213Y-70140423D01*
X127768213Y-70140424D01*
X127631281Y-70219482D01*
X125469481Y-72381282D01*
X125469480Y-72381284D01*
X125427548Y-72453913D01*
X125390423Y-72518215D01*
X125349499Y-72670943D01*
X125349499Y-72670945D01*
X125349499Y-72839046D01*
X125349500Y-72839059D01*
X125349500Y-73829906D01*
X125329815Y-73896945D01*
X125277011Y-73942700D01*
X125212247Y-73953195D01*
X125177873Y-73949500D01*
X125177865Y-73949500D01*
X124182129Y-73949500D01*
X124182123Y-73949501D01*
X124122516Y-73955908D01*
X123987671Y-74006202D01*
X123987664Y-74006206D01*
X123872455Y-74092452D01*
X123872452Y-74092455D01*
X123786206Y-74207664D01*
X123786202Y-74207671D01*
X123735908Y-74342517D01*
X123729501Y-74402116D01*
X123729501Y-74402123D01*
X123729500Y-74402135D01*
X123729500Y-75997870D01*
X123729501Y-75997876D01*
X123735908Y-76057483D01*
X123786202Y-76192328D01*
X123786206Y-76192335D01*
X123877768Y-76314645D01*
X123875786Y-76316128D01*
X123902957Y-76365887D01*
X123905011Y-76406128D01*
X123894435Y-76499996D01*
X123894435Y-76500003D01*
X123914630Y-76679249D01*
X123914631Y-76679254D01*
X123974211Y-76849523D01*
X124042047Y-76957482D01*
X124070184Y-77002262D01*
X124197738Y-77129816D01*
X124288080Y-77186582D01*
X124329040Y-77212319D01*
X124350478Y-77225789D01*
X124462008Y-77264815D01*
X124520745Y-77285368D01*
X124520750Y-77285369D01*
X124699996Y-77305565D01*
X124700000Y-77305565D01*
X124700004Y-77305565D01*
X124879249Y-77285369D01*
X124879252Y-77285368D01*
X124879255Y-77285368D01*
X125049522Y-77225789D01*
X125202262Y-77129816D01*
X125329816Y-77002262D01*
X125425789Y-76849522D01*
X125485368Y-76679255D01*
X125487292Y-76662180D01*
X125498736Y-76560616D01*
X125525802Y-76496202D01*
X125583397Y-76456646D01*
X125621956Y-76450499D01*
X126447871Y-76450499D01*
X126447872Y-76450499D01*
X126507483Y-76444091D01*
X126541667Y-76431340D01*
X126611358Y-76426357D01*
X126628327Y-76431338D01*
X126662517Y-76444091D01*
X126722127Y-76450500D01*
X127717872Y-76450499D01*
X127777483Y-76444091D01*
X127811667Y-76431340D01*
X127881358Y-76426357D01*
X127898327Y-76431338D01*
X127932517Y-76444091D01*
X127992127Y-76450500D01*
X128987872Y-76450499D01*
X129047483Y-76444091D01*
X129081667Y-76431340D01*
X129151358Y-76426357D01*
X129168327Y-76431338D01*
X129202517Y-76444091D01*
X129262127Y-76450500D01*
X130257872Y-76450499D01*
X130317483Y-76444091D01*
X130351667Y-76431340D01*
X130421358Y-76426357D01*
X130438327Y-76431338D01*
X130472517Y-76444091D01*
X130532127Y-76450500D01*
X131527872Y-76450499D01*
X131527874Y-76450498D01*
X131527887Y-76450498D01*
X131556803Y-76447388D01*
X131562244Y-76446804D01*
X131631003Y-76459208D01*
X131682141Y-76506818D01*
X131699500Y-76570093D01*
X131699500Y-76899902D01*
X131679815Y-76966941D01*
X131663181Y-76987583D01*
X130881465Y-77769298D01*
X130820142Y-77802783D01*
X130807668Y-77804837D01*
X130720750Y-77814630D01*
X130550478Y-77874210D01*
X130397737Y-77970184D01*
X130270184Y-78097737D01*
X130174211Y-78250476D01*
X130114631Y-78420745D01*
X130114630Y-78420750D01*
X130094435Y-78599996D01*
X130094435Y-78600003D01*
X130114630Y-78779249D01*
X130114631Y-78779254D01*
X130174211Y-78949523D01*
X130235574Y-79047181D01*
X130270184Y-79102262D01*
X130397738Y-79229816D01*
X130467487Y-79273642D01*
X130519308Y-79306204D01*
X130550478Y-79325789D01*
X130600619Y-79343334D01*
X130720745Y-79385368D01*
X130720750Y-79385369D01*
X130899996Y-79405565D01*
X130900000Y-79405565D01*
X130900004Y-79405565D01*
X131079249Y-79385369D01*
X131079252Y-79385368D01*
X131079255Y-79385368D01*
X131249522Y-79325789D01*
X131402262Y-79229816D01*
X131529816Y-79102262D01*
X131625789Y-78949522D01*
X131685368Y-78779255D01*
X131695161Y-78692329D01*
X131722226Y-78627918D01*
X131730690Y-78618543D01*
X132658506Y-77690728D01*
X132658511Y-77690724D01*
X132668714Y-77680520D01*
X132668716Y-77680520D01*
X132757819Y-77591417D01*
X132819142Y-77557932D01*
X132888834Y-77562916D01*
X132944767Y-77604788D01*
X132969184Y-77670252D01*
X132969500Y-77679098D01*
X132969500Y-77717587D01*
X132949815Y-77784626D01*
X132942450Y-77794896D01*
X132940186Y-77797734D01*
X132844211Y-77950476D01*
X132784631Y-78120745D01*
X132784630Y-78120750D01*
X132764435Y-78299996D01*
X132764435Y-78300003D01*
X132784630Y-78479249D01*
X132784631Y-78479254D01*
X132844211Y-78649523D01*
X132871111Y-78692333D01*
X132940184Y-78802262D01*
X133067738Y-78929816D01*
X133111768Y-78957482D01*
X133218394Y-79024480D01*
X133220478Y-79025789D01*
X133281613Y-79047181D01*
X133390745Y-79085368D01*
X133390750Y-79085369D01*
X133569996Y-79105565D01*
X133570000Y-79105565D01*
X133570004Y-79105565D01*
X133749249Y-79085369D01*
X133749252Y-79085368D01*
X133749255Y-79085368D01*
X133919522Y-79025789D01*
X134072262Y-78929816D01*
X134199816Y-78802262D01*
X134295789Y-78649522D01*
X134355368Y-78479255D01*
X134361960Y-78420750D01*
X134375565Y-78300003D01*
X134375565Y-78299996D01*
X134355369Y-78120750D01*
X134355368Y-78120745D01*
X134347961Y-78099577D01*
X134295789Y-77950478D01*
X134199816Y-77797738D01*
X134199814Y-77797736D01*
X134199813Y-77797734D01*
X134197550Y-77794896D01*
X134196659Y-77792715D01*
X134196111Y-77791842D01*
X134196264Y-77791745D01*
X134171144Y-77730209D01*
X134170500Y-77717587D01*
X134170500Y-77069098D01*
X134190185Y-77002059D01*
X134242989Y-76956304D01*
X134312147Y-76946360D01*
X134375703Y-76975385D01*
X134382181Y-76981417D01*
X134478349Y-77077585D01*
X134478355Y-77077590D01*
X135265139Y-77864374D01*
X135265149Y-77864385D01*
X135269479Y-77868715D01*
X135269480Y-77868716D01*
X135381284Y-77980520D01*
X135381286Y-77980521D01*
X135381290Y-77980524D01*
X135518209Y-78059573D01*
X135518216Y-78059577D01*
X135630019Y-78089534D01*
X135630021Y-78089534D01*
X135630022Y-78089535D01*
X135635396Y-78090975D01*
X135690993Y-78123071D01*
X135697738Y-78129816D01*
X135850478Y-78225789D01*
X136020745Y-78285368D01*
X136020750Y-78285369D01*
X136199996Y-78305565D01*
X136200000Y-78305565D01*
X136200004Y-78305565D01*
X136379249Y-78285369D01*
X136379252Y-78285368D01*
X136379255Y-78285368D01*
X136549522Y-78225789D01*
X136702262Y-78129816D01*
X136829816Y-78002262D01*
X136925789Y-77849522D01*
X136985368Y-77679255D01*
X136985800Y-77675423D01*
X137005565Y-77500003D01*
X137005565Y-77499996D01*
X136985369Y-77320750D01*
X136985368Y-77320745D01*
X136962681Y-77255909D01*
X136925789Y-77150478D01*
X136907228Y-77120939D01*
X136875548Y-77070520D01*
X136829816Y-76997738D01*
X136702262Y-76870184D01*
X136625236Y-76821785D01*
X136549523Y-76774211D01*
X136379254Y-76714631D01*
X136379250Y-76714630D01*
X136229153Y-76697719D01*
X136202634Y-76686575D01*
X136191897Y-76693476D01*
X136170846Y-76697719D01*
X136020747Y-76714631D01*
X135941033Y-76742524D01*
X135871254Y-76746085D01*
X135812398Y-76713163D01*
X135761415Y-76662180D01*
X135727930Y-76600857D01*
X135732914Y-76531165D01*
X135774786Y-76475232D01*
X135840250Y-76450815D01*
X135849074Y-76450499D01*
X136156963Y-76450499D01*
X136199896Y-76463106D01*
X136221643Y-76452359D01*
X136243032Y-76450499D01*
X136607872Y-76450499D01*
X136667483Y-76444091D01*
X136701667Y-76431340D01*
X136771358Y-76426357D01*
X136788327Y-76431338D01*
X136822517Y-76444091D01*
X136882127Y-76450500D01*
X137877872Y-76450499D01*
X137937483Y-76444091D01*
X137971667Y-76431340D01*
X138041358Y-76426357D01*
X138058327Y-76431338D01*
X138092517Y-76444091D01*
X138152127Y-76450500D01*
X139147872Y-76450499D01*
X139147874Y-76450498D01*
X139147887Y-76450498D01*
X139176803Y-76447388D01*
X139182244Y-76446804D01*
X139251003Y-76459208D01*
X139302141Y-76506818D01*
X139319500Y-76570093D01*
X139319500Y-82879902D01*
X139299815Y-82946941D01*
X139283181Y-82967583D01*
X132231465Y-90019298D01*
X132170142Y-90052783D01*
X132157668Y-90054837D01*
X132070750Y-90064630D01*
X131900478Y-90124210D01*
X131747737Y-90220184D01*
X131620186Y-90347736D01*
X131620184Y-90347738D01*
X131589557Y-90396480D01*
X131524211Y-90500476D01*
X131464631Y-90670745D01*
X131464630Y-90670750D01*
X131444435Y-90849996D01*
X131444435Y-90850003D01*
X131464630Y-91029249D01*
X131464631Y-91029254D01*
X131524211Y-91199523D01*
X131561915Y-91259528D01*
X131580915Y-91326765D01*
X131560547Y-91393600D01*
X131507279Y-91438814D01*
X131456921Y-91449500D01*
X130532129Y-91449500D01*
X130532123Y-91449501D01*
X130472518Y-91455908D01*
X130438331Y-91468659D01*
X130368639Y-91473642D01*
X130351669Y-91468659D01*
X130317480Y-91455908D01*
X130317482Y-91455908D01*
X130257883Y-91449501D01*
X130257881Y-91449500D01*
X130257873Y-91449500D01*
X130257864Y-91449500D01*
X129262129Y-91449500D01*
X129262123Y-91449501D01*
X129202518Y-91455908D01*
X129168331Y-91468659D01*
X129098639Y-91473642D01*
X129081669Y-91468659D01*
X129047480Y-91455908D01*
X129047482Y-91455908D01*
X128987883Y-91449501D01*
X128987881Y-91449500D01*
X128987873Y-91449500D01*
X128987864Y-91449500D01*
X127992129Y-91449500D01*
X127992123Y-91449501D01*
X127932518Y-91455908D01*
X127898331Y-91468659D01*
X127828639Y-91473642D01*
X127811669Y-91468659D01*
X127777480Y-91455908D01*
X127777482Y-91455908D01*
X127717883Y-91449501D01*
X127717881Y-91449500D01*
X127717873Y-91449500D01*
X127717864Y-91449500D01*
X126722129Y-91449500D01*
X126722123Y-91449501D01*
X126662518Y-91455908D01*
X126628331Y-91468659D01*
X126558639Y-91473642D01*
X126541669Y-91468659D01*
X126507480Y-91455908D01*
X126507482Y-91455908D01*
X126447883Y-91449501D01*
X126447881Y-91449500D01*
X126447873Y-91449500D01*
X126447864Y-91449500D01*
X125452129Y-91449500D01*
X125452123Y-91449501D01*
X125392518Y-91455908D01*
X125358331Y-91468659D01*
X125288639Y-91473642D01*
X125271669Y-91468659D01*
X125237480Y-91455908D01*
X125237482Y-91455908D01*
X125177883Y-91449501D01*
X125177881Y-91449500D01*
X125177873Y-91449500D01*
X125177864Y-91449500D01*
X124182129Y-91449500D01*
X124182123Y-91449501D01*
X124122516Y-91455908D01*
X123987671Y-91506202D01*
X123987664Y-91506206D01*
X123872455Y-91592452D01*
X123872452Y-91592455D01*
X123786206Y-91707664D01*
X123786202Y-91707671D01*
X123735908Y-91842517D01*
X123729501Y-91902116D01*
X123729501Y-91902123D01*
X123729500Y-91902135D01*
X123729500Y-93497870D01*
X123729501Y-93497871D01*
X123731041Y-93512195D01*
X123718635Y-93580954D01*
X123671025Y-93632092D01*
X123607751Y-93649450D01*
X120632980Y-93649450D01*
X120623251Y-93649068D01*
X120465963Y-93636689D01*
X120446745Y-93633645D01*
X120298087Y-93597956D01*
X120279581Y-93591943D01*
X120138335Y-93533436D01*
X120120998Y-93524602D01*
X119990647Y-93444723D01*
X119974905Y-93433286D01*
X119854900Y-93330790D01*
X119847751Y-93324181D01*
X119815262Y-93291692D01*
X119781777Y-93230369D01*
X119786761Y-93160677D01*
X119806112Y-93126553D01*
X119867557Y-93049749D01*
X119883386Y-93028875D01*
X119890873Y-93018452D01*
X119905567Y-92996839D01*
X119965338Y-92865962D01*
X119985023Y-92798923D01*
X119985024Y-92798919D01*
X120005500Y-92656503D01*
X120005500Y-92264025D01*
X120025185Y-92196986D01*
X120077989Y-92151231D01*
X120105305Y-92142408D01*
X120112681Y-92140942D01*
X120276570Y-92073057D01*
X120276570Y-92073056D01*
X120276572Y-92073056D01*
X120349823Y-92024110D01*
X120424067Y-91974503D01*
X121074502Y-91324068D01*
X121100921Y-91284530D01*
X121157720Y-91199524D01*
X121173056Y-91176572D01*
X121180082Y-91159609D01*
X121240942Y-91012681D01*
X121243574Y-90999449D01*
X121252923Y-90952451D01*
X121275550Y-90838699D01*
X121275550Y-68224382D01*
X121295235Y-68157343D01*
X121311869Y-68136701D01*
X121511701Y-67936869D01*
X121573024Y-67903384D01*
X121599382Y-67900550D01*
X127468579Y-67900550D01*
X127535618Y-67920235D01*
X127581373Y-67973039D01*
X127584761Y-67981217D01*
X127626202Y-68092328D01*
X127626206Y-68092335D01*
X127712452Y-68207544D01*
X127712455Y-68207547D01*
X127827664Y-68293793D01*
X127827671Y-68293797D01*
X127962517Y-68344091D01*
X127962516Y-68344091D01*
X127969444Y-68344835D01*
X128022127Y-68350500D01*
X129817872Y-68350499D01*
X129877483Y-68344091D01*
X130012331Y-68293796D01*
X130127546Y-68207546D01*
X130213796Y-68092331D01*
X130264091Y-67957483D01*
X130270500Y-67897873D01*
X130270499Y-66102128D01*
X130264091Y-66042517D01*
X130249022Y-66002116D01*
X130213797Y-65907671D01*
X130213793Y-65907664D01*
X130127547Y-65792455D01*
X130127544Y-65792452D01*
X130012335Y-65706206D01*
X130012328Y-65706202D01*
X129877482Y-65655908D01*
X129877483Y-65655908D01*
X129817883Y-65649501D01*
X129817881Y-65649500D01*
X129817873Y-65649500D01*
X129817864Y-65649500D01*
X128022129Y-65649500D01*
X128022123Y-65649501D01*
X127962516Y-65655908D01*
X127827671Y-65706202D01*
X127827664Y-65706206D01*
X127712455Y-65792452D01*
X127712452Y-65792455D01*
X127626206Y-65907664D01*
X127626202Y-65907671D01*
X127584761Y-66018783D01*
X127542890Y-66074717D01*
X127477426Y-66099134D01*
X127468579Y-66099450D01*
X98522346Y-66099450D01*
X98455307Y-66079765D01*
X98409552Y-66026961D01*
X98399056Y-65988703D01*
X98394091Y-65942516D01*
X98343797Y-65807671D01*
X98343793Y-65807664D01*
X98257547Y-65692455D01*
X98257544Y-65692452D01*
X98142335Y-65606206D01*
X98142328Y-65606202D01*
X98007482Y-65555908D01*
X98007483Y-65555908D01*
X97947883Y-65549501D01*
X97947881Y-65549500D01*
X97947873Y-65549500D01*
X97947864Y-65549500D01*
X96152129Y-65549500D01*
X96152123Y-65549501D01*
X96092516Y-65555908D01*
X95957671Y-65606202D01*
X95957664Y-65606206D01*
X95842455Y-65692452D01*
X95842452Y-65692455D01*
X95756206Y-65807664D01*
X95756202Y-65807671D01*
X95705908Y-65942517D01*
X95699501Y-66002116D01*
X95699500Y-66002135D01*
X95699500Y-67797870D01*
X95699501Y-67797876D01*
X95705908Y-67857483D01*
X95756202Y-67992328D01*
X95756206Y-67992335D01*
X95842452Y-68107544D01*
X95842455Y-68107547D01*
X95957664Y-68193793D01*
X95957671Y-68193797D01*
X96089081Y-68242810D01*
X96145015Y-68284681D01*
X96169432Y-68350145D01*
X96154580Y-68418418D01*
X96133430Y-68446673D01*
X96011503Y-68568600D01*
X95875965Y-68762169D01*
X95875964Y-68762171D01*
X95776098Y-68976335D01*
X95776094Y-68976344D01*
X95714938Y-69204586D01*
X95714936Y-69204596D01*
X95694341Y-69439999D01*
X94500499Y-69439999D01*
X94500499Y-66504427D01*
X94500815Y-66495581D01*
X94510156Y-66364977D01*
X94515129Y-66295436D01*
X94517645Y-66277938D01*
X94559355Y-66086199D01*
X94564332Y-66069248D01*
X94632910Y-65885385D01*
X94640258Y-65869298D01*
X94734293Y-65697083D01*
X94743849Y-65682214D01*
X94861442Y-65525128D01*
X94873016Y-65511771D01*
X95011770Y-65373017D01*
X95025127Y-65361443D01*
X95182213Y-65243850D01*
X95197082Y-65234294D01*
X95369309Y-65140251D01*
X95385378Y-65132912D01*
X95569248Y-65064332D01*
X95586199Y-65059355D01*
X95777938Y-65017645D01*
X95795437Y-65015129D01*
X95969236Y-65002698D01*
X95995555Y-65000816D01*
X96004401Y-65000500D01*
X96117246Y-65000500D01*
X96117255Y-65000499D01*
X171995571Y-65000499D01*
X172004417Y-65000815D01*
G37*
%TD.AperFunction*%
%TD*%
%TA.AperFunction,Conductor*%
%TO.N,+3V3*%
G36*
X167765677Y-94169685D02*
G01*
X167786319Y-94186319D01*
X167813681Y-94213681D01*
X167847166Y-94275004D01*
X167850000Y-94301362D01*
X167850000Y-95773364D01*
X167830315Y-95840403D01*
X167781454Y-95884273D01*
X167776182Y-95886909D01*
X167720728Y-95900000D01*
X166979272Y-95900000D01*
X166923818Y-95886909D01*
X166918546Y-95884273D01*
X166867387Y-95836686D01*
X166850000Y-95773364D01*
X166850000Y-94301362D01*
X166869685Y-94234323D01*
X166886319Y-94213681D01*
X166913681Y-94186319D01*
X166975004Y-94152834D01*
X167001362Y-94150000D01*
X167698638Y-94150000D01*
X167765677Y-94169685D01*
G37*
%TD.AperFunction*%
%TD*%
M02*
