%TF.GenerationSoftware,KiCad,Pcbnew,8.0.5*%
%TF.CreationDate,2024-11-10T21:17:35+07:00*%
%TF.ProjectId,PCB_MASTER,5043425f-4d41-4535-9445-522e6b696361,rev?*%
%TF.SameCoordinates,Original*%
%TF.FileFunction,Copper,L2,Bot*%
%TF.FilePolarity,Positive*%
%FSLAX46Y46*%
G04 Gerber Fmt 4.6, Leading zero omitted, Abs format (unit mm)*
G04 Created by KiCad (PCBNEW 8.0.5) date 2024-11-10 21:17:35*
%MOMM*%
%LPD*%
G01*
G04 APERTURE LIST*
%TA.AperFunction,ComponentPad*%
%ADD10O,1.700000X1.100000*%
%TD*%
%TA.AperFunction,ComponentPad*%
%ADD11R,1.700000X1.700000*%
%TD*%
%TA.AperFunction,ComponentPad*%
%ADD12O,1.700000X1.700000*%
%TD*%
%TA.AperFunction,ViaPad*%
%ADD13C,0.800000*%
%TD*%
%TA.AperFunction,ViaPad*%
%ADD14C,0.600000*%
%TD*%
%TA.AperFunction,Conductor*%
%ADD15C,0.800100*%
%TD*%
%TA.AperFunction,Conductor*%
%ADD16C,0.200000*%
%TD*%
G04 APERTURE END LIST*
D10*
%TO.P,J3,S1,SHIELD*%
%TO.N,GND*%
X100400000Y-83180000D03*
X96600000Y-83180000D03*
X100400000Y-91820000D03*
X96600000Y-91820000D03*
%TD*%
D11*
%TO.P,J1,1,Pin_1*%
%TO.N,+3V3*%
X97050000Y-66900000D03*
D12*
%TO.P,J1,2,Pin_2*%
%TO.N,/RX_D0*%
X97050000Y-69440000D03*
%TO.P,J1,3,Pin_3*%
%TO.N,/TX_D0*%
X97050000Y-71979999D03*
%TO.P,J1,4,Pin_4*%
%TO.N,GND*%
X97050000Y-74520000D03*
%TD*%
D11*
%TO.P,J2,1,Pin_1*%
%TO.N,+3V3*%
X128920000Y-67000000D03*
D12*
%TO.P,J2,2,Pin_2*%
%TO.N,GND*%
X131460000Y-67000000D03*
%TO.P,J2,3,Pin_3*%
%TO.N,/SCL*%
X134000000Y-67000000D03*
%TO.P,J2,4,Pin_4*%
%TO.N,/SDA*%
X136540000Y-67000000D03*
%TD*%
D13*
%TO.N,GND*%
X102600000Y-83700000D03*
X118300000Y-70600000D03*
X149100000Y-108500000D03*
X158200000Y-98600000D03*
X109200000Y-94250000D03*
X109300000Y-83400000D03*
X133100000Y-108600000D03*
X138600000Y-80600000D03*
X121750000Y-97900000D03*
X124100000Y-99300000D03*
X102200000Y-87650000D03*
X117700000Y-107000000D03*
X117700000Y-108600000D03*
X116700000Y-94250000D03*
X110900000Y-94250000D03*
X121800000Y-96100000D03*
X129800000Y-71900000D03*
X111000000Y-83400000D03*
X132300000Y-69150000D03*
X99000000Y-70600000D03*
X135300000Y-68500000D03*
X138600000Y-79000000D03*
X122300000Y-70600000D03*
X122000000Y-91050000D03*
X102200000Y-89100000D03*
X115450000Y-94250000D03*
X113150000Y-89300000D03*
X102600000Y-82500000D03*
X107700000Y-83400000D03*
X130750000Y-69100000D03*
X108600000Y-87800000D03*
X108600000Y-89450000D03*
X123350000Y-91050000D03*
X158200000Y-97250000D03*
X123100000Y-103000000D03*
X113100000Y-87500000D03*
D14*
X137338469Y-90992967D03*
%TO.N,+3V3*%
X124700000Y-94550000D03*
D13*
X167350000Y-94600000D03*
X167350000Y-95450000D03*
D14*
%TO.N,/IO0*%
X132250000Y-90850000D03*
X132250000Y-94450000D03*
%TO.N,/TX_D0*%
X127250000Y-73300000D03*
%TO.N,/RX_D0*%
X128490000Y-73150000D03*
%TO.N,/LORA_RESET*%
X138650000Y-90850000D03*
X167650000Y-84300000D03*
%TO.N,/NSS*%
X136200000Y-77500000D03*
X146600000Y-81200000D03*
%TO.N,/DIO1*%
X167650000Y-82300000D03*
X138650000Y-89300000D03*
%TO.N,/SCK*%
X133570000Y-78300000D03*
X152800000Y-82250000D03*
%TO.N,/MISO*%
X130900000Y-78600000D03*
X152800000Y-84300000D03*
%TO.N,/MOSI*%
X124700000Y-76500000D03*
X152800000Y-86300000D03*
%TD*%
D15*
%TO.N,+3V3*%
X124700000Y-94550000D02*
X125600000Y-95450000D01*
D16*
%TO.N,/IO0*%
X132250000Y-94450000D02*
X132250000Y-90850000D01*
%TO.N,/TX_D0*%
X97229999Y-71800000D02*
X97050000Y-71979999D01*
X126250000Y-71800000D02*
X97229999Y-71800000D01*
X127250000Y-73300000D02*
X127250000Y-72800000D01*
X127250000Y-72800000D02*
X126250000Y-71800000D01*
%TO.N,/RX_D0*%
X126250000Y-69450000D02*
X97060000Y-69450000D01*
X128490000Y-71690000D02*
X126250000Y-69450000D01*
X128490000Y-73150000D02*
X128490000Y-71690000D01*
X97060000Y-69450000D02*
X97050000Y-69440000D01*
%TO.N,/LORA_RESET*%
X161450000Y-84300000D02*
X154900000Y-90850000D01*
X154900000Y-90850000D02*
X138650000Y-90850000D01*
X167650000Y-84300000D02*
X161450000Y-84300000D01*
%TO.N,/NSS*%
X136200000Y-77500000D02*
X144100000Y-77500000D01*
X146600000Y-80000000D02*
X146600000Y-81200000D01*
X144100000Y-77500000D02*
X146600000Y-80000000D01*
%TO.N,/DIO1*%
X138650000Y-89300000D02*
X154000000Y-89300000D01*
X161000000Y-82300000D02*
X167650000Y-82300000D01*
X154000000Y-89300000D02*
X161000000Y-82300000D01*
%TO.N,/SCK*%
X133570000Y-78300000D02*
X133570000Y-78420000D01*
X137400000Y-82250000D02*
X152800000Y-82250000D01*
X133570000Y-78420000D02*
X137400000Y-82250000D01*
%TO.N,/MISO*%
X130900000Y-78600000D02*
X130900000Y-79100000D01*
X136100000Y-84300000D02*
X152800000Y-84300000D01*
X130900000Y-79100000D02*
X136100000Y-84300000D01*
%TO.N,/MOSI*%
X134500000Y-86300000D02*
X124700000Y-76500000D01*
X152800000Y-86300000D02*
X134500000Y-86300000D01*
D15*
%TO.N,+3V3*%
X125600000Y-95450000D02*
X167350000Y-95450000D01*
%TD*%
%TA.AperFunction,Conductor*%
%TO.N,GND*%
G36*
X126016942Y-70070185D02*
G01*
X126037584Y-70086819D01*
X127853181Y-71902416D01*
X127886666Y-71963739D01*
X127889500Y-71990097D01*
X127889500Y-72290902D01*
X127869815Y-72357941D01*
X127817011Y-72403696D01*
X127747853Y-72413640D01*
X127684297Y-72384615D01*
X127677819Y-72378583D01*
X126737590Y-71438355D01*
X126737588Y-71438352D01*
X126618717Y-71319481D01*
X126618716Y-71319480D01*
X126531904Y-71269360D01*
X126531904Y-71269359D01*
X126531900Y-71269358D01*
X126481785Y-71240423D01*
X126329057Y-71199499D01*
X126170943Y-71199499D01*
X126163347Y-71199499D01*
X126163331Y-71199500D01*
X98216696Y-71199500D01*
X98149657Y-71179815D01*
X98115121Y-71146624D01*
X98088491Y-71108593D01*
X97921402Y-70941505D01*
X97921401Y-70941504D01*
X97735842Y-70811574D01*
X97692218Y-70756997D01*
X97685025Y-70687498D01*
X97716547Y-70625144D01*
X97735843Y-70608424D01*
X97921401Y-70478495D01*
X98088495Y-70311401D01*
X98224035Y-70117830D01*
X98224036Y-70117826D01*
X98226743Y-70113140D01*
X98228866Y-70114366D01*
X98268169Y-70069687D01*
X98334428Y-70050500D01*
X125949903Y-70050500D01*
X126016942Y-70070185D01*
G37*
%TD.AperFunction*%
%TA.AperFunction,Conductor*%
G36*
X172004417Y-65000815D02*
G01*
X172204561Y-65015129D01*
X172222063Y-65017646D01*
X172413797Y-65059354D01*
X172430755Y-65064333D01*
X172614606Y-65132907D01*
X172614609Y-65132908D01*
X172630702Y-65140258D01*
X172802908Y-65234289D01*
X172817791Y-65243854D01*
X172974864Y-65361437D01*
X172988235Y-65373023D01*
X173126975Y-65511763D01*
X173138561Y-65525134D01*
X173256144Y-65682207D01*
X173265709Y-65697090D01*
X173359742Y-65869298D01*
X173367092Y-65885391D01*
X173435663Y-66069236D01*
X173440647Y-66086212D01*
X173482352Y-66277931D01*
X173484870Y-66295442D01*
X173499184Y-66495566D01*
X173499500Y-66504413D01*
X173499501Y-109934107D01*
X173499501Y-109995571D01*
X173499185Y-110004418D01*
X173484870Y-110204557D01*
X173482352Y-110222068D01*
X173440647Y-110413787D01*
X173435663Y-110430763D01*
X173367091Y-110614609D01*
X173359741Y-110630702D01*
X173265710Y-110802908D01*
X173256145Y-110817791D01*
X173138562Y-110974864D01*
X173126976Y-110988235D01*
X172988236Y-111126975D01*
X172974865Y-111138561D01*
X172817792Y-111256144D01*
X172802909Y-111265709D01*
X172630701Y-111359742D01*
X172614608Y-111367092D01*
X172430763Y-111435663D01*
X172413787Y-111440647D01*
X172222068Y-111482352D01*
X172204557Y-111484870D01*
X172023447Y-111497823D01*
X172004430Y-111499184D01*
X171995585Y-111499500D01*
X96004427Y-111499500D01*
X95995581Y-111499184D01*
X95795443Y-111484870D01*
X95777931Y-111482352D01*
X95586212Y-111440647D01*
X95569236Y-111435663D01*
X95385390Y-111367091D01*
X95369298Y-111359741D01*
X95197095Y-111265712D01*
X95182210Y-111256147D01*
X95025132Y-111138559D01*
X95011762Y-111126973D01*
X94873026Y-110988237D01*
X94861440Y-110974867D01*
X94861438Y-110974864D01*
X94743848Y-110817784D01*
X94734287Y-110802904D01*
X94640258Y-110630701D01*
X94632908Y-110614609D01*
X94564333Y-110430755D01*
X94559354Y-110413797D01*
X94517646Y-110222063D01*
X94515129Y-110204556D01*
X94500815Y-110004418D01*
X94500499Y-109995572D01*
X94500499Y-94638699D01*
X123799449Y-94638699D01*
X123834056Y-94812675D01*
X123834058Y-94812681D01*
X123901943Y-94976572D01*
X124000493Y-95124062D01*
X124000499Y-95124070D01*
X124900497Y-96024067D01*
X124990129Y-96113699D01*
X125025934Y-96149504D01*
X125025937Y-96149506D01*
X125111707Y-96206816D01*
X125173427Y-96248056D01*
X125203250Y-96260409D01*
X125337319Y-96315942D01*
X125337323Y-96315942D01*
X125337324Y-96315943D01*
X125511300Y-96350550D01*
X125511303Y-96350550D01*
X125511304Y-96350550D01*
X166707722Y-96350550D01*
X166749977Y-96357971D01*
X166807677Y-96378886D01*
X166863131Y-96391977D01*
X166944013Y-96401394D01*
X166979270Y-96405500D01*
X166979272Y-96405500D01*
X167720730Y-96405500D01*
X167751340Y-96401935D01*
X167836869Y-96391977D01*
X167892323Y-96378886D01*
X168002248Y-96339042D01*
X168007520Y-96336406D01*
X168007522Y-96336404D01*
X168007525Y-96336403D01*
X168066414Y-96296318D01*
X168119169Y-96260409D01*
X168168030Y-96216539D01*
X168255567Y-96113700D01*
X168315338Y-95982823D01*
X168335023Y-95915784D01*
X168335024Y-95915780D01*
X168355500Y-95773364D01*
X168355500Y-94301362D01*
X168352603Y-94247322D01*
X168349769Y-94220964D01*
X168341114Y-94167552D01*
X168290832Y-94032743D01*
X168257347Y-93971420D01*
X168171123Y-93856239D01*
X168143761Y-93828877D01*
X168143737Y-93828855D01*
X168103519Y-93792728D01*
X168103507Y-93792718D01*
X168082856Y-93776076D01*
X168038974Y-93744433D01*
X167908100Y-93684663D01*
X167841055Y-93664976D01*
X167793582Y-93658150D01*
X167698638Y-93644500D01*
X167001362Y-93644500D01*
X167001360Y-93644500D01*
X166947311Y-93647397D01*
X166947310Y-93647397D01*
X166920977Y-93650229D01*
X166920950Y-93650232D01*
X166867554Y-93658885D01*
X166867552Y-93658885D01*
X166732747Y-93709166D01*
X166671422Y-93742651D01*
X166556240Y-93828876D01*
X166556236Y-93828879D01*
X166528874Y-93856242D01*
X166528855Y-93856262D01*
X166492728Y-93896480D01*
X166492718Y-93896492D01*
X166476076Y-93917143D01*
X166444433Y-93961025D01*
X166384663Y-94091899D01*
X166364976Y-94158944D01*
X166363738Y-94167554D01*
X166344501Y-94301359D01*
X166344500Y-94301363D01*
X166344500Y-94425450D01*
X166324815Y-94492489D01*
X166272011Y-94538244D01*
X166220500Y-94549450D01*
X133177584Y-94549450D01*
X133110545Y-94529765D01*
X133064790Y-94476961D01*
X133054364Y-94439334D01*
X133035369Y-94270749D01*
X133035368Y-94270745D01*
X132975788Y-94100476D01*
X132933228Y-94032743D01*
X132879816Y-93947738D01*
X132879814Y-93947736D01*
X132879813Y-93947734D01*
X132877550Y-93944896D01*
X132876659Y-93942715D01*
X132876111Y-93941842D01*
X132876264Y-93941745D01*
X132851144Y-93880209D01*
X132850500Y-93867587D01*
X132850500Y-91432412D01*
X132870185Y-91365373D01*
X132877555Y-91355097D01*
X132879810Y-91352267D01*
X132879816Y-91352262D01*
X132975789Y-91199522D01*
X133035368Y-91029255D01*
X133055565Y-90850000D01*
X133035368Y-90670745D01*
X132975789Y-90500478D01*
X132879816Y-90347738D01*
X132752262Y-90220184D01*
X132688300Y-90179994D01*
X132599523Y-90124211D01*
X132429254Y-90064631D01*
X132429249Y-90064630D01*
X132250004Y-90044435D01*
X132249996Y-90044435D01*
X132070750Y-90064630D01*
X132070745Y-90064631D01*
X131900476Y-90124211D01*
X131747737Y-90220184D01*
X131620184Y-90347737D01*
X131524211Y-90500476D01*
X131464631Y-90670745D01*
X131464630Y-90670750D01*
X131444435Y-90849996D01*
X131444435Y-90850003D01*
X131464630Y-91029249D01*
X131464631Y-91029254D01*
X131524211Y-91199523D01*
X131620185Y-91352263D01*
X131622445Y-91355097D01*
X131623334Y-91357275D01*
X131623889Y-91358158D01*
X131623734Y-91358255D01*
X131648855Y-91419783D01*
X131649500Y-91432412D01*
X131649500Y-93867587D01*
X131629815Y-93934626D01*
X131622450Y-93944896D01*
X131620186Y-93947734D01*
X131524211Y-94100476D01*
X131464631Y-94270745D01*
X131464630Y-94270749D01*
X131445636Y-94439334D01*
X131418569Y-94503748D01*
X131360975Y-94543303D01*
X131322416Y-94549450D01*
X126024382Y-94549450D01*
X125957343Y-94529765D01*
X125936701Y-94513131D01*
X125274070Y-93850499D01*
X125274062Y-93850493D01*
X125126571Y-93751943D01*
X125126572Y-93751943D01*
X124962681Y-93684058D01*
X124962675Y-93684056D01*
X124788699Y-93649450D01*
X124788697Y-93649450D01*
X124611303Y-93649450D01*
X124611301Y-93649450D01*
X124437324Y-93684056D01*
X124437318Y-93684058D01*
X124273427Y-93751943D01*
X124125937Y-93850493D01*
X124125929Y-93850499D01*
X124000499Y-93975929D01*
X124000493Y-93975937D01*
X123901943Y-94123427D01*
X123834058Y-94287318D01*
X123834056Y-94287324D01*
X123799450Y-94461300D01*
X123799450Y-94461303D01*
X123799450Y-94638697D01*
X123799450Y-94638699D01*
X123799449Y-94638699D01*
X94500499Y-94638699D01*
X94500499Y-89299996D01*
X137844435Y-89299996D01*
X137844435Y-89300003D01*
X137864630Y-89479249D01*
X137864631Y-89479254D01*
X137924211Y-89649523D01*
X138020184Y-89802262D01*
X138147738Y-89929816D01*
X138211700Y-89970006D01*
X138257991Y-90022341D01*
X138268639Y-90091395D01*
X138240264Y-90155243D01*
X138211700Y-90179994D01*
X138147737Y-90220184D01*
X138020184Y-90347737D01*
X137924211Y-90500476D01*
X137864631Y-90670745D01*
X137864630Y-90670750D01*
X137844435Y-90849996D01*
X137844435Y-90850003D01*
X137864630Y-91029249D01*
X137864631Y-91029254D01*
X137924211Y-91199523D01*
X138020184Y-91352262D01*
X138147738Y-91479816D01*
X138300478Y-91575789D01*
X138470745Y-91635368D01*
X138470750Y-91635369D01*
X138649996Y-91655565D01*
X138650000Y-91655565D01*
X138650004Y-91655565D01*
X138829249Y-91635369D01*
X138829252Y-91635368D01*
X138829255Y-91635368D01*
X138999522Y-91575789D01*
X139152262Y-91479816D01*
X139152267Y-91479810D01*
X139155097Y-91477555D01*
X139157275Y-91476665D01*
X139158158Y-91476111D01*
X139158255Y-91476265D01*
X139219783Y-91451145D01*
X139232412Y-91450500D01*
X154813331Y-91450500D01*
X154813347Y-91450501D01*
X154820943Y-91450501D01*
X154979054Y-91450501D01*
X154979057Y-91450501D01*
X155131785Y-91409577D01*
X155181904Y-91380639D01*
X155268716Y-91330520D01*
X155380520Y-91218716D01*
X155380520Y-91218714D01*
X155390728Y-91208507D01*
X155390729Y-91208504D01*
X161662416Y-84936819D01*
X161723739Y-84903334D01*
X161750097Y-84900500D01*
X167067588Y-84900500D01*
X167134627Y-84920185D01*
X167144903Y-84927555D01*
X167147736Y-84929814D01*
X167147738Y-84929816D01*
X167300478Y-85025789D01*
X167470745Y-85085368D01*
X167470750Y-85085369D01*
X167649996Y-85105565D01*
X167650000Y-85105565D01*
X167650004Y-85105565D01*
X167829249Y-85085369D01*
X167829252Y-85085368D01*
X167829255Y-85085368D01*
X167999522Y-85025789D01*
X168152262Y-84929816D01*
X168279816Y-84802262D01*
X168375789Y-84649522D01*
X168435368Y-84479255D01*
X168455565Y-84300000D01*
X168435368Y-84120745D01*
X168375789Y-83950478D01*
X168279816Y-83797738D01*
X168152262Y-83670184D01*
X168141117Y-83663181D01*
X167999523Y-83574211D01*
X167829254Y-83514631D01*
X167829249Y-83514630D01*
X167650004Y-83494435D01*
X167649996Y-83494435D01*
X167470750Y-83514630D01*
X167470745Y-83514631D01*
X167300476Y-83574211D01*
X167147736Y-83670185D01*
X167144903Y-83672445D01*
X167142724Y-83673334D01*
X167141842Y-83673889D01*
X167141744Y-83673734D01*
X167080217Y-83698855D01*
X167067588Y-83699500D01*
X161536669Y-83699500D01*
X161536653Y-83699499D01*
X161529057Y-83699499D01*
X161370943Y-83699499D01*
X161263587Y-83728265D01*
X161218210Y-83740424D01*
X161218209Y-83740425D01*
X161183066Y-83760716D01*
X161183064Y-83760717D01*
X161081290Y-83819475D01*
X161081282Y-83819481D01*
X160969480Y-83931284D01*
X160969478Y-83931286D01*
X157815396Y-87085369D01*
X154687584Y-90213181D01*
X154626261Y-90246666D01*
X154599903Y-90249500D01*
X139232412Y-90249500D01*
X139165373Y-90229815D01*
X139155097Y-90222445D01*
X139152263Y-90220185D01*
X139152262Y-90220184D01*
X139088297Y-90179992D01*
X139042008Y-90127660D01*
X139031359Y-90058606D01*
X139059734Y-89994758D01*
X139088296Y-89970008D01*
X139152262Y-89929816D01*
X139152267Y-89929810D01*
X139155097Y-89927555D01*
X139157275Y-89926665D01*
X139158158Y-89926111D01*
X139158255Y-89926265D01*
X139219783Y-89901145D01*
X139232412Y-89900500D01*
X153913331Y-89900500D01*
X153913347Y-89900501D01*
X153920943Y-89900501D01*
X154079054Y-89900501D01*
X154079057Y-89900501D01*
X154231785Y-89859577D01*
X154281904Y-89830639D01*
X154368716Y-89780520D01*
X154480520Y-89668716D01*
X154480520Y-89668714D01*
X154490728Y-89658507D01*
X154490729Y-89658504D01*
X161212416Y-82936819D01*
X161273739Y-82903334D01*
X161300097Y-82900500D01*
X167067588Y-82900500D01*
X167134627Y-82920185D01*
X167144903Y-82927555D01*
X167147736Y-82929814D01*
X167147738Y-82929816D01*
X167300478Y-83025789D01*
X167385573Y-83055565D01*
X167470745Y-83085368D01*
X167470750Y-83085369D01*
X167649996Y-83105565D01*
X167650000Y-83105565D01*
X167650004Y-83105565D01*
X167829249Y-83085369D01*
X167829252Y-83085368D01*
X167829255Y-83085368D01*
X167999522Y-83025789D01*
X168152262Y-82929816D01*
X168279816Y-82802262D01*
X168375789Y-82649522D01*
X168435368Y-82479255D01*
X168441002Y-82429254D01*
X168455565Y-82300003D01*
X168455565Y-82299996D01*
X168435369Y-82120750D01*
X168435368Y-82120745D01*
X168375788Y-81950476D01*
X168293477Y-81819480D01*
X168279816Y-81797738D01*
X168152262Y-81670184D01*
X168115650Y-81647179D01*
X167999523Y-81574211D01*
X167829254Y-81514631D01*
X167829249Y-81514630D01*
X167650004Y-81494435D01*
X167649996Y-81494435D01*
X167470750Y-81514630D01*
X167470745Y-81514631D01*
X167300476Y-81574211D01*
X167147736Y-81670185D01*
X167144903Y-81672445D01*
X167142724Y-81673334D01*
X167141842Y-81673889D01*
X167141744Y-81673734D01*
X167080217Y-81698855D01*
X167067588Y-81699500D01*
X161086669Y-81699500D01*
X161086653Y-81699499D01*
X161079057Y-81699499D01*
X160920943Y-81699499D01*
X160841010Y-81720917D01*
X160768216Y-81740422D01*
X160735038Y-81759578D01*
X160735037Y-81759577D01*
X160631287Y-81819477D01*
X160631282Y-81819481D01*
X160519478Y-81931286D01*
X153787584Y-88663181D01*
X153726261Y-88696666D01*
X153699903Y-88699500D01*
X139232412Y-88699500D01*
X139165373Y-88679815D01*
X139155097Y-88672445D01*
X139152263Y-88670185D01*
X139152262Y-88670184D01*
X139095496Y-88634515D01*
X138999523Y-88574211D01*
X138829254Y-88514631D01*
X138829249Y-88514630D01*
X138650004Y-88494435D01*
X138649996Y-88494435D01*
X138470750Y-88514630D01*
X138470745Y-88514631D01*
X138300476Y-88574211D01*
X138147737Y-88670184D01*
X138020184Y-88797737D01*
X137924211Y-88950476D01*
X137864631Y-89120745D01*
X137864630Y-89120750D01*
X137844435Y-89299996D01*
X94500499Y-89299996D01*
X94500499Y-76499996D01*
X123894435Y-76499996D01*
X123894435Y-76500003D01*
X123914630Y-76679249D01*
X123914631Y-76679254D01*
X123974211Y-76849523D01*
X124067341Y-76997737D01*
X124070184Y-77002262D01*
X124197738Y-77129816D01*
X124350478Y-77225789D01*
X124520745Y-77285368D01*
X124607669Y-77295161D01*
X124672080Y-77322226D01*
X124681465Y-77330700D01*
X134015139Y-86664374D01*
X134015149Y-86664385D01*
X134019479Y-86668715D01*
X134019480Y-86668716D01*
X134131284Y-86780520D01*
X134218095Y-86830639D01*
X134218097Y-86830641D01*
X134256151Y-86852611D01*
X134268215Y-86859577D01*
X134420943Y-86900501D01*
X134420946Y-86900501D01*
X134586653Y-86900501D01*
X134586669Y-86900500D01*
X152217588Y-86900500D01*
X152284627Y-86920185D01*
X152294903Y-86927555D01*
X152297736Y-86929814D01*
X152297738Y-86929816D01*
X152450478Y-87025789D01*
X152620745Y-87085368D01*
X152620750Y-87085369D01*
X152799996Y-87105565D01*
X152800000Y-87105565D01*
X152800004Y-87105565D01*
X152979249Y-87085369D01*
X152979252Y-87085368D01*
X152979255Y-87085368D01*
X153149522Y-87025789D01*
X153302262Y-86929816D01*
X153429816Y-86802262D01*
X153525789Y-86649522D01*
X153585368Y-86479255D01*
X153605565Y-86300000D01*
X153585368Y-86120745D01*
X153525789Y-85950478D01*
X153429816Y-85797738D01*
X153302262Y-85670184D01*
X153291117Y-85663181D01*
X153149523Y-85574211D01*
X152979254Y-85514631D01*
X152979249Y-85514630D01*
X152800004Y-85494435D01*
X152799996Y-85494435D01*
X152620750Y-85514630D01*
X152620745Y-85514631D01*
X152450476Y-85574211D01*
X152297736Y-85670185D01*
X152294903Y-85672445D01*
X152292724Y-85673334D01*
X152291842Y-85673889D01*
X152291744Y-85673734D01*
X152230217Y-85698855D01*
X152217588Y-85699500D01*
X134800097Y-85699500D01*
X134733058Y-85679815D01*
X134712416Y-85663181D01*
X127649231Y-78599996D01*
X130094435Y-78599996D01*
X130094435Y-78600003D01*
X130114630Y-78779249D01*
X130114631Y-78779254D01*
X130174211Y-78949523D01*
X130270182Y-79102259D01*
X130272441Y-79105091D01*
X130273330Y-79107268D01*
X130273889Y-79108158D01*
X130273733Y-79108255D01*
X130298854Y-79169776D01*
X130299219Y-79176929D01*
X130299498Y-79179054D01*
X130340423Y-79331785D01*
X130369358Y-79381900D01*
X130369359Y-79381904D01*
X130369360Y-79381904D01*
X130419479Y-79468714D01*
X130419481Y-79468717D01*
X130538349Y-79587585D01*
X130538354Y-79587589D01*
X135731284Y-84780520D01*
X135731286Y-84780521D01*
X135731290Y-84780524D01*
X135868209Y-84859573D01*
X135868216Y-84859577D01*
X136020943Y-84900501D01*
X136020945Y-84900501D01*
X136186654Y-84900501D01*
X136186670Y-84900500D01*
X152217588Y-84900500D01*
X152284627Y-84920185D01*
X152294903Y-84927555D01*
X152297736Y-84929814D01*
X152297738Y-84929816D01*
X152450478Y-85025789D01*
X152620745Y-85085368D01*
X152620750Y-85085369D01*
X152799996Y-85105565D01*
X152800000Y-85105565D01*
X152800004Y-85105565D01*
X152979249Y-85085369D01*
X152979252Y-85085368D01*
X152979255Y-85085368D01*
X153149522Y-85025789D01*
X153302262Y-84929816D01*
X153429816Y-84802262D01*
X153525789Y-84649522D01*
X153585368Y-84479255D01*
X153605565Y-84300000D01*
X153585368Y-84120745D01*
X153525789Y-83950478D01*
X153429816Y-83797738D01*
X153302262Y-83670184D01*
X153291117Y-83663181D01*
X153149523Y-83574211D01*
X152979254Y-83514631D01*
X152979249Y-83514630D01*
X152800004Y-83494435D01*
X152799996Y-83494435D01*
X152620750Y-83514630D01*
X152620745Y-83514631D01*
X152450476Y-83574211D01*
X152297736Y-83670185D01*
X152294903Y-83672445D01*
X152292724Y-83673334D01*
X152291842Y-83673889D01*
X152291744Y-83673734D01*
X152230217Y-83698855D01*
X152217588Y-83699500D01*
X136400098Y-83699500D01*
X136333059Y-83679815D01*
X136312417Y-83663181D01*
X131673875Y-79024640D01*
X131640390Y-78963317D01*
X131644514Y-78896006D01*
X131685368Y-78779255D01*
X131699985Y-78649523D01*
X131705565Y-78600003D01*
X131705565Y-78599996D01*
X131685369Y-78420750D01*
X131685368Y-78420745D01*
X131645065Y-78305565D01*
X131643116Y-78299996D01*
X132764435Y-78299996D01*
X132764435Y-78300003D01*
X132784630Y-78479249D01*
X132784631Y-78479254D01*
X132844211Y-78649523D01*
X132925724Y-78779249D01*
X132940184Y-78802262D01*
X133067738Y-78929816D01*
X133220478Y-79025789D01*
X133356937Y-79073537D01*
X133403663Y-79102898D01*
X136915139Y-82614374D01*
X136915149Y-82614385D01*
X136919479Y-82618715D01*
X136919480Y-82618716D01*
X137031284Y-82730520D01*
X137031286Y-82730521D01*
X137031290Y-82730524D01*
X137117886Y-82780520D01*
X137117887Y-82780520D01*
X137168215Y-82809577D01*
X137320943Y-82850501D01*
X137320946Y-82850501D01*
X137486653Y-82850501D01*
X137486669Y-82850500D01*
X152217588Y-82850500D01*
X152284627Y-82870185D01*
X152294903Y-82877555D01*
X152297736Y-82879814D01*
X152297738Y-82879816D01*
X152450478Y-82975789D01*
X152593367Y-83025788D01*
X152620745Y-83035368D01*
X152620750Y-83035369D01*
X152799996Y-83055565D01*
X152800000Y-83055565D01*
X152800004Y-83055565D01*
X152979249Y-83035369D01*
X152979252Y-83035368D01*
X152979255Y-83035368D01*
X153149522Y-82975789D01*
X153302262Y-82879816D01*
X153429816Y-82752262D01*
X153525789Y-82599522D01*
X153585368Y-82429255D01*
X153599931Y-82300003D01*
X153605565Y-82250003D01*
X153605565Y-82249996D01*
X153585369Y-82070750D01*
X153585368Y-82070745D01*
X153525788Y-81900476D01*
X153474895Y-81819481D01*
X153429816Y-81747738D01*
X153302262Y-81620184D01*
X153233553Y-81577011D01*
X153149523Y-81524211D01*
X152979254Y-81464631D01*
X152979249Y-81464630D01*
X152800004Y-81444435D01*
X152799996Y-81444435D01*
X152620750Y-81464630D01*
X152620745Y-81464631D01*
X152450476Y-81524211D01*
X152297736Y-81620185D01*
X152294903Y-81622445D01*
X152292724Y-81623334D01*
X152291842Y-81623889D01*
X152291744Y-81623734D01*
X152230217Y-81648855D01*
X152217588Y-81649500D01*
X147465567Y-81649500D01*
X147398528Y-81629815D01*
X147352773Y-81577011D01*
X147342829Y-81507853D01*
X147348526Y-81484545D01*
X147385366Y-81379262D01*
X147385369Y-81379249D01*
X147405565Y-81200003D01*
X147405565Y-81199996D01*
X147385369Y-81020750D01*
X147385368Y-81020745D01*
X147325788Y-80850476D01*
X147229813Y-80697734D01*
X147227550Y-80694896D01*
X147226659Y-80692715D01*
X147226111Y-80691842D01*
X147226264Y-80691745D01*
X147201144Y-80630209D01*
X147200500Y-80617587D01*
X147200500Y-80089059D01*
X147200501Y-80089046D01*
X147200501Y-79920945D01*
X147200501Y-79920943D01*
X147159577Y-79768215D01*
X147130639Y-79718095D01*
X147080520Y-79631284D01*
X146968716Y-79519480D01*
X146968715Y-79519479D01*
X146964385Y-79515149D01*
X146964374Y-79515139D01*
X144587590Y-77138355D01*
X144587588Y-77138352D01*
X144468717Y-77019481D01*
X144468709Y-77019475D01*
X144366936Y-76960717D01*
X144366934Y-76960716D01*
X144331790Y-76940425D01*
X144331789Y-76940424D01*
X144319263Y-76937067D01*
X144179057Y-76899499D01*
X144020943Y-76899499D01*
X144013347Y-76899499D01*
X144013331Y-76899500D01*
X136782412Y-76899500D01*
X136715373Y-76879815D01*
X136705097Y-76872445D01*
X136702263Y-76870185D01*
X136702262Y-76870184D01*
X136645496Y-76834515D01*
X136549523Y-76774211D01*
X136379254Y-76714631D01*
X136379249Y-76714630D01*
X136200004Y-76694435D01*
X136199996Y-76694435D01*
X136020750Y-76714630D01*
X136020745Y-76714631D01*
X135850476Y-76774211D01*
X135697737Y-76870184D01*
X135570184Y-76997737D01*
X135474211Y-77150476D01*
X135414631Y-77320745D01*
X135414630Y-77320750D01*
X135394435Y-77499996D01*
X135394435Y-77500003D01*
X135414630Y-77679249D01*
X135414631Y-77679254D01*
X135474211Y-77849523D01*
X135537646Y-77950478D01*
X135570184Y-78002262D01*
X135697738Y-78129816D01*
X135850478Y-78225789D01*
X136020745Y-78285368D01*
X136020750Y-78285369D01*
X136199996Y-78305565D01*
X136200000Y-78305565D01*
X136200004Y-78305565D01*
X136379249Y-78285369D01*
X136379252Y-78285368D01*
X136379255Y-78285368D01*
X136549522Y-78225789D01*
X136702262Y-78129816D01*
X136702267Y-78129810D01*
X136705097Y-78127555D01*
X136707275Y-78126665D01*
X136708158Y-78126111D01*
X136708255Y-78126265D01*
X136769783Y-78101145D01*
X136782412Y-78100500D01*
X143799903Y-78100500D01*
X143866942Y-78120185D01*
X143887584Y-78136819D01*
X145963181Y-80212416D01*
X145996666Y-80273739D01*
X145999500Y-80300097D01*
X145999500Y-80617587D01*
X145979815Y-80684626D01*
X145972450Y-80694896D01*
X145970186Y-80697734D01*
X145874211Y-80850476D01*
X145814631Y-81020745D01*
X145814630Y-81020750D01*
X145794435Y-81199996D01*
X145794435Y-81200003D01*
X145814630Y-81379249D01*
X145814633Y-81379262D01*
X145851474Y-81484545D01*
X145855036Y-81554324D01*
X145820308Y-81614951D01*
X145758314Y-81647179D01*
X145734433Y-81649500D01*
X137700097Y-81649500D01*
X137633058Y-81629815D01*
X137612416Y-81613181D01*
X134410060Y-78410825D01*
X134376575Y-78349502D01*
X134374522Y-78309252D01*
X134375565Y-78300000D01*
X134375565Y-78299997D01*
X134355369Y-78120750D01*
X134355368Y-78120745D01*
X134348284Y-78100500D01*
X134295789Y-77950478D01*
X134199816Y-77797738D01*
X134072262Y-77670184D01*
X133919523Y-77574211D01*
X133749254Y-77514631D01*
X133749249Y-77514630D01*
X133570004Y-77494435D01*
X133569996Y-77494435D01*
X133390750Y-77514630D01*
X133390745Y-77514631D01*
X133220476Y-77574211D01*
X133067737Y-77670184D01*
X132940184Y-77797737D01*
X132844211Y-77950476D01*
X132784631Y-78120745D01*
X132784630Y-78120750D01*
X132764435Y-78299996D01*
X131643116Y-78299996D01*
X131625789Y-78250478D01*
X131529816Y-78097738D01*
X131402262Y-77970184D01*
X131370897Y-77950476D01*
X131249523Y-77874211D01*
X131079254Y-77814631D01*
X131079249Y-77814630D01*
X130900004Y-77794435D01*
X130899996Y-77794435D01*
X130720750Y-77814630D01*
X130720745Y-77814631D01*
X130550476Y-77874211D01*
X130397737Y-77970184D01*
X130270184Y-78097737D01*
X130174211Y-78250476D01*
X130114631Y-78420745D01*
X130114630Y-78420750D01*
X130094435Y-78599996D01*
X127649231Y-78599996D01*
X125530700Y-76481465D01*
X125497215Y-76420142D01*
X125495163Y-76407686D01*
X125485368Y-76320745D01*
X125425789Y-76150478D01*
X125329816Y-75997738D01*
X125202262Y-75870184D01*
X125049523Y-75774211D01*
X124879254Y-75714631D01*
X124879249Y-75714630D01*
X124700004Y-75694435D01*
X124699996Y-75694435D01*
X124520750Y-75714630D01*
X124520745Y-75714631D01*
X124350476Y-75774211D01*
X124197737Y-75870184D01*
X124070184Y-75997737D01*
X123974211Y-76150476D01*
X123914631Y-76320745D01*
X123914630Y-76320750D01*
X123894435Y-76499996D01*
X94500499Y-76499996D01*
X94500499Y-69439999D01*
X95694341Y-69439999D01*
X95694341Y-69440000D01*
X95714936Y-69675403D01*
X95714938Y-69675413D01*
X95776094Y-69903655D01*
X95776096Y-69903659D01*
X95776097Y-69903663D01*
X95853748Y-70070185D01*
X95875965Y-70117830D01*
X95875967Y-70117834D01*
X96011501Y-70311395D01*
X96011506Y-70311402D01*
X96178597Y-70478493D01*
X96178603Y-70478498D01*
X96364157Y-70608424D01*
X96407782Y-70663001D01*
X96414976Y-70732499D01*
X96383453Y-70794854D01*
X96364158Y-70811574D01*
X96178594Y-70941507D01*
X96011505Y-71108596D01*
X95875965Y-71302168D01*
X95875964Y-71302170D01*
X95776098Y-71516334D01*
X95776094Y-71516343D01*
X95714938Y-71744585D01*
X95714936Y-71744595D01*
X95694341Y-71979998D01*
X95694341Y-71979999D01*
X95714936Y-72215402D01*
X95714938Y-72215412D01*
X95776094Y-72443654D01*
X95776096Y-72443658D01*
X95776097Y-72443662D01*
X95875965Y-72657829D01*
X95875967Y-72657833D01*
X95975848Y-72800476D01*
X96011505Y-72851400D01*
X96178599Y-73018494D01*
X96275384Y-73086264D01*
X96372165Y-73154031D01*
X96372167Y-73154032D01*
X96372170Y-73154034D01*
X96586337Y-73253902D01*
X96814592Y-73315062D01*
X97002918Y-73331538D01*
X97049999Y-73335658D01*
X97050000Y-73335658D01*
X97050001Y-73335658D01*
X97089234Y-73332225D01*
X97285408Y-73315062D01*
X97513663Y-73253902D01*
X97727830Y-73154034D01*
X97921401Y-73018494D01*
X98088495Y-72851400D01*
X98224035Y-72657829D01*
X98310644Y-72472093D01*
X98356816Y-72419656D01*
X98423026Y-72400500D01*
X125949903Y-72400500D01*
X126016942Y-72420185D01*
X126037584Y-72436819D01*
X126476123Y-72875359D01*
X126509608Y-72936682D01*
X126505484Y-73003994D01*
X126464632Y-73120742D01*
X126464630Y-73120750D01*
X126444435Y-73299996D01*
X126444435Y-73300003D01*
X126464630Y-73479249D01*
X126464631Y-73479254D01*
X126524211Y-73649523D01*
X126606080Y-73779815D01*
X126620184Y-73802262D01*
X126747738Y-73929816D01*
X126900478Y-74025789D01*
X127070745Y-74085368D01*
X127070750Y-74085369D01*
X127249996Y-74105565D01*
X127250000Y-74105565D01*
X127250004Y-74105565D01*
X127429249Y-74085369D01*
X127429252Y-74085368D01*
X127429255Y-74085368D01*
X127599522Y-74025789D01*
X127752262Y-73929816D01*
X127865324Y-73816753D01*
X127926643Y-73783271D01*
X127996335Y-73788255D01*
X128018974Y-73799443D01*
X128046527Y-73816756D01*
X128140478Y-73875789D01*
X128294878Y-73929816D01*
X128310745Y-73935368D01*
X128310750Y-73935369D01*
X128489996Y-73955565D01*
X128490000Y-73955565D01*
X128490004Y-73955565D01*
X128669249Y-73935369D01*
X128669252Y-73935368D01*
X128669255Y-73935368D01*
X128839522Y-73875789D01*
X128992262Y-73779816D01*
X129119816Y-73652262D01*
X129215789Y-73499522D01*
X129275368Y-73329255D01*
X129276967Y-73315062D01*
X129295565Y-73150003D01*
X129295565Y-73149996D01*
X129275369Y-72970750D01*
X129275368Y-72970745D01*
X129215788Y-72800476D01*
X129126159Y-72657833D01*
X129119816Y-72647738D01*
X129119814Y-72647736D01*
X129119813Y-72647734D01*
X129117550Y-72644896D01*
X129116659Y-72642715D01*
X129116111Y-72641842D01*
X129116264Y-72641745D01*
X129091144Y-72580209D01*
X129090500Y-72567587D01*
X129090500Y-71610945D01*
X129090500Y-71610943D01*
X129049577Y-71458216D01*
X129034028Y-71431284D01*
X128970524Y-71321290D01*
X128970521Y-71321286D01*
X128970520Y-71321284D01*
X128858716Y-71209480D01*
X128858715Y-71209479D01*
X128854385Y-71205149D01*
X128854374Y-71205139D01*
X126737590Y-69088355D01*
X126737588Y-69088352D01*
X126618717Y-68969481D01*
X126618716Y-68969480D01*
X126531904Y-68919360D01*
X126531904Y-68919359D01*
X126531900Y-68919358D01*
X126481785Y-68890423D01*
X126329057Y-68849499D01*
X126170943Y-68849499D01*
X126163347Y-68849499D01*
X126163331Y-68849500D01*
X98343754Y-68849500D01*
X98276715Y-68829815D01*
X98231373Y-68777906D01*
X98224038Y-68762178D01*
X98224035Y-68762171D01*
X98088495Y-68568599D01*
X97966567Y-68446671D01*
X97933084Y-68385351D01*
X97938068Y-68315659D01*
X97979939Y-68259725D01*
X98010915Y-68242810D01*
X98142331Y-68193796D01*
X98257546Y-68107546D01*
X98343796Y-67992331D01*
X98394091Y-67857483D01*
X98400500Y-67797873D01*
X98400499Y-66102135D01*
X127569500Y-66102135D01*
X127569500Y-67897870D01*
X127569501Y-67897876D01*
X127575908Y-67957483D01*
X127626202Y-68092328D01*
X127626206Y-68092335D01*
X127712452Y-68207544D01*
X127712455Y-68207547D01*
X127827664Y-68293793D01*
X127827671Y-68293797D01*
X127962517Y-68344091D01*
X127962516Y-68344091D01*
X127969444Y-68344835D01*
X128022127Y-68350500D01*
X129817872Y-68350499D01*
X129877483Y-68344091D01*
X130012331Y-68293796D01*
X130127546Y-68207546D01*
X130213796Y-68092331D01*
X130264091Y-67957483D01*
X130270500Y-67897873D01*
X130270499Y-66999999D01*
X132644341Y-66999999D01*
X132644341Y-67000000D01*
X132664936Y-67235403D01*
X132664938Y-67235413D01*
X132726094Y-67463655D01*
X132726096Y-67463659D01*
X132726097Y-67463663D01*
X132730000Y-67472032D01*
X132825965Y-67677830D01*
X132825967Y-67677834D01*
X132910014Y-67797864D01*
X132961505Y-67871401D01*
X133128599Y-68038495D01*
X133225384Y-68106265D01*
X133322165Y-68174032D01*
X133322167Y-68174033D01*
X133322170Y-68174035D01*
X133536337Y-68273903D01*
X133536343Y-68273904D01*
X133536344Y-68273905D01*
X133591285Y-68288626D01*
X133764592Y-68335063D01*
X133941034Y-68350500D01*
X133999999Y-68355659D01*
X134000000Y-68355659D01*
X134000001Y-68355659D01*
X134058966Y-68350500D01*
X134235408Y-68335063D01*
X134463663Y-68273903D01*
X134677830Y-68174035D01*
X134871401Y-68038495D01*
X135038495Y-67871401D01*
X135168425Y-67685842D01*
X135223002Y-67642217D01*
X135292500Y-67635023D01*
X135354855Y-67666546D01*
X135371575Y-67685842D01*
X135501500Y-67871395D01*
X135501505Y-67871401D01*
X135668599Y-68038495D01*
X135765384Y-68106265D01*
X135862165Y-68174032D01*
X135862167Y-68174033D01*
X135862170Y-68174035D01*
X136076337Y-68273903D01*
X136076343Y-68273904D01*
X136076344Y-68273905D01*
X136131285Y-68288626D01*
X136304592Y-68335063D01*
X136481034Y-68350500D01*
X136539999Y-68355659D01*
X136540000Y-68355659D01*
X136540001Y-68355659D01*
X136598966Y-68350500D01*
X136775408Y-68335063D01*
X137003663Y-68273903D01*
X137217830Y-68174035D01*
X137411401Y-68038495D01*
X137578495Y-67871401D01*
X137714035Y-67677830D01*
X137813903Y-67463663D01*
X137875063Y-67235408D01*
X137895659Y-67000000D01*
X137875063Y-66764592D01*
X137813903Y-66536337D01*
X137714035Y-66322171D01*
X137708425Y-66314158D01*
X137578494Y-66128597D01*
X137411402Y-65961506D01*
X137411395Y-65961501D01*
X137217834Y-65825967D01*
X137217830Y-65825965D01*
X137217828Y-65825964D01*
X137003663Y-65726097D01*
X137003659Y-65726096D01*
X137003655Y-65726094D01*
X136775413Y-65664938D01*
X136775403Y-65664936D01*
X136540001Y-65644341D01*
X136539999Y-65644341D01*
X136304596Y-65664936D01*
X136304586Y-65664938D01*
X136076344Y-65726094D01*
X136076335Y-65726098D01*
X135862171Y-65825964D01*
X135862169Y-65825965D01*
X135668597Y-65961505D01*
X135501505Y-66128597D01*
X135371575Y-66314158D01*
X135316998Y-66357783D01*
X135247500Y-66364977D01*
X135185145Y-66333454D01*
X135168425Y-66314158D01*
X135038494Y-66128597D01*
X134871402Y-65961506D01*
X134871395Y-65961501D01*
X134677834Y-65825967D01*
X134677830Y-65825965D01*
X134677828Y-65825964D01*
X134463663Y-65726097D01*
X134463659Y-65726096D01*
X134463655Y-65726094D01*
X134235413Y-65664938D01*
X134235403Y-65664936D01*
X134000001Y-65644341D01*
X133999999Y-65644341D01*
X133764596Y-65664936D01*
X133764586Y-65664938D01*
X133536344Y-65726094D01*
X133536335Y-65726098D01*
X133322171Y-65825964D01*
X133322169Y-65825965D01*
X133128597Y-65961505D01*
X132961505Y-66128597D01*
X132825965Y-66322169D01*
X132825964Y-66322171D01*
X132726098Y-66536335D01*
X132726094Y-66536344D01*
X132664938Y-66764586D01*
X132664936Y-66764596D01*
X132644341Y-66999999D01*
X130270499Y-66999999D01*
X130270499Y-66102128D01*
X130264091Y-66042517D01*
X130249027Y-66002129D01*
X130213797Y-65907671D01*
X130213793Y-65907664D01*
X130127547Y-65792455D01*
X130127544Y-65792452D01*
X130012335Y-65706206D01*
X130012328Y-65706202D01*
X129877482Y-65655908D01*
X129877483Y-65655908D01*
X129817883Y-65649501D01*
X129817881Y-65649500D01*
X129817873Y-65649500D01*
X129817864Y-65649500D01*
X128022129Y-65649500D01*
X128022123Y-65649501D01*
X127962516Y-65655908D01*
X127827671Y-65706202D01*
X127827664Y-65706206D01*
X127712455Y-65792452D01*
X127712452Y-65792455D01*
X127626206Y-65907664D01*
X127626202Y-65907671D01*
X127575908Y-66042517D01*
X127573036Y-66069236D01*
X127569501Y-66102123D01*
X127569500Y-66102135D01*
X98400499Y-66102135D01*
X98400499Y-66002128D01*
X98394091Y-65942517D01*
X98381094Y-65907671D01*
X98343797Y-65807671D01*
X98343793Y-65807664D01*
X98257547Y-65692455D01*
X98257544Y-65692452D01*
X98142335Y-65606206D01*
X98142328Y-65606202D01*
X98007482Y-65555908D01*
X98007483Y-65555908D01*
X97947883Y-65549501D01*
X97947881Y-65549500D01*
X97947873Y-65549500D01*
X97947864Y-65549500D01*
X96152129Y-65549500D01*
X96152123Y-65549501D01*
X96092516Y-65555908D01*
X95957671Y-65606202D01*
X95957664Y-65606206D01*
X95842455Y-65692452D01*
X95842452Y-65692455D01*
X95756206Y-65807664D01*
X95756202Y-65807671D01*
X95705908Y-65942517D01*
X95703867Y-65961505D01*
X95699501Y-66002123D01*
X95699500Y-66002135D01*
X95699500Y-67797870D01*
X95699501Y-67797876D01*
X95705908Y-67857483D01*
X95756202Y-67992328D01*
X95756206Y-67992335D01*
X95842452Y-68107544D01*
X95842455Y-68107547D01*
X95957664Y-68193793D01*
X95957671Y-68193797D01*
X96089081Y-68242810D01*
X96145015Y-68284681D01*
X96169432Y-68350145D01*
X96154580Y-68418418D01*
X96133430Y-68446673D01*
X96011503Y-68568600D01*
X95875965Y-68762169D01*
X95875964Y-68762171D01*
X95802667Y-68919358D01*
X95779295Y-68969480D01*
X95776098Y-68976335D01*
X95776094Y-68976344D01*
X95714938Y-69204586D01*
X95714936Y-69204596D01*
X95694341Y-69439999D01*
X94500499Y-69439999D01*
X94500499Y-66504427D01*
X94500815Y-66495581D01*
X94510156Y-66364977D01*
X94515129Y-66295436D01*
X94517645Y-66277938D01*
X94559355Y-66086199D01*
X94564332Y-66069248D01*
X94632910Y-65885385D01*
X94640258Y-65869298D01*
X94734293Y-65697083D01*
X94743849Y-65682214D01*
X94861442Y-65525128D01*
X94873016Y-65511771D01*
X95011770Y-65373017D01*
X95025127Y-65361443D01*
X95182213Y-65243850D01*
X95197082Y-65234294D01*
X95369309Y-65140251D01*
X95385378Y-65132912D01*
X95569248Y-65064332D01*
X95586199Y-65059355D01*
X95777938Y-65017645D01*
X95795437Y-65015129D01*
X95969236Y-65002698D01*
X95995555Y-65000816D01*
X96004401Y-65000500D01*
X96117246Y-65000500D01*
X96117255Y-65000499D01*
X171995571Y-65000499D01*
X172004417Y-65000815D01*
G37*
%TD.AperFunction*%
%TD*%
%TA.AperFunction,Conductor*%
%TO.N,+3V3*%
G36*
X167765677Y-94169685D02*
G01*
X167786319Y-94186319D01*
X167813681Y-94213681D01*
X167847166Y-94275004D01*
X167850000Y-94301362D01*
X167850000Y-95773364D01*
X167830315Y-95840403D01*
X167781454Y-95884273D01*
X167776182Y-95886909D01*
X167720728Y-95900000D01*
X166979272Y-95900000D01*
X166923818Y-95886909D01*
X166918546Y-95884273D01*
X166867387Y-95836686D01*
X166850000Y-95773364D01*
X166850000Y-94301362D01*
X166869685Y-94234323D01*
X166886319Y-94213681D01*
X166913681Y-94186319D01*
X166975004Y-94152834D01*
X167001362Y-94150000D01*
X167698638Y-94150000D01*
X167765677Y-94169685D01*
G37*
%TD.AperFunction*%
%TD*%
M02*
