%TF.GenerationSoftware,KiCad,Pcbnew,8.0.5*%
%TF.CreationDate,2024-11-10T21:17:35+07:00*%
%TF.ProjectId,PCB_MASTER,5043425f-4d41-4535-9445-522e6b696361,rev?*%
%TF.SameCoordinates,Original*%
%TF.FileFunction,Paste,Top*%
%TF.FilePolarity,Positive*%
%FSLAX46Y46*%
G04 Gerber Fmt 4.6, Leading zero omitted, Abs format (unit mm)*
G04 Created by KiCad (PCBNEW 8.0.5) date 2024-11-10 21:17:35*
%MOMM*%
%LPD*%
G01*
G04 APERTURE LIST*
G04 Aperture macros list*
%AMRoundRect*
0 Rectangle with rounded corners*
0 $1 Rounding radius*
0 $2 $3 $4 $5 $6 $7 $8 $9 X,Y pos of 4 corners*
0 Add a 4 corners polygon primitive as box body*
4,1,4,$2,$3,$4,$5,$6,$7,$8,$9,$2,$3,0*
0 Add four circle primitives for the rounded corners*
1,1,$1+$1,$2,$3*
1,1,$1+$1,$4,$5*
1,1,$1+$1,$6,$7*
1,1,$1+$1,$8,$9*
0 Add four rect primitives between the rounded corners*
20,1,$1+$1,$2,$3,$4,$5,0*
20,1,$1+$1,$4,$5,$6,$7,0*
20,1,$1+$1,$6,$7,$8,$9,0*
20,1,$1+$1,$8,$9,$2,$3,0*%
G04 Aperture macros list end*
%ADD10RoundRect,0.200000X-0.200000X-0.275000X0.200000X-0.275000X0.200000X0.275000X-0.200000X0.275000X0*%
%ADD11RoundRect,0.225000X-0.250000X0.225000X-0.250000X-0.225000X0.250000X-0.225000X0.250000X0.225000X0*%
%ADD12RoundRect,0.218750X0.218750X0.256250X-0.218750X0.256250X-0.218750X-0.256250X0.218750X-0.256250X0*%
%ADD13RoundRect,0.250000X0.525000X0.250000X-0.525000X0.250000X-0.525000X-0.250000X0.525000X-0.250000X0*%
%ADD14RoundRect,0.200000X0.275000X-0.200000X0.275000X0.200000X-0.275000X0.200000X-0.275000X-0.200000X0*%
%ADD15R,0.900000X1.500000*%
%ADD16R,1.500000X0.900000*%
%ADD17R,0.900000X0.900000*%
%ADD18R,2.800000X1.100000*%
%ADD19R,2.600000X1.100000*%
%ADD20RoundRect,0.218750X0.256250X-0.218750X0.256250X0.218750X-0.256250X0.218750X-0.256250X-0.218750X0*%
%ADD21RoundRect,0.175000X-0.425000X0.175000X-0.425000X-0.175000X0.425000X-0.175000X0.425000X0.175000X0*%
%ADD22RoundRect,0.190000X0.410000X-0.190000X0.410000X0.190000X-0.410000X0.190000X-0.410000X-0.190000X0*%
%ADD23RoundRect,0.200000X0.400000X-0.200000X0.400000X0.200000X-0.400000X0.200000X-0.400000X-0.200000X0*%
%ADD24RoundRect,0.175000X0.425000X-0.175000X0.425000X0.175000X-0.425000X0.175000X-0.425000X-0.175000X0*%
%ADD25RoundRect,0.190000X-0.410000X0.190000X-0.410000X-0.190000X0.410000X-0.190000X0.410000X0.190000X0*%
%ADD26RoundRect,0.200000X-0.400000X0.200000X-0.400000X-0.200000X0.400000X-0.200000X0.400000X0.200000X0*%
%ADD27O,1.700000X1.100000*%
%ADD28RoundRect,0.250000X0.425000X-0.450000X0.425000X0.450000X-0.425000X0.450000X-0.425000X-0.450000X0*%
%ADD29RoundRect,0.225000X-0.225000X-0.250000X0.225000X-0.250000X0.225000X0.250000X-0.225000X0.250000X0*%
%ADD30RoundRect,0.225000X0.250000X-0.225000X0.250000X0.225000X-0.250000X0.225000X-0.250000X-0.225000X0*%
%ADD31RoundRect,0.375000X-0.375000X0.625000X-0.375000X-0.625000X0.375000X-0.625000X0.375000X0.625000X0*%
%ADD32RoundRect,0.500000X-1.400000X0.500000X-1.400000X-0.500000X1.400000X-0.500000X1.400000X0.500000X0*%
G04 APERTURE END LIST*
D10*
%TO.C,R2*%
X159850000Y-96150000D03*
X161500000Y-96150000D03*
%TD*%
D11*
%TO.C,C10*%
X136600000Y-105525000D03*
X136600000Y-107075000D03*
%TD*%
D12*
%TO.C,D1*%
X165087501Y-96150000D03*
X163512499Y-96150000D03*
%TD*%
D13*
%TO.C,SW1*%
X112772243Y-107875000D03*
X107522243Y-107875000D03*
X112772243Y-104875000D03*
X107522243Y-104875000D03*
%TD*%
D14*
%TO.C,R4*%
X130500000Y-107125000D03*
X130500000Y-105475000D03*
%TD*%
%TO.C,R7*%
X161300000Y-107125000D03*
X161300000Y-105475000D03*
%TD*%
D12*
%TO.C,D3*%
X165112501Y-99910000D03*
X163537499Y-99910000D03*
%TD*%
D15*
%TO.C,U1*%
X123410000Y-92700000D03*
X124680000Y-92700000D03*
X125950000Y-92700000D03*
X127220000Y-92700000D03*
X128490000Y-92700000D03*
X129760000Y-92700000D03*
X131030000Y-92700000D03*
X132300000Y-92700000D03*
X133570000Y-92700000D03*
X134840000Y-92700000D03*
X136110000Y-92700000D03*
X137380000Y-92700000D03*
X138650000Y-92700000D03*
X139920000Y-92700000D03*
D16*
X141170000Y-89665000D03*
X141170000Y-88395000D03*
X141170000Y-87125000D03*
X141170000Y-85855000D03*
X141170000Y-84585000D03*
X141170000Y-83315000D03*
X141170000Y-82045000D03*
X141170000Y-80775000D03*
X141170000Y-79505000D03*
X141170000Y-78235000D03*
D15*
X139920000Y-75200000D03*
X138650000Y-75200000D03*
X137380000Y-75200000D03*
X136110000Y-75200000D03*
X134840000Y-75200000D03*
X133570000Y-75200000D03*
X132300000Y-75200000D03*
X131030000Y-75200000D03*
X129760000Y-75200000D03*
X128490000Y-75200000D03*
X127220000Y-75200000D03*
X125950000Y-75200000D03*
X124680000Y-75200000D03*
X123410000Y-75200000D03*
D17*
X130750000Y-85450000D03*
X130750000Y-86850000D03*
X132150000Y-86850000D03*
X132150000Y-85450000D03*
X132150000Y-84050000D03*
X130750000Y-84050000D03*
X129350000Y-84050000D03*
X129350000Y-85450000D03*
X129350000Y-86850000D03*
%TD*%
D18*
%TO.C,U3*%
X170400000Y-90300000D03*
D19*
X170500000Y-88300000D03*
X170500000Y-86300000D03*
X170500000Y-84300000D03*
X170500000Y-82300000D03*
X170500000Y-80300000D03*
X170500000Y-78300000D03*
X170500000Y-76300000D03*
X155100000Y-76300000D03*
X155100000Y-78300000D03*
X155100000Y-80300000D03*
X155100000Y-82300000D03*
X155100000Y-84300000D03*
X155100000Y-86300000D03*
X155100000Y-88300000D03*
X155100000Y-90300000D03*
%TD*%
D20*
%TO.C,D2*%
X104005359Y-91859562D03*
X104005359Y-90284560D03*
%TD*%
D21*
%TO.C,J3*%
X100479999Y-87000000D03*
D22*
X100480000Y-89020000D03*
D23*
X100480000Y-90250000D03*
D24*
X100479999Y-88000000D03*
D25*
X100480000Y-85980000D03*
D26*
X100480000Y-84750000D03*
D27*
X100400000Y-83180000D03*
X96600000Y-83180000D03*
X100400000Y-91820000D03*
X96600000Y-91820000D03*
%TD*%
D28*
%TO.C,C7*%
X116350000Y-91800000D03*
X116350000Y-89100000D03*
%TD*%
D13*
%TO.C,SW4*%
X143938984Y-107875000D03*
X138688984Y-107875000D03*
X143938984Y-104875000D03*
X138688984Y-104875000D03*
%TD*%
D11*
%TO.C,C9*%
X151804122Y-105567989D03*
X151804122Y-107117989D03*
%TD*%
D14*
%TO.C,R5*%
X105955359Y-91897061D03*
X105955359Y-90247061D03*
%TD*%
D29*
%TO.C,C3*%
X123125000Y-97800000D03*
X124675000Y-97800000D03*
%TD*%
D28*
%TO.C,C6*%
X104300000Y-85650000D03*
X104300000Y-82950000D03*
%TD*%
D13*
%TO.C,SW3*%
X159118690Y-107875000D03*
X153868690Y-107875000D03*
X159118690Y-104875000D03*
X153868690Y-104875000D03*
%TD*%
%TO.C,SW2*%
X128266668Y-107875000D03*
X123016668Y-107875000D03*
X128266668Y-104875000D03*
X123016668Y-104875000D03*
%TD*%
D30*
%TO.C,C8*%
X118500000Y-91275000D03*
X118500000Y-89725000D03*
%TD*%
D11*
%TO.C,C1*%
X105500000Y-105825000D03*
X105500000Y-107375000D03*
%TD*%
D10*
%TO.C,R6*%
X159875000Y-99950000D03*
X161525000Y-99950000D03*
%TD*%
D31*
%TO.C,U2*%
X113200000Y-85600000D03*
X110900000Y-85600001D03*
D32*
X110900000Y-91899999D03*
D31*
X108600000Y-85600000D03*
%TD*%
D11*
%TO.C,C4*%
X121000000Y-105525000D03*
X121000000Y-107075000D03*
%TD*%
D29*
%TO.C,C2*%
X123125000Y-96150000D03*
X124675000Y-96150000D03*
%TD*%
D14*
%TO.C,R1*%
X114900000Y-107425000D03*
X114900000Y-105775000D03*
%TD*%
D30*
%TO.C,C5*%
X106300000Y-85075000D03*
X106300000Y-83525000D03*
%TD*%
D14*
%TO.C,R8*%
X146150000Y-107075000D03*
X146150000Y-105425000D03*
%TD*%
M02*
